%FSLAX33Y33*%
%MOMM*%
%ADD10C,0.0508*%
%ADD11C,1.0668*%
%ADD12R,4.X0.89*%
D10*
%LNpour fill*%
G01*
X22433Y24973D02*
X22433Y24973D01*
X0427Y24973*
X0427Y22264*
X2175Y22264*
X2340Y22332*
X2343Y22333*
X2538Y22358*
X2542Y22358*
X2737Y22333*
X2740Y22332*
X2905Y22264*
X4714Y22264*
X4729Y22249*
X4729Y20931*
X4714Y20916*
X2905Y20916*
X2740Y20848*
X2737Y20847*
X2542Y20822*
X2538Y20822*
X2343Y20847*
X2340Y20848*
X2175Y20916*
X0427Y20916*
X0427Y19724*
X2409Y19724*
X2424Y19709*
X2424Y18391*
X2409Y18376*
X0427Y18376*
X0427Y17184*
X2409Y17184*
X2424Y17169*
X2424Y15851*
X2409Y15836*
X0427Y15836*
X0427Y14644*
X2409Y14644*
X2424Y14629*
X2424Y13311*
X2409Y13296*
X0427Y13296*
X0427Y12104*
X2133Y12104*
X2154Y12120*
X2157Y12122*
X2340Y12197*
X2343Y12198*
X2538Y12224*
X2542Y12224*
X2737Y12198*
X2740Y12197*
X2923Y12122*
X2926Y12120*
X2947Y12104*
X4714Y12104*
X4729Y12089*
X4729Y10771*
X4714Y10756*
X2844Y10756*
X2740Y10714*
X2737Y10713*
X2542Y10687*
X2538Y10687*
X2343Y10713*
X2340Y10714*
X2236Y10756*
X0427Y10756*
X0427Y9564*
X2175Y9564*
X2340Y9632*
X2343Y9633*
X2538Y9658*
X2542Y9658*
X2737Y9633*
X2740Y9632*
X2905Y9564*
X4714Y9564*
X4729Y9549*
X4729Y8231*
X4714Y8216*
X2905Y8216*
X2740Y8148*
X2737Y8147*
X2542Y8122*
X2538Y8122*
X2343Y8147*
X2340Y8148*
X2175Y8216*
X0427Y8216*
X0427Y7024*
X4714Y7024*
X4729Y7009*
X4729Y5691*
X4714Y5676*
X0427Y5676*
X0427Y4484*
X4714Y4484*
X4729Y4469*
X4729Y3151*
X4714Y3136*
X0427Y3136*
X0427Y0427*
X22433Y0427*
X22433Y24973*
X4729Y19141D02*
X4729Y19141D01*
X4729Y19709*
X4714Y19724*
X2591Y19724*
X2576Y19709*
X2576Y19141*
X2591Y19126*
X4714Y19126*
X4729Y19141*
X4729Y18391D02*
X4729Y18391D01*
X4729Y18959*
X4714Y18974*
X2591Y18974*
X2576Y18959*
X2576Y18391*
X2591Y18376*
X4714Y18376*
X4729Y18391*
X4729Y16601D02*
X4729Y16601D01*
X4729Y17169*
X4714Y17184*
X2591Y17184*
X2576Y17169*
X2576Y16601*
X2591Y16586*
X4714Y16586*
X4729Y16601*
X4729Y15851D02*
X4729Y15851D01*
X4729Y16419*
X4714Y16434*
X2591Y16434*
X2576Y16419*
X2576Y15851*
X2591Y15836*
X4714Y15836*
X4729Y15851*
X4729Y14061D02*
X4729Y14061D01*
X4729Y14629*
X4714Y14644*
X2591Y14644*
X2576Y14629*
X2576Y14061*
X2591Y14046*
X4714Y14046*
X4729Y14061*
X4729Y13311D02*
X4729Y13311D01*
X4729Y13879*
X4714Y13894*
X2591Y13894*
X2576Y13879*
X2576Y13311*
X2591Y13296*
X4714Y13296*
X4729Y13311*
X0427Y0451D02*
X22433Y0451D01*
X0427Y0500D02*
X22433Y0500D01*
X0427Y0550D02*
X22433Y0550D01*
X0427Y0600D02*
X22433Y0600D01*
X0427Y0649D02*
X22433Y0649D01*
X0427Y0699D02*
X22433Y0699D01*
X0427Y0748D02*
X22433Y0748D01*
X0427Y0798D02*
X22433Y0798D01*
X0427Y0847D02*
X22433Y0847D01*
X0427Y0897D02*
X22433Y0897D01*
X0427Y0946D02*
X22433Y0946D01*
X0427Y0996D02*
X22433Y0996D01*
X0427Y1045D02*
X22433Y1045D01*
X0427Y1095D02*
X22433Y1095D01*
X0427Y1144D02*
X22433Y1144D01*
X0427Y1194D02*
X22433Y1194D01*
X0427Y1243D02*
X22433Y1243D01*
X0427Y1293D02*
X22433Y1293D01*
X0427Y1342D02*
X22433Y1342D01*
X0427Y1392D02*
X22433Y1392D01*
X0427Y1442D02*
X22433Y1442D01*
X0427Y1491D02*
X22433Y1491D01*
X0427Y1541D02*
X22433Y1541D01*
X0427Y1590D02*
X22433Y1590D01*
X0427Y1640D02*
X22433Y1640D01*
X0427Y1689D02*
X22433Y1689D01*
X0427Y1739D02*
X22433Y1739D01*
X0427Y1788D02*
X22433Y1788D01*
X0427Y1838D02*
X22433Y1838D01*
X0427Y1887D02*
X22433Y1887D01*
X0427Y1937D02*
X22433Y1937D01*
X0427Y1986D02*
X22433Y1986D01*
X0427Y2036D02*
X22433Y2036D01*
X0427Y2085D02*
X22433Y2085D01*
X0427Y2135D02*
X22433Y2135D01*
X0427Y2184D02*
X22433Y2184D01*
X0427Y2234D02*
X22433Y2234D01*
X0427Y2284D02*
X22433Y2284D01*
X0427Y2333D02*
X22433Y2333D01*
X0427Y2383D02*
X22433Y2383D01*
X0427Y2432D02*
X22433Y2432D01*
X0427Y2482D02*
X22433Y2482D01*
X0427Y2531D02*
X22433Y2531D01*
X0427Y2581D02*
X22433Y2581D01*
X0427Y2630D02*
X22433Y2630D01*
X0427Y2680D02*
X22433Y2680D01*
X0427Y2729D02*
X22433Y2729D01*
X0427Y2779D02*
X22433Y2779D01*
X0427Y2828D02*
X22433Y2828D01*
X0427Y2878D02*
X22433Y2878D01*
X0427Y2927D02*
X22433Y2927D01*
X0427Y2977D02*
X22433Y2977D01*
X0427Y3027D02*
X22433Y3027D01*
X0427Y3076D02*
X22433Y3076D01*
X0427Y3126D02*
X22433Y3126D01*
X4729Y3175D02*
X22433Y3175D01*
X4729Y3225D02*
X22433Y3225D01*
X4729Y3274D02*
X22433Y3274D01*
X4729Y3324D02*
X22433Y3324D01*
X4729Y3373D02*
X22433Y3373D01*
X4729Y3423D02*
X22433Y3423D01*
X4729Y3472D02*
X22433Y3472D01*
X4729Y3522D02*
X22433Y3522D01*
X4729Y3571D02*
X22433Y3571D01*
X4729Y3621D02*
X22433Y3621D01*
X4729Y3670D02*
X22433Y3670D01*
X4729Y3720D02*
X22433Y3720D01*
X4729Y3769D02*
X22433Y3769D01*
X4729Y3819D02*
X22433Y3819D01*
X4729Y3869D02*
X22433Y3869D01*
X4729Y3918D02*
X22433Y3918D01*
X4729Y3968D02*
X22433Y3968D01*
X4729Y4017D02*
X22433Y4017D01*
X4729Y4067D02*
X22433Y4067D01*
X4729Y4116D02*
X22433Y4116D01*
X4729Y4166D02*
X22433Y4166D01*
X4729Y4215D02*
X22433Y4215D01*
X4729Y4265D02*
X22433Y4265D01*
X4729Y4314D02*
X22433Y4314D01*
X4729Y4364D02*
X22433Y4364D01*
X4729Y4413D02*
X22433Y4413D01*
X4729Y4463D02*
X22433Y4463D01*
X0427Y4512D02*
X22433Y4512D01*
X0427Y4562D02*
X22433Y4562D01*
X0427Y4611D02*
X22433Y4611D01*
X0427Y4661D02*
X22433Y4661D01*
X0427Y4711D02*
X22433Y4711D01*
X0427Y4760D02*
X22433Y4760D01*
X0427Y4810D02*
X22433Y4810D01*
X0427Y4859D02*
X22433Y4859D01*
X0427Y4909D02*
X22433Y4909D01*
X0427Y4958D02*
X22433Y4958D01*
X0427Y5008D02*
X22433Y5008D01*
X0427Y5057D02*
X22433Y5057D01*
X0427Y5107D02*
X22433Y5107D01*
X0427Y5156D02*
X22433Y5156D01*
X0427Y5206D02*
X22433Y5206D01*
X0427Y5255D02*
X22433Y5255D01*
X0427Y5305D02*
X22433Y5305D01*
X0427Y5354D02*
X22433Y5354D01*
X0427Y5404D02*
X22433Y5404D01*
X0427Y5453D02*
X22433Y5453D01*
X0427Y5503D02*
X22433Y5503D01*
X0427Y5553D02*
X22433Y5553D01*
X0427Y5602D02*
X22433Y5602D01*
X0427Y5652D02*
X22433Y5652D01*
X4729Y5701D02*
X22433Y5701D01*
X4729Y5751D02*
X22433Y5751D01*
X4729Y5800D02*
X22433Y5800D01*
X4729Y5850D02*
X22433Y5850D01*
X4729Y5899D02*
X22433Y5899D01*
X4729Y5949D02*
X22433Y5949D01*
X4729Y5998D02*
X22433Y5998D01*
X4729Y6048D02*
X22433Y6048D01*
X4729Y6097D02*
X22433Y6097D01*
X4729Y6147D02*
X22433Y6147D01*
X4729Y6196D02*
X22433Y6196D01*
X4729Y6246D02*
X22433Y6246D01*
X4729Y6295D02*
X22433Y6295D01*
X4729Y6345D02*
X22433Y6345D01*
X4729Y6395D02*
X22433Y6395D01*
X4729Y6444D02*
X22433Y6444D01*
X4729Y6494D02*
X22433Y6494D01*
X4729Y6543D02*
X22433Y6543D01*
X4729Y6593D02*
X22433Y6593D01*
X4729Y6642D02*
X22433Y6642D01*
X4729Y6692D02*
X22433Y6692D01*
X4729Y6741D02*
X22433Y6741D01*
X4729Y6791D02*
X22433Y6791D01*
X4729Y6840D02*
X22433Y6840D01*
X4729Y6890D02*
X22433Y6890D01*
X4729Y6939D02*
X22433Y6939D01*
X4729Y6989D02*
X22433Y6989D01*
X0427Y7038D02*
X22433Y7038D01*
X0427Y7088D02*
X22433Y7088D01*
X0427Y7137D02*
X22433Y7137D01*
X0427Y7187D02*
X22433Y7187D01*
X0427Y7237D02*
X22433Y7237D01*
X0427Y7286D02*
X22433Y7286D01*
X0427Y7336D02*
X22433Y7336D01*
X0427Y7385D02*
X22433Y7385D01*
X0427Y7435D02*
X22433Y7435D01*
X0427Y7484D02*
X22433Y7484D01*
X0427Y7534D02*
X22433Y7534D01*
X0427Y7583D02*
X22433Y7583D01*
X0427Y7633D02*
X22433Y7633D01*
X0427Y7682D02*
X22433Y7682D01*
X0427Y7732D02*
X22433Y7732D01*
X0427Y7781D02*
X22433Y7781D01*
X0427Y7831D02*
X22433Y7831D01*
X0427Y7880D02*
X22433Y7880D01*
X0427Y7930D02*
X22433Y7930D01*
X0427Y7980D02*
X22433Y7980D01*
X0427Y8029D02*
X22433Y8029D01*
X0427Y8079D02*
X22433Y8079D01*
X0427Y8128D02*
X2489Y8128D01*
X2591Y8128D02*
X22433Y8128D01*
X0427Y8178D02*
X2269Y8178D01*
X2811Y8178D02*
X22433Y8178D01*
X4724Y8227D02*
X22433Y8227D01*
X4729Y8277D02*
X22433Y8277D01*
X4729Y8326D02*
X22433Y8326D01*
X4729Y8376D02*
X22433Y8376D01*
X4729Y8425D02*
X22433Y8425D01*
X4729Y8475D02*
X22433Y8475D01*
X4729Y8524D02*
X22433Y8524D01*
X4729Y8574D02*
X22433Y8574D01*
X4729Y8623D02*
X22433Y8623D01*
X4729Y8673D02*
X22433Y8673D01*
X4729Y8722D02*
X22433Y8722D01*
X4729Y8772D02*
X22433Y8772D01*
X4729Y8822D02*
X22433Y8822D01*
X4729Y8871D02*
X22433Y8871D01*
X4729Y8921D02*
X22433Y8921D01*
X4729Y8970D02*
X22433Y8970D01*
X4729Y9020D02*
X22433Y9020D01*
X4729Y9069D02*
X22433Y9069D01*
X4729Y9119D02*
X22433Y9119D01*
X4729Y9168D02*
X22433Y9168D01*
X4729Y9218D02*
X22433Y9218D01*
X4729Y9267D02*
X22433Y9267D01*
X4729Y9317D02*
X22433Y9317D01*
X4729Y9366D02*
X22433Y9366D01*
X4729Y9416D02*
X22433Y9416D01*
X4729Y9465D02*
X22433Y9465D01*
X4729Y9515D02*
X22433Y9515D01*
X0427Y9564D02*
X2177Y9564D01*
X2903Y9564D02*
X22433Y9564D01*
X0427Y9614D02*
X2297Y9614D01*
X2783Y9614D02*
X22433Y9614D01*
X0427Y9664D02*
X22433Y9664D01*
X0427Y9713D02*
X22433Y9713D01*
X0427Y9763D02*
X22433Y9763D01*
X0427Y9812D02*
X22433Y9812D01*
X0427Y9862D02*
X22433Y9862D01*
X0427Y9911D02*
X22433Y9911D01*
X0427Y9961D02*
X22433Y9961D01*
X0427Y10010D02*
X22433Y10010D01*
X0427Y10060D02*
X22433Y10060D01*
X0427Y10109D02*
X22433Y10109D01*
X0427Y10159D02*
X22433Y10159D01*
X0427Y10208D02*
X22433Y10208D01*
X0427Y10258D02*
X22433Y10258D01*
X0427Y10307D02*
X22433Y10307D01*
X0427Y10357D02*
X22433Y10357D01*
X0427Y10406D02*
X22433Y10406D01*
X0427Y10456D02*
X22433Y10456D01*
X0427Y10506D02*
X22433Y10506D01*
X0427Y10555D02*
X22433Y10555D01*
X0427Y10605D02*
X22433Y10605D01*
X0427Y10654D02*
X22433Y10654D01*
X0427Y10704D02*
X2412Y10704D01*
X2668Y10704D02*
X22433Y10704D01*
X0427Y10753D02*
X2244Y10753D01*
X2836Y10753D02*
X22433Y10753D01*
X4729Y10803D02*
X22433Y10803D01*
X4729Y10852D02*
X22433Y10852D01*
X4729Y10902D02*
X22433Y10902D01*
X4729Y10951D02*
X22433Y10951D01*
X4729Y11001D02*
X22433Y11001D01*
X4729Y11050D02*
X22433Y11050D01*
X4729Y11100D02*
X22433Y11100D01*
X4729Y11149D02*
X22433Y11149D01*
X4729Y11199D02*
X22433Y11199D01*
X4729Y11248D02*
X22433Y11248D01*
X4729Y11298D02*
X22433Y11298D01*
X4729Y11348D02*
X22433Y11348D01*
X4729Y11397D02*
X22433Y11397D01*
X4729Y11447D02*
X22433Y11447D01*
X4729Y11496D02*
X22433Y11496D01*
X4729Y11546D02*
X22433Y11546D01*
X4729Y11595D02*
X22433Y11595D01*
X4729Y11645D02*
X22433Y11645D01*
X4729Y11694D02*
X22433Y11694D01*
X4729Y11744D02*
X22433Y11744D01*
X4729Y11793D02*
X22433Y11793D01*
X4729Y11843D02*
X22433Y11843D01*
X4729Y11892D02*
X22433Y11892D01*
X4729Y11942D02*
X22433Y11942D01*
X4729Y11991D02*
X22433Y11991D01*
X4729Y12041D02*
X22433Y12041D01*
X4727Y12090D02*
X22433Y12090D01*
X0427Y12140D02*
X2202Y12140D01*
X2878Y12140D02*
X22433Y12140D01*
X0427Y12190D02*
X2321Y12190D01*
X2759Y12190D02*
X22433Y12190D01*
X0427Y12239D02*
X22433Y12239D01*
X0427Y12289D02*
X22433Y12289D01*
X0427Y12338D02*
X22433Y12338D01*
X0427Y12388D02*
X22433Y12388D01*
X0427Y12437D02*
X22433Y12437D01*
X0427Y12487D02*
X22433Y12487D01*
X0427Y12536D02*
X22433Y12536D01*
X0427Y12586D02*
X22433Y12586D01*
X0427Y12635D02*
X22433Y12635D01*
X0427Y12685D02*
X22433Y12685D01*
X0427Y12734D02*
X22433Y12734D01*
X0427Y12784D02*
X22433Y12784D01*
X0427Y12833D02*
X22433Y12833D01*
X0427Y12883D02*
X22433Y12883D01*
X0427Y12933D02*
X22433Y12933D01*
X0427Y12982D02*
X22433Y12982D01*
X0427Y13032D02*
X22433Y13032D01*
X0427Y13081D02*
X22433Y13081D01*
X0427Y13131D02*
X22433Y13131D01*
X0427Y13180D02*
X22433Y13180D01*
X0427Y13230D02*
X22433Y13230D01*
X0427Y13279D02*
X22433Y13279D01*
X2424Y13329D02*
X2576Y13329D01*
X4729Y13329D02*
X22433Y13329D01*
X2424Y13378D02*
X2576Y13378D01*
X4729Y13378D02*
X22433Y13378D01*
X2424Y13428D02*
X2576Y13428D01*
X4729Y13428D02*
X22433Y13428D01*
X2424Y13477D02*
X2576Y13477D01*
X4729Y13477D02*
X22433Y13477D01*
X2424Y13527D02*
X2576Y13527D01*
X4729Y13527D02*
X22433Y13527D01*
X2424Y13576D02*
X2576Y13576D01*
X4729Y13576D02*
X22433Y13576D01*
X2424Y13626D02*
X2576Y13626D01*
X4729Y13626D02*
X22433Y13626D01*
X2424Y13675D02*
X2576Y13675D01*
X4729Y13675D02*
X22433Y13675D01*
X2424Y13725D02*
X2576Y13725D01*
X4729Y13725D02*
X22433Y13725D01*
X2424Y13775D02*
X2576Y13775D01*
X4729Y13775D02*
X22433Y13775D01*
X2424Y13824D02*
X2576Y13824D01*
X4729Y13824D02*
X22433Y13824D01*
X2424Y13874D02*
X2576Y13874D01*
X4729Y13874D02*
X22433Y13874D01*
X2424Y13923D02*
X22433Y13923D01*
X2424Y13973D02*
X22433Y13973D01*
X2424Y14022D02*
X22433Y14022D01*
X2424Y14072D02*
X2576Y14072D01*
X4729Y14072D02*
X22433Y14072D01*
X2424Y14121D02*
X2576Y14121D01*
X4729Y14121D02*
X22433Y14121D01*
X2424Y14171D02*
X2576Y14171D01*
X4729Y14171D02*
X22433Y14171D01*
X2424Y14220D02*
X2576Y14220D01*
X4729Y14220D02*
X22433Y14220D01*
X2424Y14270D02*
X2576Y14270D01*
X4729Y14270D02*
X22433Y14270D01*
X2424Y14319D02*
X2576Y14319D01*
X4729Y14319D02*
X22433Y14319D01*
X2424Y14369D02*
X2576Y14369D01*
X4729Y14369D02*
X22433Y14369D01*
X2424Y14418D02*
X2576Y14418D01*
X4729Y14418D02*
X22433Y14418D01*
X2424Y14468D02*
X2576Y14468D01*
X4729Y14468D02*
X22433Y14468D01*
X2424Y14517D02*
X2576Y14517D01*
X4729Y14517D02*
X22433Y14517D01*
X2424Y14567D02*
X2576Y14567D01*
X4729Y14567D02*
X22433Y14567D01*
X2424Y14617D02*
X2576Y14617D01*
X4729Y14617D02*
X22433Y14617D01*
X0427Y14666D02*
X22433Y14666D01*
X0427Y14716D02*
X22433Y14716D01*
X0427Y14765D02*
X22433Y14765D01*
X0427Y14815D02*
X22433Y14815D01*
X0427Y14864D02*
X22433Y14864D01*
X0427Y14914D02*
X22433Y14914D01*
X0427Y14963D02*
X22433Y14963D01*
X0427Y15013D02*
X22433Y15013D01*
X0427Y15062D02*
X22433Y15062D01*
X0427Y15112D02*
X22433Y15112D01*
X0427Y15161D02*
X22433Y15161D01*
X0427Y15211D02*
X22433Y15211D01*
X0427Y15260D02*
X22433Y15260D01*
X0427Y15310D02*
X22433Y15310D01*
X0427Y15359D02*
X22433Y15359D01*
X0427Y15409D02*
X22433Y15409D01*
X0427Y15459D02*
X22433Y15459D01*
X0427Y15508D02*
X22433Y15508D01*
X0427Y15558D02*
X22433Y15558D01*
X0427Y15607D02*
X22433Y15607D01*
X0427Y15657D02*
X22433Y15657D01*
X0427Y15706D02*
X22433Y15706D01*
X0427Y15756D02*
X22433Y15756D01*
X0427Y15805D02*
X22433Y15805D01*
X2424Y15855D02*
X2576Y15855D01*
X4729Y15855D02*
X22433Y15855D01*
X2424Y15904D02*
X2576Y15904D01*
X4729Y15904D02*
X22433Y15904D01*
X2424Y15954D02*
X2576Y15954D01*
X4729Y15954D02*
X22433Y15954D01*
X2424Y16003D02*
X2576Y16003D01*
X4729Y16003D02*
X22433Y16003D01*
X2424Y16053D02*
X2576Y16053D01*
X4729Y16053D02*
X22433Y16053D01*
X2424Y16102D02*
X2576Y16102D01*
X4729Y16102D02*
X22433Y16102D01*
X2424Y16152D02*
X2576Y16152D01*
X4729Y16152D02*
X22433Y16152D01*
X2424Y16201D02*
X2576Y16201D01*
X4729Y16201D02*
X22433Y16201D01*
X2424Y16251D02*
X2576Y16251D01*
X4729Y16251D02*
X22433Y16251D01*
X2424Y16301D02*
X2576Y16301D01*
X4729Y16301D02*
X22433Y16301D01*
X2424Y16350D02*
X2576Y16350D01*
X4729Y16350D02*
X22433Y16350D01*
X2424Y16400D02*
X2576Y16400D01*
X4729Y16400D02*
X22433Y16400D01*
X2424Y16449D02*
X22433Y16449D01*
X2424Y16499D02*
X22433Y16499D01*
X2424Y16548D02*
X22433Y16548D01*
X2424Y16598D02*
X2580Y16598D01*
X4725Y16598D02*
X22433Y16598D01*
X2424Y16647D02*
X2576Y16647D01*
X4729Y16647D02*
X22433Y16647D01*
X2424Y16697D02*
X2576Y16697D01*
X4729Y16697D02*
X22433Y16697D01*
X2424Y16746D02*
X2576Y16746D01*
X4729Y16746D02*
X22433Y16746D01*
X2424Y16796D02*
X2576Y16796D01*
X4729Y16796D02*
X22433Y16796D01*
X2424Y16845D02*
X2576Y16845D01*
X4729Y16845D02*
X22433Y16845D01*
X2424Y16895D02*
X2576Y16895D01*
X4729Y16895D02*
X22433Y16895D01*
X2424Y16944D02*
X2576Y16944D01*
X4729Y16944D02*
X22433Y16944D01*
X2424Y16994D02*
X2576Y16994D01*
X4729Y16994D02*
X22433Y16994D01*
X2424Y17043D02*
X2576Y17043D01*
X4729Y17043D02*
X22433Y17043D01*
X2424Y17093D02*
X2576Y17093D01*
X4729Y17093D02*
X22433Y17093D01*
X2424Y17143D02*
X2576Y17143D01*
X4729Y17143D02*
X22433Y17143D01*
X0427Y17192D02*
X22433Y17192D01*
X0427Y17242D02*
X22433Y17242D01*
X0427Y17291D02*
X22433Y17291D01*
X0427Y17341D02*
X22433Y17341D01*
X0427Y17390D02*
X22433Y17390D01*
X0427Y17440D02*
X22433Y17440D01*
X0427Y17489D02*
X22433Y17489D01*
X0427Y17539D02*
X22433Y17539D01*
X0427Y17588D02*
X22433Y17588D01*
X0427Y17638D02*
X22433Y17638D01*
X0427Y17687D02*
X22433Y17687D01*
X0427Y17737D02*
X22433Y17737D01*
X0427Y17786D02*
X22433Y17786D01*
X0427Y17836D02*
X22433Y17836D01*
X0427Y17886D02*
X22433Y17886D01*
X0427Y17935D02*
X22433Y17935D01*
X0427Y17985D02*
X22433Y17985D01*
X0427Y18034D02*
X22433Y18034D01*
X0427Y18084D02*
X22433Y18084D01*
X0427Y18133D02*
X22433Y18133D01*
X0427Y18183D02*
X22433Y18183D01*
X0427Y18232D02*
X22433Y18232D01*
X0427Y18282D02*
X22433Y18282D01*
X0427Y18331D02*
X22433Y18331D01*
X2413Y18381D02*
X2587Y18381D01*
X4718Y18381D02*
X22433Y18381D01*
X2424Y18430D02*
X2576Y18430D01*
X4729Y18430D02*
X22433Y18430D01*
X2424Y18480D02*
X2576Y18480D01*
X4729Y18480D02*
X22433Y18480D01*
X2424Y18529D02*
X2576Y18529D01*
X4729Y18529D02*
X22433Y18529D01*
X2424Y18579D02*
X2576Y18579D01*
X4729Y18579D02*
X22433Y18579D01*
X2424Y18628D02*
X2576Y18628D01*
X4729Y18628D02*
X22433Y18628D01*
X2424Y18678D02*
X2576Y18678D01*
X4729Y18678D02*
X22433Y18678D01*
X2424Y18728D02*
X2576Y18728D01*
X4729Y18728D02*
X22433Y18728D01*
X2424Y18777D02*
X2576Y18777D01*
X4729Y18777D02*
X22433Y18777D01*
X2424Y18827D02*
X2576Y18827D01*
X4729Y18827D02*
X22433Y18827D01*
X2424Y18876D02*
X2576Y18876D01*
X4729Y18876D02*
X22433Y18876D01*
X2424Y18926D02*
X2576Y18926D01*
X4729Y18926D02*
X22433Y18926D01*
X2424Y18975D02*
X22433Y18975D01*
X2424Y19025D02*
X22433Y19025D01*
X2424Y19074D02*
X22433Y19074D01*
X2424Y19124D02*
X22433Y19124D01*
X2424Y19173D02*
X2576Y19173D01*
X4729Y19173D02*
X22433Y19173D01*
X2424Y19223D02*
X2576Y19223D01*
X4729Y19223D02*
X22433Y19223D01*
X2424Y19272D02*
X2576Y19272D01*
X4729Y19272D02*
X22433Y19272D01*
X2424Y19322D02*
X2576Y19322D01*
X4729Y19322D02*
X22433Y19322D01*
X2424Y19371D02*
X2576Y19371D01*
X4729Y19371D02*
X22433Y19371D01*
X2424Y19421D02*
X2576Y19421D01*
X4729Y19421D02*
X22433Y19421D01*
X2424Y19470D02*
X2576Y19470D01*
X4729Y19470D02*
X22433Y19470D01*
X2424Y19520D02*
X2576Y19520D01*
X4729Y19520D02*
X22433Y19520D01*
X2424Y19570D02*
X2576Y19570D01*
X4729Y19570D02*
X22433Y19570D01*
X2424Y19619D02*
X2576Y19619D01*
X4729Y19619D02*
X22433Y19619D01*
X2424Y19669D02*
X2576Y19669D01*
X4729Y19669D02*
X22433Y19669D01*
X2414Y19718D02*
X2586Y19718D01*
X4719Y19718D02*
X22433Y19718D01*
X0427Y19768D02*
X22433Y19768D01*
X0427Y19817D02*
X22433Y19817D01*
X0427Y19867D02*
X22433Y19867D01*
X0427Y19916D02*
X22433Y19916D01*
X0427Y19966D02*
X22433Y19966D01*
X0427Y20015D02*
X22433Y20015D01*
X0427Y20065D02*
X22433Y20065D01*
X0427Y20114D02*
X22433Y20114D01*
X0427Y20164D02*
X22433Y20164D01*
X0427Y20213D02*
X22433Y20213D01*
X0427Y20263D02*
X22433Y20263D01*
X0427Y20312D02*
X22433Y20312D01*
X0427Y20362D02*
X22433Y20362D01*
X0427Y20412D02*
X22433Y20412D01*
X0427Y20461D02*
X22433Y20461D01*
X0427Y20511D02*
X22433Y20511D01*
X0427Y20560D02*
X22433Y20560D01*
X0427Y20610D02*
X22433Y20610D01*
X0427Y20659D02*
X22433Y20659D01*
X0427Y20709D02*
X22433Y20709D01*
X0427Y20758D02*
X22433Y20758D01*
X0427Y20808D02*
X22433Y20808D01*
X0427Y20857D02*
X2318Y20857D01*
X2762Y20857D02*
X22433Y20857D01*
X0427Y20907D02*
X2198Y20907D01*
X2882Y20907D02*
X22433Y20907D01*
X4729Y20956D02*
X22433Y20956D01*
X4729Y21006D02*
X22433Y21006D01*
X4729Y21055D02*
X22433Y21055D01*
X4729Y21105D02*
X22433Y21105D01*
X4729Y21154D02*
X22433Y21154D01*
X4729Y21204D02*
X22433Y21204D01*
X4729Y21254D02*
X22433Y21254D01*
X4729Y21303D02*
X22433Y21303D01*
X4729Y21353D02*
X22433Y21353D01*
X4729Y21402D02*
X22433Y21402D01*
X4729Y21452D02*
X22433Y21452D01*
X4729Y21501D02*
X22433Y21501D01*
X4729Y21551D02*
X22433Y21551D01*
X4729Y21600D02*
X22433Y21600D01*
X4729Y21650D02*
X22433Y21650D01*
X4729Y21699D02*
X22433Y21699D01*
X4729Y21749D02*
X22433Y21749D01*
X4729Y21798D02*
X22433Y21798D01*
X4729Y21848D02*
X22433Y21848D01*
X4729Y21897D02*
X22433Y21897D01*
X4729Y21947D02*
X22433Y21947D01*
X4729Y21996D02*
X22433Y21996D01*
X4729Y22046D02*
X22433Y22046D01*
X4729Y22096D02*
X22433Y22096D01*
X4729Y22145D02*
X22433Y22145D01*
X4729Y22195D02*
X22433Y22195D01*
X4729Y22244D02*
X22433Y22244D01*
X0427Y22294D02*
X2248Y22294D01*
X2832Y22294D02*
X22433Y22294D01*
X0427Y22343D02*
X2423Y22343D01*
X2657Y22343D02*
X22433Y22343D01*
X0427Y22393D02*
X22433Y22393D01*
X0427Y22442D02*
X22433Y22442D01*
X0427Y22492D02*
X22433Y22492D01*
X0427Y22541D02*
X22433Y22541D01*
X0427Y22591D02*
X22433Y22591D01*
X0427Y22640D02*
X22433Y22640D01*
X0427Y22690D02*
X22433Y22690D01*
X0427Y22739D02*
X22433Y22739D01*
X0427Y22789D02*
X22433Y22789D01*
X0427Y22839D02*
X22433Y22839D01*
X0427Y22888D02*
X22433Y22888D01*
X0427Y22938D02*
X22433Y22938D01*
X0427Y22987D02*
X22433Y22987D01*
X0427Y23037D02*
X22433Y23037D01*
X0427Y23086D02*
X22433Y23086D01*
X0427Y23136D02*
X22433Y23136D01*
X0427Y23185D02*
X22433Y23185D01*
X0427Y23235D02*
X22433Y23235D01*
X0427Y23284D02*
X22433Y23284D01*
X0427Y23334D02*
X22433Y23334D01*
X0427Y23383D02*
X22433Y23383D01*
X0427Y23433D02*
X22433Y23433D01*
X0427Y23482D02*
X22433Y23482D01*
X0427Y23532D02*
X22433Y23532D01*
X0427Y23581D02*
X22433Y23581D01*
X0427Y23631D02*
X22433Y23631D01*
X0427Y23681D02*
X22433Y23681D01*
X0427Y23730D02*
X22433Y23730D01*
X0427Y23780D02*
X22433Y23780D01*
X0427Y23829D02*
X22433Y23829D01*
X0427Y23879D02*
X22433Y23879D01*
X0427Y23928D02*
X22433Y23928D01*
X0427Y23978D02*
X22433Y23978D01*
X0427Y24027D02*
X22433Y24027D01*
X0427Y24077D02*
X22433Y24077D01*
X0427Y24126D02*
X22433Y24126D01*
X0427Y24176D02*
X22433Y24176D01*
X0427Y24225D02*
X22433Y24225D01*
X0427Y24275D02*
X22433Y24275D01*
X0427Y24324D02*
X22433Y24324D01*
X0427Y24374D02*
X22433Y24374D01*
X0427Y24423D02*
X22433Y24423D01*
X0427Y24473D02*
X22433Y24473D01*
X0427Y24523D02*
X22433Y24523D01*
X0427Y24572D02*
X22433Y24572D01*
X0427Y24622D02*
X22433Y24622D01*
X0427Y24671D02*
X22433Y24671D01*
X0427Y24721D02*
X22433Y24721D01*
X0427Y24770D02*
X22433Y24770D01*
X0427Y24820D02*
X22433Y24820D01*
X0427Y24869D02*
X22433Y24869D01*
X0427Y24919D02*
X22433Y24919D01*
X0427Y24968D02*
X22433Y24968D01*
%LNbottom copper_traces*%
D11*
X21590Y6350D03*
X8890Y1270D03*
X2540Y11455D03*
X21590Y8890D03*
X16510Y1270D03*
X16510Y24130D03*
X13970Y1270D03*
X21590Y21590D03*
X11430Y1270D03*
X1270Y1270D03*
X13970Y24130D03*
X21590Y24130D03*
X19050Y1270D03*
X21590Y1270D03*
X21590Y16510D03*
X6350Y24130D03*
X21590Y13970D03*
X19050Y24130D03*
X3810Y1270D03*
X6350Y1270D03*
X21590Y19050D03*
X2540Y21590D03*
X1270Y24130D03*
X3810Y24130D03*
X8890Y24130D03*
X2540Y8890D03*
X21590Y11430D03*
X11430Y24130D03*
X21590Y3810D03*
%LNbottom copper component fd34238b57d531db*%
D12*
X2500Y21590D03*
X2500Y19050D03*
X2500Y16510D03*
X2500Y13970D03*
X2500Y11430D03*
X2500Y8890D03*
X2500Y6350D03*
X2500Y3810D03*
M02*