%FSLAX33Y33*%
%MOMM*%
%LNbottom silkscreen_traces*%
%LNbottom silkscreen component fd34238b57d531db*%
G36*
G01*
X6939Y21424D02*
X6939Y21514D01*
X6665Y21514D01*
X6665Y21424D01*
X6939Y21424D01*
X6939Y21424D01*
X6254Y21206D02*
X6344Y21206D01*
X6344Y21775D01*
X6361Y21760D01*
X6381Y21744D01*
X6403Y21729D01*
X6428Y21714D01*
X6454Y21699D01*
X6478Y21687D01*
X6501Y21676D01*
X6522Y21667D01*
X6522Y21754D01*
X6486Y21772D01*
X6452Y21793D01*
X6420Y21815D01*
X6391Y21839D01*
X6365Y21864D01*
X6343Y21888D01*
X6326Y21912D01*
X6312Y21936D01*
X6254Y21936D01*
X6254Y21206D01*
X6254Y21206D01*
X5556Y21292D02*
X5556Y21206D01*
X6037Y21206D01*
X6037Y21222D01*
X6035Y21238D01*
X6031Y21253D01*
X6027Y21268D01*
X6016Y21292D01*
X6003Y21317D01*
X5987Y21341D01*
X5968Y21365D01*
X5945Y21389D01*
X5918Y21416D01*
X5887Y21445D01*
X5851Y21475D01*
X5796Y21521D01*
X5752Y21562D01*
X5716Y21598D01*
X5691Y21629D01*
X5672Y21657D01*
X5659Y21684D01*
X5652Y21711D01*
X5649Y21736D01*
X5651Y21762D01*
X5659Y21785D01*
X5670Y21807D01*
X5687Y21826D01*
X5707Y21842D01*
X5731Y21853D01*
X5757Y21860D01*
X5786Y21862D01*
X5817Y21860D01*
X5844Y21853D01*
X5868Y21841D01*
X5889Y21824D01*
X5906Y21802D01*
X5918Y21777D01*
X5926Y21749D01*
X5928Y21716D01*
X6020Y21726D01*
X6012Y21774D01*
X5998Y21816D01*
X5977Y21852D01*
X5949Y21882D01*
X5916Y21906D01*
X5877Y21923D01*
X5833Y21933D01*
X5784Y21936D01*
X5734Y21933D01*
X5690Y21922D01*
X5652Y21904D01*
X5618Y21878D01*
X5592Y21847D01*
X5573Y21813D01*
X5561Y21776D01*
X5557Y21734D01*
X5558Y21713D01*
X5562Y21691D01*
X5567Y21670D01*
X5575Y21649D01*
X5586Y21627D01*
X5599Y21605D01*
X5615Y21583D01*
X5634Y21560D01*
X5659Y21534D01*
X5690Y21504D01*
X5727Y21470D01*
X5772Y21432D01*
X5809Y21401D01*
X5838Y21375D01*
X5860Y21355D01*
X5875Y21340D01*
X5886Y21328D01*
X5896Y21316D01*
X5905Y21304D01*
X5913Y21292D01*
X5556Y21292D01*
X5556Y21292D01*
X5216Y21206D02*
X5498Y21933D01*
X5394Y21933D01*
X5205Y21405D01*
X5194Y21374D01*
X5184Y21343D01*
X5175Y21314D01*
X5167Y21286D01*
X5158Y21316D01*
X5149Y21345D01*
X5138Y21375D01*
X5128Y21405D01*
X4931Y21933D01*
X4833Y21933D01*
X5118Y21206D01*
X5216Y21206D01*
X5216Y21206D01*
X6609Y3711D02*
X6609Y3797D01*
X6301Y3797D01*
X6301Y3527D01*
X6337Y3501D01*
X6373Y3478D01*
X6410Y3458D01*
X6447Y3442D01*
X6485Y3430D01*
X6524Y3421D01*
X6563Y3415D01*
X6602Y3414D01*
X6654Y3416D01*
X6704Y3425D01*
X6752Y3439D01*
X6797Y3459D01*
X6838Y3485D01*
X6874Y3516D01*
X6904Y3551D01*
X6929Y3592D01*
X6948Y3637D01*
X6962Y3684D01*
X6971Y3734D01*
X6974Y3786D01*
X6971Y3838D01*
X6963Y3889D01*
X6949Y3937D01*
X6929Y3984D01*
X6905Y4027D01*
X6875Y4065D01*
X6841Y4096D01*
X6801Y4121D01*
X6758Y4141D01*
X6712Y4155D01*
X6662Y4163D01*
X6609Y4166D01*
X6571Y4164D01*
X6534Y4159D01*
X6500Y4151D01*
X6467Y4140D01*
X6437Y4126D01*
X6410Y4110D01*
X6387Y4091D01*
X6367Y4069D01*
X6350Y4044D01*
X6335Y4016D01*
X6322Y3985D01*
X6312Y3950D01*
X6399Y3926D01*
X6407Y3952D01*
X6417Y3976D01*
X6428Y3996D01*
X6439Y4013D01*
X6453Y4028D01*
X6469Y4042D01*
X6488Y4054D01*
X6509Y4064D01*
X6532Y4073D01*
X6556Y4079D01*
X6582Y4082D01*
X6609Y4083D01*
X6641Y4082D01*
X6670Y4078D01*
X6698Y4072D01*
X6723Y4063D01*
X6746Y4052D01*
X6767Y4040D01*
X6785Y4026D01*
X6801Y4010D01*
X6815Y3994D01*
X6827Y3976D01*
X6838Y3958D01*
X6847Y3938D01*
X6859Y3904D01*
X6867Y3868D01*
X6873Y3831D01*
X6874Y3792D01*
X6872Y3745D01*
X6866Y3703D01*
X6856Y3664D01*
X6841Y3629D01*
X6822Y3599D01*
X6800Y3572D01*
X6774Y3550D01*
X6743Y3532D01*
X6711Y3518D01*
X6677Y3508D01*
X6643Y3502D01*
X6607Y3500D01*
X6576Y3502D01*
X6546Y3506D01*
X6515Y3514D01*
X6485Y3524D01*
X6457Y3537D01*
X6433Y3549D01*
X6412Y3562D01*
X6395Y3576D01*
X6395Y3711D01*
X6609Y3711D01*
X6609Y3711D01*
X5827Y3491D02*
X5851Y3471D01*
X5855Y3469D01*
X5889Y3519D01*
X5873Y3533D01*
X5859Y3550D01*
X5848Y3568D01*
X5842Y3585D01*
X5838Y3606D01*
X5835Y3630D01*
X5834Y3658D01*
X5834Y3690D01*
X5834Y3690D01*
X5861Y3681D01*
X5895Y3672D01*
X5934Y3664D01*
X5980Y3657D01*
X6005Y3653D01*
X6027Y3648D01*
X6044Y3644D01*
X6058Y3639D01*
X6069Y3633D01*
X6078Y3627D01*
X6086Y3619D01*
X6093Y3610D01*
X6098Y3600D01*
X6102Y3590D01*
X6105Y3579D01*
X6105Y3567D01*
X6104Y3550D01*
X6099Y3535D01*
X6090Y3521D01*
X6078Y3508D01*
X6063Y3497D01*
X6045Y3490D01*
X6024Y3486D01*
X5999Y3484D01*
X5974Y3485D01*
X5951Y3490D01*
X5928Y3497D01*
X5907Y3507D01*
X5889Y3519D01*
X5855Y3469D01*
X5875Y3455D01*
X5899Y3442D01*
X5922Y3431D01*
X5945Y3424D01*
X5970Y3418D01*
X5995Y3415D01*
X6021Y3414D01*
X6061Y3417D01*
X6097Y3425D01*
X6128Y3438D01*
X6154Y3457D01*
X6174Y3479D01*
X6189Y3505D01*
X6198Y3533D01*
X6201Y3565D01*
X6200Y3584D01*
X6196Y3602D01*
X6191Y3619D01*
X6183Y3636D01*
X6174Y3651D01*
X6163Y3664D01*
X6151Y3676D01*
X6137Y3687D01*
X6122Y3696D01*
X6107Y3704D01*
X6090Y3711D01*
X6073Y3716D01*
X6058Y3720D01*
X6040Y3723D01*
X6018Y3726D01*
X5993Y3730D01*
X5943Y3736D01*
X5899Y3744D01*
X5863Y3752D01*
X5834Y3760D01*
X5834Y3769D01*
X5834Y3775D01*
X5834Y3780D01*
X5834Y3784D01*
X5835Y3809D01*
X5840Y3830D01*
X5848Y3847D01*
X5859Y3861D01*
X5878Y3874D01*
X5901Y3883D01*
X5929Y3889D01*
X5961Y3891D01*
X5990Y3889D01*
X6015Y3885D01*
X6037Y3878D01*
X6054Y3869D01*
X6068Y3856D01*
X6080Y3838D01*
X6090Y3817D01*
X6098Y3791D01*
X6185Y3803D01*
X6178Y3829D01*
X6170Y3853D01*
X6159Y3874D01*
X6146Y3893D01*
X6131Y3909D01*
X6113Y3924D01*
X6092Y3936D01*
X6067Y3946D01*
X6040Y3954D01*
X6012Y3960D01*
X5981Y3964D01*
X5948Y3965D01*
X5916Y3964D01*
X5887Y3961D01*
X5861Y3956D01*
X5838Y3949D01*
X5818Y3940D01*
X5801Y3931D01*
X5787Y3920D01*
X5776Y3909D01*
X5767Y3896D01*
X5759Y3882D01*
X5753Y3866D01*
X5748Y3848D01*
X5746Y3834D01*
X5745Y3816D01*
X5744Y3793D01*
X5744Y3766D01*
X5744Y3647D01*
X5743Y3590D01*
X5742Y3545D01*
X5741Y3511D01*
X5738Y3489D01*
X5735Y3473D01*
X5730Y3457D01*
X5723Y3441D01*
X5715Y3426D01*
X5809Y3426D01*
X5815Y3440D01*
X5820Y3456D01*
X5824Y3473D01*
X5827Y3491D01*
X5827Y3491D01*
X5410Y3506D02*
X5397Y3427D01*
X5416Y3424D01*
X5433Y3421D01*
X5450Y3420D01*
X5465Y3419D01*
X5488Y3420D01*
X5508Y3423D01*
X5526Y3428D01*
X5540Y3434D01*
X5553Y3443D01*
X5563Y3452D01*
X5572Y3463D01*
X5578Y3475D01*
X5583Y3491D01*
X5586Y3514D01*
X5588Y3544D01*
X5589Y3580D01*
X5589Y3883D01*
X5654Y3883D01*
X5654Y3953D01*
X5589Y3953D01*
X5589Y4083D01*
X5500Y4137D01*
X5500Y3953D01*
X5410Y3953D01*
X5410Y3883D01*
X5500Y3883D01*
X5500Y3575D01*
X5500Y3558D01*
X5499Y3544D01*
X5498Y3533D01*
X5495Y3526D01*
X5493Y3521D01*
X5489Y3516D01*
X5485Y3512D01*
X5480Y3509D01*
X5474Y3506D01*
X5467Y3504D01*
X5459Y3503D01*
X5450Y3502D01*
X5442Y3503D01*
X5432Y3503D01*
X5422Y3504D01*
X5410Y3506D01*
X5410Y3506D01*
X4962Y3596D02*
X4870Y3584D01*
X4883Y3546D01*
X4901Y3512D01*
X4924Y3483D01*
X4951Y3459D01*
X4983Y3439D01*
X5018Y3425D01*
X5058Y3417D01*
X5102Y3414D01*
X5157Y3419D01*
X5205Y3432D01*
X5248Y3454D01*
X5285Y3485D01*
X5315Y3524D01*
X5336Y3571D01*
X5349Y3624D01*
X5353Y3685D01*
X5349Y3748D01*
X5336Y3803D01*
X5314Y3851D01*
X5284Y3891D01*
X5248Y3923D01*
X5206Y3946D01*
X5159Y3960D01*
X5107Y3965D01*
X5099Y3964D01*
X5106Y3891D01*
X5135Y3889D01*
X5162Y3881D01*
X5187Y3868D01*
X5209Y3850D01*
X5228Y3828D01*
X5242Y3802D01*
X5251Y3773D01*
X5256Y3740D01*
X5256Y3740D01*
X4961Y3740D01*
X4966Y3771D01*
X4973Y3798D01*
X4983Y3821D01*
X4995Y3840D01*
X5018Y3862D01*
X5044Y3878D01*
X5073Y3888D01*
X5106Y3891D01*
X5099Y3964D01*
X5056Y3960D01*
X5011Y3947D01*
X4970Y3924D01*
X4934Y3893D01*
X4905Y3853D01*
X4884Y3806D01*
X4871Y3752D01*
X4867Y3690D01*
X4867Y3686D01*
X4867Y3680D01*
X4867Y3674D01*
X4868Y3667D01*
X5261Y3667D01*
X5256Y3626D01*
X5246Y3590D01*
X5231Y3559D01*
X5211Y3534D01*
X5188Y3513D01*
X5162Y3499D01*
X5133Y3490D01*
X5101Y3488D01*
X5078Y3489D01*
X5056Y3494D01*
X5036Y3502D01*
X5017Y3513D01*
X5001Y3528D01*
X4986Y3547D01*
X4973Y3569D01*
X4962Y3596D01*
X4962Y3596D01*
X5639Y6221D02*
X5543Y6197D01*
X5561Y6141D01*
X5585Y6092D01*
X5615Y6051D01*
X5652Y6016D01*
X5693Y5989D01*
X5739Y5969D01*
X5789Y5957D01*
X5844Y5954D01*
X5900Y5957D01*
X5951Y5966D01*
X5996Y5981D01*
X6035Y6001D01*
X6070Y6028D01*
X6100Y6060D01*
X6126Y6097D01*
X6147Y6140D01*
X6164Y6186D01*
X6176Y6234D01*
X6183Y6284D01*
X6186Y6335D01*
X6183Y6390D01*
X6175Y6441D01*
X6161Y6489D01*
X6142Y6533D01*
X6118Y6573D01*
X6090Y6608D01*
X6057Y6637D01*
X6019Y6662D01*
X5978Y6681D01*
X5935Y6695D01*
X5890Y6703D01*
X5843Y6706D01*
X5790Y6702D01*
X5742Y6692D01*
X5698Y6674D01*
X5659Y6650D01*
X5625Y6620D01*
X5596Y6583D01*
X5573Y6541D01*
X5555Y6494D01*
X5650Y6472D01*
X5664Y6509D01*
X5681Y6540D01*
X5701Y6566D01*
X5723Y6587D01*
X5749Y6603D01*
X5778Y6614D01*
X5810Y6621D01*
X5844Y6623D01*
X5885Y6621D01*
X5921Y6613D01*
X5955Y6601D01*
X5985Y6583D01*
X6011Y6561D01*
X6033Y6536D01*
X6050Y6507D01*
X6064Y6475D01*
X6074Y6441D01*
X6081Y6406D01*
X6085Y6371D01*
X6087Y6336D01*
X6085Y6291D01*
X6080Y6249D01*
X6071Y6210D01*
X6060Y6174D01*
X6044Y6141D01*
X6025Y6113D01*
X6002Y6089D01*
X5975Y6070D01*
X5946Y6055D01*
X5916Y6045D01*
X5885Y6038D01*
X5852Y6036D01*
X5813Y6039D01*
X5777Y6048D01*
X5745Y6062D01*
X5715Y6083D01*
X5689Y6109D01*
X5668Y6141D01*
X5651Y6178D01*
X5639Y6221D01*
X5639Y6221D01*
X5216Y5966D02*
X5498Y6693D01*
X5394Y6693D01*
X5205Y6165D01*
X5194Y6134D01*
X5184Y6103D01*
X5175Y6074D01*
X5167Y6046D01*
X5158Y6076D01*
X5149Y6105D01*
X5138Y6135D01*
X5128Y6165D01*
X4931Y6693D01*
X4833Y6693D01*
X5118Y5966D01*
X5216Y5966D01*
X5216Y5966D01*
X6664Y18951D02*
X6664Y19037D01*
X6356Y19037D01*
X6356Y18767D01*
X6392Y18741D01*
X6428Y18718D01*
X6465Y18698D01*
X6502Y18682D01*
X6540Y18670D01*
X6579Y18661D01*
X6618Y18655D01*
X6657Y18654D01*
X6709Y18656D01*
X6759Y18665D01*
X6807Y18679D01*
X6852Y18699D01*
X6893Y18725D01*
X6929Y18756D01*
X6959Y18791D01*
X6984Y18832D01*
X7004Y18877D01*
X7018Y18924D01*
X7026Y18974D01*
X7029Y19026D01*
X7026Y19078D01*
X7018Y19129D01*
X7004Y19177D01*
X6984Y19224D01*
X6960Y19267D01*
X6930Y19305D01*
X6896Y19336D01*
X6857Y19361D01*
X6813Y19381D01*
X6767Y19395D01*
X6717Y19403D01*
X6665Y19406D01*
X6626Y19404D01*
X6589Y19399D01*
X6555Y19391D01*
X6522Y19380D01*
X6492Y19366D01*
X6465Y19350D01*
X6442Y19331D01*
X6422Y19309D01*
X6405Y19284D01*
X6390Y19256D01*
X6377Y19225D01*
X6367Y19190D01*
X6454Y19166D01*
X6462Y19192D01*
X6472Y19216D01*
X6483Y19236D01*
X6494Y19253D01*
X6508Y19268D01*
X6524Y19282D01*
X6543Y19294D01*
X6564Y19304D01*
X6587Y19313D01*
X6611Y19319D01*
X6637Y19322D01*
X6664Y19323D01*
X6696Y19322D01*
X6726Y19318D01*
X6753Y19312D01*
X6778Y19303D01*
X6801Y19292D01*
X6822Y19280D01*
X6840Y19266D01*
X6856Y19250D01*
X6870Y19234D01*
X6882Y19216D01*
X6893Y19198D01*
X6902Y19178D01*
X6914Y19144D01*
X6923Y19108D01*
X6928Y19071D01*
X6929Y19032D01*
X6927Y18985D01*
X6921Y18943D01*
X6911Y18904D01*
X6896Y18869D01*
X6877Y18839D01*
X6855Y18812D01*
X6829Y18790D01*
X6798Y18772D01*
X6766Y18758D01*
X6733Y18748D01*
X6698Y18742D01*
X6663Y18740D01*
X6632Y18742D01*
X6601Y18746D01*
X6570Y18754D01*
X6541Y18764D01*
X6513Y18777D01*
X6488Y18789D01*
X6467Y18802D01*
X6450Y18816D01*
X6450Y18951D01*
X6664Y18951D01*
X6664Y18951D01*
X6215Y18666D02*
X6215Y19393D01*
X6116Y19393D01*
X5734Y18822D01*
X5734Y19393D01*
X5642Y19393D01*
X5642Y18666D01*
X5741Y18666D01*
X6123Y19238D01*
X6123Y18666D01*
X6215Y18666D01*
X6215Y18666D01*
X5480Y18666D02*
X5480Y19393D01*
X5231Y19393D01*
X5231Y19307D01*
X5384Y19307D01*
X5384Y18752D01*
X5384Y18752D01*
X5229Y18752D01*
X5195Y18753D01*
X5165Y18755D01*
X5138Y18759D01*
X5116Y18765D01*
X5097Y18773D01*
X5079Y18781D01*
X5064Y18791D01*
X5051Y18803D01*
X5035Y18822D01*
X5020Y18843D01*
X5008Y18868D01*
X4997Y18895D01*
X4989Y18925D01*
X4983Y18959D01*
X4979Y18995D01*
X4978Y19035D01*
X4981Y19089D01*
X4988Y19136D01*
X4999Y19177D01*
X5016Y19210D01*
X5035Y19239D01*
X5057Y19262D01*
X5081Y19280D01*
X5107Y19293D01*
X5129Y19299D01*
X5157Y19304D01*
X5191Y19307D01*
X5231Y19307D01*
X5231Y19393D01*
X5230Y19393D01*
X5190Y19393D01*
X5155Y19391D01*
X5125Y19387D01*
X5100Y19383D01*
X5070Y19374D01*
X5042Y19363D01*
X5017Y19348D01*
X4994Y19331D01*
X4967Y19305D01*
X4943Y19275D01*
X4924Y19243D01*
X4908Y19206D01*
X4895Y19167D01*
X4886Y19125D01*
X4881Y19081D01*
X4879Y19034D01*
X4880Y18993D01*
X4884Y18955D01*
X4890Y18920D01*
X4898Y18887D01*
X4909Y18856D01*
X4921Y18828D01*
X4934Y18803D01*
X4948Y18781D01*
X4964Y18761D01*
X4980Y18743D01*
X4997Y18728D01*
X5014Y18715D01*
X5033Y18704D01*
X5054Y18694D01*
X5077Y18685D01*
X5101Y18678D01*
X5127Y18673D01*
X5156Y18669D01*
X5186Y18667D01*
X5218Y18666D01*
X5480Y18666D01*
X5480Y18666D01*
X6664Y16411D02*
X6664Y16497D01*
X6356Y16497D01*
X6356Y16227D01*
X6392Y16201D01*
X6428Y16178D01*
X6465Y16158D01*
X6502Y16142D01*
X6540Y16130D01*
X6579Y16121D01*
X6618Y16115D01*
X6657Y16114D01*
X6709Y16116D01*
X6759Y16125D01*
X6807Y16139D01*
X6852Y16159D01*
X6893Y16185D01*
X6929Y16216D01*
X6959Y16251D01*
X6984Y16292D01*
X7004Y16337D01*
X7018Y16384D01*
X7026Y16434D01*
X7029Y16486D01*
X7026Y16538D01*
X7018Y16589D01*
X7004Y16637D01*
X6984Y16684D01*
X6960Y16727D01*
X6930Y16765D01*
X6896Y16796D01*
X6857Y16821D01*
X6813Y16841D01*
X6767Y16855D01*
X6717Y16863D01*
X6665Y16866D01*
X6626Y16864D01*
X6589Y16859D01*
X6555Y16851D01*
X6522Y16840D01*
X6492Y16826D01*
X6465Y16810D01*
X6442Y16791D01*
X6422Y16769D01*
X6405Y16744D01*
X6390Y16716D01*
X6377Y16685D01*
X6367Y16650D01*
X6454Y16626D01*
X6462Y16652D01*
X6472Y16676D01*
X6483Y16696D01*
X6494Y16713D01*
X6508Y16728D01*
X6524Y16742D01*
X6543Y16754D01*
X6564Y16764D01*
X6587Y16773D01*
X6611Y16779D01*
X6637Y16782D01*
X6664Y16783D01*
X6696Y16782D01*
X6726Y16778D01*
X6753Y16772D01*
X6778Y16763D01*
X6801Y16752D01*
X6822Y16740D01*
X6840Y16726D01*
X6856Y16710D01*
X6870Y16694D01*
X6882Y16676D01*
X6893Y16658D01*
X6902Y16638D01*
X6914Y16604D01*
X6923Y16568D01*
X6928Y16531D01*
X6929Y16492D01*
X6927Y16445D01*
X6921Y16403D01*
X6911Y16364D01*
X6896Y16329D01*
X6877Y16299D01*
X6855Y16272D01*
X6829Y16250D01*
X6798Y16232D01*
X6766Y16218D01*
X6733Y16208D01*
X6698Y16202D01*
X6663Y16200D01*
X6632Y16202D01*
X6601Y16206D01*
X6570Y16214D01*
X6541Y16224D01*
X6513Y16237D01*
X6488Y16249D01*
X6467Y16262D01*
X6450Y16276D01*
X6450Y16411D01*
X6664Y16411D01*
X6664Y16411D01*
X6215Y16126D02*
X6215Y16853D01*
X6116Y16853D01*
X5734Y16282D01*
X5734Y16853D01*
X5642Y16853D01*
X5642Y16126D01*
X5741Y16126D01*
X6123Y16698D01*
X6123Y16126D01*
X6215Y16126D01*
X6215Y16126D01*
X5480Y16126D02*
X5480Y16853D01*
X5231Y16853D01*
X5231Y16767D01*
X5384Y16767D01*
X5384Y16212D01*
X5384Y16212D01*
X5229Y16212D01*
X5195Y16213D01*
X5165Y16215D01*
X5138Y16219D01*
X5116Y16225D01*
X5097Y16233D01*
X5079Y16241D01*
X5064Y16251D01*
X5051Y16263D01*
X5035Y16282D01*
X5020Y16303D01*
X5008Y16328D01*
X4997Y16355D01*
X4989Y16385D01*
X4983Y16419D01*
X4979Y16455D01*
X4978Y16495D01*
X4981Y16549D01*
X4988Y16596D01*
X4999Y16637D01*
X5016Y16670D01*
X5035Y16699D01*
X5057Y16722D01*
X5081Y16740D01*
X5107Y16753D01*
X5129Y16759D01*
X5157Y16764D01*
X5191Y16767D01*
X5231Y16767D01*
X5231Y16853D01*
X5230Y16853D01*
X5190Y16853D01*
X5155Y16851D01*
X5125Y16847D01*
X5100Y16843D01*
X5070Y16834D01*
X5042Y16823D01*
X5017Y16808D01*
X4994Y16791D01*
X4967Y16765D01*
X4943Y16735D01*
X4924Y16703D01*
X4908Y16666D01*
X4895Y16627D01*
X4886Y16585D01*
X4881Y16541D01*
X4879Y16494D01*
X4880Y16453D01*
X4884Y16415D01*
X4890Y16380D01*
X4898Y16347D01*
X4909Y16316D01*
X4921Y16288D01*
X4934Y16263D01*
X4948Y16241D01*
X4964Y16221D01*
X4980Y16203D01*
X4997Y16188D01*
X5014Y16175D01*
X5033Y16164D01*
X5054Y16154D01*
X5077Y16145D01*
X5101Y16138D01*
X5127Y16133D01*
X5156Y16129D01*
X5186Y16127D01*
X5218Y16126D01*
X5480Y16126D01*
X5480Y16126D01*
X6664Y13871D02*
X6664Y13957D01*
X6356Y13957D01*
X6356Y13687D01*
X6392Y13661D01*
X6428Y13638D01*
X6465Y13618D01*
X6502Y13602D01*
X6540Y13590D01*
X6579Y13581D01*
X6618Y13575D01*
X6657Y13574D01*
X6709Y13576D01*
X6759Y13585D01*
X6807Y13599D01*
X6852Y13619D01*
X6893Y13645D01*
X6929Y13676D01*
X6959Y13711D01*
X6984Y13752D01*
X7004Y13797D01*
X7018Y13844D01*
X7026Y13894D01*
X7029Y13946D01*
X7026Y13998D01*
X7018Y14049D01*
X7004Y14097D01*
X6984Y14144D01*
X6960Y14187D01*
X6930Y14225D01*
X6896Y14256D01*
X6857Y14281D01*
X6813Y14301D01*
X6767Y14315D01*
X6717Y14323D01*
X6665Y14326D01*
X6626Y14324D01*
X6589Y14319D01*
X6555Y14311D01*
X6522Y14300D01*
X6492Y14286D01*
X6465Y14270D01*
X6442Y14251D01*
X6422Y14229D01*
X6405Y14204D01*
X6390Y14176D01*
X6377Y14145D01*
X6367Y14110D01*
X6454Y14086D01*
X6462Y14112D01*
X6472Y14136D01*
X6483Y14156D01*
X6494Y14173D01*
X6508Y14188D01*
X6524Y14202D01*
X6543Y14214D01*
X6564Y14224D01*
X6587Y14233D01*
X6611Y14239D01*
X6637Y14242D01*
X6664Y14243D01*
X6696Y14242D01*
X6726Y14238D01*
X6753Y14232D01*
X6778Y14223D01*
X6801Y14212D01*
X6822Y14200D01*
X6840Y14186D01*
X6856Y14170D01*
X6870Y14154D01*
X6882Y14136D01*
X6893Y14118D01*
X6902Y14098D01*
X6914Y14064D01*
X6923Y14028D01*
X6928Y13991D01*
X6929Y13952D01*
X6927Y13905D01*
X6921Y13863D01*
X6911Y13824D01*
X6896Y13789D01*
X6877Y13759D01*
X6855Y13732D01*
X6829Y13710D01*
X6798Y13692D01*
X6766Y13678D01*
X6733Y13668D01*
X6698Y13662D01*
X6663Y13660D01*
X6632Y13662D01*
X6601Y13666D01*
X6570Y13674D01*
X6541Y13684D01*
X6513Y13697D01*
X6488Y13709D01*
X6467Y13722D01*
X6450Y13736D01*
X6450Y13871D01*
X6664Y13871D01*
X6664Y13871D01*
X6215Y13586D02*
X6215Y14313D01*
X6116Y14313D01*
X5734Y13742D01*
X5734Y14313D01*
X5642Y14313D01*
X5642Y13586D01*
X5741Y13586D01*
X6123Y14158D01*
X6123Y13586D01*
X6215Y13586D01*
X6215Y13586D01*
X5480Y13586D02*
X5480Y14313D01*
X5231Y14313D01*
X5231Y14227D01*
X5384Y14227D01*
X5384Y13672D01*
X5384Y13672D01*
X5229Y13672D01*
X5195Y13673D01*
X5165Y13675D01*
X5138Y13679D01*
X5116Y13685D01*
X5097Y13693D01*
X5079Y13701D01*
X5064Y13711D01*
X5051Y13723D01*
X5035Y13742D01*
X5020Y13763D01*
X5008Y13788D01*
X4997Y13815D01*
X4989Y13845D01*
X4983Y13879D01*
X4979Y13915D01*
X4978Y13955D01*
X4981Y14009D01*
X4988Y14056D01*
X4999Y14097D01*
X5016Y14130D01*
X5035Y14159D01*
X5057Y14182D01*
X5081Y14200D01*
X5107Y14213D01*
X5129Y14219D01*
X5157Y14224D01*
X5191Y14227D01*
X5231Y14227D01*
X5231Y14313D01*
X5230Y14313D01*
X5190Y14313D01*
X5155Y14311D01*
X5125Y14307D01*
X5100Y14303D01*
X5070Y14294D01*
X5042Y14283D01*
X5017Y14268D01*
X4994Y14251D01*
X4967Y14225D01*
X4943Y14195D01*
X4924Y14163D01*
X4908Y14126D01*
X4895Y14087D01*
X4886Y14045D01*
X4881Y14001D01*
X4879Y13954D01*
X4880Y13913D01*
X4884Y13875D01*
X4890Y13840D01*
X4898Y13807D01*
X4909Y13776D01*
X4921Y13748D01*
X4934Y13723D01*
X4948Y13701D01*
X4964Y13681D01*
X4980Y13663D01*
X4997Y13648D01*
X5014Y13635D01*
X5033Y13624D01*
X5054Y13614D01*
X5077Y13605D01*
X5101Y13598D01*
X5127Y13593D01*
X5156Y13589D01*
X5186Y13587D01*
X5218Y13586D01*
X5480Y13586D01*
X5480Y13586D01*
X6972Y11110D02*
X6972Y11309D01*
X7170Y11309D01*
X7170Y11392D01*
X6972Y11392D01*
X6972Y11590D01*
X6887Y11590D01*
X6887Y11392D01*
X6689Y11392D01*
X6689Y11309D01*
X6887Y11309D01*
X6887Y11110D01*
X6972Y11110D01*
X6972Y11110D01*
X6254Y10992D02*
X6344Y10992D01*
X6344Y11561D01*
X6361Y11546D01*
X6381Y11530D01*
X6403Y11515D01*
X6428Y11500D01*
X6454Y11485D01*
X6478Y11473D01*
X6501Y11462D01*
X6522Y11453D01*
X6522Y11540D01*
X6486Y11558D01*
X6452Y11579D01*
X6420Y11601D01*
X6391Y11625D01*
X6365Y11650D01*
X6343Y11674D01*
X6326Y11698D01*
X6312Y11722D01*
X6254Y11722D01*
X6254Y10992D01*
X6254Y10992D01*
X5556Y11078D02*
X5556Y10992D01*
X6037Y10992D01*
X6037Y11008D01*
X6035Y11024D01*
X6031Y11039D01*
X6027Y11054D01*
X6016Y11078D01*
X6003Y11103D01*
X5987Y11127D01*
X5968Y11151D01*
X5945Y11175D01*
X5918Y11202D01*
X5887Y11231D01*
X5851Y11261D01*
X5796Y11307D01*
X5752Y11348D01*
X5716Y11384D01*
X5691Y11415D01*
X5672Y11443D01*
X5659Y11470D01*
X5652Y11497D01*
X5649Y11522D01*
X5651Y11548D01*
X5659Y11571D01*
X5670Y11593D01*
X5687Y11612D01*
X5707Y11628D01*
X5731Y11639D01*
X5757Y11646D01*
X5786Y11648D01*
X5817Y11646D01*
X5844Y11639D01*
X5868Y11627D01*
X5889Y11610D01*
X5906Y11588D01*
X5918Y11563D01*
X5926Y11535D01*
X5928Y11502D01*
X6020Y11512D01*
X6012Y11560D01*
X5998Y11602D01*
X5977Y11638D01*
X5949Y11668D01*
X5916Y11692D01*
X5877Y11709D01*
X5833Y11719D01*
X5784Y11722D01*
X5734Y11719D01*
X5690Y11708D01*
X5652Y11690D01*
X5618Y11664D01*
X5592Y11633D01*
X5573Y11599D01*
X5561Y11562D01*
X5557Y11520D01*
X5558Y11499D01*
X5562Y11477D01*
X5567Y11456D01*
X5575Y11435D01*
X5586Y11413D01*
X5599Y11391D01*
X5615Y11369D01*
X5634Y11346D01*
X5659Y11320D01*
X5690Y11290D01*
X5727Y11256D01*
X5772Y11218D01*
X5809Y11187D01*
X5838Y11161D01*
X5860Y11141D01*
X5875Y11126D01*
X5886Y11114D01*
X5896Y11102D01*
X5905Y11090D01*
X5913Y11078D01*
X5556Y11078D01*
X5556Y11078D01*
X5216Y10992D02*
X5498Y11719D01*
X5394Y11719D01*
X5205Y11191D01*
X5194Y11160D01*
X5184Y11129D01*
X5175Y11100D01*
X5167Y11072D01*
X5158Y11102D01*
X5149Y11131D01*
X5138Y11161D01*
X5128Y11191D01*
X4931Y11719D01*
X4833Y11719D01*
X5118Y10992D01*
X5216Y10992D01*
X5216Y10992D01*
X6407Y8624D02*
X6407Y8823D01*
X6605Y8823D01*
X6605Y8906D01*
X6407Y8906D01*
X6407Y9104D01*
X6322Y9104D01*
X6322Y8906D01*
X6124Y8906D01*
X6124Y8823D01*
X6322Y8823D01*
X6322Y8624D01*
X6407Y8624D01*
X6407Y8624D01*
X6026Y8697D02*
X5932Y8704D01*
X5925Y8672D01*
X5915Y8644D01*
X5901Y8621D01*
X5883Y8601D01*
X5863Y8586D01*
X5842Y8576D01*
X5818Y8569D01*
X5792Y8567D01*
X5761Y8570D01*
X5732Y8579D01*
X5706Y8594D01*
X5683Y8616D01*
X5663Y8642D01*
X5649Y8672D01*
X5641Y8706D01*
X5638Y8745D01*
X5641Y8781D01*
X5649Y8813D01*
X5662Y8841D01*
X5681Y8865D01*
X5704Y8884D01*
X5731Y8898D01*
X5760Y8907D01*
X5793Y8909D01*
X5814Y8908D01*
X5834Y8904D01*
X5853Y8898D01*
X5871Y8890D01*
X5888Y8879D01*
X5902Y8867D01*
X5915Y8854D01*
X5926Y8839D01*
X6010Y8850D01*
X5939Y9223D01*
X5578Y9223D01*
X5578Y9138D01*
X5868Y9138D01*
X5907Y8943D01*
X5874Y8963D01*
X5840Y8977D01*
X5805Y8985D01*
X5770Y8988D01*
X5724Y8984D01*
X5682Y8972D01*
X5643Y8951D01*
X5609Y8922D01*
X5580Y8887D01*
X5560Y8847D01*
X5547Y8802D01*
X5543Y8753D01*
X5547Y8705D01*
X5558Y8661D01*
X5576Y8620D01*
X5601Y8582D01*
X5639Y8543D01*
X5684Y8516D01*
X5735Y8499D01*
X5792Y8494D01*
X5839Y8497D01*
X5882Y8507D01*
X5920Y8525D01*
X5954Y8549D01*
X5982Y8579D01*
X6003Y8614D01*
X6018Y8653D01*
X6026Y8697D01*
X6026Y8697D01*
X5216Y8506D02*
X5498Y9233D01*
X5394Y9233D01*
X5205Y8705D01*
X5194Y8674D01*
X5184Y8643D01*
X5175Y8614D01*
X5167Y8586D01*
X5158Y8616D01*
X5149Y8645D01*
X5138Y8675D01*
X5128Y8705D01*
X4931Y9233D01*
X4833Y9233D01*
X5118Y8506D01*
X5216Y8506D01*
X5216Y8506D01*
G37*
%LNtext*%
G36*
X18569Y2565D02*
X19428Y2565D01*
X19428Y3186D01*
X19327Y3186D01*
X19327Y2679D01*
X19064Y2679D01*
X19064Y3154D01*
X18963Y3154D01*
X18963Y2679D01*
X18671Y2679D01*
X18671Y3206D01*
X18569Y3206D01*
X18569Y2565D01*
X18569Y2565D01*
X18569Y3757D02*
X18661Y3757D01*
X18615Y3718D01*
X18582Y3672D01*
X18562Y3619D01*
X18555Y3560D01*
X18557Y3533D01*
X18561Y3507D01*
X18567Y3482D01*
X18576Y3457D01*
X18588Y3435D01*
X18600Y3416D01*
X18614Y3399D01*
X18630Y3386D01*
X18646Y3376D01*
X18665Y3367D01*
X18685Y3359D01*
X18708Y3354D01*
X18726Y3351D01*
X18748Y3349D01*
X18775Y3348D01*
X18806Y3347D01*
X19192Y3347D01*
X19192Y3453D01*
X18847Y3453D01*
X18809Y3453D01*
X18777Y3454D01*
X18753Y3456D01*
X18735Y3459D01*
X18716Y3466D01*
X18698Y3475D01*
X18683Y3487D01*
X18670Y3501D01*
X18660Y3518D01*
X18652Y3537D01*
X18648Y3558D01*
X18646Y3581D01*
X18648Y3604D01*
X18652Y3627D01*
X18660Y3649D01*
X18671Y3670D01*
X18684Y3689D01*
X18699Y3706D01*
X18717Y3719D01*
X18737Y3729D01*
X18760Y3737D01*
X18788Y3742D01*
X18821Y3745D01*
X18858Y3746D01*
X19192Y3746D01*
X19192Y3852D01*
X18569Y3852D01*
X18569Y3757D01*
X18569Y3757D01*
X18569Y4016D02*
X19192Y4016D01*
X19192Y4111D01*
X19097Y4111D01*
X19128Y4129D01*
X19152Y4146D01*
X19171Y4162D01*
X19185Y4178D01*
X19194Y4194D01*
X19201Y4210D01*
X19204Y4227D01*
X19206Y4246D01*
X19204Y4272D01*
X19197Y4299D01*
X19187Y4327D01*
X19172Y4354D01*
X19074Y4318D01*
X19084Y4298D01*
X19091Y4279D01*
X19095Y4260D01*
X19097Y4240D01*
X19096Y4223D01*
X19092Y4207D01*
X19085Y4192D01*
X19076Y4178D01*
X19065Y4165D01*
X19051Y4155D01*
X19036Y4146D01*
X19018Y4139D01*
X18990Y4131D01*
X18959Y4126D01*
X18928Y4122D01*
X18895Y4121D01*
X18569Y4121D01*
X18569Y4016D01*
X18569Y4016D01*
X18881Y4377D02*
X18961Y4383D01*
X19031Y4401D01*
X19089Y4431D01*
X19137Y4473D01*
X19167Y4516D01*
X19189Y4563D01*
X19201Y4614D01*
X19206Y4669D01*
X19201Y4730D01*
X19185Y4786D01*
X19158Y4835D01*
X19122Y4879D01*
X19076Y4915D01*
X19022Y4940D01*
X18959Y4955D01*
X18889Y4960D01*
X18833Y4958D01*
X18782Y4951D01*
X18738Y4940D01*
X18700Y4924D01*
X18668Y4904D01*
X18639Y4880D01*
X18614Y4852D01*
X18593Y4819D01*
X18577Y4784D01*
X18565Y4747D01*
X18558Y4709D01*
X18555Y4669D01*
X18556Y4662D01*
X18642Y4669D01*
X18646Y4707D01*
X18657Y4741D01*
X18676Y4772D01*
X18702Y4800D01*
X18736Y4823D01*
X18777Y4839D01*
X18827Y4849D01*
X18884Y4852D01*
X18938Y4849D01*
X18986Y4839D01*
X19026Y4822D01*
X19059Y4800D01*
X19085Y4772D01*
X19104Y4741D01*
X19115Y4707D01*
X19118Y4669D01*
X19115Y4631D01*
X19104Y4597D01*
X19085Y4566D01*
X19059Y4538D01*
X19026Y4515D01*
X18985Y4499D01*
X18937Y4489D01*
X18881Y4486D01*
X18881Y4486D01*
X18825Y4489D01*
X18776Y4499D01*
X18735Y4515D01*
X18702Y4538D01*
X18676Y4566D01*
X18657Y4597D01*
X18646Y4631D01*
X18642Y4669D01*
X18556Y4662D01*
X18561Y4607D01*
X18576Y4551D01*
X18603Y4501D01*
X18639Y4458D01*
X18686Y4423D01*
X18741Y4398D01*
X18806Y4382D01*
X18881Y4377D01*
X18881Y4377D01*
X18569Y5083D02*
X19192Y5083D01*
X19192Y5178D01*
X19097Y5178D01*
X19128Y5196D01*
X19152Y5213D01*
X19171Y5229D01*
X19185Y5245D01*
X19194Y5261D01*
X19201Y5277D01*
X19204Y5294D01*
X19206Y5313D01*
X19204Y5339D01*
X19197Y5366D01*
X19187Y5394D01*
X19172Y5421D01*
X19074Y5385D01*
X19084Y5365D01*
X19091Y5346D01*
X19095Y5327D01*
X19097Y5307D01*
X19096Y5290D01*
X19092Y5274D01*
X19085Y5259D01*
X19076Y5245D01*
X19065Y5232D01*
X19051Y5222D01*
X19036Y5213D01*
X19018Y5206D01*
X18990Y5198D01*
X18959Y5193D01*
X18928Y5189D01*
X18895Y5188D01*
X18569Y5188D01*
X18569Y5083D01*
X18569Y5083D01*
X18646Y5890D02*
X18623Y5861D01*
X18620Y5856D01*
X18679Y5816D01*
X18696Y5835D01*
X18716Y5851D01*
X18738Y5864D01*
X18758Y5871D01*
X18782Y5877D01*
X18810Y5880D01*
X18843Y5881D01*
X18882Y5881D01*
X18882Y5881D01*
X18870Y5849D01*
X18860Y5809D01*
X18851Y5762D01*
X18842Y5709D01*
X18837Y5678D01*
X18832Y5653D01*
X18827Y5632D01*
X18821Y5617D01*
X18814Y5604D01*
X18806Y5593D01*
X18797Y5583D01*
X18787Y5575D01*
X18775Y5569D01*
X18763Y5564D01*
X18750Y5561D01*
X18736Y5560D01*
X18716Y5562D01*
X18698Y5568D01*
X18681Y5578D01*
X18666Y5592D01*
X18654Y5610D01*
X18645Y5632D01*
X18640Y5657D01*
X18638Y5686D01*
X18640Y5715D01*
X18645Y5743D01*
X18653Y5770D01*
X18665Y5794D01*
X18679Y5816D01*
X18620Y5856D01*
X18604Y5832D01*
X18588Y5804D01*
X18576Y5777D01*
X18567Y5749D01*
X18561Y5721D01*
X18557Y5691D01*
X18555Y5661D01*
X18559Y5612D01*
X18568Y5570D01*
X18584Y5533D01*
X18605Y5503D01*
X18632Y5479D01*
X18663Y5462D01*
X18696Y5451D01*
X18734Y5448D01*
X18756Y5449D01*
X18777Y5453D01*
X18798Y5460D01*
X18817Y5469D01*
X18835Y5480D01*
X18851Y5493D01*
X18865Y5507D01*
X18878Y5523D01*
X18888Y5541D01*
X18898Y5559D01*
X18906Y5578D01*
X18912Y5599D01*
X18916Y5617D01*
X18920Y5638D01*
X18924Y5663D01*
X18928Y5693D01*
X18936Y5752D01*
X18945Y5804D01*
X18954Y5847D01*
X18964Y5881D01*
X18974Y5881D01*
X18982Y5881D01*
X18988Y5881D01*
X18992Y5881D01*
X19022Y5880D01*
X19047Y5874D01*
X19067Y5865D01*
X19083Y5852D01*
X19098Y5829D01*
X19110Y5801D01*
X19116Y5769D01*
X19118Y5731D01*
X19117Y5697D01*
X19112Y5667D01*
X19104Y5642D01*
X19092Y5622D01*
X19077Y5605D01*
X19056Y5591D01*
X19031Y5579D01*
X19000Y5569D01*
X19014Y5466D01*
X19046Y5474D01*
X19074Y5485D01*
X19099Y5497D01*
X19121Y5512D01*
X19140Y5530D01*
X19157Y5552D01*
X19172Y5577D01*
X19184Y5606D01*
X19193Y5637D01*
X19200Y5671D01*
X19204Y5708D01*
X19206Y5747D01*
X19205Y5785D01*
X19201Y5819D01*
X19195Y5849D01*
X19187Y5876D01*
X19177Y5899D01*
X19166Y5919D01*
X19153Y5936D01*
X19140Y5949D01*
X19125Y5960D01*
X19108Y5969D01*
X19089Y5977D01*
X19068Y5982D01*
X19052Y5985D01*
X19030Y5986D01*
X19003Y5987D01*
X18971Y5988D01*
X18830Y5988D01*
X18763Y5988D01*
X18710Y5989D01*
X18670Y5991D01*
X18644Y5994D01*
X18625Y5998D01*
X18606Y6004D01*
X18588Y6012D01*
X18569Y6021D01*
X18569Y5911D01*
X18587Y5903D01*
X18605Y5897D01*
X18625Y5893D01*
X18646Y5890D01*
X18646Y5890D01*
X18797Y6557D02*
X18784Y6661D01*
X18733Y6649D01*
X18688Y6631D01*
X18649Y6605D01*
X18616Y6574D01*
X18590Y6537D01*
X18571Y6496D01*
X18559Y6451D01*
X18555Y6402D01*
X18561Y6341D01*
X18576Y6287D01*
X18602Y6238D01*
X18639Y6196D01*
X18685Y6162D01*
X18740Y6138D01*
X18805Y6124D01*
X18878Y6119D01*
X18927Y6121D01*
X18973Y6127D01*
X19015Y6138D01*
X19055Y6152D01*
X19090Y6171D01*
X19121Y6194D01*
X19147Y6222D01*
X19168Y6254D01*
X19185Y6289D01*
X19196Y6325D01*
X19203Y6363D01*
X19206Y6402D01*
X19203Y6451D01*
X19193Y6495D01*
X19177Y6534D01*
X19155Y6568D01*
X19126Y6598D01*
X19092Y6621D01*
X19053Y6639D01*
X19009Y6651D01*
X18993Y6548D01*
X19022Y6540D01*
X19048Y6528D01*
X19070Y6514D01*
X19087Y6496D01*
X19101Y6477D01*
X19111Y6455D01*
X19117Y6432D01*
X19119Y6406D01*
X19115Y6369D01*
X19105Y6334D01*
X19087Y6304D01*
X19062Y6277D01*
X19029Y6255D01*
X18988Y6240D01*
X18939Y6230D01*
X18881Y6227D01*
X18823Y6230D01*
X18773Y6239D01*
X18732Y6254D01*
X18699Y6275D01*
X18674Y6301D01*
X18656Y6331D01*
X18646Y6364D01*
X18642Y6401D01*
X18644Y6430D01*
X18652Y6458D01*
X18664Y6482D01*
X18680Y6504D01*
X18702Y6523D01*
X18729Y6538D01*
X18760Y6550D01*
X18797Y6557D01*
X18797Y6557D01*
X18569Y6752D02*
X19428Y6752D01*
X19428Y6857D01*
X18939Y6857D01*
X19192Y7107D01*
X19192Y7243D01*
X18961Y7005D01*
X18569Y7267D01*
X18569Y7137D01*
X18888Y6932D01*
X18816Y6857D01*
X18569Y6857D01*
X18569Y6752D01*
X18569Y6752D01*
X18331Y7684D02*
X19192Y7684D01*
X19192Y7781D01*
X19111Y7781D01*
X19061Y7832D01*
X19060Y7832D01*
X19025Y7809D01*
X18983Y7793D01*
X18934Y7783D01*
X18877Y7780D01*
X18877Y7780D01*
X18821Y7783D01*
X18773Y7792D01*
X18732Y7807D01*
X18700Y7829D01*
X18674Y7854D01*
X18656Y7882D01*
X18646Y7913D01*
X18642Y7946D01*
X18646Y7980D01*
X18657Y8012D01*
X18676Y8040D01*
X18702Y8067D01*
X18735Y8089D01*
X18777Y8104D01*
X18828Y8114D01*
X18886Y8117D01*
X18942Y8114D01*
X18990Y8105D01*
X19031Y8089D01*
X19064Y8068D01*
X19090Y8042D01*
X19108Y8014D01*
X19119Y7984D01*
X19123Y7951D01*
X19119Y7918D01*
X19107Y7888D01*
X19088Y7859D01*
X19061Y7832D01*
X19111Y7781D01*
X19133Y7798D01*
X19152Y7817D01*
X19169Y7836D01*
X19182Y7857D01*
X19192Y7880D01*
X19200Y7905D01*
X19204Y7932D01*
X19206Y7961D01*
X19203Y8000D01*
X19196Y8036D01*
X19183Y8070D01*
X19165Y8102D01*
X19142Y8130D01*
X19115Y8155D01*
X19084Y8176D01*
X19049Y8194D01*
X19011Y8207D01*
X18971Y8217D01*
X18929Y8223D01*
X18885Y8225D01*
X18839Y8223D01*
X18795Y8216D01*
X18753Y8205D01*
X18713Y8190D01*
X18677Y8171D01*
X18646Y8148D01*
X18619Y8122D01*
X18596Y8091D01*
X18578Y8058D01*
X18566Y8024D01*
X18558Y7989D01*
X18555Y7953D01*
X18557Y7928D01*
X18561Y7903D01*
X18568Y7880D01*
X18578Y7859D01*
X18590Y7839D01*
X18603Y7821D01*
X18618Y7804D01*
X18634Y7790D01*
X18331Y7790D01*
X18331Y7684D01*
X18331Y7684D01*
X18881Y8313D02*
X18961Y8319D01*
X19031Y8337D01*
X19089Y8367D01*
X19137Y8409D01*
X19167Y8451D01*
X19189Y8498D01*
X19201Y8549D01*
X19206Y8604D01*
X19201Y8666D01*
X19185Y8721D01*
X19158Y8771D01*
X19122Y8814D01*
X19076Y8850D01*
X19022Y8875D01*
X18959Y8891D01*
X18889Y8896D01*
X18833Y8893D01*
X18782Y8887D01*
X18738Y8875D01*
X18700Y8860D01*
X18668Y8840D01*
X18639Y8815D01*
X18614Y8787D01*
X18593Y8755D01*
X18577Y8719D01*
X18565Y8683D01*
X18558Y8644D01*
X18555Y8604D01*
X18556Y8597D01*
X18642Y8604D01*
X18646Y8642D01*
X18657Y8676D01*
X18676Y8707D01*
X18702Y8735D01*
X18736Y8758D01*
X18777Y8774D01*
X18827Y8784D01*
X18884Y8787D01*
X18938Y8784D01*
X18986Y8774D01*
X19026Y8758D01*
X19059Y8735D01*
X19085Y8707D01*
X19104Y8676D01*
X19115Y8642D01*
X19118Y8604D01*
X19115Y8567D01*
X19104Y8532D01*
X19085Y8501D01*
X19059Y8473D01*
X19026Y8450D01*
X18985Y8434D01*
X18937Y8424D01*
X18881Y8421D01*
X18881Y8421D01*
X18825Y8424D01*
X18776Y8434D01*
X18735Y8450D01*
X18702Y8473D01*
X18676Y8501D01*
X18657Y8532D01*
X18646Y8567D01*
X18642Y8604D01*
X18556Y8597D01*
X18561Y8542D01*
X18576Y8486D01*
X18603Y8437D01*
X18639Y8393D01*
X18686Y8358D01*
X18741Y8333D01*
X18806Y8318D01*
X18881Y8313D01*
X18881Y8313D01*
X18569Y9134D02*
X19192Y8944D01*
X19192Y9053D01*
X18833Y9152D01*
X18699Y9189D01*
X18711Y9191D01*
X18736Y9198D01*
X18775Y9208D01*
X18827Y9221D01*
X19192Y9320D01*
X19192Y9428D01*
X18831Y9521D01*
X18712Y9552D01*
X18832Y9588D01*
X19192Y9695D01*
X19192Y9797D01*
X18569Y9603D01*
X18569Y9493D01*
X18942Y9394D01*
X19048Y9370D01*
X18569Y9244D01*
X18569Y9134D01*
X18569Y9134D01*
X18770Y10312D02*
X18756Y10421D01*
X18711Y10405D01*
X18672Y10384D01*
X18637Y10357D01*
X18608Y10325D01*
X18585Y10288D01*
X18569Y10246D01*
X18559Y10199D01*
X18555Y10147D01*
X18561Y10082D01*
X18576Y10025D01*
X18603Y9974D01*
X18639Y9931D01*
X18686Y9896D01*
X18740Y9871D01*
X18804Y9856D01*
X18875Y9851D01*
X18949Y9856D01*
X19015Y9871D01*
X19071Y9896D01*
X19119Y9932D01*
X19157Y9975D01*
X19184Y10024D01*
X19200Y10080D01*
X19206Y10141D01*
X19205Y10150D01*
X19119Y10143D01*
X19116Y10108D01*
X19107Y10076D01*
X19092Y10047D01*
X19070Y10020D01*
X19044Y9998D01*
X19014Y9982D01*
X18979Y9971D01*
X18940Y9966D01*
X18940Y9966D01*
X18940Y10313D01*
X18977Y10308D01*
X19009Y10300D01*
X19036Y10288D01*
X19058Y10273D01*
X19085Y10246D01*
X19104Y10215D01*
X19115Y10181D01*
X19119Y10143D01*
X19205Y10150D01*
X19200Y10201D01*
X19185Y10255D01*
X19158Y10303D01*
X19121Y10345D01*
X19074Y10380D01*
X19019Y10405D01*
X18954Y10419D01*
X18882Y10424D01*
X18876Y10424D01*
X18870Y10424D01*
X18862Y10424D01*
X18854Y10424D01*
X18854Y9960D01*
X18805Y9966D01*
X18763Y9977D01*
X18727Y9995D01*
X18697Y10018D01*
X18673Y10045D01*
X18656Y10076D01*
X18646Y10110D01*
X18642Y10148D01*
X18644Y10176D01*
X18650Y10202D01*
X18659Y10225D01*
X18673Y10247D01*
X18690Y10266D01*
X18712Y10284D01*
X18739Y10299D01*
X18770Y10312D01*
X18770Y10312D01*
X18569Y10552D02*
X19192Y10552D01*
X19192Y10647D01*
X19097Y10647D01*
X19128Y10665D01*
X19152Y10682D01*
X19171Y10698D01*
X19185Y10714D01*
X19194Y10730D01*
X19201Y10746D01*
X19204Y10764D01*
X19206Y10782D01*
X19204Y10809D01*
X19197Y10836D01*
X19187Y10863D01*
X19172Y10890D01*
X19074Y10854D01*
X19084Y10835D01*
X19091Y10815D01*
X19095Y10796D01*
X19097Y10777D01*
X19096Y10760D01*
X19092Y10744D01*
X19085Y10729D01*
X19076Y10714D01*
X19065Y10702D01*
X19051Y10691D01*
X19036Y10682D01*
X19018Y10675D01*
X18990Y10667D01*
X18959Y10662D01*
X18928Y10659D01*
X18895Y10658D01*
X18569Y10658D01*
X18569Y10552D01*
X18569Y10552D01*
X18755Y11244D02*
X18772Y11348D01*
X18742Y11355D01*
X18716Y11365D01*
X18694Y11379D01*
X18676Y11397D01*
X18661Y11419D01*
X18650Y11445D01*
X18644Y11475D01*
X18642Y11509D01*
X18644Y11543D01*
X18650Y11573D01*
X18659Y11597D01*
X18672Y11617D01*
X18687Y11633D01*
X18704Y11644D01*
X18722Y11650D01*
X18741Y11652D01*
X18758Y11651D01*
X18773Y11645D01*
X18786Y11635D01*
X18797Y11621D01*
X18805Y11607D01*
X18813Y11584D01*
X18823Y11553D01*
X18833Y11514D01*
X18847Y11460D01*
X18860Y11415D01*
X18873Y11380D01*
X18884Y11353D01*
X18896Y11332D01*
X18909Y11313D01*
X18925Y11298D01*
X18943Y11285D01*
X18962Y11275D01*
X18983Y11267D01*
X19004Y11263D01*
X19026Y11262D01*
X19047Y11263D01*
X19067Y11266D01*
X19085Y11272D01*
X19104Y11281D01*
X19121Y11291D01*
X19136Y11303D01*
X19150Y11317D01*
X19162Y11333D01*
X19171Y11346D01*
X19179Y11362D01*
X19187Y11380D01*
X19193Y11400D01*
X19199Y11421D01*
X19203Y11444D01*
X19205Y11467D01*
X19206Y11491D01*
X19204Y11526D01*
X19201Y11560D01*
X19194Y11591D01*
X19185Y11619D01*
X19173Y11645D01*
X19160Y11667D01*
X19145Y11686D01*
X19128Y11701D01*
X19108Y11713D01*
X19085Y11723D01*
X19060Y11731D01*
X19031Y11737D01*
X19017Y11634D01*
X19040Y11629D01*
X19060Y11621D01*
X19077Y11609D01*
X19092Y11594D01*
X19104Y11575D01*
X19112Y11553D01*
X19117Y11527D01*
X19119Y11498D01*
X19118Y11465D01*
X19113Y11436D01*
X19106Y11413D01*
X19095Y11395D01*
X19083Y11381D01*
X19069Y11371D01*
X19054Y11366D01*
X19039Y11364D01*
X19029Y11364D01*
X19019Y11367D01*
X19010Y11371D01*
X19002Y11376D01*
X18994Y11384D01*
X18986Y11393D01*
X18980Y11404D01*
X18974Y11417D01*
X18970Y11429D01*
X18964Y11448D01*
X18956Y11475D01*
X18947Y11510D01*
X18933Y11562D01*
X18920Y11605D01*
X18908Y11640D01*
X18898Y11666D01*
X18887Y11687D01*
X18875Y11706D01*
X18860Y11722D01*
X18843Y11736D01*
X18823Y11747D01*
X18802Y11755D01*
X18778Y11759D01*
X18752Y11761D01*
X18726Y11759D01*
X18701Y11753D01*
X18677Y11744D01*
X18653Y11730D01*
X18631Y11713D01*
X18612Y11693D01*
X18595Y11669D01*
X18581Y11641D01*
X18570Y11611D01*
X18562Y11580D01*
X18557Y11546D01*
X18555Y11510D01*
X18559Y11453D01*
X18568Y11403D01*
X18584Y11361D01*
X18606Y11325D01*
X18634Y11296D01*
X18668Y11273D01*
X18709Y11256D01*
X18755Y11244D01*
X18755Y11244D01*
X18569Y12294D02*
X18661Y12294D01*
X18615Y12255D01*
X18582Y12208D01*
X18562Y12156D01*
X18555Y12097D01*
X18557Y12070D01*
X18561Y12043D01*
X18567Y12018D01*
X18576Y11994D01*
X18588Y11971D01*
X18600Y11952D01*
X18614Y11936D01*
X18630Y11923D01*
X18646Y11912D01*
X18665Y11903D01*
X18685Y11896D01*
X18708Y11890D01*
X18726Y11888D01*
X18748Y11886D01*
X18775Y11884D01*
X18806Y11884D01*
X19192Y11884D01*
X19192Y11989D01*
X18847Y11989D01*
X18809Y11990D01*
X18777Y11991D01*
X18753Y11993D01*
X18735Y11996D01*
X18716Y12002D01*
X18698Y12011D01*
X18683Y12023D01*
X18670Y12038D01*
X18660Y12055D01*
X18652Y12074D01*
X18648Y12095D01*
X18646Y12118D01*
X18648Y12141D01*
X18652Y12164D01*
X18660Y12186D01*
X18671Y12207D01*
X18684Y12226D01*
X18699Y12242D01*
X18717Y12256D01*
X18737Y12266D01*
X18760Y12273D01*
X18788Y12279D01*
X18821Y12282D01*
X18858Y12283D01*
X19192Y12283D01*
X19192Y12388D01*
X18569Y12388D01*
X18569Y12294D01*
X18569Y12294D01*
X18331Y12554D02*
X19192Y12554D01*
X19192Y12650D01*
X19111Y12650D01*
X19061Y12701D01*
X19060Y12701D01*
X19025Y12678D01*
X18983Y12662D01*
X18934Y12652D01*
X18877Y12649D01*
X18877Y12649D01*
X18821Y12652D01*
X18773Y12661D01*
X18732Y12677D01*
X18700Y12698D01*
X18674Y12723D01*
X18656Y12752D01*
X18646Y12782D01*
X18642Y12816D01*
X18646Y12849D01*
X18657Y12881D01*
X18676Y12910D01*
X18702Y12936D01*
X18735Y12958D01*
X18777Y12974D01*
X18828Y12983D01*
X18886Y12986D01*
X18942Y12983D01*
X18990Y12974D01*
X19031Y12959D01*
X19064Y12937D01*
X19090Y12912D01*
X19108Y12883D01*
X19119Y12853D01*
X19123Y12820D01*
X19119Y12788D01*
X19107Y12757D01*
X19088Y12728D01*
X19061Y12701D01*
X19111Y12650D01*
X19133Y12667D01*
X19152Y12686D01*
X19169Y12706D01*
X19182Y12727D01*
X19192Y12749D01*
X19200Y12774D01*
X19204Y12801D01*
X19206Y12830D01*
X19203Y12869D01*
X19196Y12905D01*
X19183Y12939D01*
X19165Y12971D01*
X19142Y12999D01*
X19115Y13024D01*
X19084Y13045D01*
X19049Y13063D01*
X19011Y13076D01*
X18971Y13086D01*
X18929Y13092D01*
X18885Y13094D01*
X18839Y13092D01*
X18795Y13085D01*
X18753Y13075D01*
X18713Y13060D01*
X18677Y13041D01*
X18646Y13018D01*
X18619Y12991D01*
X18596Y12960D01*
X18578Y12927D01*
X18566Y12893D01*
X18558Y12858D01*
X18555Y12823D01*
X18557Y12797D01*
X18561Y12773D01*
X18568Y12750D01*
X18578Y12728D01*
X18590Y12708D01*
X18603Y12690D01*
X18618Y12674D01*
X18634Y12659D01*
X18331Y12659D01*
X18331Y12554D01*
X18331Y12554D01*
X18331Y13221D02*
X19192Y13221D01*
X19192Y13317D01*
X19111Y13317D01*
X19061Y13369D01*
X19060Y13368D01*
X19025Y13346D01*
X18983Y13330D01*
X18934Y13320D01*
X18877Y13317D01*
X18877Y13317D01*
X18821Y13320D01*
X18773Y13329D01*
X18732Y13344D01*
X18700Y13365D01*
X18674Y13391D01*
X18656Y13419D01*
X18646Y13450D01*
X18642Y13483D01*
X18646Y13517D01*
X18657Y13548D01*
X18676Y13577D01*
X18702Y13603D01*
X18735Y13625D01*
X18777Y13641D01*
X18828Y13650D01*
X18886Y13653D01*
X18942Y13650D01*
X18990Y13641D01*
X19031Y13626D01*
X19064Y13605D01*
X19090Y13579D01*
X19108Y13551D01*
X19119Y13520D01*
X19123Y13488D01*
X19119Y13455D01*
X19107Y13424D01*
X19088Y13395D01*
X19061Y13369D01*
X19111Y13317D01*
X19133Y13335D01*
X19152Y13353D01*
X19169Y13373D01*
X19182Y13394D01*
X19192Y13416D01*
X19200Y13441D01*
X19204Y13468D01*
X19206Y13498D01*
X19203Y13536D01*
X19196Y13573D01*
X19183Y13607D01*
X19165Y13638D01*
X19142Y13667D01*
X19115Y13692D01*
X19084Y13713D01*
X19049Y13730D01*
X19011Y13744D01*
X18971Y13754D01*
X18929Y13759D01*
X18885Y13761D01*
X18839Y13759D01*
X18795Y13753D01*
X18753Y13742D01*
X18713Y13727D01*
X18677Y13708D01*
X18646Y13685D01*
X18619Y13658D01*
X18596Y13627D01*
X18578Y13594D01*
X18566Y13560D01*
X18558Y13526D01*
X18555Y13490D01*
X18557Y13464D01*
X18561Y13440D01*
X18568Y13417D01*
X18578Y13395D01*
X18590Y13375D01*
X18603Y13357D01*
X18618Y13341D01*
X18634Y13327D01*
X18331Y13327D01*
X18331Y13221D01*
X18331Y13221D01*
X18569Y13886D02*
X19428Y13886D01*
X19428Y13992D01*
X18569Y13992D01*
X18569Y13886D01*
X18569Y13886D01*
X18330Y14150D02*
X18429Y14139D01*
X18425Y14155D01*
X18422Y14171D01*
X18420Y14186D01*
X18419Y14199D01*
X18420Y14216D01*
X18422Y14231D01*
X18426Y14244D01*
X18431Y14255D01*
X18438Y14265D01*
X18445Y14274D01*
X18454Y14283D01*
X18464Y14290D01*
X18475Y14296D01*
X18492Y14303D01*
X18514Y14312D01*
X18543Y14322D01*
X18547Y14324D01*
X18553Y14326D01*
X18560Y14328D01*
X18568Y14331D01*
X19192Y14095D01*
X19192Y14209D01*
X18831Y14338D01*
X18797Y14351D01*
X18761Y14362D01*
X18725Y14373D01*
X18687Y14384D01*
X18723Y14393D01*
X18759Y14403D01*
X18794Y14415D01*
X18829Y14427D01*
X19192Y14560D01*
X19192Y14665D01*
X18559Y14429D01*
X18512Y14411D01*
X18472Y14395D01*
X18441Y14381D01*
X18418Y14369D01*
X18393Y14355D01*
X18373Y14339D01*
X18355Y14323D01*
X18341Y14305D01*
X18331Y14286D01*
X18323Y14265D01*
X18318Y14243D01*
X18317Y14218D01*
X18318Y14203D01*
X18320Y14186D01*
X18324Y14169D01*
X18330Y14150D01*
X18330Y14150D01*
X18569Y15088D02*
X19192Y15088D01*
X19192Y15183D01*
X19103Y15183D01*
X19148Y15221D01*
X19180Y15267D01*
X19199Y15320D01*
X19206Y15381D01*
X19205Y15409D01*
X19201Y15435D01*
X19194Y15461D01*
X19186Y15485D01*
X19175Y15507D01*
X19162Y15526D01*
X19148Y15542D01*
X19133Y15555D01*
X19115Y15566D01*
X19097Y15575D01*
X19076Y15583D01*
X19055Y15588D01*
X19037Y15591D01*
X19014Y15593D01*
X18986Y15594D01*
X18952Y15594D01*
X18569Y15594D01*
X18569Y15489D01*
X18948Y15489D01*
X18978Y15488D01*
X19004Y15486D01*
X19026Y15482D01*
X19044Y15476D01*
X19060Y15469D01*
X19073Y15459D01*
X19085Y15447D01*
X19095Y15433D01*
X19104Y15416D01*
X19110Y15399D01*
X19113Y15380D01*
X19114Y15359D01*
X19112Y15327D01*
X19104Y15296D01*
X19090Y15268D01*
X19072Y15243D01*
X19045Y15221D01*
X19010Y15206D01*
X18964Y15197D01*
X18909Y15194D01*
X18569Y15194D01*
X18569Y15088D01*
X18569Y15088D01*
X18881Y15717D02*
X18961Y15723D01*
X19031Y15741D01*
X19089Y15771D01*
X19137Y15813D01*
X19167Y15855D01*
X19189Y15902D01*
X19201Y15953D01*
X19206Y16008D01*
X19201Y16070D01*
X19185Y16125D01*
X19158Y16175D01*
X19122Y16218D01*
X19076Y16254D01*
X19022Y16279D01*
X18959Y16295D01*
X18889Y16300D01*
X18833Y16297D01*
X18782Y16291D01*
X18738Y16279D01*
X18700Y16264D01*
X18668Y16243D01*
X18639Y16219D01*
X18614Y16191D01*
X18593Y16159D01*
X18577Y16123D01*
X18565Y16087D01*
X18558Y16048D01*
X18555Y16008D01*
X18556Y16001D01*
X18642Y16008D01*
X18646Y16046D01*
X18657Y16080D01*
X18676Y16111D01*
X18702Y16139D01*
X18736Y16162D01*
X18777Y16178D01*
X18827Y16188D01*
X18884Y16191D01*
X18938Y16188D01*
X18986Y16178D01*
X19026Y16162D01*
X19059Y16139D01*
X19085Y16111D01*
X19104Y16080D01*
X19115Y16046D01*
X19118Y16008D01*
X19115Y15971D01*
X19104Y15936D01*
X19085Y15905D01*
X19059Y15877D01*
X19026Y15854D01*
X18985Y15838D01*
X18937Y15828D01*
X18881Y15825D01*
X18881Y15825D01*
X18825Y15828D01*
X18776Y15838D01*
X18735Y15854D01*
X18702Y15877D01*
X18676Y15905D01*
X18657Y15936D01*
X18646Y15971D01*
X18642Y16008D01*
X18556Y16001D01*
X18561Y15946D01*
X18576Y15890D01*
X18603Y15841D01*
X18639Y15797D01*
X18686Y15762D01*
X18741Y15737D01*
X18806Y15722D01*
X18881Y15717D01*
X18881Y15717D01*
X18569Y16424D02*
X19192Y16424D01*
X19192Y16529D01*
X18569Y16529D01*
X18569Y16424D01*
X18569Y16424D01*
X19307Y16424D02*
X19428Y16424D01*
X19428Y16529D01*
X19307Y16529D01*
X19307Y16424D01*
X19307Y16424D01*
X18755Y16648D02*
X18772Y16752D01*
X18742Y16758D01*
X18716Y16769D01*
X18694Y16783D01*
X18676Y16801D01*
X18661Y16823D01*
X18650Y16849D01*
X18644Y16879D01*
X18642Y16913D01*
X18644Y16947D01*
X18650Y16976D01*
X18659Y17001D01*
X18672Y17021D01*
X18687Y17036D01*
X18704Y17047D01*
X18722Y17054D01*
X18741Y17056D01*
X18758Y17054D01*
X18773Y17048D01*
X18786Y17039D01*
X18797Y17025D01*
X18805Y17010D01*
X18813Y16987D01*
X18823Y16956D01*
X18833Y16917D01*
X18847Y16864D01*
X18860Y16819D01*
X18873Y16783D01*
X18884Y16756D01*
X18896Y16735D01*
X18909Y16717D01*
X18925Y16701D01*
X18943Y16688D01*
X18962Y16678D01*
X18983Y16671D01*
X19004Y16667D01*
X19026Y16665D01*
X19047Y16666D01*
X19067Y16670D01*
X19085Y16676D01*
X19104Y16684D01*
X19121Y16695D01*
X19136Y16707D01*
X19150Y16721D01*
X19162Y16736D01*
X19171Y16750D01*
X19179Y16765D01*
X19187Y16783D01*
X19193Y16803D01*
X19199Y16825D01*
X19203Y16847D01*
X19205Y16870D01*
X19206Y16894D01*
X19204Y16930D01*
X19201Y16963D01*
X19194Y16994D01*
X19185Y17023D01*
X19173Y17049D01*
X19160Y17071D01*
X19145Y17090D01*
X19128Y17105D01*
X19108Y17117D01*
X19085Y17127D01*
X19060Y17135D01*
X19031Y17141D01*
X19017Y17038D01*
X19040Y17033D01*
X19060Y17024D01*
X19077Y17012D01*
X19092Y16997D01*
X19104Y16979D01*
X19112Y16956D01*
X19117Y16931D01*
X19119Y16902D01*
X19118Y16868D01*
X19113Y16840D01*
X19106Y16816D01*
X19095Y16798D01*
X19083Y16785D01*
X19069Y16775D01*
X19054Y16769D01*
X19039Y16767D01*
X19029Y16768D01*
X19019Y16770D01*
X19010Y16774D01*
X19002Y16780D01*
X18994Y16787D01*
X18986Y16797D01*
X18980Y16808D01*
X18974Y16820D01*
X18970Y16832D01*
X18964Y16852D01*
X18956Y16879D01*
X18947Y16914D01*
X18933Y16965D01*
X18920Y17009D01*
X18908Y17043D01*
X18898Y17070D01*
X18887Y17091D01*
X18875Y17109D01*
X18860Y17125D01*
X18843Y17139D01*
X18823Y17150D01*
X18802Y17158D01*
X18778Y17163D01*
X18752Y17164D01*
X18726Y17163D01*
X18701Y17157D01*
X18677Y17147D01*
X18653Y17134D01*
X18631Y17117D01*
X18612Y17096D01*
X18595Y17072D01*
X18581Y17045D01*
X18570Y17015D01*
X18562Y16983D01*
X18557Y16949D01*
X18555Y16914D01*
X18559Y16857D01*
X18568Y16807D01*
X18584Y16764D01*
X18606Y16729D01*
X18634Y16700D01*
X18668Y16677D01*
X18709Y16659D01*
X18755Y16648D01*
X18755Y16648D01*
X18770Y17716D02*
X18756Y17825D01*
X18711Y17809D01*
X18672Y17788D01*
X18637Y17761D01*
X18608Y17729D01*
X18585Y17692D01*
X18569Y17650D01*
X18559Y17603D01*
X18555Y17551D01*
X18561Y17486D01*
X18576Y17429D01*
X18603Y17378D01*
X18639Y17335D01*
X18686Y17300D01*
X18740Y17275D01*
X18804Y17260D01*
X18875Y17255D01*
X18949Y17260D01*
X19015Y17275D01*
X19071Y17300D01*
X19119Y17336D01*
X19157Y17379D01*
X19184Y17428D01*
X19200Y17484D01*
X19206Y17545D01*
X19205Y17554D01*
X19119Y17546D01*
X19116Y17512D01*
X19107Y17480D01*
X19092Y17451D01*
X19070Y17424D01*
X19044Y17402D01*
X19014Y17386D01*
X18979Y17375D01*
X18940Y17370D01*
X18940Y17370D01*
X18940Y17717D01*
X18977Y17712D01*
X19009Y17704D01*
X19036Y17692D01*
X19058Y17677D01*
X19085Y17650D01*
X19104Y17619D01*
X19115Y17585D01*
X19119Y17546D01*
X19205Y17554D01*
X19200Y17605D01*
X19185Y17659D01*
X19158Y17707D01*
X19121Y17749D01*
X19074Y17784D01*
X19019Y17809D01*
X18954Y17823D01*
X18882Y17828D01*
X18876Y17828D01*
X18870Y17828D01*
X18862Y17828D01*
X18854Y17828D01*
X18854Y17364D01*
X18805Y17370D01*
X18763Y17381D01*
X18727Y17399D01*
X18697Y17422D01*
X18673Y17449D01*
X18656Y17480D01*
X18646Y17514D01*
X18642Y17552D01*
X18644Y17580D01*
X18650Y17606D01*
X18659Y17629D01*
X18673Y17651D01*
X18690Y17670D01*
X18712Y17688D01*
X18739Y17703D01*
X18770Y17716D01*
X18770Y17716D01*
X18569Y18316D02*
X19110Y18316D01*
X19110Y18223D01*
X19192Y18223D01*
X19192Y18316D01*
X19258Y18316D01*
X19287Y18317D01*
X19313Y18319D01*
X19334Y18322D01*
X19351Y18327D01*
X19371Y18336D01*
X19388Y18348D01*
X19404Y18363D01*
X19418Y18381D01*
X19429Y18402D01*
X19437Y18427D01*
X19441Y18455D01*
X19443Y18488D01*
X19442Y18511D01*
X19440Y18535D01*
X19437Y18560D01*
X19433Y18587D01*
X19341Y18571D01*
X19343Y18555D01*
X19345Y18539D01*
X19346Y18523D01*
X19346Y18509D01*
X19345Y18486D01*
X19341Y18468D01*
X19335Y18452D01*
X19326Y18441D01*
X19313Y18432D01*
X19296Y18426D01*
X19275Y18422D01*
X19249Y18421D01*
X19192Y18421D01*
X19192Y18542D01*
X19110Y18542D01*
X19110Y18421D01*
X18569Y18421D01*
X18569Y18316D01*
X18569Y18316D01*
X18569Y18625D02*
X19192Y18625D01*
X19192Y18730D01*
X18569Y18730D01*
X18569Y18625D01*
X18569Y18625D01*
X19307Y18625D02*
X19428Y18625D01*
X19428Y18730D01*
X19307Y18730D01*
X19307Y18625D01*
X19307Y18625D01*
X18569Y18888D02*
X19428Y18888D01*
X19428Y18994D01*
X18569Y18994D01*
X18569Y18888D01*
X18569Y18888D01*
X18664Y19387D02*
X18571Y19403D01*
X18567Y19381D01*
X18564Y19360D01*
X18562Y19341D01*
X18561Y19323D01*
X18562Y19296D01*
X18566Y19272D01*
X18571Y19251D01*
X18579Y19234D01*
X18589Y19219D01*
X18600Y19207D01*
X18613Y19197D01*
X18627Y19189D01*
X18646Y19184D01*
X18673Y19180D01*
X18708Y19177D01*
X18752Y19177D01*
X19110Y19177D01*
X19110Y19099D01*
X19192Y19099D01*
X19192Y19177D01*
X19346Y19177D01*
X19409Y19281D01*
X19192Y19281D01*
X19192Y19387D01*
X19110Y19387D01*
X19110Y19281D01*
X18746Y19281D01*
X18725Y19282D01*
X18709Y19283D01*
X18696Y19285D01*
X18688Y19287D01*
X18682Y19290D01*
X18676Y19294D01*
X18671Y19299D01*
X18667Y19305D01*
X18664Y19312D01*
X18662Y19320D01*
X18660Y19330D01*
X18660Y19341D01*
X18660Y19351D01*
X18661Y19362D01*
X18662Y19374D01*
X18664Y19387D01*
X18664Y19387D01*
X18770Y19917D02*
X18756Y20026D01*
X18711Y20010D01*
X18672Y19989D01*
X18637Y19962D01*
X18608Y19930D01*
X18585Y19893D01*
X18569Y19851D01*
X18559Y19804D01*
X18555Y19752D01*
X18561Y19687D01*
X18576Y19629D01*
X18603Y19579D01*
X18639Y19535D01*
X18686Y19500D01*
X18740Y19475D01*
X18804Y19460D01*
X18875Y19455D01*
X18949Y19460D01*
X19015Y19476D01*
X19071Y19501D01*
X19119Y19536D01*
X19157Y19580D01*
X19184Y19629D01*
X19200Y19685D01*
X19206Y19746D01*
X19205Y19755D01*
X19119Y19747D01*
X19116Y19712D01*
X19107Y19680D01*
X19092Y19651D01*
X19070Y19625D01*
X19044Y19603D01*
X19014Y19587D01*
X18979Y19576D01*
X18940Y19570D01*
X18940Y19570D01*
X18940Y19918D01*
X18977Y19913D01*
X19009Y19904D01*
X19036Y19893D01*
X19058Y19878D01*
X19085Y19851D01*
X19104Y19820D01*
X19115Y19785D01*
X19119Y19747D01*
X19205Y19755D01*
X19200Y19806D01*
X19185Y19859D01*
X19158Y19908D01*
X19121Y19950D01*
X19074Y19985D01*
X19019Y20009D01*
X18954Y20024D01*
X18882Y20029D01*
X18876Y20029D01*
X18870Y20029D01*
X18862Y20029D01*
X18854Y20028D01*
X18854Y19564D01*
X18805Y19570D01*
X18763Y19582D01*
X18727Y19599D01*
X18697Y19622D01*
X18673Y19650D01*
X18656Y19681D01*
X18646Y19715D01*
X18642Y19752D01*
X18644Y19780D01*
X18650Y19806D01*
X18659Y19830D01*
X18673Y19851D01*
X18690Y19871D01*
X18712Y19888D01*
X18739Y19903D01*
X18770Y19917D01*
X18770Y19917D01*
X18569Y20157D02*
X19192Y20157D01*
X19192Y20252D01*
X19097Y20252D01*
X19128Y20270D01*
X19152Y20287D01*
X19171Y20303D01*
X19185Y20319D01*
X19194Y20335D01*
X19201Y20351D01*
X19204Y20368D01*
X19206Y20386D01*
X19204Y20413D01*
X19197Y20440D01*
X19187Y20467D01*
X19172Y20495D01*
X19074Y20459D01*
X19084Y20439D01*
X19091Y20420D01*
X19095Y20401D01*
X19097Y20381D01*
X19096Y20364D01*
X19092Y20348D01*
X19085Y20333D01*
X19076Y20319D01*
X19065Y20306D01*
X19051Y20295D01*
X19036Y20287D01*
X19018Y20280D01*
X18990Y20272D01*
X18959Y20267D01*
X18928Y20263D01*
X18895Y20262D01*
X18569Y20262D01*
X18569Y20157D01*
X18569Y20157D01*
X18331Y20891D02*
X19192Y20891D01*
X19192Y20987D01*
X19111Y20987D01*
X19061Y21039D01*
X19060Y21038D01*
X19025Y21016D01*
X18983Y20999D01*
X18934Y20990D01*
X18877Y20986D01*
X18877Y20986D01*
X18821Y20989D01*
X18773Y20999D01*
X18732Y21014D01*
X18700Y21035D01*
X18674Y21061D01*
X18656Y21089D01*
X18646Y21120D01*
X18642Y21153D01*
X18646Y21187D01*
X18657Y21218D01*
X18676Y21247D01*
X18702Y21273D01*
X18735Y21295D01*
X18777Y21311D01*
X18828Y21320D01*
X18886Y21323D01*
X18942Y21320D01*
X18990Y21311D01*
X19031Y21296D01*
X19064Y21274D01*
X19090Y21249D01*
X19108Y21221D01*
X19119Y21190D01*
X19123Y21158D01*
X19119Y21125D01*
X19107Y21094D01*
X19088Y21065D01*
X19061Y21039D01*
X19111Y20987D01*
X19133Y21005D01*
X19152Y21023D01*
X19169Y21043D01*
X19182Y21064D01*
X19192Y21086D01*
X19200Y21111D01*
X19204Y21138D01*
X19206Y21167D01*
X19203Y21206D01*
X19196Y21242D01*
X19183Y21276D01*
X19165Y21308D01*
X19142Y21337D01*
X19115Y21362D01*
X19084Y21383D01*
X19049Y21400D01*
X19011Y21414D01*
X18971Y21423D01*
X18929Y21429D01*
X18885Y21431D01*
X18839Y21429D01*
X18795Y21423D01*
X18753Y21412D01*
X18713Y21397D01*
X18677Y21378D01*
X18646Y21355D01*
X18619Y21328D01*
X18596Y21297D01*
X18578Y21264D01*
X18566Y21230D01*
X18558Y21195D01*
X18555Y21160D01*
X18557Y21134D01*
X18561Y21110D01*
X18568Y21087D01*
X18578Y21065D01*
X18590Y21045D01*
X18603Y21027D01*
X18618Y21011D01*
X18634Y20996D01*
X18331Y20996D01*
X18331Y20891D01*
X18331Y20891D01*
X18569Y21556D02*
X19428Y21556D01*
X19428Y21661D01*
X18569Y21661D01*
X18569Y21556D01*
X18569Y21556D01*
X18569Y22233D02*
X18661Y22233D01*
X18615Y22193D01*
X18582Y22147D01*
X18562Y22094D01*
X18555Y22035D01*
X18557Y22008D01*
X18561Y21982D01*
X18567Y21957D01*
X18576Y21932D01*
X18588Y21910D01*
X18600Y21891D01*
X18614Y21875D01*
X18630Y21862D01*
X18646Y21851D01*
X18665Y21842D01*
X18685Y21835D01*
X18708Y21829D01*
X18726Y21826D01*
X18748Y21824D01*
X18775Y21823D01*
X18806Y21823D01*
X19192Y21823D01*
X19192Y21928D01*
X18847Y21928D01*
X18809Y21928D01*
X18777Y21930D01*
X18753Y21932D01*
X18735Y21934D01*
X18716Y21941D01*
X18698Y21950D01*
X18683Y21962D01*
X18670Y21977D01*
X18660Y21994D01*
X18652Y22013D01*
X18648Y22034D01*
X18646Y22056D01*
X18648Y22080D01*
X18652Y22102D01*
X18660Y22124D01*
X18671Y22145D01*
X18684Y22165D01*
X18699Y22181D01*
X18717Y22194D01*
X18737Y22204D01*
X18760Y22212D01*
X18788Y22217D01*
X18821Y22220D01*
X18858Y22222D01*
X19192Y22222D01*
X19192Y22327D01*
X18569Y22327D01*
X18569Y22233D01*
X18569Y22233D01*
X18518Y22473D02*
X18503Y22575D01*
X18481Y22580D01*
X18462Y22588D01*
X18446Y22598D01*
X18434Y22611D01*
X18421Y22633D01*
X18412Y22658D01*
X18406Y22686D01*
X18404Y22718D01*
X18406Y22753D01*
X18412Y22783D01*
X18421Y22810D01*
X18434Y22832D01*
X18450Y22850D01*
X18469Y22865D01*
X18491Y22877D01*
X18516Y22885D01*
X18536Y22889D01*
X18566Y22891D01*
X18604Y22893D01*
X18651Y22893D01*
X18704Y22843D01*
X18713Y22853D01*
X18745Y22874D01*
X18785Y22890D01*
X18832Y22899D01*
X18888Y22902D01*
X18942Y22899D01*
X18988Y22889D01*
X19028Y22873D01*
X19060Y22851D01*
X19086Y22825D01*
X19104Y22795D01*
X19115Y22763D01*
X19118Y22729D01*
X19115Y22695D01*
X19104Y22664D01*
X19086Y22635D01*
X19061Y22609D01*
X19029Y22588D01*
X18990Y22573D01*
X18945Y22563D01*
X18892Y22560D01*
X18892Y22560D01*
X18835Y22563D01*
X18786Y22572D01*
X18745Y22588D01*
X18713Y22609D01*
X18688Y22635D01*
X18671Y22664D01*
X18660Y22696D01*
X18657Y22731D01*
X18660Y22766D01*
X18671Y22798D01*
X18688Y22827D01*
X18704Y22843D01*
X18651Y22893D01*
X18615Y22856D01*
X18590Y22815D01*
X18575Y22770D01*
X18569Y22721D01*
X18575Y22660D01*
X18593Y22607D01*
X18622Y22561D01*
X18662Y22522D01*
X18711Y22491D01*
X18764Y22469D01*
X18822Y22456D01*
X18884Y22452D01*
X18928Y22454D01*
X18970Y22460D01*
X19010Y22470D01*
X19048Y22484D01*
X19084Y22502D01*
X19115Y22524D01*
X19142Y22549D01*
X19165Y22578D01*
X19183Y22609D01*
X19196Y22644D01*
X19203Y22681D01*
X19206Y22721D01*
X19200Y22774D01*
X19184Y22822D01*
X19156Y22865D01*
X19117Y22903D01*
X19192Y22903D01*
X19192Y23000D01*
X18654Y23000D01*
X18586Y22998D01*
X18530Y22993D01*
X18483Y22984D01*
X18448Y22971D01*
X18419Y22954D01*
X18394Y22932D01*
X18371Y22907D01*
X18352Y22877D01*
X18337Y22843D01*
X18326Y22805D01*
X18319Y22764D01*
X18317Y22719D01*
X18320Y22666D01*
X18329Y22618D01*
X18345Y22576D01*
X18367Y22539D01*
X18395Y22509D01*
X18430Y22488D01*
X18471Y22476D01*
X18518Y22473D01*
X18518Y22473D01*
X16500Y9338D02*
X17359Y9005D01*
X17359Y9128D01*
X16735Y9352D01*
X16698Y9364D01*
X16662Y9376D01*
X16628Y9387D01*
X16594Y9397D01*
X16629Y9407D01*
X16665Y9418D01*
X16700Y9430D01*
X16735Y9443D01*
X17359Y9675D01*
X17359Y9791D01*
X16500Y9455D01*
X16500Y9338D01*
X16500Y9338D01*
X16700Y10239D02*
X16687Y10348D01*
X16642Y10333D01*
X16602Y10312D01*
X16568Y10285D01*
X16539Y10253D01*
X16516Y10215D01*
X16499Y10173D01*
X16489Y10126D01*
X16486Y10075D01*
X16491Y10010D01*
X16507Y9952D01*
X16533Y9902D01*
X16570Y9858D01*
X16616Y9823D01*
X16671Y9798D01*
X16734Y9783D01*
X16806Y9778D01*
X16880Y9783D01*
X16945Y9798D01*
X17002Y9824D01*
X17050Y9859D01*
X17088Y9902D01*
X17115Y9952D01*
X17131Y10007D01*
X17136Y10069D01*
X17136Y10078D01*
X17050Y10070D01*
X17047Y10035D01*
X17037Y10003D01*
X17022Y9974D01*
X17001Y9948D01*
X16975Y9926D01*
X16944Y9909D01*
X16910Y9898D01*
X16871Y9893D01*
X16871Y9893D01*
X16871Y10240D01*
X16908Y10235D01*
X16940Y10227D01*
X16967Y10215D01*
X16989Y10201D01*
X17015Y10174D01*
X17034Y10143D01*
X17046Y10108D01*
X17050Y10070D01*
X17136Y10078D01*
X17131Y10128D01*
X17115Y10182D01*
X17089Y10230D01*
X17051Y10273D01*
X17005Y10307D01*
X16949Y10332D01*
X16885Y10347D01*
X16812Y10352D01*
X16807Y10352D01*
X16801Y10352D01*
X16793Y10351D01*
X16784Y10351D01*
X16784Y9887D01*
X16736Y9893D01*
X16694Y9905D01*
X16657Y9922D01*
X16627Y9945D01*
X16603Y9973D01*
X16586Y10004D01*
X16576Y10038D01*
X16573Y10075D01*
X16575Y10103D01*
X16580Y10129D01*
X16590Y10153D01*
X16603Y10174D01*
X16621Y10194D01*
X16643Y10211D01*
X16669Y10226D01*
X16700Y10239D01*
X16700Y10239D01*
X16500Y10480D02*
X17122Y10480D01*
X17122Y10574D01*
X17028Y10574D01*
X17058Y10592D01*
X17083Y10609D01*
X17102Y10626D01*
X17115Y10642D01*
X17124Y10657D01*
X17131Y10674D01*
X17135Y10691D01*
X17136Y10709D01*
X17134Y10736D01*
X17128Y10763D01*
X17117Y10790D01*
X17102Y10818D01*
X17004Y10781D01*
X17014Y10762D01*
X17022Y10743D01*
X17026Y10723D01*
X17027Y10704D01*
X17026Y10687D01*
X17022Y10671D01*
X17016Y10656D01*
X17007Y10642D01*
X16995Y10629D01*
X16982Y10618D01*
X16966Y10609D01*
X16949Y10603D01*
X16920Y10595D01*
X16890Y10589D01*
X16859Y10586D01*
X16826Y10585D01*
X16500Y10585D01*
X16500Y10480D01*
X16500Y10480D01*
X16686Y10838D02*
X16702Y10942D01*
X16673Y10949D01*
X16647Y10959D01*
X16625Y10973D01*
X16606Y10991D01*
X16591Y11013D01*
X16581Y11039D01*
X16575Y11069D01*
X16573Y11104D01*
X16575Y11138D01*
X16580Y11167D01*
X16589Y11191D01*
X16602Y11211D01*
X16618Y11227D01*
X16634Y11238D01*
X16652Y11244D01*
X16672Y11247D01*
X16689Y11245D01*
X16704Y11239D01*
X16717Y11229D01*
X16728Y11215D01*
X16735Y11201D01*
X16744Y11178D01*
X16753Y11147D01*
X16764Y11108D01*
X16778Y11054D01*
X16791Y11009D01*
X16803Y10974D01*
X16814Y10947D01*
X16826Y10926D01*
X16840Y10907D01*
X16856Y10892D01*
X16874Y10879D01*
X16893Y10869D01*
X16913Y10861D01*
X16935Y10857D01*
X16957Y10856D01*
X16977Y10857D01*
X16997Y10860D01*
X17016Y10866D01*
X17034Y10875D01*
X17051Y10885D01*
X17067Y10897D01*
X17080Y10911D01*
X17093Y10927D01*
X17102Y10940D01*
X17110Y10956D01*
X17117Y10974D01*
X17124Y10994D01*
X17129Y11015D01*
X17133Y11038D01*
X17136Y11061D01*
X17136Y11085D01*
X17135Y11120D01*
X17131Y11154D01*
X17124Y11185D01*
X17115Y11213D01*
X17104Y11239D01*
X17090Y11262D01*
X17075Y11280D01*
X17058Y11295D01*
X17039Y11307D01*
X17016Y11317D01*
X16990Y11325D01*
X16962Y11331D01*
X16948Y11228D01*
X16970Y11223D01*
X16990Y11215D01*
X17008Y11203D01*
X17023Y11188D01*
X17034Y11169D01*
X17043Y11147D01*
X17048Y11121D01*
X17050Y11092D01*
X17048Y11059D01*
X17044Y11030D01*
X17036Y11007D01*
X17026Y10989D01*
X17013Y10975D01*
X17000Y10965D01*
X16985Y10960D01*
X16969Y10958D01*
X16959Y10958D01*
X16950Y10961D01*
X16941Y10965D01*
X16932Y10971D01*
X16924Y10978D01*
X16917Y10987D01*
X16910Y10998D01*
X16904Y11011D01*
X16900Y11023D01*
X16895Y11042D01*
X16887Y11069D01*
X16877Y11104D01*
X16863Y11156D01*
X16850Y11199D01*
X16839Y11234D01*
X16828Y11260D01*
X16818Y11281D01*
X16805Y11300D01*
X16790Y11316D01*
X16773Y11330D01*
X16754Y11341D01*
X16732Y11349D01*
X16709Y11353D01*
X16683Y11355D01*
X16657Y11353D01*
X16632Y11347D01*
X16607Y11338D01*
X16583Y11324D01*
X16562Y11307D01*
X16542Y11287D01*
X16525Y11263D01*
X16511Y11235D01*
X16500Y11205D01*
X16492Y11174D01*
X16488Y11140D01*
X16486Y11104D01*
X16489Y11047D01*
X16499Y10997D01*
X16514Y10955D01*
X16536Y10919D01*
X16565Y10890D01*
X16599Y10867D01*
X16639Y10850D01*
X16686Y10838D01*
X16686Y10838D01*
X16500Y11481D02*
X17122Y11481D01*
X17122Y11586D01*
X16500Y11586D01*
X16500Y11481D01*
X16500Y11481D01*
X17238Y11481D02*
X17359Y11481D01*
X17359Y11586D01*
X17238Y11586D01*
X17238Y11481D01*
X17238Y11481D01*
X16811Y11708D02*
X16892Y11714D01*
X16962Y11732D01*
X17020Y11762D01*
X17067Y11804D01*
X17097Y11846D01*
X17119Y11893D01*
X17132Y11944D01*
X17136Y11999D01*
X17131Y12061D01*
X17115Y12116D01*
X17089Y12166D01*
X17052Y12209D01*
X17006Y12245D01*
X16952Y12270D01*
X16890Y12286D01*
X16820Y12291D01*
X16763Y12288D01*
X16713Y12282D01*
X16669Y12270D01*
X16631Y12255D01*
X16598Y12235D01*
X16570Y12210D01*
X16545Y12182D01*
X16524Y12150D01*
X16507Y12115D01*
X16495Y12078D01*
X16488Y12039D01*
X16486Y11999D01*
X16487Y11992D01*
X16573Y11999D01*
X16576Y12037D01*
X16588Y12071D01*
X16606Y12102D01*
X16632Y12130D01*
X16666Y12153D01*
X16708Y12169D01*
X16757Y12179D01*
X16815Y12182D01*
X16869Y12179D01*
X16916Y12169D01*
X16956Y12153D01*
X16990Y12130D01*
X17016Y12102D01*
X17034Y12071D01*
X17045Y12037D01*
X17049Y11999D01*
X17045Y11962D01*
X17034Y11927D01*
X17016Y11896D01*
X16990Y11868D01*
X16956Y11845D01*
X16916Y11829D01*
X16867Y11819D01*
X16811Y11816D01*
X16811Y11816D01*
X16755Y11819D01*
X16707Y11829D01*
X16666Y11845D01*
X16632Y11868D01*
X16606Y11896D01*
X16588Y11927D01*
X16576Y11962D01*
X16573Y11999D01*
X16487Y11992D01*
X16491Y11937D01*
X16507Y11881D01*
X16533Y11832D01*
X16570Y11788D01*
X16616Y11753D01*
X16672Y11728D01*
X16737Y11713D01*
X16811Y11708D01*
X16811Y11708D01*
X16500Y12414D02*
X17122Y12414D01*
X17122Y12509D01*
X17034Y12509D01*
X17079Y12547D01*
X17111Y12593D01*
X17130Y12646D01*
X17136Y12707D01*
X17135Y12735D01*
X17131Y12761D01*
X17125Y12787D01*
X17116Y12811D01*
X17105Y12833D01*
X17093Y12852D01*
X17079Y12868D01*
X17063Y12881D01*
X17046Y12892D01*
X17027Y12901D01*
X17007Y12909D01*
X16985Y12914D01*
X16968Y12917D01*
X16945Y12918D01*
X16916Y12920D01*
X16883Y12920D01*
X16500Y12920D01*
X16500Y12814D01*
X16879Y12814D01*
X16909Y12814D01*
X16935Y12811D01*
X16957Y12808D01*
X16975Y12802D01*
X16990Y12795D01*
X17004Y12785D01*
X17016Y12773D01*
X17026Y12759D01*
X17034Y12742D01*
X17040Y12724D01*
X17044Y12705D01*
X17045Y12685D01*
X17042Y12652D01*
X17034Y12622D01*
X17021Y12594D01*
X17002Y12569D01*
X16976Y12547D01*
X16940Y12532D01*
X16895Y12523D01*
X16840Y12520D01*
X16500Y12520D01*
X16500Y12414D01*
X16500Y12414D01*
X16500Y13783D02*
X16500Y13678D01*
X17172Y13678D01*
X17154Y13657D01*
X17136Y13634D01*
X17118Y13607D01*
X17099Y13578D01*
X17082Y13548D01*
X17068Y13519D01*
X17055Y13492D01*
X17045Y13467D01*
X17147Y13467D01*
X17169Y13509D01*
X17193Y13550D01*
X17219Y13587D01*
X17248Y13621D01*
X17277Y13652D01*
X17306Y13678D01*
X17334Y13699D01*
X17363Y13715D01*
X17363Y13783D01*
X16500Y13783D01*
X16500Y13783D01*
X16500Y14112D02*
X16620Y14112D01*
X16620Y14232D01*
X16500Y14232D01*
X16500Y14112D01*
X16500Y14112D01*
X16924Y14387D02*
X16996Y14389D01*
X17061Y14394D01*
X17119Y14404D01*
X17169Y14418D01*
X17213Y14435D01*
X17251Y14457D01*
X17284Y14482D01*
X17312Y14511D01*
X17334Y14544D01*
X17350Y14581D01*
X17359Y14622D01*
X17363Y14667D01*
X17361Y14700D01*
X17356Y14732D01*
X17347Y14761D01*
X17335Y14788D01*
X17319Y14813D01*
X17301Y14836D01*
X17279Y14856D01*
X17254Y14874D01*
X17227Y14890D01*
X17196Y14904D01*
X17163Y14917D01*
X17127Y14927D01*
X17086Y14936D01*
X17038Y14942D01*
X16984Y14946D01*
X16924Y14947D01*
X16852Y14945D01*
X16787Y14939D01*
X16730Y14929D01*
X16680Y14916D01*
X16636Y14898D01*
X16597Y14877D01*
X16564Y14852D01*
X16536Y14823D01*
X16514Y14790D01*
X16498Y14753D01*
X16489Y14712D01*
X16485Y14667D01*
X16486Y14658D01*
X16572Y14667D01*
X16576Y14702D01*
X16590Y14734D01*
X16612Y14763D01*
X16642Y14789D01*
X16686Y14810D01*
X16748Y14826D01*
X16827Y14835D01*
X16924Y14838D01*
X17021Y14835D01*
X17100Y14826D01*
X17162Y14810D01*
X17205Y14789D01*
X17236Y14763D01*
X17258Y14733D01*
X17271Y14701D01*
X17275Y14665D01*
X17271Y14631D01*
X17260Y14600D01*
X17241Y14573D01*
X17214Y14549D01*
X17166Y14526D01*
X17102Y14509D01*
X17021Y14498D01*
X16924Y14495D01*
X16924Y14495D01*
X16827Y14498D01*
X16747Y14507D01*
X16686Y14523D01*
X16642Y14544D01*
X16611Y14571D01*
X16590Y14600D01*
X16576Y14632D01*
X16572Y14667D01*
X16486Y14658D01*
X16491Y14608D01*
X16508Y14556D01*
X16535Y14510D01*
X16574Y14472D01*
X16636Y14434D01*
X16715Y14408D01*
X16811Y14392D01*
X16924Y14387D01*
X16924Y14387D01*
X16500Y15113D02*
X16620Y15113D01*
X16620Y15233D01*
X16500Y15233D01*
X16500Y15113D01*
X16500Y15113D01*
X16924Y15387D02*
X16996Y15389D01*
X17061Y15395D01*
X17119Y15405D01*
X17169Y15419D01*
X17213Y15436D01*
X17251Y15458D01*
X17284Y15483D01*
X17312Y15512D01*
X17334Y15545D01*
X17350Y15582D01*
X17359Y15623D01*
X17363Y15667D01*
X17361Y15701D01*
X17356Y15732D01*
X17347Y15762D01*
X17335Y15789D01*
X17319Y15814D01*
X17301Y15836D01*
X17279Y15857D01*
X17254Y15875D01*
X17227Y15891D01*
X17196Y15905D01*
X17163Y15918D01*
X17127Y15928D01*
X17086Y15937D01*
X17038Y15943D01*
X16984Y15946D01*
X16924Y15947D01*
X16852Y15946D01*
X16787Y15940D01*
X16730Y15930D01*
X16680Y15916D01*
X16636Y15899D01*
X16597Y15878D01*
X16564Y15853D01*
X16536Y15824D01*
X16514Y15791D01*
X16498Y15754D01*
X16489Y15713D01*
X16485Y15667D01*
X16486Y15659D01*
X16572Y15667D01*
X16576Y15702D01*
X16590Y15734D01*
X16612Y15763D01*
X16642Y15790D01*
X16686Y15811D01*
X16748Y15827D01*
X16827Y15836D01*
X16924Y15839D01*
X17021Y15836D01*
X17100Y15827D01*
X17162Y15811D01*
X17205Y15790D01*
X17236Y15763D01*
X17258Y15734D01*
X17271Y15702D01*
X17275Y15666D01*
X17271Y15632D01*
X17260Y15601D01*
X17241Y15574D01*
X17214Y15550D01*
X17166Y15526D01*
X17102Y15509D01*
X17021Y15499D01*
X16924Y15496D01*
X16924Y15496D01*
X16827Y15499D01*
X16747Y15508D01*
X16686Y15524D01*
X16642Y15545D01*
X16611Y15571D01*
X16590Y15601D01*
X16576Y15633D01*
X16572Y15667D01*
X16486Y15659D01*
X16491Y15609D01*
X16508Y15557D01*
X16535Y15511D01*
X16574Y15472D01*
X16636Y15435D01*
X16715Y15409D01*
X16811Y15393D01*
X16924Y15387D01*
X16924Y15387D01*
G37*
M02*