%FSLAX33Y33*%
%MOMM*%
%ADD10C,0.15*%
%ADD11C,0.3*%
%ADD12C,0.5*%
%ADD13R,1.X1.5*%
%ADD14C,0.5*%
D10*
%LNtop silkscreen_traces*%
%LNtop silkscreen component 868628c6aa7037bb*%
G01*
X12789Y20931D02*
X12789Y19201D01*
X14389Y20931D02*
X14389Y19201D01*
D11*
X12859Y20642D02*
X14319Y20642D01*
D12*
X13589Y22676D03*
G36*
X15368Y19966D02*
X15463Y19942D01*
X15445Y19887D01*
X15421Y19839D01*
X15392Y19798D01*
X15356Y19764D01*
X15315Y19737D01*
X15270Y19718D01*
X15220Y19707D01*
X15167Y19703D01*
X15111Y19706D01*
X15062Y19715D01*
X15017Y19729D01*
X14978Y19750D01*
X14944Y19776D01*
X14915Y19808D01*
X14889Y19844D01*
X14868Y19886D01*
X14851Y19932D01*
X14840Y19979D01*
X14833Y20028D01*
X14830Y20078D01*
X14833Y20132D01*
X14841Y20183D01*
X14854Y20230D01*
X14873Y20273D01*
X14897Y20312D01*
X14925Y20347D01*
X14957Y20376D01*
X14994Y20400D01*
X15035Y20419D01*
X15077Y20432D01*
X15122Y20440D01*
X15168Y20443D01*
X15220Y20440D01*
X15267Y20429D01*
X15310Y20412D01*
X15349Y20388D01*
X15383Y20358D01*
X15411Y20323D01*
X15434Y20281D01*
X15451Y20235D01*
X15358Y20213D01*
X15344Y20249D01*
X15327Y20280D01*
X15308Y20306D01*
X15285Y20326D01*
X15260Y20342D01*
X15232Y20353D01*
X15200Y20360D01*
X15166Y20362D01*
X15127Y20360D01*
X15090Y20352D01*
X15058Y20340D01*
X15028Y20322D01*
X15003Y20301D01*
X14981Y20276D01*
X14964Y20248D01*
X14950Y20216D01*
X14940Y20183D01*
X14933Y20149D01*
X14929Y20114D01*
X14928Y20079D01*
X14929Y20035D01*
X14934Y19993D01*
X14943Y19955D01*
X14954Y19919D01*
X14970Y19887D01*
X14988Y19860D01*
X15011Y19837D01*
X15037Y19818D01*
X15066Y19803D01*
X15096Y19792D01*
X15127Y19786D01*
X15159Y19784D01*
X15197Y19787D01*
X15232Y19795D01*
X15264Y19810D01*
X15294Y19830D01*
X15319Y19855D01*
X15340Y19887D01*
X15356Y19924D01*
X15368Y19966D01*
X15368Y19966D01*
X16000Y20256D02*
X15913Y20249D01*
X15906Y20273D01*
X15899Y20293D01*
X15890Y20310D01*
X15879Y20324D01*
X15861Y20340D01*
X15840Y20352D01*
X15817Y20359D01*
X15792Y20361D01*
X15771Y20360D01*
X15752Y20356D01*
X15734Y20348D01*
X15718Y20338D01*
X15698Y20321D01*
X15681Y20301D01*
X15665Y20277D01*
X15652Y20250D01*
X15642Y20218D01*
X15634Y20179D01*
X15629Y20135D01*
X15628Y20084D01*
X15674Y20048D01*
X15665Y20036D01*
X15652Y20010D01*
X15644Y19980D01*
X15641Y19947D01*
X15641Y19947D01*
X15642Y19924D01*
X15646Y19902D01*
X15652Y19881D01*
X15660Y19860D01*
X15671Y19841D01*
X15684Y19823D01*
X15698Y19809D01*
X15714Y19797D01*
X15732Y19787D01*
X15750Y19780D01*
X15768Y19776D01*
X15787Y19775D01*
X15814Y19778D01*
X15839Y19786D01*
X15862Y19800D01*
X15883Y19820D01*
X15900Y19844D01*
X15913Y19873D01*
X15920Y19905D01*
X15923Y19942D01*
X15920Y19977D01*
X15913Y20008D01*
X15901Y20036D01*
X15883Y20059D01*
X15862Y20078D01*
X15839Y20091D01*
X15813Y20099D01*
X15784Y20102D01*
X15755Y20099D01*
X15729Y20091D01*
X15705Y20078D01*
X15683Y20059D01*
X15674Y20048D01*
X15628Y20084D01*
X15644Y20107D01*
X15663Y20126D01*
X15683Y20143D01*
X15705Y20156D01*
X15728Y20166D01*
X15752Y20173D01*
X15776Y20178D01*
X15801Y20179D01*
X15844Y20175D01*
X15883Y20163D01*
X15918Y20143D01*
X15951Y20115D01*
X15978Y20080D01*
X15997Y20041D01*
X16009Y19996D01*
X16013Y19947D01*
X16011Y19914D01*
X16006Y19882D01*
X15996Y19852D01*
X15984Y19822D01*
X15968Y19795D01*
X15949Y19771D01*
X15928Y19751D01*
X15904Y19734D01*
X15878Y19720D01*
X15850Y19710D01*
X15820Y19705D01*
X15789Y19703D01*
X15736Y19708D01*
X15689Y19723D01*
X15647Y19748D01*
X15609Y19784D01*
X15579Y19831D01*
X15557Y19891D01*
X15544Y19964D01*
X15540Y20050D01*
X15545Y20147D01*
X15559Y20229D01*
X15583Y20298D01*
X15617Y20352D01*
X15653Y20388D01*
X15695Y20413D01*
X15743Y20429D01*
X15797Y20434D01*
X15837Y20431D01*
X15874Y20422D01*
X15907Y20407D01*
X15935Y20386D01*
X15960Y20360D01*
X15979Y20330D01*
X15992Y20295D01*
X16000Y20256D01*
X16000Y20256D01*
G37*
%LNtop silkscreen component 62b3e2272320442a*%
D10*
X8979Y20931D02*
X8979Y19201D01*
X10579Y20931D02*
X10579Y19201D01*
D11*
X9049Y20642D02*
X10509Y20642D01*
D12*
X9779Y22676D03*
G36*
X11558Y19966D02*
X11653Y19942D01*
X11635Y19887D01*
X11611Y19839D01*
X11582Y19798D01*
X11546Y19764D01*
X11505Y19737D01*
X11460Y19718D01*
X11410Y19707D01*
X11357Y19703D01*
X11301Y19706D01*
X11252Y19715D01*
X11207Y19729D01*
X11168Y19750D01*
X11134Y19776D01*
X11105Y19808D01*
X11079Y19844D01*
X11058Y19886D01*
X11041Y19932D01*
X11030Y19979D01*
X11023Y20028D01*
X11020Y20078D01*
X11023Y20132D01*
X11031Y20183D01*
X11044Y20230D01*
X11063Y20273D01*
X11087Y20312D01*
X11115Y20347D01*
X11147Y20376D01*
X11184Y20400D01*
X11225Y20419D01*
X11267Y20432D01*
X11312Y20440D01*
X11358Y20443D01*
X11410Y20440D01*
X11457Y20429D01*
X11500Y20412D01*
X11539Y20388D01*
X11573Y20358D01*
X11601Y20323D01*
X11624Y20281D01*
X11641Y20235D01*
X11548Y20213D01*
X11534Y20249D01*
X11517Y20280D01*
X11498Y20306D01*
X11475Y20326D01*
X11450Y20342D01*
X11422Y20353D01*
X11390Y20360D01*
X11356Y20362D01*
X11317Y20360D01*
X11280Y20352D01*
X11248Y20340D01*
X11218Y20322D01*
X11193Y20301D01*
X11171Y20276D01*
X11154Y20248D01*
X11140Y20216D01*
X11130Y20183D01*
X11123Y20149D01*
X11119Y20114D01*
X11118Y20079D01*
X11119Y20035D01*
X11124Y19993D01*
X11133Y19955D01*
X11144Y19919D01*
X11160Y19887D01*
X11178Y19860D01*
X11201Y19837D01*
X11227Y19818D01*
X11256Y19803D01*
X11286Y19792D01*
X11317Y19786D01*
X11349Y19784D01*
X11387Y19787D01*
X11422Y19795D01*
X11454Y19810D01*
X11484Y19830D01*
X11509Y19855D01*
X11530Y19887D01*
X11546Y19924D01*
X11558Y19966D01*
X11558Y19966D01*
X11735Y19904D02*
X11822Y19916D01*
X11831Y19881D01*
X11843Y19851D01*
X11857Y19827D01*
X11874Y19808D01*
X11893Y19794D01*
X11914Y19783D01*
X11937Y19777D01*
X11963Y19775D01*
X11992Y19778D01*
X12020Y19786D01*
X12045Y19799D01*
X12067Y19818D01*
X12086Y19841D01*
X12099Y19866D01*
X12107Y19894D01*
X12110Y19924D01*
X12108Y19953D01*
X12100Y19980D01*
X12088Y20003D01*
X12070Y20024D01*
X12049Y20042D01*
X12026Y20054D01*
X11999Y20061D01*
X11970Y20064D01*
X11957Y20063D01*
X11942Y20061D01*
X11926Y20058D01*
X11908Y20054D01*
X11918Y20131D01*
X11922Y20131D01*
X11926Y20130D01*
X11929Y20130D01*
X11932Y20130D01*
X11959Y20132D01*
X11985Y20137D01*
X12010Y20147D01*
X12033Y20159D01*
X12053Y20176D01*
X12067Y20197D01*
X12075Y20221D01*
X12078Y20250D01*
X12076Y20273D01*
X12070Y20294D01*
X12059Y20313D01*
X12045Y20330D01*
X12028Y20344D01*
X12008Y20354D01*
X11985Y20360D01*
X11961Y20361D01*
X11936Y20359D01*
X11914Y20353D01*
X11893Y20343D01*
X11875Y20329D01*
X11860Y20311D01*
X11847Y20289D01*
X11838Y20263D01*
X11831Y20233D01*
X11743Y20248D01*
X11754Y20290D01*
X11770Y20327D01*
X11791Y20358D01*
X11817Y20385D01*
X11847Y20406D01*
X11881Y20422D01*
X11918Y20431D01*
X11959Y20434D01*
X11987Y20432D01*
X12015Y20427D01*
X12041Y20420D01*
X12067Y20409D01*
X12090Y20395D01*
X12110Y20379D01*
X12127Y20361D01*
X12142Y20340D01*
X12153Y20318D01*
X12162Y20295D01*
X12166Y20272D01*
X12168Y20248D01*
X12167Y20225D01*
X12162Y20203D01*
X12154Y20183D01*
X12143Y20163D01*
X12129Y20145D01*
X12112Y20129D01*
X12092Y20115D01*
X12069Y20103D01*
X12099Y20093D01*
X12126Y20080D01*
X12149Y20063D01*
X12168Y20042D01*
X12183Y20017D01*
X12194Y19990D01*
X12201Y19960D01*
X12203Y19926D01*
X12199Y19881D01*
X12186Y19840D01*
X12165Y19802D01*
X12135Y19767D01*
X12098Y19739D01*
X12058Y19719D01*
X12012Y19706D01*
X11962Y19702D01*
X11917Y19706D01*
X11876Y19716D01*
X11839Y19734D01*
X11806Y19758D01*
X11778Y19789D01*
X11757Y19823D01*
X11742Y19861D01*
X11735Y19904D01*
X11735Y19904D01*
G37*
%LNtop silkscreen component fd34238b57d531db*%
D13*
X4500Y12700D03*
G36*
X5314Y3711D02*
X5314Y3797D01*
X5622Y3797D01*
X5622Y3527D01*
X5586Y3501D01*
X5550Y3478D01*
X5513Y3458D01*
X5475Y3442D01*
X5437Y3430D01*
X5399Y3421D01*
X5360Y3415D01*
X5321Y3414D01*
X5268Y3416D01*
X5218Y3425D01*
X5171Y3439D01*
X5126Y3459D01*
X5085Y3485D01*
X5049Y3516D01*
X5019Y3551D01*
X4994Y3592D01*
X4974Y3637D01*
X4960Y3684D01*
X4952Y3734D01*
X4949Y3786D01*
X4952Y3838D01*
X4960Y3889D01*
X4974Y3937D01*
X4993Y3984D01*
X5018Y4027D01*
X5048Y4065D01*
X5082Y4096D01*
X5121Y4121D01*
X5164Y4141D01*
X5211Y4155D01*
X5260Y4163D01*
X5313Y4166D01*
X5352Y4164D01*
X5388Y4159D01*
X5423Y4151D01*
X5456Y4140D01*
X5486Y4126D01*
X5513Y4110D01*
X5536Y4091D01*
X5556Y4069D01*
X5573Y4044D01*
X5588Y4016D01*
X5600Y3985D01*
X5611Y3950D01*
X5524Y3926D01*
X5515Y3952D01*
X5506Y3976D01*
X5495Y3996D01*
X5483Y4013D01*
X5470Y4028D01*
X5454Y4042D01*
X5435Y4054D01*
X5414Y4064D01*
X5391Y4073D01*
X5366Y4079D01*
X5341Y4082D01*
X5314Y4083D01*
X5282Y4082D01*
X5252Y4078D01*
X5225Y4072D01*
X5200Y4063D01*
X5177Y4052D01*
X5156Y4040D01*
X5138Y4026D01*
X5122Y4010D01*
X5108Y3994D01*
X5096Y3976D01*
X5085Y3958D01*
X5076Y3938D01*
X5064Y3904D01*
X5055Y3868D01*
X5050Y3831D01*
X5048Y3792D01*
X5050Y3745D01*
X5057Y3703D01*
X5067Y3664D01*
X5082Y3629D01*
X5100Y3599D01*
X5123Y3572D01*
X5149Y3550D01*
X5179Y3532D01*
X5212Y3518D01*
X5245Y3508D01*
X5280Y3502D01*
X5315Y3500D01*
X5346Y3502D01*
X5377Y3506D01*
X5407Y3514D01*
X5437Y3524D01*
X5465Y3537D01*
X5490Y3549D01*
X5510Y3562D01*
X5528Y3576D01*
X5528Y3711D01*
X5314Y3711D01*
X5314Y3711D01*
X6096Y3491D02*
X6071Y3471D01*
X6068Y3469D01*
X6034Y3519D01*
X6050Y3533D01*
X6063Y3550D01*
X6074Y3568D01*
X6081Y3585D01*
X6085Y3606D01*
X6088Y3630D01*
X6089Y3658D01*
X6089Y3690D01*
X6089Y3690D01*
X6061Y3681D01*
X6028Y3672D01*
X5988Y3664D01*
X5943Y3657D01*
X5917Y3653D01*
X5896Y3648D01*
X5878Y3644D01*
X5865Y3639D01*
X5854Y3633D01*
X5845Y3627D01*
X5837Y3619D01*
X5830Y3610D01*
X5824Y3600D01*
X5820Y3590D01*
X5818Y3579D01*
X5817Y3567D01*
X5819Y3550D01*
X5824Y3535D01*
X5832Y3521D01*
X5844Y3508D01*
X5859Y3497D01*
X5878Y3490D01*
X5899Y3486D01*
X5923Y3484D01*
X5949Y3485D01*
X5972Y3490D01*
X5994Y3497D01*
X6015Y3507D01*
X6034Y3519D01*
X6068Y3469D01*
X6047Y3455D01*
X6024Y3442D01*
X6001Y3431D01*
X5977Y3424D01*
X5953Y3418D01*
X5928Y3415D01*
X5902Y3414D01*
X5861Y3417D01*
X5825Y3425D01*
X5794Y3438D01*
X5769Y3457D01*
X5748Y3479D01*
X5734Y3505D01*
X5725Y3533D01*
X5722Y3565D01*
X5723Y3584D01*
X5726Y3602D01*
X5732Y3619D01*
X5740Y3636D01*
X5749Y3651D01*
X5760Y3664D01*
X5772Y3676D01*
X5786Y3687D01*
X5800Y3696D01*
X5816Y3704D01*
X5833Y3711D01*
X5850Y3716D01*
X5865Y3720D01*
X5883Y3723D01*
X5905Y3726D01*
X5929Y3730D01*
X5980Y3736D01*
X6023Y3744D01*
X6060Y3752D01*
X6089Y3760D01*
X6089Y3769D01*
X6089Y3775D01*
X6089Y3780D01*
X6089Y3784D01*
X6088Y3809D01*
X6083Y3830D01*
X6075Y3847D01*
X6064Y3861D01*
X6045Y3874D01*
X6021Y3883D01*
X5994Y3889D01*
X5962Y3891D01*
X5933Y3889D01*
X5907Y3885D01*
X5886Y3878D01*
X5869Y3869D01*
X5855Y3856D01*
X5843Y3838D01*
X5833Y3817D01*
X5825Y3791D01*
X5737Y3803D01*
X5744Y3829D01*
X5753Y3853D01*
X5764Y3874D01*
X5777Y3893D01*
X5792Y3909D01*
X5810Y3924D01*
X5831Y3936D01*
X5855Y3946D01*
X5882Y3954D01*
X5911Y3960D01*
X5942Y3964D01*
X5975Y3965D01*
X6007Y3964D01*
X6036Y3961D01*
X6062Y3956D01*
X6085Y3949D01*
X6104Y3940D01*
X6121Y3931D01*
X6135Y3920D01*
X6147Y3909D01*
X6156Y3896D01*
X6164Y3882D01*
X6170Y3866D01*
X6174Y3848D01*
X6176Y3834D01*
X6178Y3816D01*
X6179Y3793D01*
X6179Y3766D01*
X6179Y3647D01*
X6179Y3590D01*
X6180Y3545D01*
X6182Y3511D01*
X6185Y3489D01*
X6188Y3473D01*
X6193Y3457D01*
X6199Y3441D01*
X6207Y3426D01*
X6114Y3426D01*
X6108Y3440D01*
X6103Y3456D01*
X6099Y3473D01*
X6096Y3491D01*
X6096Y3491D01*
X6512Y3506D02*
X6525Y3427D01*
X6507Y3424D01*
X6489Y3421D01*
X6473Y3420D01*
X6458Y3419D01*
X6435Y3420D01*
X6415Y3423D01*
X6397Y3428D01*
X6382Y3434D01*
X6370Y3443D01*
X6359Y3452D01*
X6351Y3463D01*
X6345Y3475D01*
X6340Y3491D01*
X6336Y3514D01*
X6334Y3544D01*
X6334Y3580D01*
X6334Y3883D01*
X6268Y3883D01*
X6268Y3953D01*
X6334Y3953D01*
X6334Y4083D01*
X6423Y4137D01*
X6423Y3953D01*
X6512Y3953D01*
X6512Y3883D01*
X6423Y3883D01*
X6423Y3575D01*
X6423Y3558D01*
X6424Y3544D01*
X6425Y3533D01*
X6427Y3526D01*
X6430Y3521D01*
X6433Y3516D01*
X6438Y3512D01*
X6443Y3509D01*
X6449Y3506D01*
X6456Y3504D01*
X6464Y3503D01*
X6473Y3502D01*
X6481Y3503D01*
X6490Y3503D01*
X6501Y3504D01*
X6512Y3506D01*
X6512Y3506D01*
X6960Y3596D02*
X7053Y3584D01*
X7039Y3546D01*
X7021Y3512D01*
X6999Y3483D01*
X6972Y3459D01*
X6940Y3439D01*
X6904Y3425D01*
X6865Y3417D01*
X6821Y3414D01*
X6766Y3419D01*
X6717Y3432D01*
X6674Y3454D01*
X6638Y3485D01*
X6608Y3524D01*
X6587Y3571D01*
X6574Y3624D01*
X6570Y3685D01*
X6574Y3748D01*
X6587Y3803D01*
X6608Y3851D01*
X6638Y3891D01*
X6675Y3923D01*
X6717Y3946D01*
X6764Y3960D01*
X6816Y3965D01*
X6823Y3964D01*
X6817Y3891D01*
X6787Y3889D01*
X6760Y3881D01*
X6736Y3868D01*
X6713Y3850D01*
X6695Y3828D01*
X6681Y3802D01*
X6672Y3773D01*
X6667Y3740D01*
X6667Y3740D01*
X6961Y3740D01*
X6957Y3771D01*
X6950Y3798D01*
X6940Y3821D01*
X6928Y3840D01*
X6905Y3862D01*
X6879Y3878D01*
X6849Y3888D01*
X6817Y3891D01*
X6823Y3964D01*
X6866Y3960D01*
X6912Y3947D01*
X6953Y3924D01*
X6989Y3893D01*
X7018Y3853D01*
X7039Y3806D01*
X7051Y3752D01*
X7056Y3690D01*
X7055Y3686D01*
X7055Y3680D01*
X7055Y3674D01*
X7055Y3667D01*
X6662Y3667D01*
X6667Y3626D01*
X6677Y3590D01*
X6692Y3559D01*
X6711Y3534D01*
X6735Y3513D01*
X6761Y3499D01*
X6790Y3490D01*
X6821Y3488D01*
X6845Y3489D01*
X6867Y3494D01*
X6887Y3502D01*
X6905Y3513D01*
X6922Y3528D01*
X6936Y3547D01*
X6949Y3569D01*
X6960Y3596D01*
X6960Y3596D01*
X5492Y6221D02*
X5589Y6197D01*
X5570Y6141D01*
X5546Y6092D01*
X5516Y6051D01*
X5480Y6016D01*
X5438Y5989D01*
X5392Y5969D01*
X5342Y5957D01*
X5287Y5954D01*
X5231Y5957D01*
X5181Y5966D01*
X5136Y5981D01*
X5096Y6001D01*
X5062Y6028D01*
X5031Y6060D01*
X5005Y6097D01*
X4984Y6140D01*
X4967Y6186D01*
X4955Y6234D01*
X4948Y6284D01*
X4946Y6335D01*
X4948Y6390D01*
X4956Y6441D01*
X4970Y6489D01*
X4989Y6533D01*
X5013Y6573D01*
X5042Y6608D01*
X5075Y6637D01*
X5113Y6662D01*
X5154Y6681D01*
X5197Y6695D01*
X5242Y6703D01*
X5289Y6706D01*
X5341Y6702D01*
X5389Y6692D01*
X5433Y6674D01*
X5472Y6650D01*
X5507Y6620D01*
X5536Y6583D01*
X5559Y6541D01*
X5576Y6494D01*
X5481Y6472D01*
X5467Y6509D01*
X5450Y6540D01*
X5431Y6566D01*
X5408Y6587D01*
X5382Y6603D01*
X5354Y6614D01*
X5322Y6621D01*
X5287Y6623D01*
X5247Y6621D01*
X5210Y6613D01*
X5177Y6601D01*
X5147Y6583D01*
X5121Y6561D01*
X5099Y6536D01*
X5081Y6507D01*
X5068Y6475D01*
X5058Y6441D01*
X5051Y6406D01*
X5046Y6371D01*
X5045Y6336D01*
X5047Y6291D01*
X5052Y6249D01*
X5060Y6210D01*
X5072Y6174D01*
X5087Y6141D01*
X5106Y6113D01*
X5129Y6089D01*
X5156Y6070D01*
X5185Y6055D01*
X5215Y6045D01*
X5247Y6038D01*
X5279Y6036D01*
X5318Y6039D01*
X5354Y6048D01*
X5387Y6062D01*
X5416Y6083D01*
X5442Y6109D01*
X5463Y6141D01*
X5480Y6178D01*
X5492Y6221D01*
X5492Y6221D01*
X5915Y5966D02*
X5633Y6693D01*
X5737Y6693D01*
X5926Y6165D01*
X5937Y6134D01*
X5947Y6103D01*
X5956Y6074D01*
X5965Y6046D01*
X5973Y6076D01*
X5983Y6105D01*
X5993Y6135D01*
X6004Y6165D01*
X6200Y6693D01*
X6298Y6693D01*
X6014Y5966D01*
X5915Y5966D01*
X5915Y5966D01*
X5149Y8624D02*
X5149Y8823D01*
X4952Y8823D01*
X4952Y8906D01*
X5149Y8906D01*
X5149Y9104D01*
X5234Y9104D01*
X5234Y8906D01*
X5432Y8906D01*
X5432Y8823D01*
X5234Y8823D01*
X5234Y8624D01*
X5149Y8624D01*
X5149Y8624D01*
X5531Y8697D02*
X5624Y8704D01*
X5631Y8672D01*
X5642Y8644D01*
X5655Y8621D01*
X5673Y8601D01*
X5693Y8586D01*
X5715Y8576D01*
X5738Y8569D01*
X5764Y8567D01*
X5795Y8570D01*
X5824Y8579D01*
X5850Y8594D01*
X5873Y8616D01*
X5893Y8642D01*
X5907Y8672D01*
X5915Y8706D01*
X5918Y8745D01*
X5915Y8781D01*
X5907Y8813D01*
X5894Y8841D01*
X5875Y8865D01*
X5852Y8884D01*
X5826Y8898D01*
X5796Y8907D01*
X5763Y8909D01*
X5742Y8908D01*
X5722Y8904D01*
X5703Y8898D01*
X5685Y8890D01*
X5668Y8879D01*
X5654Y8867D01*
X5641Y8854D01*
X5630Y8839D01*
X5546Y8850D01*
X5617Y9223D01*
X5978Y9223D01*
X5978Y9138D01*
X5688Y9138D01*
X5649Y8943D01*
X5682Y8963D01*
X5716Y8977D01*
X5751Y8985D01*
X5786Y8988D01*
X5832Y8984D01*
X5874Y8972D01*
X5913Y8951D01*
X5947Y8922D01*
X5976Y8887D01*
X5996Y8847D01*
X6009Y8802D01*
X6013Y8753D01*
X6009Y8705D01*
X5998Y8661D01*
X5980Y8620D01*
X5955Y8582D01*
X5917Y8543D01*
X5872Y8516D01*
X5822Y8499D01*
X5764Y8494D01*
X5717Y8497D01*
X5674Y8507D01*
X5636Y8525D01*
X5602Y8549D01*
X5574Y8579D01*
X5553Y8614D01*
X5538Y8653D01*
X5531Y8697D01*
X5531Y8697D01*
X6340Y8506D02*
X6058Y9233D01*
X6162Y9233D01*
X6351Y8705D01*
X6362Y8674D01*
X6372Y8643D01*
X6381Y8614D01*
X6389Y8586D01*
X6398Y8616D01*
X6407Y8645D01*
X6418Y8675D01*
X6428Y8705D01*
X6625Y9233D01*
X6723Y9233D01*
X6438Y8506D01*
X6340Y8506D01*
X6340Y8506D01*
X5149Y11164D02*
X5149Y11363D01*
X4952Y11363D01*
X4952Y11446D01*
X5149Y11446D01*
X5149Y11644D01*
X5234Y11644D01*
X5234Y11446D01*
X5432Y11446D01*
X5432Y11363D01*
X5234Y11363D01*
X5234Y11164D01*
X5149Y11164D01*
X5149Y11164D01*
X5867Y11046D02*
X5778Y11046D01*
X5778Y11615D01*
X5760Y11600D01*
X5740Y11584D01*
X5718Y11569D01*
X5693Y11554D01*
X5667Y11539D01*
X5643Y11527D01*
X5620Y11516D01*
X5599Y11507D01*
X5599Y11594D01*
X5635Y11612D01*
X5669Y11633D01*
X5701Y11655D01*
X5730Y11679D01*
X5756Y11704D01*
X5778Y11728D01*
X5796Y11752D01*
X5809Y11776D01*
X5867Y11776D01*
X5867Y11046D01*
X5867Y11046D01*
X6565Y11132D02*
X6565Y11046D01*
X6084Y11046D01*
X6084Y11062D01*
X6086Y11078D01*
X6090Y11093D01*
X6095Y11108D01*
X6105Y11132D01*
X6118Y11157D01*
X6135Y11181D01*
X6153Y11205D01*
X6176Y11229D01*
X6203Y11256D01*
X6234Y11285D01*
X6270Y11315D01*
X6325Y11361D01*
X6370Y11402D01*
X6405Y11438D01*
X6430Y11469D01*
X6449Y11497D01*
X6462Y11524D01*
X6470Y11551D01*
X6472Y11576D01*
X6470Y11602D01*
X6463Y11625D01*
X6451Y11647D01*
X6434Y11666D01*
X6414Y11682D01*
X6390Y11693D01*
X6364Y11700D01*
X6335Y11702D01*
X6305Y11700D01*
X6277Y11693D01*
X6253Y11681D01*
X6232Y11664D01*
X6215Y11642D01*
X6203Y11617D01*
X6195Y11589D01*
X6193Y11556D01*
X6101Y11566D01*
X6109Y11614D01*
X6123Y11656D01*
X6144Y11692D01*
X6172Y11722D01*
X6205Y11746D01*
X6244Y11763D01*
X6288Y11773D01*
X6337Y11776D01*
X6387Y11773D01*
X6431Y11762D01*
X6470Y11744D01*
X6503Y11718D01*
X6530Y11687D01*
X6549Y11653D01*
X6560Y11616D01*
X6564Y11574D01*
X6563Y11553D01*
X6559Y11531D01*
X6554Y11510D01*
X6546Y11489D01*
X6536Y11467D01*
X6522Y11445D01*
X6506Y11423D01*
X6487Y11400D01*
X6463Y11374D01*
X6432Y11344D01*
X6394Y11310D01*
X6349Y11272D01*
X6312Y11241D01*
X6283Y11215D01*
X6261Y11195D01*
X6246Y11180D01*
X6235Y11168D01*
X6225Y11156D01*
X6216Y11144D01*
X6208Y11132D01*
X6565Y11132D01*
X6565Y11132D01*
X6905Y11046D02*
X6623Y11773D01*
X6727Y11773D01*
X6916Y11245D01*
X6927Y11214D01*
X6937Y11183D01*
X6946Y11154D01*
X6954Y11126D01*
X6963Y11156D01*
X6973Y11185D01*
X6983Y11215D01*
X6994Y11245D01*
X7190Y11773D01*
X7288Y11773D01*
X7003Y11046D01*
X6905Y11046D01*
X6905Y11046D01*
X4927Y21424D02*
X4927Y21514D01*
X5202Y21514D01*
X5202Y21424D01*
X4927Y21424D01*
X4927Y21424D01*
X5612Y21206D02*
X5523Y21206D01*
X5523Y21775D01*
X5505Y21760D01*
X5485Y21744D01*
X5463Y21729D01*
X5438Y21714D01*
X5412Y21699D01*
X5388Y21687D01*
X5365Y21676D01*
X5344Y21667D01*
X5344Y21754D01*
X5380Y21772D01*
X5414Y21793D01*
X5446Y21815D01*
X5475Y21839D01*
X5501Y21864D01*
X5523Y21888D01*
X5541Y21912D01*
X5554Y21936D01*
X5612Y21936D01*
X5612Y21206D01*
X5612Y21206D01*
X6310Y21292D02*
X6310Y21206D01*
X5829Y21206D01*
X5829Y21222D01*
X5831Y21238D01*
X5835Y21253D01*
X5840Y21268D01*
X5850Y21292D01*
X5863Y21317D01*
X5880Y21341D01*
X5898Y21365D01*
X5921Y21389D01*
X5948Y21416D01*
X5979Y21445D01*
X6015Y21475D01*
X6070Y21521D01*
X6115Y21562D01*
X6150Y21598D01*
X6175Y21629D01*
X6194Y21657D01*
X6207Y21684D01*
X6214Y21711D01*
X6217Y21736D01*
X6215Y21762D01*
X6208Y21785D01*
X6196Y21807D01*
X6179Y21826D01*
X6159Y21842D01*
X6135Y21853D01*
X6109Y21860D01*
X6080Y21862D01*
X6050Y21860D01*
X6022Y21853D01*
X5998Y21841D01*
X5977Y21824D01*
X5960Y21802D01*
X5948Y21777D01*
X5940Y21749D01*
X5938Y21716D01*
X5846Y21726D01*
X5854Y21774D01*
X5868Y21816D01*
X5889Y21852D01*
X5917Y21882D01*
X5950Y21906D01*
X5989Y21923D01*
X6033Y21933D01*
X6082Y21936D01*
X6132Y21933D01*
X6176Y21922D01*
X6215Y21904D01*
X6248Y21878D01*
X6275Y21847D01*
X6294Y21813D01*
X6305Y21776D01*
X6309Y21734D01*
X6308Y21713D01*
X6304Y21691D01*
X6299Y21670D01*
X6291Y21649D01*
X6281Y21627D01*
X6267Y21605D01*
X6251Y21583D01*
X6232Y21560D01*
X6208Y21534D01*
X6177Y21504D01*
X6139Y21470D01*
X6094Y21432D01*
X6057Y21401D01*
X6028Y21375D01*
X6006Y21355D01*
X5991Y21340D01*
X5980Y21328D01*
X5970Y21316D01*
X5961Y21304D01*
X5953Y21292D01*
X6310Y21292D01*
X6310Y21292D01*
X6650Y21206D02*
X6368Y21933D01*
X6472Y21933D01*
X6661Y21405D01*
X6672Y21374D01*
X6682Y21343D01*
X6691Y21314D01*
X6699Y21286D01*
X6708Y21316D01*
X6718Y21345D01*
X6728Y21375D01*
X6738Y21405D01*
X6935Y21933D01*
X7033Y21933D01*
X6748Y21206D01*
X6650Y21206D01*
X6650Y21206D01*
X5314Y18951D02*
X5314Y19037D01*
X5622Y19037D01*
X5622Y18767D01*
X5586Y18741D01*
X5550Y18718D01*
X5513Y18698D01*
X5475Y18682D01*
X5437Y18670D01*
X5399Y18661D01*
X5360Y18655D01*
X5321Y18654D01*
X5268Y18656D01*
X5218Y18665D01*
X5171Y18679D01*
X5126Y18699D01*
X5085Y18725D01*
X5049Y18756D01*
X5019Y18791D01*
X4994Y18832D01*
X4974Y18877D01*
X4960Y18924D01*
X4952Y18974D01*
X4949Y19026D01*
X4952Y19078D01*
X4960Y19129D01*
X4974Y19177D01*
X4993Y19224D01*
X5018Y19267D01*
X5048Y19305D01*
X5082Y19336D01*
X5121Y19361D01*
X5164Y19381D01*
X5211Y19395D01*
X5260Y19403D01*
X5313Y19406D01*
X5352Y19404D01*
X5388Y19399D01*
X5423Y19391D01*
X5456Y19380D01*
X5486Y19366D01*
X5513Y19350D01*
X5536Y19331D01*
X5556Y19309D01*
X5573Y19284D01*
X5588Y19256D01*
X5600Y19225D01*
X5611Y19190D01*
X5524Y19166D01*
X5515Y19192D01*
X5506Y19216D01*
X5495Y19236D01*
X5483Y19253D01*
X5470Y19268D01*
X5454Y19282D01*
X5435Y19294D01*
X5414Y19304D01*
X5391Y19313D01*
X5366Y19319D01*
X5341Y19322D01*
X5314Y19323D01*
X5282Y19322D01*
X5252Y19318D01*
X5225Y19312D01*
X5200Y19303D01*
X5177Y19292D01*
X5156Y19280D01*
X5138Y19266D01*
X5122Y19250D01*
X5108Y19234D01*
X5096Y19216D01*
X5085Y19198D01*
X5076Y19178D01*
X5064Y19144D01*
X5055Y19108D01*
X5050Y19071D01*
X5048Y19032D01*
X5050Y18985D01*
X5057Y18943D01*
X5067Y18904D01*
X5082Y18869D01*
X5100Y18839D01*
X5123Y18812D01*
X5149Y18790D01*
X5179Y18772D01*
X5212Y18758D01*
X5245Y18748D01*
X5280Y18742D01*
X5315Y18740D01*
X5346Y18742D01*
X5377Y18746D01*
X5407Y18754D01*
X5437Y18764D01*
X5465Y18777D01*
X5490Y18789D01*
X5510Y18802D01*
X5528Y18816D01*
X5528Y18951D01*
X5314Y18951D01*
X5314Y18951D01*
X5763Y18666D02*
X5763Y19393D01*
X5861Y19393D01*
X6243Y18822D01*
X6243Y19393D01*
X6336Y19393D01*
X6336Y18666D01*
X6237Y18666D01*
X5855Y19238D01*
X5855Y18666D01*
X5763Y18666D01*
X5763Y18666D01*
X6497Y18666D02*
X6497Y19393D01*
X6746Y19393D01*
X6746Y19307D01*
X6594Y19307D01*
X6594Y18752D01*
X6594Y18752D01*
X6749Y18752D01*
X6783Y18753D01*
X6813Y18755D01*
X6839Y18759D01*
X6862Y18765D01*
X6881Y18773D01*
X6899Y18781D01*
X6914Y18791D01*
X6927Y18803D01*
X6943Y18822D01*
X6957Y18843D01*
X6970Y18868D01*
X6980Y18895D01*
X6989Y18925D01*
X6995Y18959D01*
X6998Y18995D01*
X6999Y19035D01*
X6997Y19089D01*
X6990Y19136D01*
X6978Y19177D01*
X6962Y19210D01*
X6942Y19239D01*
X6921Y19262D01*
X6897Y19280D01*
X6871Y19293D01*
X6849Y19299D01*
X6820Y19304D01*
X6786Y19307D01*
X6746Y19307D01*
X6746Y19393D01*
X6748Y19393D01*
X6788Y19393D01*
X6823Y19391D01*
X6853Y19387D01*
X6877Y19383D01*
X6908Y19374D01*
X6935Y19363D01*
X6961Y19348D01*
X6984Y19331D01*
X7011Y19305D01*
X7034Y19275D01*
X7054Y19243D01*
X7070Y19206D01*
X7083Y19167D01*
X7092Y19125D01*
X7097Y19081D01*
X7099Y19034D01*
X7097Y18993D01*
X7094Y18955D01*
X7088Y18920D01*
X7079Y18887D01*
X7069Y18856D01*
X7057Y18828D01*
X7044Y18803D01*
X7030Y18781D01*
X7014Y18761D01*
X6998Y18743D01*
X6981Y18728D01*
X6963Y18715D01*
X6945Y18704D01*
X6924Y18694D01*
X6901Y18685D01*
X6877Y18678D01*
X6850Y18673D01*
X6822Y18669D01*
X6792Y18667D01*
X6760Y18666D01*
X6497Y18666D01*
X6497Y18666D01*
X5314Y16411D02*
X5314Y16497D01*
X5622Y16497D01*
X5622Y16227D01*
X5586Y16201D01*
X5550Y16178D01*
X5513Y16158D01*
X5475Y16142D01*
X5437Y16130D01*
X5399Y16121D01*
X5360Y16115D01*
X5321Y16114D01*
X5268Y16116D01*
X5218Y16125D01*
X5171Y16139D01*
X5126Y16159D01*
X5085Y16185D01*
X5049Y16216D01*
X5019Y16251D01*
X4994Y16292D01*
X4974Y16337D01*
X4960Y16384D01*
X4952Y16434D01*
X4949Y16486D01*
X4952Y16538D01*
X4960Y16589D01*
X4974Y16637D01*
X4993Y16684D01*
X5018Y16727D01*
X5048Y16765D01*
X5082Y16796D01*
X5121Y16821D01*
X5164Y16841D01*
X5211Y16855D01*
X5260Y16863D01*
X5313Y16866D01*
X5352Y16864D01*
X5388Y16859D01*
X5423Y16851D01*
X5456Y16840D01*
X5486Y16826D01*
X5513Y16810D01*
X5536Y16791D01*
X5556Y16769D01*
X5573Y16744D01*
X5588Y16716D01*
X5600Y16685D01*
X5611Y16650D01*
X5524Y16626D01*
X5515Y16652D01*
X5506Y16676D01*
X5495Y16696D01*
X5483Y16713D01*
X5470Y16728D01*
X5454Y16742D01*
X5435Y16754D01*
X5414Y16764D01*
X5391Y16773D01*
X5366Y16779D01*
X5341Y16782D01*
X5314Y16783D01*
X5282Y16782D01*
X5252Y16778D01*
X5225Y16772D01*
X5200Y16763D01*
X5177Y16752D01*
X5156Y16740D01*
X5138Y16726D01*
X5122Y16710D01*
X5108Y16694D01*
X5096Y16676D01*
X5085Y16658D01*
X5076Y16638D01*
X5064Y16604D01*
X5055Y16568D01*
X5050Y16531D01*
X5048Y16492D01*
X5050Y16445D01*
X5057Y16403D01*
X5067Y16364D01*
X5082Y16329D01*
X5100Y16299D01*
X5123Y16272D01*
X5149Y16250D01*
X5179Y16232D01*
X5212Y16218D01*
X5245Y16208D01*
X5280Y16202D01*
X5315Y16200D01*
X5346Y16202D01*
X5377Y16206D01*
X5407Y16214D01*
X5437Y16224D01*
X5465Y16237D01*
X5490Y16249D01*
X5510Y16262D01*
X5528Y16276D01*
X5528Y16411D01*
X5314Y16411D01*
X5314Y16411D01*
X5763Y16126D02*
X5763Y16853D01*
X5861Y16853D01*
X6243Y16282D01*
X6243Y16853D01*
X6336Y16853D01*
X6336Y16126D01*
X6237Y16126D01*
X5855Y16698D01*
X5855Y16126D01*
X5763Y16126D01*
X5763Y16126D01*
X6497Y16126D02*
X6497Y16853D01*
X6746Y16853D01*
X6746Y16767D01*
X6594Y16767D01*
X6594Y16212D01*
X6594Y16212D01*
X6749Y16212D01*
X6783Y16213D01*
X6813Y16215D01*
X6839Y16219D01*
X6862Y16225D01*
X6881Y16233D01*
X6899Y16241D01*
X6914Y16251D01*
X6927Y16263D01*
X6943Y16282D01*
X6957Y16303D01*
X6970Y16328D01*
X6980Y16355D01*
X6989Y16385D01*
X6995Y16419D01*
X6998Y16455D01*
X6999Y16495D01*
X6997Y16549D01*
X6990Y16596D01*
X6978Y16637D01*
X6962Y16670D01*
X6942Y16699D01*
X6921Y16722D01*
X6897Y16740D01*
X6871Y16753D01*
X6849Y16759D01*
X6820Y16764D01*
X6786Y16767D01*
X6746Y16767D01*
X6746Y16853D01*
X6748Y16853D01*
X6788Y16853D01*
X6823Y16851D01*
X6853Y16847D01*
X6877Y16843D01*
X6908Y16834D01*
X6935Y16823D01*
X6961Y16808D01*
X6984Y16791D01*
X7011Y16765D01*
X7034Y16735D01*
X7054Y16703D01*
X7070Y16666D01*
X7083Y16627D01*
X7092Y16585D01*
X7097Y16541D01*
X7099Y16494D01*
X7097Y16453D01*
X7094Y16415D01*
X7088Y16380D01*
X7079Y16347D01*
X7069Y16316D01*
X7057Y16288D01*
X7044Y16263D01*
X7030Y16241D01*
X7014Y16221D01*
X6998Y16203D01*
X6981Y16188D01*
X6963Y16175D01*
X6945Y16164D01*
X6924Y16154D01*
X6901Y16145D01*
X6877Y16138D01*
X6850Y16133D01*
X6822Y16129D01*
X6792Y16127D01*
X6760Y16126D01*
X6497Y16126D01*
X6497Y16126D01*
X5314Y13871D02*
X5314Y13957D01*
X5622Y13957D01*
X5622Y13687D01*
X5586Y13661D01*
X5550Y13638D01*
X5513Y13618D01*
X5475Y13602D01*
X5437Y13590D01*
X5399Y13581D01*
X5360Y13575D01*
X5321Y13574D01*
X5268Y13576D01*
X5218Y13585D01*
X5171Y13599D01*
X5126Y13619D01*
X5085Y13645D01*
X5049Y13676D01*
X5019Y13711D01*
X4994Y13752D01*
X4974Y13797D01*
X4960Y13844D01*
X4952Y13894D01*
X4949Y13946D01*
X4952Y13998D01*
X4960Y14049D01*
X4974Y14097D01*
X4993Y14144D01*
X5018Y14187D01*
X5048Y14225D01*
X5082Y14256D01*
X5121Y14281D01*
X5164Y14301D01*
X5211Y14315D01*
X5260Y14323D01*
X5313Y14326D01*
X5352Y14324D01*
X5388Y14319D01*
X5423Y14311D01*
X5456Y14300D01*
X5486Y14286D01*
X5513Y14270D01*
X5536Y14251D01*
X5556Y14229D01*
X5573Y14204D01*
X5588Y14176D01*
X5600Y14145D01*
X5611Y14110D01*
X5524Y14086D01*
X5515Y14112D01*
X5506Y14136D01*
X5495Y14156D01*
X5483Y14173D01*
X5470Y14188D01*
X5454Y14202D01*
X5435Y14214D01*
X5414Y14224D01*
X5391Y14233D01*
X5366Y14239D01*
X5341Y14242D01*
X5314Y14243D01*
X5282Y14242D01*
X5252Y14238D01*
X5225Y14232D01*
X5200Y14223D01*
X5177Y14212D01*
X5156Y14200D01*
X5138Y14186D01*
X5122Y14170D01*
X5108Y14154D01*
X5096Y14136D01*
X5085Y14118D01*
X5076Y14098D01*
X5064Y14064D01*
X5055Y14028D01*
X5050Y13991D01*
X5048Y13952D01*
X5050Y13905D01*
X5057Y13863D01*
X5067Y13824D01*
X5082Y13789D01*
X5100Y13759D01*
X5123Y13732D01*
X5149Y13710D01*
X5179Y13692D01*
X5212Y13678D01*
X5245Y13668D01*
X5280Y13662D01*
X5315Y13660D01*
X5346Y13662D01*
X5377Y13666D01*
X5407Y13674D01*
X5437Y13684D01*
X5465Y13697D01*
X5490Y13709D01*
X5510Y13722D01*
X5528Y13736D01*
X5528Y13871D01*
X5314Y13871D01*
X5314Y13871D01*
X5763Y13586D02*
X5763Y14313D01*
X5861Y14313D01*
X6243Y13742D01*
X6243Y14313D01*
X6336Y14313D01*
X6336Y13586D01*
X6237Y13586D01*
X5855Y14158D01*
X5855Y13586D01*
X5763Y13586D01*
X5763Y13586D01*
X6497Y13586D02*
X6497Y14313D01*
X6746Y14313D01*
X6746Y14227D01*
X6594Y14227D01*
X6594Y13672D01*
X6594Y13672D01*
X6749Y13672D01*
X6783Y13673D01*
X6813Y13675D01*
X6839Y13679D01*
X6862Y13685D01*
X6881Y13693D01*
X6899Y13701D01*
X6914Y13711D01*
X6927Y13723D01*
X6943Y13742D01*
X6957Y13763D01*
X6970Y13788D01*
X6980Y13815D01*
X6989Y13845D01*
X6995Y13879D01*
X6998Y13915D01*
X6999Y13955D01*
X6997Y14009D01*
X6990Y14056D01*
X6978Y14097D01*
X6962Y14130D01*
X6942Y14159D01*
X6921Y14182D01*
X6897Y14200D01*
X6871Y14213D01*
X6849Y14219D01*
X6820Y14224D01*
X6786Y14227D01*
X6746Y14227D01*
X6746Y14313D01*
X6748Y14313D01*
X6788Y14313D01*
X6823Y14311D01*
X6853Y14307D01*
X6877Y14303D01*
X6908Y14294D01*
X6935Y14283D01*
X6961Y14268D01*
X6984Y14251D01*
X7011Y14225D01*
X7034Y14195D01*
X7054Y14163D01*
X7070Y14126D01*
X7083Y14087D01*
X7092Y14045D01*
X7097Y14001D01*
X7099Y13954D01*
X7097Y13913D01*
X7094Y13875D01*
X7088Y13840D01*
X7079Y13807D01*
X7069Y13776D01*
X7057Y13748D01*
X7044Y13723D01*
X7030Y13701D01*
X7014Y13681D01*
X6998Y13663D01*
X6981Y13648D01*
X6963Y13635D01*
X6945Y13624D01*
X6924Y13614D01*
X6901Y13605D01*
X6877Y13598D01*
X6850Y13593D01*
X6822Y13589D01*
X6792Y13587D01*
X6760Y13586D01*
X6497Y13586D01*
X6497Y13586D01*
X1501Y-2794D02*
X1672Y-2770D01*
X1679Y-2846D01*
X1691Y-2908D01*
X1709Y-2958D01*
X1734Y-2995D01*
X1764Y-3021D01*
X1799Y-3040D01*
X1839Y-3052D01*
X1885Y-3055D01*
X1920Y-3053D01*
X1952Y-3047D01*
X1981Y-3037D01*
X2008Y-3023D01*
X2032Y-3005D01*
X2052Y-2984D01*
X2068Y-2960D01*
X2080Y-2934D01*
X2088Y-2902D01*
X2094Y-2861D01*
X2098Y-2812D01*
X2099Y-2755D01*
X2099Y-1768D01*
X2289Y-1768D01*
X2289Y-2744D01*
X2286Y-2829D01*
X2278Y-2903D01*
X2264Y-2968D01*
X2245Y-3022D01*
X2220Y-3069D01*
X2189Y-3109D01*
X2151Y-3144D01*
X2107Y-3173D01*
X2058Y-3195D01*
X2005Y-3211D01*
X1948Y-3221D01*
X1886Y-3224D01*
X1797Y-3218D01*
X1720Y-3197D01*
X1653Y-3163D01*
X1598Y-3116D01*
X1554Y-3055D01*
X1524Y-2981D01*
X1506Y-2894D01*
X1501Y-2794D01*
X1501Y-2794D01*
X3189Y-3200D02*
X3013Y-3200D01*
X3013Y-2080D01*
X2979Y-2110D01*
X2940Y-2140D01*
X2896Y-2171D01*
X2847Y-2201D01*
X2797Y-2229D01*
X2749Y-2254D01*
X2704Y-2275D01*
X2662Y-2292D01*
X2662Y-2122D01*
X2733Y-2085D01*
X2800Y-2045D01*
X2862Y-2001D01*
X2919Y-1954D01*
X2971Y-1905D01*
X3014Y-1857D01*
X3049Y-1809D01*
X3076Y-1762D01*
X3189Y-1762D01*
X3189Y-3200D01*
X3189Y-3200D01*
G37*
%LNtop silkscreen component 95d8b9a3a25ae001*%
D10*
X16599Y13946D02*
X16599Y12216D01*
X18199Y13946D02*
X18199Y12216D01*
D11*
X16669Y13657D02*
X18129Y13657D01*
D12*
X17399Y15691D03*
G36*
X19083Y12886D02*
X19178Y12862D01*
X19160Y12807D01*
X19136Y12759D01*
X19107Y12718D01*
X19071Y12684D01*
X19030Y12657D01*
X18985Y12638D01*
X18935Y12627D01*
X18882Y12623D01*
X18826Y12626D01*
X18777Y12635D01*
X18732Y12649D01*
X18693Y12670D01*
X18659Y12696D01*
X18630Y12728D01*
X18604Y12764D01*
X18583Y12806D01*
X18566Y12852D01*
X18555Y12899D01*
X18548Y12948D01*
X18545Y12998D01*
X18548Y13052D01*
X18556Y13103D01*
X18569Y13150D01*
X18588Y13193D01*
X18612Y13232D01*
X18640Y13267D01*
X18672Y13296D01*
X18709Y13320D01*
X18750Y13339D01*
X18792Y13352D01*
X18837Y13360D01*
X18883Y13363D01*
X18935Y13360D01*
X18982Y13349D01*
X19025Y13332D01*
X19064Y13308D01*
X19098Y13278D01*
X19126Y13243D01*
X19149Y13201D01*
X19166Y13155D01*
X19073Y13133D01*
X19059Y13169D01*
X19042Y13200D01*
X19023Y13226D01*
X19000Y13246D01*
X18975Y13262D01*
X18947Y13273D01*
X18915Y13280D01*
X18881Y13282D01*
X18842Y13280D01*
X18805Y13272D01*
X18773Y13260D01*
X18743Y13242D01*
X18718Y13221D01*
X18696Y13196D01*
X18679Y13168D01*
X18665Y13136D01*
X18655Y13103D01*
X18648Y13069D01*
X18644Y13034D01*
X18643Y12999D01*
X18644Y12955D01*
X18649Y12913D01*
X18658Y12875D01*
X18669Y12839D01*
X18685Y12807D01*
X18703Y12780D01*
X18726Y12757D01*
X18752Y12738D01*
X18781Y12723D01*
X18811Y12712D01*
X18842Y12706D01*
X18874Y12704D01*
X18912Y12707D01*
X18947Y12715D01*
X18979Y12730D01*
X19009Y12750D01*
X19034Y12775D01*
X19055Y12807D01*
X19071Y12844D01*
X19083Y12886D01*
X19083Y12886D01*
X19394Y13023D02*
X19423Y12968D01*
X19411Y12962D01*
X19389Y12944D01*
X19371Y12922D01*
X19359Y12898D01*
X19351Y12871D01*
X19348Y12842D01*
X19348Y12842D01*
X19350Y12823D01*
X19353Y12805D01*
X19358Y12787D01*
X19366Y12769D01*
X19376Y12752D01*
X19388Y12738D01*
X19403Y12725D01*
X19419Y12714D01*
X19437Y12706D01*
X19456Y12700D01*
X19475Y12696D01*
X19495Y12695D01*
X19525Y12698D01*
X19552Y12705D01*
X19577Y12718D01*
X19599Y12736D01*
X19617Y12757D01*
X19630Y12782D01*
X19637Y12809D01*
X19640Y12839D01*
X19637Y12869D01*
X19629Y12897D01*
X19616Y12921D01*
X19598Y12944D01*
X19575Y12962D01*
X19550Y12975D01*
X19522Y12983D01*
X19492Y12985D01*
X19462Y12983D01*
X19435Y12975D01*
X19423Y12968D01*
X19394Y13023D01*
X19427Y13075D01*
X19447Y13065D01*
X19469Y13059D01*
X19494Y13057D01*
X19519Y13059D01*
X19541Y13065D01*
X19560Y13075D01*
X19578Y13089D01*
X19592Y13106D01*
X19602Y13124D01*
X19608Y13145D01*
X19610Y13167D01*
X19608Y13190D01*
X19602Y13212D01*
X19591Y13231D01*
X19577Y13249D01*
X19559Y13263D01*
X19539Y13273D01*
X19517Y13279D01*
X19493Y13281D01*
X19469Y13279D01*
X19447Y13273D01*
X19428Y13263D01*
X19410Y13249D01*
X19395Y13232D01*
X19385Y13214D01*
X19379Y13194D01*
X19377Y13172D01*
X19377Y13172D01*
X19379Y13148D01*
X19385Y13126D01*
X19395Y13106D01*
X19409Y13089D01*
X19427Y13075D01*
X19394Y13023D01*
X19369Y13034D01*
X19347Y13047D01*
X19328Y13063D01*
X19313Y13080D01*
X19302Y13100D01*
X19293Y13121D01*
X19289Y13144D01*
X19287Y13169D01*
X19290Y13207D01*
X19301Y13241D01*
X19318Y13272D01*
X19343Y13301D01*
X19373Y13324D01*
X19408Y13340D01*
X19448Y13350D01*
X19492Y13354D01*
X19537Y13350D01*
X19577Y13340D01*
X19612Y13323D01*
X19643Y13299D01*
X19668Y13271D01*
X19686Y13239D01*
X19697Y13204D01*
X19700Y13167D01*
X19699Y13143D01*
X19694Y13120D01*
X19686Y13099D01*
X19674Y13080D01*
X19660Y13063D01*
X19641Y13047D01*
X19620Y13034D01*
X19595Y13023D01*
X19626Y13011D01*
X19653Y12995D01*
X19676Y12976D01*
X19695Y12954D01*
X19710Y12929D01*
X19721Y12901D01*
X19728Y12872D01*
X19730Y12840D01*
X19726Y12796D01*
X19714Y12755D01*
X19693Y12718D01*
X19665Y12685D01*
X19630Y12658D01*
X19590Y12638D01*
X19544Y12627D01*
X19494Y12623D01*
X19443Y12627D01*
X19398Y12638D01*
X19358Y12658D01*
X19323Y12686D01*
X19295Y12719D01*
X19274Y12756D01*
X19262Y12797D01*
X19258Y12842D01*
X19260Y12876D01*
X19267Y12906D01*
X19278Y12934D01*
X19293Y12959D01*
X19313Y12981D01*
X19336Y12999D01*
X19363Y13013D01*
X19394Y13023D01*
X19394Y13023D01*
G37*
%LNtop silkscreen component 70e29820ef631711*%
D10*
X12789Y13946D02*
X12789Y12216D01*
X14389Y13946D02*
X14389Y12216D01*
D11*
X12859Y13657D02*
X14319Y13657D01*
D12*
X13589Y15691D03*
G36*
X15273Y12886D02*
X15368Y12862D01*
X15350Y12807D01*
X15326Y12759D01*
X15297Y12718D01*
X15261Y12684D01*
X15220Y12657D01*
X15175Y12638D01*
X15125Y12627D01*
X15072Y12623D01*
X15016Y12626D01*
X14967Y12635D01*
X14922Y12649D01*
X14883Y12670D01*
X14849Y12696D01*
X14820Y12728D01*
X14794Y12764D01*
X14773Y12806D01*
X14756Y12852D01*
X14745Y12899D01*
X14738Y12948D01*
X14735Y12998D01*
X14738Y13052D01*
X14746Y13103D01*
X14759Y13150D01*
X14778Y13193D01*
X14802Y13232D01*
X14830Y13267D01*
X14862Y13296D01*
X14899Y13320D01*
X14940Y13339D01*
X14982Y13352D01*
X15027Y13360D01*
X15073Y13363D01*
X15125Y13360D01*
X15172Y13349D01*
X15215Y13332D01*
X15254Y13308D01*
X15288Y13278D01*
X15316Y13243D01*
X15339Y13201D01*
X15356Y13155D01*
X15263Y13133D01*
X15249Y13169D01*
X15232Y13200D01*
X15213Y13226D01*
X15190Y13246D01*
X15165Y13262D01*
X15137Y13273D01*
X15105Y13280D01*
X15071Y13282D01*
X15032Y13280D01*
X14995Y13272D01*
X14963Y13260D01*
X14933Y13242D01*
X14908Y13221D01*
X14886Y13196D01*
X14869Y13168D01*
X14855Y13136D01*
X14845Y13103D01*
X14838Y13069D01*
X14834Y13034D01*
X14833Y12999D01*
X14834Y12955D01*
X14839Y12913D01*
X14848Y12875D01*
X14859Y12839D01*
X14875Y12807D01*
X14893Y12780D01*
X14916Y12757D01*
X14942Y12738D01*
X14971Y12723D01*
X15001Y12712D01*
X15032Y12706D01*
X15064Y12704D01*
X15102Y12707D01*
X15137Y12715D01*
X15169Y12730D01*
X15199Y12750D01*
X15224Y12775D01*
X15245Y12807D01*
X15261Y12844D01*
X15273Y12886D01*
X15273Y12886D01*
X15449Y12822D02*
X15541Y12830D01*
X15548Y12799D01*
X15558Y12771D01*
X15572Y12748D01*
X15589Y12729D01*
X15609Y12714D01*
X15630Y12704D01*
X15654Y12697D01*
X15679Y12695D01*
X15710Y12698D01*
X15738Y12707D01*
X15763Y12722D01*
X15786Y12743D01*
X15806Y12769D01*
X15819Y12799D01*
X15828Y12832D01*
X15830Y12870D01*
X15828Y12905D01*
X15820Y12937D01*
X15807Y12965D01*
X15788Y12989D01*
X15765Y13008D01*
X15739Y13021D01*
X15710Y13029D01*
X15678Y13032D01*
X15657Y13031D01*
X15637Y13027D01*
X15618Y13021D01*
X15601Y13013D01*
X15585Y13002D01*
X15570Y12991D01*
X15558Y12977D01*
X15547Y12963D01*
X15465Y12973D01*
X15534Y13341D01*
X15890Y13341D01*
X15890Y13257D01*
X15604Y13257D01*
X15566Y13065D01*
X15598Y13084D01*
X15632Y13098D01*
X15666Y13107D01*
X15701Y13110D01*
X15746Y13106D01*
X15787Y13093D01*
X15825Y13073D01*
X15859Y13045D01*
X15887Y13010D01*
X15908Y12970D01*
X15920Y12926D01*
X15924Y12878D01*
X15920Y12831D01*
X15909Y12787D01*
X15892Y12747D01*
X15867Y12710D01*
X15829Y12672D01*
X15786Y12645D01*
X15735Y12628D01*
X15679Y12623D01*
X15632Y12626D01*
X15590Y12636D01*
X15553Y12654D01*
X15520Y12677D01*
X15492Y12707D01*
X15471Y12741D01*
X15457Y12780D01*
X15449Y12822D01*
X15449Y12822D01*
G37*
%LNtop silkscreen component fe7c5379573a1454*%
D10*
X10579Y6501D02*
X10579Y8231D01*
X8979Y6501D02*
X8979Y8231D01*
D11*
X10509Y6790D02*
X9049Y6790D01*
D14*
X9779Y4756D03*
G36*
X11558Y7241D02*
X11653Y7217D01*
X11635Y7162D01*
X11611Y7114D01*
X11582Y7073D01*
X11546Y7039D01*
X11505Y7012D01*
X11460Y6993D01*
X11410Y6982D01*
X11357Y6978D01*
X11301Y6981D01*
X11252Y6990D01*
X11207Y7004D01*
X11168Y7025D01*
X11134Y7051D01*
X11105Y7083D01*
X11079Y7119D01*
X11058Y7161D01*
X11041Y7207D01*
X11030Y7254D01*
X11023Y7303D01*
X11020Y7353D01*
X11023Y7407D01*
X11031Y7458D01*
X11044Y7505D01*
X11063Y7548D01*
X11087Y7587D01*
X11115Y7622D01*
X11147Y7651D01*
X11184Y7675D01*
X11225Y7694D01*
X11267Y7707D01*
X11312Y7715D01*
X11358Y7718D01*
X11410Y7715D01*
X11457Y7704D01*
X11500Y7687D01*
X11539Y7663D01*
X11573Y7633D01*
X11601Y7598D01*
X11624Y7556D01*
X11641Y7510D01*
X11548Y7488D01*
X11534Y7524D01*
X11517Y7555D01*
X11498Y7581D01*
X11475Y7601D01*
X11450Y7617D01*
X11422Y7628D01*
X11390Y7635D01*
X11356Y7637D01*
X11317Y7635D01*
X11280Y7627D01*
X11248Y7615D01*
X11218Y7597D01*
X11193Y7576D01*
X11171Y7551D01*
X11154Y7523D01*
X11140Y7491D01*
X11130Y7458D01*
X11123Y7424D01*
X11119Y7389D01*
X11118Y7354D01*
X11119Y7310D01*
X11124Y7268D01*
X11133Y7230D01*
X11144Y7194D01*
X11160Y7162D01*
X11178Y7135D01*
X11201Y7112D01*
X11227Y7093D01*
X11256Y7078D01*
X11286Y7067D01*
X11317Y7061D01*
X11349Y7059D01*
X11387Y7062D01*
X11422Y7070D01*
X11454Y7085D01*
X11484Y7105D01*
X11509Y7130D01*
X11530Y7162D01*
X11546Y7199D01*
X11558Y7241D01*
X11558Y7241D01*
X12065Y6990D02*
X11977Y6990D01*
X11977Y7550D01*
X11960Y7535D01*
X11941Y7520D01*
X11918Y7505D01*
X11894Y7490D01*
X11869Y7475D01*
X11845Y7463D01*
X11823Y7453D01*
X11801Y7444D01*
X11801Y7529D01*
X11837Y7547D01*
X11871Y7567D01*
X11902Y7589D01*
X11930Y7613D01*
X11956Y7638D01*
X11977Y7662D01*
X11995Y7685D01*
X12008Y7709D01*
X12065Y7709D01*
X12065Y6990D01*
X12065Y6990D01*
G37*
%LNtop silkscreen component 8f66079ef4103477*%
D10*
X8979Y13946D02*
X8979Y12216D01*
X10579Y13946D02*
X10579Y12216D01*
D11*
X9049Y13657D02*
X10509Y13657D01*
D12*
X9779Y15691D03*
G36*
X11463Y12886D02*
X11558Y12862D01*
X11540Y12807D01*
X11516Y12759D01*
X11487Y12718D01*
X11451Y12684D01*
X11410Y12657D01*
X11365Y12638D01*
X11315Y12627D01*
X11262Y12623D01*
X11206Y12626D01*
X11157Y12635D01*
X11112Y12649D01*
X11073Y12670D01*
X11039Y12696D01*
X11010Y12728D01*
X10984Y12764D01*
X10963Y12806D01*
X10946Y12852D01*
X10935Y12899D01*
X10928Y12948D01*
X10925Y12998D01*
X10928Y13052D01*
X10936Y13103D01*
X10949Y13150D01*
X10968Y13193D01*
X10992Y13232D01*
X11020Y13267D01*
X11052Y13296D01*
X11089Y13320D01*
X11130Y13339D01*
X11172Y13352D01*
X11217Y13360D01*
X11263Y13363D01*
X11315Y13360D01*
X11362Y13349D01*
X11405Y13332D01*
X11444Y13308D01*
X11478Y13278D01*
X11506Y13243D01*
X11529Y13201D01*
X11546Y13155D01*
X11453Y13133D01*
X11439Y13169D01*
X11422Y13200D01*
X11403Y13226D01*
X11380Y13246D01*
X11355Y13262D01*
X11327Y13273D01*
X11295Y13280D01*
X11261Y13282D01*
X11222Y13280D01*
X11185Y13272D01*
X11153Y13260D01*
X11123Y13242D01*
X11098Y13221D01*
X11076Y13196D01*
X11059Y13168D01*
X11045Y13136D01*
X11035Y13103D01*
X11028Y13069D01*
X11024Y13034D01*
X11023Y12999D01*
X11024Y12955D01*
X11029Y12913D01*
X11038Y12875D01*
X11049Y12839D01*
X11065Y12807D01*
X11083Y12780D01*
X11106Y12757D01*
X11132Y12738D01*
X11161Y12723D01*
X11191Y12712D01*
X11222Y12706D01*
X11254Y12704D01*
X11292Y12707D01*
X11327Y12715D01*
X11359Y12730D01*
X11389Y12750D01*
X11414Y12775D01*
X11435Y12807D01*
X11451Y12844D01*
X11463Y12886D01*
X11463Y12886D01*
X12101Y12719D02*
X12101Y12635D01*
X11628Y12635D01*
X11628Y12651D01*
X11630Y12666D01*
X11633Y12681D01*
X11638Y12696D01*
X11648Y12720D01*
X11662Y12744D01*
X11677Y12768D01*
X11696Y12791D01*
X11718Y12816D01*
X11745Y12842D01*
X11776Y12870D01*
X11811Y12900D01*
X11865Y12945D01*
X11909Y12985D01*
X11943Y13021D01*
X11969Y13051D01*
X11987Y13079D01*
X11999Y13106D01*
X12007Y13132D01*
X12010Y13157D01*
X12007Y13182D01*
X12000Y13205D01*
X11989Y13226D01*
X11972Y13245D01*
X11952Y13261D01*
X11929Y13272D01*
X11903Y13279D01*
X11875Y13281D01*
X11845Y13279D01*
X11818Y13271D01*
X11794Y13260D01*
X11773Y13243D01*
X11757Y13222D01*
X11745Y13197D01*
X11737Y13169D01*
X11735Y13137D01*
X11644Y13147D01*
X11652Y13194D01*
X11666Y13236D01*
X11687Y13271D01*
X11714Y13301D01*
X11747Y13324D01*
X11785Y13341D01*
X11828Y13350D01*
X11877Y13354D01*
X11926Y13350D01*
X11969Y13339D01*
X12007Y13322D01*
X12040Y13297D01*
X12066Y13266D01*
X12085Y13233D01*
X12096Y13196D01*
X12100Y13155D01*
X12099Y13134D01*
X12096Y13112D01*
X12090Y13091D01*
X12082Y13071D01*
X12072Y13050D01*
X12059Y13028D01*
X12043Y13006D01*
X12024Y12983D01*
X12000Y12958D01*
X11970Y12929D01*
X11933Y12895D01*
X11889Y12857D01*
X11853Y12827D01*
X11824Y12801D01*
X11802Y12782D01*
X11787Y12767D01*
X11776Y12755D01*
X11766Y12743D01*
X11758Y12731D01*
X11750Y12719D01*
X12101Y12719D01*
X12101Y12719D01*
G37*
%LNtop silkscreen component ffc9bcd939fe1c4a*%
D10*
X18199Y6501D02*
X18199Y8231D01*
X16599Y6501D02*
X16599Y8231D01*
D11*
X18129Y6790D02*
X16669Y6790D01*
D14*
X17399Y4756D03*
G36*
X19178Y7241D02*
X19273Y7217D01*
X19255Y7162D01*
X19231Y7114D01*
X19202Y7073D01*
X19166Y7039D01*
X19125Y7012D01*
X19080Y6993D01*
X19030Y6982D01*
X18977Y6978D01*
X18921Y6981D01*
X18872Y6990D01*
X18827Y7004D01*
X18788Y7025D01*
X18754Y7051D01*
X18725Y7083D01*
X18699Y7119D01*
X18678Y7161D01*
X18661Y7207D01*
X18650Y7254D01*
X18643Y7303D01*
X18640Y7353D01*
X18643Y7407D01*
X18651Y7458D01*
X18664Y7505D01*
X18683Y7548D01*
X18707Y7587D01*
X18735Y7622D01*
X18767Y7651D01*
X18804Y7675D01*
X18845Y7694D01*
X18887Y7707D01*
X18932Y7715D01*
X18978Y7718D01*
X19030Y7715D01*
X19077Y7704D01*
X19120Y7687D01*
X19159Y7663D01*
X19193Y7633D01*
X19221Y7598D01*
X19244Y7556D01*
X19261Y7510D01*
X19168Y7488D01*
X19154Y7524D01*
X19137Y7555D01*
X19118Y7581D01*
X19095Y7601D01*
X19070Y7617D01*
X19042Y7628D01*
X19010Y7635D01*
X18976Y7637D01*
X18937Y7635D01*
X18900Y7627D01*
X18868Y7615D01*
X18838Y7597D01*
X18813Y7576D01*
X18791Y7551D01*
X18774Y7523D01*
X18760Y7491D01*
X18750Y7458D01*
X18743Y7424D01*
X18739Y7389D01*
X18738Y7354D01*
X18739Y7310D01*
X18744Y7268D01*
X18753Y7230D01*
X18764Y7194D01*
X18780Y7162D01*
X18798Y7135D01*
X18821Y7112D01*
X18847Y7093D01*
X18876Y7078D01*
X18906Y7067D01*
X18937Y7061D01*
X18969Y7059D01*
X19007Y7062D01*
X19042Y7070D01*
X19074Y7085D01*
X19104Y7105D01*
X19129Y7130D01*
X19150Y7162D01*
X19166Y7199D01*
X19178Y7241D01*
X19178Y7241D01*
X19360Y7612D02*
X19360Y7697D01*
X19823Y7697D01*
X19823Y7628D01*
X19789Y7589D01*
X19755Y7543D01*
X19721Y7492D01*
X19688Y7435D01*
X19656Y7374D01*
X19628Y7313D01*
X19604Y7250D01*
X19584Y7187D01*
X19572Y7141D01*
X19562Y7093D01*
X19555Y7042D01*
X19550Y6990D01*
X19460Y6990D01*
X19463Y7034D01*
X19469Y7083D01*
X19479Y7136D01*
X19493Y7194D01*
X19511Y7253D01*
X19532Y7312D01*
X19556Y7369D01*
X19584Y7425D01*
X19614Y7478D01*
X19645Y7527D01*
X19678Y7572D01*
X19710Y7612D01*
X19360Y7612D01*
X19360Y7612D01*
G37*
%LNtop silkscreen component 18bc913720ed4028*%
D10*
X14389Y6501D02*
X14389Y8231D01*
X12789Y6501D02*
X12789Y8231D01*
D11*
X14319Y6790D02*
X12859Y6790D01*
D14*
X13589Y4756D03*
G36*
X15368Y7241D02*
X15463Y7217D01*
X15445Y7162D01*
X15421Y7114D01*
X15392Y7073D01*
X15356Y7039D01*
X15315Y7012D01*
X15270Y6993D01*
X15220Y6982D01*
X15167Y6978D01*
X15111Y6981D01*
X15062Y6990D01*
X15017Y7004D01*
X14978Y7025D01*
X14944Y7051D01*
X14915Y7083D01*
X14889Y7119D01*
X14868Y7161D01*
X14851Y7207D01*
X14840Y7254D01*
X14833Y7303D01*
X14830Y7353D01*
X14833Y7407D01*
X14841Y7458D01*
X14854Y7505D01*
X14873Y7548D01*
X14897Y7587D01*
X14925Y7622D01*
X14957Y7651D01*
X14994Y7675D01*
X15035Y7694D01*
X15077Y7707D01*
X15122Y7715D01*
X15168Y7718D01*
X15220Y7715D01*
X15267Y7704D01*
X15310Y7687D01*
X15349Y7663D01*
X15383Y7633D01*
X15411Y7598D01*
X15434Y7556D01*
X15451Y7510D01*
X15358Y7488D01*
X15344Y7524D01*
X15327Y7555D01*
X15308Y7581D01*
X15285Y7601D01*
X15260Y7617D01*
X15232Y7628D01*
X15200Y7635D01*
X15166Y7637D01*
X15127Y7635D01*
X15090Y7627D01*
X15058Y7615D01*
X15028Y7597D01*
X15003Y7576D01*
X14981Y7551D01*
X14964Y7523D01*
X14950Y7491D01*
X14940Y7458D01*
X14933Y7424D01*
X14929Y7389D01*
X14928Y7354D01*
X14929Y7310D01*
X14934Y7268D01*
X14943Y7230D01*
X14954Y7194D01*
X14970Y7162D01*
X14988Y7135D01*
X15011Y7112D01*
X15037Y7093D01*
X15066Y7078D01*
X15096Y7067D01*
X15127Y7061D01*
X15159Y7059D01*
X15197Y7062D01*
X15232Y7070D01*
X15264Y7085D01*
X15294Y7105D01*
X15319Y7130D01*
X15340Y7162D01*
X15356Y7199D01*
X15368Y7241D01*
X15368Y7241D01*
X15826Y6990D02*
X15826Y7161D01*
X15515Y7161D01*
X15515Y7242D01*
X15770Y7604D01*
X15826Y7565D01*
X15602Y7242D01*
X15826Y7242D01*
X15826Y7242D01*
X15826Y7565D01*
X15770Y7604D01*
X15842Y7706D01*
X15914Y7706D01*
X15914Y7242D01*
X16010Y7242D01*
X16010Y7161D01*
X15914Y7161D01*
X15914Y6990D01*
X15826Y6990D01*
X15826Y6990D01*
G37*
%LNtop silkscreen component e4ae99b1e168a3db*%
D10*
X16599Y20931D02*
X16599Y19201D01*
X18199Y20931D02*
X18199Y19201D01*
D11*
X16669Y20642D02*
X18129Y20642D01*
D12*
X17399Y22676D03*
G36*
X19178Y19966D02*
X19273Y19942D01*
X19255Y19887D01*
X19231Y19839D01*
X19202Y19798D01*
X19166Y19764D01*
X19125Y19737D01*
X19080Y19718D01*
X19030Y19707D01*
X18977Y19703D01*
X18921Y19706D01*
X18872Y19715D01*
X18827Y19729D01*
X18788Y19750D01*
X18754Y19776D01*
X18725Y19808D01*
X18699Y19844D01*
X18678Y19886D01*
X18661Y19932D01*
X18650Y19979D01*
X18643Y20028D01*
X18640Y20078D01*
X18643Y20132D01*
X18651Y20183D01*
X18664Y20230D01*
X18683Y20273D01*
X18707Y20312D01*
X18735Y20347D01*
X18767Y20376D01*
X18804Y20400D01*
X18845Y20419D01*
X18887Y20432D01*
X18932Y20440D01*
X18978Y20443D01*
X19030Y20440D01*
X19077Y20429D01*
X19120Y20412D01*
X19159Y20388D01*
X19193Y20358D01*
X19221Y20323D01*
X19244Y20281D01*
X19261Y20235D01*
X19168Y20213D01*
X19154Y20249D01*
X19137Y20280D01*
X19118Y20306D01*
X19095Y20326D01*
X19070Y20342D01*
X19042Y20353D01*
X19010Y20360D01*
X18976Y20362D01*
X18937Y20360D01*
X18900Y20352D01*
X18868Y20340D01*
X18838Y20322D01*
X18813Y20301D01*
X18791Y20276D01*
X18774Y20248D01*
X18760Y20216D01*
X18750Y20183D01*
X18743Y20149D01*
X18739Y20114D01*
X18738Y20079D01*
X18739Y20035D01*
X18744Y19993D01*
X18753Y19955D01*
X18764Y19919D01*
X18780Y19887D01*
X18798Y19860D01*
X18821Y19837D01*
X18847Y19818D01*
X18876Y19803D01*
X18906Y19792D01*
X18937Y19786D01*
X18969Y19784D01*
X19007Y19787D01*
X19042Y19795D01*
X19074Y19810D01*
X19104Y19830D01*
X19129Y19855D01*
X19150Y19887D01*
X19166Y19924D01*
X19178Y19966D01*
X19178Y19966D01*
X19367Y19881D02*
X19452Y19888D01*
X19458Y19861D01*
X19467Y19837D01*
X19479Y19817D01*
X19493Y19802D01*
X19509Y19790D01*
X19527Y19782D01*
X19548Y19777D01*
X19570Y19775D01*
X19590Y19776D01*
X19608Y19780D01*
X19626Y19785D01*
X19641Y19794D01*
X19656Y19804D01*
X19669Y19815D01*
X19681Y19828D01*
X19691Y19843D01*
X19701Y19860D01*
X19709Y19880D01*
X19717Y19902D01*
X19724Y19927D01*
X19730Y19953D01*
X19734Y19980D01*
X19737Y20007D01*
X19737Y20034D01*
X19737Y20038D01*
X19737Y20042D01*
X19737Y20046D01*
X19737Y20052D01*
X19693Y20084D01*
X19705Y20101D01*
X19717Y20129D01*
X19725Y20161D01*
X19727Y20196D01*
X19727Y20196D01*
X19725Y20232D01*
X19717Y20264D01*
X19704Y20292D01*
X19687Y20317D01*
X19666Y20336D01*
X19642Y20350D01*
X19617Y20358D01*
X19590Y20361D01*
X19562Y20358D01*
X19535Y20349D01*
X19510Y20334D01*
X19488Y20313D01*
X19469Y20287D01*
X19455Y20258D01*
X19447Y20225D01*
X19444Y20189D01*
X19447Y20157D01*
X19455Y20127D01*
X19468Y20101D01*
X19486Y20078D01*
X19507Y20059D01*
X19532Y20046D01*
X19558Y20038D01*
X19587Y20035D01*
X19617Y20038D01*
X19643Y20046D01*
X19667Y20059D01*
X19688Y20078D01*
X19693Y20084D01*
X19737Y20052D01*
X19722Y20032D01*
X19706Y20014D01*
X19686Y19998D01*
X19665Y19984D01*
X19642Y19972D01*
X19617Y19964D01*
X19592Y19959D01*
X19566Y19958D01*
X19523Y19962D01*
X19484Y19974D01*
X19448Y19994D01*
X19416Y20022D01*
X19389Y20057D01*
X19369Y20097D01*
X19358Y20142D01*
X19354Y20192D01*
X19358Y20244D01*
X19370Y20290D01*
X19390Y20331D01*
X19418Y20367D01*
X19452Y20396D01*
X19491Y20417D01*
X19533Y20430D01*
X19579Y20434D01*
X19613Y20431D01*
X19646Y20424D01*
X19677Y20413D01*
X19707Y20396D01*
X19734Y20375D01*
X19758Y20351D01*
X19778Y20322D01*
X19795Y20289D01*
X19808Y20250D01*
X19817Y20204D01*
X19823Y20150D01*
X19825Y20088D01*
X19823Y20022D01*
X19817Y19964D01*
X19808Y19913D01*
X19795Y19869D01*
X19778Y19831D01*
X19758Y19797D01*
X19734Y19769D01*
X19706Y19745D01*
X19676Y19727D01*
X19642Y19713D01*
X19607Y19705D01*
X19568Y19703D01*
X19528Y19706D01*
X19492Y19714D01*
X19460Y19729D01*
X19431Y19749D01*
X19407Y19775D01*
X19389Y19806D01*
X19375Y19841D01*
X19367Y19881D01*
X19367Y19881D01*
G37*
M02*