<?xml-stylesheet href="https://s3.amazonaws.com/maker.works.boards/css/blackpcb.css" type="text/css"?><svg xmlns="http://www.w3.org/2000/svg" version="1.1" xmlns:xlink="http://www.w3.org/1999/xlink" stroke-width="0" stroke-linecap="round" stroke-linejoin="round" width="0.9in" height="1in" id="pcb_bottom" viewBox="7.5 7.5 900 1000"><defs><circle cx="0" cy="0" r="12.5" id="tool-T10-pad-1000"/><circle cx="0" cy="0" r="21" id="tool-D11-pad-1002"/><rect x="-78.75" y="-17.5" width="157.5" height="35" id="tool-D12-pad-1003"/><circle cx="0" cy="0" r="21" id="tool-D10-pad-1005"/><rect x="-78.75" y="-17.5" width="157.5" height="35" id="tool-D11-pad-1006"/><g id="pcb_bottom-cu" fill="currentColor" stroke="currentColor"><path stroke-width="2" fill="none" d="M 890.7 990.7 L 890.7 990.7 M 890.7 990.7 L 24.3 990.7 M 24.3 990.7 L 24.3 884 M 24.3 884 L 93.1 884 M 93.1 884 L 99.6 886.7 M 99.6 886.7 L 99.7 886.8 M 99.7 886.8 L 107.4 887.7 M 107.4 887.7 L 107.6 887.7 M 107.6 887.7 L 115.3 886.8 M 115.3 886.8 L 115.4 886.7 M 115.4 886.7 L 121.9 884 M 121.9 884 L 193.1 884 M 193.1 884 L 193.7 883.4 M 193.7 883.4 L 193.7 831.6 M 193.7 831.6 L 193.1 831 M 193.1 831 L 121.9 831 M 121.9 831 L 115.4 828.3 M 115.4 828.3 L 115.3 828.2 M 115.3 828.2 L 107.6 827.3 M 107.6 827.3 L 107.4 827.3 M 107.4 827.3 L 99.7 828.2 M 99.7 828.2 L 99.6 828.3 M 99.6 828.3 L 93.1 831 M 93.1 831 L 24.3 831 M 24.3 831 L 24.3 784 M 24.3 784 L 102.3 784 M 102.3 784 L 102.9 783.4 M 102.9 783.4 L 102.9 731.6 M 102.9 731.6 L 102.3 731 M 102.3 731 L 24.3 731 M 24.3 731 L 24.3 684 M 24.3 684 L 102.3 684 M 102.3 684 L 102.9 683.4 M 102.9 683.4 L 102.9 631.6 M 102.9 631.6 L 102.3 631 M 102.3 631 L 24.3 631 M 24.3 631 L 24.3 584 M 24.3 584 L 102.3 584 M 102.3 584 L 102.9 583.4 M 102.9 583.4 L 102.9 531.6 M 102.9 531.6 L 102.3 531 M 102.3 531 L 24.3 531 M 24.3 531 L 24.3 484 M 24.3 484 L 91.5 484 M 91.5 484 L 92.3 484.7 M 92.3 484.7 L 92.4 484.7 M 92.4 484.7 L 99.6 487.7 M 99.6 487.7 L 99.7 487.7 M 99.7 487.7 L 107.4 488.8 M 107.4 488.8 L 107.6 488.8 M 107.6 488.8 L 115.3 487.7 M 115.3 487.7 L 115.4 487.7 M 115.4 487.7 L 122.6 484.7 M 122.6 484.7 L 122.7 484.7 M 122.7 484.7 L 123.5 484 M 123.5 484 L 193.1 484 M 193.1 484 L 193.7 483.4 M 193.7 483.4 L 193.7 431.6 M 193.7 431.6 L 193.1 431 M 193.1 431 L 119.5 431 M 119.5 431 L 115.4 429.3 M 115.4 429.3 L 115.3 429.3 M 115.3 429.3 L 107.6 428.2 M 107.6 428.2 L 107.4 428.2 M 107.4 428.2 L 99.7 429.3 M 99.7 429.3 L 99.6 429.3 M 99.6 429.3 L 95.5 431 M 95.5 431 L 24.3 431 M 24.3 431 L 24.3 384 M 24.3 384 L 93.1 384 M 93.1 384 L 99.6 386.7 M 99.6 386.7 L 99.7 386.8 M 99.7 386.8 L 107.4 387.7 M 107.4 387.7 L 107.6 387.7 M 107.6 387.7 L 115.3 386.8 M 115.3 386.8 L 115.4 386.7 M 115.4 386.7 L 121.9 384 M 121.9 384 L 193.1 384 M 193.1 384 L 193.7 383.4 M 193.7 383.4 L 193.7 331.6 M 193.7 331.6 L 193.1 331 M 193.1 331 L 121.9 331 M 121.9 331 L 115.4 328.3 M 115.4 328.3 L 115.3 328.2 M 115.3 328.2 L 107.6 327.3 M 107.6 327.3 L 107.4 327.3 M 107.4 327.3 L 99.7 328.2 M 99.7 328.2 L 99.6 328.3 M 99.6 328.3 L 93.1 331 M 93.1 331 L 24.3 331 M 24.3 331 L 24.3 284 M 24.3 284 L 193.1 284 M 193.1 284 L 193.7 283.4 M 193.7 283.4 L 193.7 231.6 M 193.7 231.6 L 193.1 231 M 193.1 231 L 24.3 231 M 24.3 231 L 24.3 184 M 24.3 184 L 193.1 184 M 193.1 184 L 193.7 183.4 M 193.7 183.4 L 193.7 131.6 M 193.7 131.6 L 193.1 131 M 193.1 131 L 24.3 131 M 24.3 131 L 24.3 24.3 M 24.3 24.3 L 890.7 24.3 M 890.7 24.3 L 890.7 990.7 M 193.7 761.1 L 193.7 761.1 M 193.7 761.1 L 193.7 783.4 M 193.7 783.4 L 193.1 784 M 193.1 784 L 109.5 784 M 109.5 784 L 108.9 783.4 M 108.9 783.4 L 108.9 761.1 M 108.9 761.1 L 109.5 760.5 M 109.5 760.5 L 193.1 760.5 M 193.1 760.5 L 193.7 761.1 M 193.7 731.6 L 193.7 731.6 M 193.7 731.6 L 193.7 753.9 M 193.7 753.9 L 193.1 754.5 M 193.1 754.5 L 109.5 754.5 M 109.5 754.5 L 108.9 753.9 M 108.9 753.9 L 108.9 731.6 M 108.9 731.6 L 109.5 731 M 109.5 731 L 193.1 731 M 193.1 731 L 193.7 731.6 M 193.7 661.1 L 193.7 661.1 M 193.7 661.1 L 193.7 683.4 M 193.7 683.4 L 193.1 684 M 193.1 684 L 109.5 684 M 109.5 684 L 108.9 683.4 M 108.9 683.4 L 108.9 661.1 M 108.9 661.1 L 109.5 660.5 M 109.5 660.5 L 193.1 660.5 M 193.1 660.5 L 193.7 661.1 M 193.7 631.6 L 193.7 631.6 M 193.7 631.6 L 193.7 653.9 M 193.7 653.9 L 193.1 654.5 M 193.1 654.5 L 109.5 654.5 M 109.5 654.5 L 108.9 653.9 M 108.9 653.9 L 108.9 631.6 M 108.9 631.6 L 109.5 631 M 109.5 631 L 193.1 631 M 193.1 631 L 193.7 631.6 M 193.7 561.1 L 193.7 561.1 M 193.7 561.1 L 193.7 583.4 M 193.7 583.4 L 193.1 584 M 193.1 584 L 109.5 584 M 109.5 584 L 108.9 583.4 M 108.9 583.4 L 108.9 561.1 M 108.9 561.1 L 109.5 560.5 M 109.5 560.5 L 193.1 560.5 M 193.1 560.5 L 193.7 561.1 M 193.7 531.6 L 193.7 531.6 M 193.7 531.6 L 193.7 553.9 M 193.7 553.9 L 193.1 554.5 M 193.1 554.5 L 109.5 554.5 M 109.5 554.5 L 108.9 553.9 M 108.9 553.9 L 108.9 531.6 M 108.9 531.6 L 109.5 531 M 109.5 531 L 193.1 531 M 193.1 531 L 193.7 531.6 M 24.3 25.3 L 890.7 25.3 M 24.3 27.2 L 890.7 27.2 M 24.3 29.2 L 890.7 29.2 M 24.3 31.1 L 890.7 31.1 M 24.3 33.1 L 890.7 33.1 M 24.3 35 L 890.7 35 M 24.3 36.9 L 890.7 36.9 M 24.3 38.9 L 890.7 38.9 M 24.3 40.8 L 890.7 40.8 M 24.3 42.8 L 890.7 42.8 M 24.3 44.7 L 890.7 44.7 M 24.3 46.7 L 890.7 46.7 M 24.3 48.6 L 890.7 48.6 M 24.3 50.6 L 890.7 50.6 M 24.3 52.5 L 890.7 52.5 M 24.3 54.5 L 890.7 54.5 M 24.3 56.4 L 890.7 56.4 M 24.3 58.4 L 890.7 58.4 M 24.3 60.3 L 890.7 60.3 M 24.3 62.3 L 890.7 62.3 M 24.3 64.3 L 890.7 64.3 M 24.3 66.2 L 890.7 66.2 M 24.3 68.2 L 890.7 68.2 M 24.3 70.1 L 890.7 70.1 M 24.3 72.1 L 890.7 72.1 M 24.3 74 L 890.7 74 M 24.3 76 L 890.7 76 M 24.3 77.9 L 890.7 77.9 M 24.3 79.9 L 890.7 79.9 M 24.3 81.8 L 890.7 81.8 M 24.3 83.8 L 890.7 83.8 M 24.3 85.7 L 890.7 85.7 M 24.3 87.7 L 890.7 87.7 M 24.3 89.6 L 890.7 89.6 M 24.3 91.6 L 890.7 91.6 M 24.3 93.5 L 890.7 93.5 M 24.3 95.5 L 890.7 95.5 M 24.3 97.4 L 890.7 97.4 M 24.3 99.4 L 890.7 99.4 M 24.3 101.3 L 890.7 101.3 M 24.3 103.2 L 890.7 103.2 M 24.3 105.2 L 890.7 105.2 M 24.3 107.1 L 890.7 107.1 M 24.3 109.1 L 890.7 109.1 M 24.3 111 L 890.7 111 M 24.3 113 L 890.7 113 M 24.3 114.9 L 890.7 114.9 M 24.3 116.9 L 890.7 116.9 M 24.3 118.8 L 890.7 118.8 M 24.3 120.8 L 890.7 120.8 M 24.3 122.7 L 890.7 122.7 M 24.3 124.7 L 890.7 124.7 M 24.3 126.7 L 890.7 126.7 M 24.3 128.6 L 890.7 128.6 M 24.3 130.6 L 890.7 130.6 M 193.7 132.5 L 890.7 132.5 M 193.7 134.5 L 890.7 134.5 M 193.7 136.4 L 890.7 136.4 M 193.7 138.4 L 890.7 138.4 M 193.7 140.3 L 890.7 140.3 M 193.7 142.3 L 890.7 142.3 M 193.7 144.2 L 890.7 144.2 M 193.7 146.2 L 890.7 146.2 M 193.7 148.1 L 890.7 148.1 M 193.7 150.1 L 890.7 150.1 M 193.7 152 L 890.7 152 M 193.7 154 L 890.7 154 M 193.7 155.9 L 890.7 155.9 M 193.7 157.9 L 890.7 157.9 M 193.7 159.8 L 890.7 159.8 M 193.7 161.8 L 890.7 161.8 M 193.7 163.7 L 890.7 163.7 M 193.7 165.6 L 890.7 165.6 M 193.7 167.6 L 890.7 167.6 M 193.7 169.5 L 890.7 169.5 M 193.7 171.5 L 890.7 171.5 M 193.7 173.4 L 890.7 173.4 M 193.7 175.4 L 890.7 175.4 M 193.7 177.3 L 890.7 177.3 M 193.7 179.3 L 890.7 179.3 M 193.7 181.2 L 890.7 181.2 M 193.7 183.2 L 890.7 183.2 M 24.3 185.1 L 890.7 185.1 M 24.3 187.1 L 890.7 187.1 M 24.3 189 L 890.7 189 M 24.3 191 L 890.7 191 M 24.3 193 L 890.7 193 M 24.3 194.9 L 890.7 194.9 M 24.3 196.9 L 890.7 196.9 M 24.3 198.8 L 890.7 198.8 M 24.3 200.8 L 890.7 200.8 M 24.3 202.7 L 890.7 202.7 M 24.3 204.7 L 890.7 204.7 M 24.3 206.6 L 890.7 206.6 M 24.3 208.6 L 890.7 208.6 M 24.3 210.5 L 890.7 210.5 M 24.3 212.5 L 890.7 212.5 M 24.3 214.4 L 890.7 214.4 M 24.3 216.4 L 890.7 216.4 M 24.3 218.3 L 890.7 218.3 M 24.3 220.3 L 890.7 220.3 M 24.3 222.2 L 890.7 222.2 M 24.3 224.2 L 890.7 224.2 M 24.3 226.1 L 890.7 226.1 M 24.3 228.1 L 890.7 228.1 M 24.3 230 L 890.7 230 M 193.7 231.9 L 890.7 231.9 M 193.7 233.9 L 890.7 233.9 M 193.7 235.8 L 890.7 235.8 M 193.7 237.8 L 890.7 237.8 M 193.7 239.7 L 890.7 239.7 M 193.7 241.7 L 890.7 241.7 M 193.7 243.6 L 890.7 243.6 M 193.7 245.6 L 890.7 245.6 M 193.7 247.5 L 890.7 247.5 M 193.7 249.5 L 890.7 249.5 M 193.7 251.4 L 890.7 251.4 M 193.7 253.4 L 890.7 253.4 M 193.7 255.3 L 890.7 255.3 M 193.7 257.3 L 890.7 257.3 M 193.7 259.3 L 890.7 259.3 M 193.7 261.2 L 890.7 261.2 M 193.7 263.2 L 890.7 263.2 M 193.7 265.1 L 890.7 265.1 M 193.7 267.1 L 890.7 267.1 M 193.7 269 L 890.7 269 M 193.7 271 L 890.7 271 M 193.7 272.9 L 890.7 272.9 M 193.7 274.9 L 890.7 274.9 M 193.7 276.8 L 890.7 276.8 M 193.7 278.8 L 890.7 278.8 M 193.7 280.7 L 890.7 280.7 M 193.7 282.7 L 890.7 282.7 M 24.3 284.6 L 890.7 284.6 M 24.3 286.6 L 890.7 286.6 M 24.3 288.5 L 890.7 288.5 M 24.3 290.5 L 890.7 290.5 M 24.3 292.4 L 890.7 292.4 M 24.3 294.4 L 890.7 294.4 M 24.3 296.3 L 890.7 296.3 M 24.3 298.2 L 890.7 298.2 M 24.3 300.2 L 890.7 300.2 M 24.3 302.1 L 890.7 302.1 M 24.3 304.1 L 890.7 304.1 M 24.3 306 L 890.7 306 M 24.3 308 L 890.7 308 M 24.3 309.9 L 890.7 309.9 M 24.3 311.9 L 890.7 311.9 M 24.3 313.8 L 890.7 313.8 M 24.3 315.8 L 890.7 315.8 M 24.3 317.7 L 890.7 317.7 M 24.3 319.7 L 890.7 319.7 M 24.3 321.7 L 890.7 321.7 M 24.3 323.6 L 890.7 323.6 M 24.3 325.6 L 890.7 325.6 M 24.3 327.5 L 105.5 327.5 M 109.5 327.5 L 890.7 327.5 M 24.3 329.5 L 96.8 329.5 M 118.2 329.5 L 890.7 329.5 M 193.5 331.4 L 890.7 331.4 M 193.7 333.4 L 890.7 333.4 M 193.7 335.3 L 890.7 335.3 M 193.7 337.3 L 890.7 337.3 M 193.7 339.2 L 890.7 339.2 M 193.7 341.2 L 890.7 341.2 M 193.7 343.1 L 890.7 343.1 M 193.7 345.1 L 890.7 345.1 M 193.7 347 L 890.7 347 M 193.7 349 L 890.7 349 M 193.7 350.9 L 890.7 350.9 M 193.7 352.9 L 890.7 352.9 M 193.7 354.8 L 890.7 354.8 M 193.7 356.8 L 890.7 356.8 M 193.7 358.7 L 890.7 358.7 M 193.7 360.6 L 890.7 360.6 M 193.7 362.6 L 890.7 362.6 M 193.7 364.5 L 890.7 364.5 M 193.7 366.5 L 890.7 366.5 M 193.7 368.4 L 890.7 368.4 M 193.7 370.4 L 890.7 370.4 M 193.7 372.3 L 890.7 372.3 M 193.7 374.3 L 890.7 374.3 M 193.7 376.2 L 890.7 376.2 M 193.7 378.2 L 890.7 378.2 M 193.7 380.1 L 890.7 380.1 M 193.7 382.1 L 890.7 382.1 M 24.3 384 L 93.2 384 M 121.8 384 L 890.7 384 M 24.3 386 L 97.9 386 M 117.1 386 L 890.7 386 M 24.3 388 L 890.7 388 M 24.3 389.9 L 890.7 389.9 M 24.3 391.9 L 890.7 391.9 M 24.3 393.8 L 890.7 393.8 M 24.3 395.8 L 890.7 395.8 M 24.3 397.7 L 890.7 397.7 M 24.3 399.7 L 890.7 399.7 M 24.3 401.6 L 890.7 401.6 M 24.3 403.6 L 890.7 403.6 M 24.3 405.5 L 890.7 405.5 M 24.3 407.5 L 890.7 407.5 M 24.3 409.4 L 890.7 409.4 M 24.3 411.4 L 890.7 411.4 M 24.3 413.3 L 890.7 413.3 M 24.3 415.3 L 890.7 415.3 M 24.3 417.2 L 890.7 417.2 M 24.3 419.2 L 890.7 419.2 M 24.3 421.1 L 890.7 421.1 M 24.3 423.1 L 890.7 423.1 M 24.3 425 L 890.7 425 M 24.3 426.9 L 890.7 426.9 M 24.3 428.9 L 102.5 428.9 M 112.5 428.9 L 890.7 428.9 M 24.3 430.8 L 95.8 430.8 M 119.2 430.8 L 890.7 430.8 M 193.7 432.8 L 890.7 432.8 M 193.7 434.7 L 890.7 434.7 M 193.7 436.7 L 890.7 436.7 M 193.7 438.6 L 890.7 438.6 M 193.7 440.6 L 890.7 440.6 M 193.7 442.5 L 890.7 442.5 M 193.7 444.5 L 890.7 444.5 M 193.7 446.4 L 890.7 446.4 M 193.7 448.4 L 890.7 448.4 M 193.7 450.3 L 890.7 450.3 M 193.7 452.3 L 890.7 452.3 M 193.7 454.3 L 890.7 454.3 M 193.7 456.2 L 890.7 456.2 M 193.7 458.2 L 890.7 458.2 M 193.7 460.1 L 890.7 460.1 M 193.7 462.1 L 890.7 462.1 M 193.7 464 L 890.7 464 M 193.7 466 L 890.7 466 M 193.7 467.9 L 890.7 467.9 M 193.7 469.9 L 890.7 469.9 M 193.7 471.8 L 890.7 471.8 M 193.7 473.8 L 890.7 473.8 M 193.7 475.7 L 890.7 475.7 M 193.7 477.7 L 890.7 477.7 M 193.7 479.6 L 890.7 479.6 M 193.7 481.6 L 890.7 481.6 M 193.6 483.5 L 890.7 483.5 M 24.3 485.5 L 94.2 485.5 M 120.8 485.5 L 890.7 485.5 M 24.3 487.4 L 98.9 487.4 M 116.1 487.4 L 890.7 487.4 M 24.3 489.4 L 890.7 489.4 M 24.3 491.3 L 890.7 491.3 M 24.3 493.2 L 890.7 493.2 M 24.3 495.2 L 890.7 495.2 M 24.3 497.1 L 890.7 497.1 M 24.3 499.1 L 890.7 499.1 M 24.3 501 L 890.7 501 M 24.3 503 L 890.7 503 M 24.3 504.9 L 890.7 504.9 M 24.3 506.9 L 890.7 506.9 M 24.3 508.8 L 890.7 508.8 M 24.3 510.8 L 890.7 510.8 M 24.3 512.7 L 890.7 512.7 M 24.3 514.7 L 890.7 514.7 M 24.3 516.7 L 890.7 516.7 M 24.3 518.6 L 890.7 518.6 M 24.3 520.6 L 890.7 520.6 M 24.3 522.5 L 890.7 522.5 M 24.3 524.5 L 890.7 524.5 M 24.3 526.4 L 890.7 526.4 M 24.3 528.4 L 890.7 528.4 M 24.3 530.3 L 890.7 530.3 M 102.9 532.3 L 108.9 532.3 M 193.7 532.3 L 890.7 532.3 M 102.9 534.2 L 108.9 534.2 M 193.7 534.2 L 890.7 534.2 M 102.9 536.2 L 108.9 536.2 M 193.7 536.2 L 890.7 536.2 M 102.9 538.1 L 108.9 538.1 M 193.7 538.1 L 890.7 538.1 M 102.9 540.1 L 108.9 540.1 M 193.7 540.1 L 890.7 540.1 M 102.9 542 L 108.9 542 M 193.7 542 L 890.7 542 M 102.9 544 L 108.9 544 M 193.7 544 L 890.7 544 M 102.9 545.9 L 108.9 545.9 M 193.7 545.9 L 890.7 545.9 M 102.9 547.9 L 108.9 547.9 M 193.7 547.9 L 890.7 547.9 M 102.9 549.8 L 108.9 549.8 M 193.7 549.8 L 890.7 549.8 M 102.9 551.8 L 108.9 551.8 M 193.7 551.8 L 890.7 551.8 M 102.9 553.7 L 108.9 553.7 M 193.7 553.7 L 890.7 553.7 M 102.9 555.6 L 890.7 555.6 M 102.9 557.6 L 890.7 557.6 M 102.9 559.5 L 890.7 559.5 M 102.9 561.5 L 108.9 561.5 M 193.7 561.5 L 890.7 561.5 M 102.9 563.4 L 108.9 563.4 M 193.7 563.4 L 890.7 563.4 M 102.9 565.4 L 108.9 565.4 M 193.7 565.4 L 890.7 565.4 M 102.9 567.3 L 108.9 567.3 M 193.7 567.3 L 890.7 567.3 M 102.9 569.3 L 108.9 569.3 M 193.7 569.3 L 890.7 569.3 M 102.9 571.2 L 108.9 571.2 M 193.7 571.2 L 890.7 571.2 M 102.9 573.2 L 108.9 573.2 M 193.7 573.2 L 890.7 573.2 M 102.9 575.1 L 108.9 575.1 M 193.7 575.1 L 890.7 575.1 M 102.9 577.1 L 108.9 577.1 M 193.7 577.1 L 890.7 577.1 M 102.9 579 L 108.9 579 M 193.7 579 L 890.7 579 M 102.9 581 L 108.9 581 M 193.7 581 L 890.7 581 M 102.9 583 L 108.9 583 M 193.7 583 L 890.7 583 M 24.3 584.9 L 890.7 584.9 M 24.3 586.9 L 890.7 586.9 M 24.3 588.8 L 890.7 588.8 M 24.3 590.8 L 890.7 590.8 M 24.3 592.7 L 890.7 592.7 M 24.3 594.7 L 890.7 594.7 M 24.3 596.6 L 890.7 596.6 M 24.3 598.6 L 890.7 598.6 M 24.3 600.5 L 890.7 600.5 M 24.3 602.5 L 890.7 602.5 M 24.3 604.4 L 890.7 604.4 M 24.3 606.4 L 890.7 606.4 M 24.3 608.3 L 890.7 608.3 M 24.3 610.3 L 890.7 610.3 M 24.3 612.2 L 890.7 612.2 M 24.3 614.2 L 890.7 614.2 M 24.3 616.1 L 890.7 616.1 M 24.3 618.1 L 890.7 618.1 M 24.3 620 L 890.7 620 M 24.3 621.9 L 890.7 621.9 M 24.3 623.9 L 890.7 623.9 M 24.3 625.8 L 890.7 625.8 M 24.3 627.8 L 890.7 627.8 M 24.3 629.7 L 890.7 629.7 M 102.9 631.7 L 108.9 631.7 M 193.7 631.7 L 890.7 631.7 M 102.9 633.6 L 108.9 633.6 M 193.7 633.6 L 890.7 633.6 M 102.9 635.6 L 108.9 635.6 M 193.7 635.6 L 890.7 635.6 M 102.9 637.5 L 108.9 637.5 M 193.7 637.5 L 890.7 637.5 M 102.9 639.5 L 108.9 639.5 M 193.7 639.5 L 890.7 639.5 M 102.9 641.4 L 108.9 641.4 M 193.7 641.4 L 890.7 641.4 M 102.9 643.4 L 108.9 643.4 M 193.7 643.4 L 890.7 643.4 M 102.9 645.3 L 108.9 645.3 M 193.7 645.3 L 890.7 645.3 M 102.9 647.3 L 108.9 647.3 M 193.7 647.3 L 890.7 647.3 M 102.9 649.3 L 108.9 649.3 M 193.7 649.3 L 890.7 649.3 M 102.9 651.2 L 108.9 651.2 M 193.7 651.2 L 890.7 651.2 M 102.9 653.2 L 108.9 653.2 M 193.7 653.2 L 890.7 653.2 M 102.9 655.1 L 890.7 655.1 M 102.9 657.1 L 890.7 657.1 M 102.9 659 L 890.7 659 M 102.9 661 L 109.1 661 M 193.5 661 L 890.7 661 M 102.9 662.9 L 108.9 662.9 M 193.7 662.9 L 890.7 662.9 M 102.9 664.9 L 108.9 664.9 M 193.7 664.9 L 890.7 664.9 M 102.9 666.8 L 108.9 666.8 M 193.7 666.8 L 890.7 666.8 M 102.9 668.8 L 108.9 668.8 M 193.7 668.8 L 890.7 668.8 M 102.9 670.7 L 108.9 670.7 M 193.7 670.7 L 890.7 670.7 M 102.9 672.7 L 108.9 672.7 M 193.7 672.7 L 890.7 672.7 M 102.9 674.6 L 108.9 674.6 M 193.7 674.6 L 890.7 674.6 M 102.9 676.6 L 108.9 676.6 M 193.7 676.6 L 890.7 676.6 M 102.9 678.5 L 108.9 678.5 M 193.7 678.5 L 890.7 678.5 M 102.9 680.5 L 108.9 680.5 M 193.7 680.5 L 890.7 680.5 M 102.9 682.4 L 108.9 682.4 M 193.7 682.4 L 890.7 682.4 M 24.3 684.4 L 890.7 684.4 M 24.3 686.3 L 890.7 686.3 M 24.3 688.2 L 890.7 688.2 M 24.3 690.2 L 890.7 690.2 M 24.3 692.1 L 890.7 692.1 M 24.3 694.1 L 890.7 694.1 M 24.3 696 L 890.7 696 M 24.3 698 L 890.7 698 M 24.3 699.9 L 890.7 699.9 M 24.3 701.9 L 890.7 701.9 M 24.3 703.8 L 890.7 703.8 M 24.3 705.8 L 890.7 705.8 M 24.3 707.7 L 890.7 707.7 M 24.3 709.7 L 890.7 709.7 M 24.3 711.7 L 890.7 711.7 M 24.3 713.6 L 890.7 713.6 M 24.3 715.6 L 890.7 715.6 M 24.3 717.5 L 890.7 717.5 M 24.3 719.5 L 890.7 719.5 M 24.3 721.4 L 890.7 721.4 M 24.3 723.4 L 890.7 723.4 M 24.3 725.3 L 890.7 725.3 M 24.3 727.3 L 890.7 727.3 M 24.3 729.2 L 890.7 729.2 M 102.5 731.2 L 109.4 731.2 M 193.2 731.2 L 890.7 731.2 M 102.9 733.1 L 108.9 733.1 M 193.7 733.1 L 890.7 733.1 M 102.9 735.1 L 108.9 735.1 M 193.7 735.1 L 890.7 735.1 M 102.9 737 L 108.9 737 M 193.7 737 L 890.7 737 M 102.9 739 L 108.9 739 M 193.7 739 L 890.7 739 M 102.9 740.9 L 108.9 740.9 M 193.7 740.9 L 890.7 740.9 M 102.9 742.9 L 108.9 742.9 M 193.7 742.9 L 890.7 742.9 M 102.9 744.8 L 108.9 744.8 M 193.7 744.8 L 890.7 744.8 M 102.9 746.8 L 108.9 746.8 M 193.7 746.8 L 890.7 746.8 M 102.9 748.7 L 108.9 748.7 M 193.7 748.7 L 890.7 748.7 M 102.9 750.6 L 108.9 750.6 M 193.7 750.6 L 890.7 750.6 M 102.9 752.6 L 108.9 752.6 M 193.7 752.6 L 890.7 752.6 M 102.9 754.5 L 890.7 754.5 M 102.9 756.5 L 890.7 756.5 M 102.9 758.4 L 890.7 758.4 M 102.9 760.4 L 890.7 760.4 M 102.9 762.3 L 108.9 762.3 M 193.7 762.3 L 890.7 762.3 M 102.9 764.3 L 108.9 764.3 M 193.7 764.3 L 890.7 764.3 M 102.9 766.2 L 108.9 766.2 M 193.7 766.2 L 890.7 766.2 M 102.9 768.2 L 108.9 768.2 M 193.7 768.2 L 890.7 768.2 M 102.9 770.1 L 108.9 770.1 M 193.7 770.1 L 890.7 770.1 M 102.9 772.1 L 108.9 772.1 M 193.7 772.1 L 890.7 772.1 M 102.9 774 L 108.9 774 M 193.7 774 L 890.7 774 M 102.9 776 L 108.9 776 M 193.7 776 L 890.7 776 M 102.9 778 L 108.9 778 M 193.7 778 L 890.7 778 M 102.9 779.9 L 108.9 779.9 M 193.7 779.9 L 890.7 779.9 M 102.9 781.9 L 108.9 781.9 M 193.7 781.9 L 890.7 781.9 M 102.5 783.8 L 109.3 783.8 M 193.3 783.8 L 890.7 783.8 M 24.3 785.8 L 890.7 785.8 M 24.3 787.7 L 890.7 787.7 M 24.3 789.7 L 890.7 789.7 M 24.3 791.6 L 890.7 791.6 M 24.3 793.6 L 890.7 793.6 M 24.3 795.5 L 890.7 795.5 M 24.3 797.5 L 890.7 797.5 M 24.3 799.4 L 890.7 799.4 M 24.3 801.4 L 890.7 801.4 M 24.3 803.3 L 890.7 803.3 M 24.3 805.3 L 890.7 805.3 M 24.3 807.2 L 890.7 807.2 M 24.3 809.2 L 890.7 809.2 M 24.3 811.1 L 890.7 811.1 M 24.3 813.1 L 890.7 813.1 M 24.3 815 L 890.7 815 M 24.3 816.9 L 890.7 816.9 M 24.3 818.9 L 890.7 818.9 M 24.3 820.8 L 890.7 820.8 M 24.3 822.8 L 890.7 822.8 M 24.3 824.7 L 890.7 824.7 M 24.3 826.7 L 890.7 826.7 M 24.3 828.6 L 98.8 828.6 M 116.2 828.6 L 890.7 828.6 M 24.3 830.6 L 94 830.6 M 121 830.6 L 890.7 830.6 M 193.7 832.5 L 890.7 832.5 M 193.7 834.5 L 890.7 834.5 M 193.7 836.4 L 890.7 836.4 M 193.7 838.4 L 890.7 838.4 M 193.7 840.3 L 890.7 840.3 M 193.7 842.3 L 890.7 842.3 M 193.7 844.3 L 890.7 844.3 M 193.7 846.2 L 890.7 846.2 M 193.7 848.2 L 890.7 848.2 M 193.7 850.1 L 890.7 850.1 M 193.7 852.1 L 890.7 852.1 M 193.7 854 L 890.7 854 M 193.7 856 L 890.7 856 M 193.7 857.9 L 890.7 857.9 M 193.7 859.9 L 890.7 859.9 M 193.7 861.8 L 890.7 861.8 M 193.7 863.8 L 890.7 863.8 M 193.7 865.7 L 890.7 865.7 M 193.7 867.7 L 890.7 867.7 M 193.7 869.6 L 890.7 869.6 M 193.7 871.6 L 890.7 871.6 M 193.7 873.5 L 890.7 873.5 M 193.7 875.5 L 890.7 875.5 M 193.7 877.4 L 890.7 877.4 M 193.7 879.4 L 890.7 879.4 M 193.7 881.3 L 890.7 881.3 M 193.7 883.2 L 890.7 883.2 M 24.3 885.2 L 96 885.2 M 119 885.2 L 890.7 885.2 M 24.3 887.1 L 102.9 887.1 M 112.1 887.1 L 890.7 887.1 M 24.3 889.1 L 890.7 889.1 M 24.3 891 L 890.7 891 M 24.3 893 L 890.7 893 M 24.3 894.9 L 890.7 894.9 M 24.3 896.9 L 890.7 896.9 M 24.3 898.8 L 890.7 898.8 M 24.3 900.8 L 890.7 900.8 M 24.3 902.7 L 890.7 902.7 M 24.3 904.7 L 890.7 904.7 M 24.3 906.7 L 890.7 906.7 M 24.3 908.6 L 890.7 908.6 M 24.3 910.6 L 890.7 910.6 M 24.3 912.5 L 890.7 912.5 M 24.3 914.5 L 890.7 914.5 M 24.3 916.4 L 890.7 916.4 M 24.3 918.4 L 890.7 918.4 M 24.3 920.3 L 890.7 920.3 M 24.3 922.3 L 890.7 922.3 M 24.3 924.2 L 890.7 924.2 M 24.3 926.2 L 890.7 926.2 M 24.3 928.1 L 890.7 928.1 M 24.3 930.1 L 890.7 930.1 M 24.3 932 L 890.7 932 M 24.3 934 L 890.7 934 M 24.3 935.9 L 890.7 935.9 M 24.3 937.9 L 890.7 937.9 M 24.3 939.8 L 890.7 939.8 M 24.3 941.8 L 890.7 941.8 M 24.3 943.7 L 890.7 943.7 M 24.3 945.6 L 890.7 945.6 M 24.3 947.6 L 890.7 947.6 M 24.3 949.5 L 890.7 949.5 M 24.3 951.5 L 890.7 951.5 M 24.3 953.4 L 890.7 953.4 M 24.3 955.4 L 890.7 955.4 M 24.3 957.3 L 890.7 957.3 M 24.3 959.3 L 890.7 959.3 M 24.3 961.2 L 890.7 961.2 M 24.3 963.2 L 890.7 963.2 M 24.3 965.1 L 890.7 965.1 M 24.3 967.1 L 890.7 967.1 M 24.3 969 L 890.7 969 M 24.3 971 L 890.7 971 M 24.3 973 L 890.7 973 M 24.3 974.9 L 890.7 974.9 M 24.3 976.9 L 890.7 976.9 M 24.3 978.8 L 890.7 978.8 M 24.3 980.8 L 890.7 980.8 M 24.3 982.7 L 890.7 982.7 M 24.3 984.7 L 890.7 984.7 M 24.3 986.6 L 890.7 986.6 M 24.3 988.6 L 890.7 988.6 M 24.3 990.5 L 890.7 990.5"/><use x="857.5" y="257.5" xlink:href="#tool-D11-pad-1002"/><use x="357.5" y="57.5" xlink:href="#tool-D11-pad-1002"/><use x="107.5" y="458.5" xlink:href="#tool-D11-pad-1002"/><use x="857.5" y="357.5" xlink:href="#tool-D11-pad-1002"/><use x="657.5" y="57.5" xlink:href="#tool-D11-pad-1002"/><use x="657.5" y="957.5" xlink:href="#tool-D11-pad-1002"/><use x="557.5" y="57.5" xlink:href="#tool-D11-pad-1002"/><use x="857.5" y="857.5" xlink:href="#tool-D11-pad-1002"/><use x="457.5" y="57.5" xlink:href="#tool-D11-pad-1002"/><use x="57.5" y="57.5" xlink:href="#tool-D11-pad-1002"/><use x="557.5" y="957.5" xlink:href="#tool-D11-pad-1002"/><use x="857.5" y="957.5" xlink:href="#tool-D11-pad-1002"/><use x="757.5" y="57.5" xlink:href="#tool-D11-pad-1002"/><use x="857.5" y="57.5" xlink:href="#tool-D11-pad-1002"/><use x="857.5" y="657.5" xlink:href="#tool-D11-pad-1002"/><use x="257.5" y="957.5" xlink:href="#tool-D11-pad-1002"/><use x="857.5" y="557.5" xlink:href="#tool-D11-pad-1002"/><use x="757.5" y="957.5" xlink:href="#tool-D11-pad-1002"/><use x="157.5" y="57.5" xlink:href="#tool-D11-pad-1002"/><use x="257.5" y="57.5" xlink:href="#tool-D11-pad-1002"/><use x="857.5" y="757.5" xlink:href="#tool-D11-pad-1002"/><use x="107.5" y="857.5" xlink:href="#tool-D11-pad-1002"/><use x="57.5" y="957.5" xlink:href="#tool-D11-pad-1002"/><use x="157.5" y="957.5" xlink:href="#tool-D11-pad-1002"/><use x="357.5" y="957.5" xlink:href="#tool-D11-pad-1002"/><use x="107.5" y="357.5" xlink:href="#tool-D11-pad-1002"/><use x="857.5" y="457.5" xlink:href="#tool-D11-pad-1002"/><use x="457.5" y="957.5" xlink:href="#tool-D11-pad-1002"/><use x="857.5" y="157.5" xlink:href="#tool-D11-pad-1002"/><use x="105.9" y="857.5" xlink:href="#tool-D12-pad-1003"/><use x="105.9" y="757.5" xlink:href="#tool-D12-pad-1003"/><use x="105.9" y="657.5" xlink:href="#tool-D12-pad-1003"/><use x="105.9" y="557.5" xlink:href="#tool-D12-pad-1003"/><use x="105.9" y="457.5" xlink:href="#tool-D12-pad-1003"/><use x="105.9" y="357.5" xlink:href="#tool-D12-pad-1003"/><use x="105.9" y="257.5" xlink:href="#tool-D12-pad-1003"/><use x="105.9" y="157.5" xlink:href="#tool-D12-pad-1003"/></g><mask id="pcb_bottom_mech-mask" fill="#fff" stroke="#fff" fill-rule="evenodd"><path stroke-width="0" d="M 7.5 7.5 L 7.5 1007.5 L 907.5 1007.5 L 907.5 7.5 Z"/><g id="pcb_bottom-drl" fill="#000" stroke="#000"><use x="857.5" y="257.5" xlink:href="#tool-T10-pad-1000"/><use x="357.5" y="57.5" xlink:href="#tool-T10-pad-1000"/><use x="107.5" y="458.5" xlink:href="#tool-T10-pad-1000"/><use x="857.5" y="357.5" xlink:href="#tool-T10-pad-1000"/><use x="657.5" y="57.5" xlink:href="#tool-T10-pad-1000"/><use x="657.5" y="957.5" xlink:href="#tool-T10-pad-1000"/><use x="557.5" y="57.5" xlink:href="#tool-T10-pad-1000"/><use x="857.5" y="857.5" xlink:href="#tool-T10-pad-1000"/><use x="457.5" y="57.5" xlink:href="#tool-T10-pad-1000"/><use x="57.5" y="57.5" xlink:href="#tool-T10-pad-1000"/><use x="557.5" y="957.5" xlink:href="#tool-T10-pad-1000"/><use x="857.5" y="957.5" xlink:href="#tool-T10-pad-1000"/><use x="757.5" y="57.5" xlink:href="#tool-T10-pad-1000"/><use x="857.5" y="57.5" xlink:href="#tool-T10-pad-1000"/><use x="857.5" y="657.5" xlink:href="#tool-T10-pad-1000"/><use x="257.5" y="957.5" xlink:href="#tool-T10-pad-1000"/><use x="857.5" y="557.5" xlink:href="#tool-T10-pad-1000"/><use x="757.5" y="957.5" xlink:href="#tool-T10-pad-1000"/><use x="157.5" y="57.5" xlink:href="#tool-T10-pad-1000"/><use x="257.5" y="57.5" xlink:href="#tool-T10-pad-1000"/><use x="857.5" y="757.5" xlink:href="#tool-T10-pad-1000"/><use x="107.5" y="857.5" xlink:href="#tool-T10-pad-1000"/><use x="57.5" y="957.5" xlink:href="#tool-T10-pad-1000"/><use x="157.5" y="957.5" xlink:href="#tool-T10-pad-1000"/><use x="357.5" y="957.5" xlink:href="#tool-T10-pad-1000"/><use x="107.5" y="357.5" xlink:href="#tool-T10-pad-1000"/><use x="857.5" y="457.5" xlink:href="#tool-T10-pad-1000"/><use x="457.5" y="957.5" xlink:href="#tool-T10-pad-1000"/><use x="857.5" y="157.5" xlink:href="#tool-T10-pad-1000"/></g></mask></defs><g mask="url(#pcb_bottom_mech-mask)" transform="translate(915,1015) scale(-1,-1)"><rect x="7.5" y="7.5" width="900" height="1000" fill="currentColor" class="pcb_board-fr4"/><use class="pcb_board-cu" xlink:href="#pcb_bottom-cu"/><g><defs><g id="pcb_bottom-sm" fill="currentColor" stroke="currentColor"><use x="107.5" y="458.5" xlink:href="#tool-D10-pad-1005"/><use x="107.5" y="857.5" xlink:href="#tool-D10-pad-1005"/><use x="107.5" y="357.5" xlink:href="#tool-D10-pad-1005"/><use x="105.9" y="857.5" xlink:href="#tool-D11-pad-1006"/><use x="105.9" y="757.5" xlink:href="#tool-D11-pad-1006"/><use x="105.9" y="657.5" xlink:href="#tool-D11-pad-1006"/><use x="105.9" y="557.5" xlink:href="#tool-D11-pad-1006"/><use x="105.9" y="457.5" xlink:href="#tool-D11-pad-1006"/><use x="105.9" y="357.5" xlink:href="#tool-D11-pad-1006"/><use x="105.9" y="257.5" xlink:href="#tool-D11-pad-1006"/><use x="105.9" y="157.5" xlink:href="#tool-D11-pad-1006"/></g><mask id="pcb_bottom-sm_mask" color="#000"><rect x="7.5" y="7.5" width="900" height="1000" fill="#fff"/><use xlink:href="#pcb_bottom-sm"/></mask><mask id="pcb_bottom-cu_finish-mask" color="#fff"><use xlink:href="#pcb_bottom-cu"/></mask></defs><g mask="url(#pcb_bottom-sm_mask)"><rect x="7.5" y="7.5" width="900" height="1000" fill="currentColor" class="pcb_board-sm"/><g id="pcb_bottom-ss" class="pcb_board-ss" fill="currentColor" stroke="currentColor"><path d="M 280.7 851 L 280.7 854.5 L 269.9 854.5 L 269.9 851 L 280.7 851 L 280.7 851 Z"/><path d="M 253.7 842.4 L 257.3 842.4 L 257.3 864.8 L 257.9 864.2 L 258.7 863.6 L 259.6 863 L 260.6 862.4 L 261.6 861.8 L 262.5 861.3 L 263.4 860.9 L 264.3 860.5 L 264.3 864 L 262.9 864.7 L 261.5 865.5 L 260.3 866.4 L 259.1 867.3 L 258.1 868.3 L 257.2 869.2 L 256.6 870.2 L 256 871.1 L 253.7 871.1 L 253.7 842.4 L 253.7 842.4 Z"/><path d="M 226.2 845.8 L 226.2 842.4 L 245.2 842.4 L 245.2 843 L 245.1 843.6 L 244.9 844.2 L 244.8 844.8 L 244.4 845.8 L 243.8 846.8 L 243.2 847.7 L 242.5 848.6 L 241.6 849.6 L 240.5 850.6 L 239.3 851.8 L 237.9 853 L 235.7 854.8 L 234 856.4 L 232.5 857.8 L 231.6 859 L 230.8 860.1 L 230.3 861.2 L 230 862.3 L 229.9 863.2 L 230 864.3 L 230.3 865.2 L 230.7 866 L 231.4 866.8 L 232.2 867.4 L 233.1 867.9 L 234.2 868.1 L 235.3 868.2 L 236.5 868.1 L 237.6 867.9 L 238.5 867.4 L 239.4 866.7 L 240 865.8 L 240.5 864.9 L 240.8 863.8 L 240.9 862.5 L 244.5 862.9 L 244.2 864.7 L 243.6 866.4 L 242.8 867.8 L 241.7 869 L 240.4 869.9 L 238.9 870.6 L 237.1 871 L 235.2 871.1 L 233.2 871 L 231.5 870.6 L 230 869.9 L 228.7 868.8 L 227.7 867.6 L 226.9 866.3 L 226.4 864.8 L 226.3 863.2 L 226.3 862.3 L 226.5 861.5 L 226.7 860.6 L 227 859.8 L 227.4 859 L 227.9 858.1 L 228.6 857.2 L 229.3 856.3 L 230.3 855.3 L 231.5 854.1 L 233 852.8 L 234.7 851.3 L 236.2 850.1 L 237.3 849 L 238.2 848.2 L 238.8 847.7 L 239.2 847.2 L 239.6 846.7 L 240 846.2 L 240.3 845.8 L 226.2 845.8 L 226.2 845.8 Z"/><path d="M 212.9 842.4 L 224 871 L 219.9 871 L 212.4 850.2 L 212 849 L 211.6 847.8 L 211.2 846.6 L 210.9 845.5 L 210.6 846.7 L 210.2 847.9 L 209.8 849 L 209.4 850.2 L 201.6 871 L 197.8 871 L 209 842.4 L 212.9 842.4 L 212.9 842.4 Z"/><path d="M 267.7 153.6 L 267.7 157 L 255.6 157 L 255.6 146.4 L 257 145.3 L 258.4 144.4 L 259.9 143.6 L 261.3 143 L 262.8 142.5 L 264.4 142.2 L 265.9 141.9 L 267.4 141.9 L 269.5 142 L 271.4 142.3 L 273.3 142.9 L 275.1 143.7 L 276.7 144.7 L 278.1 145.9 L 279.3 147.3 L 280.3 148.9 L 281 150.7 L 281.6 152.5 L 281.9 154.5 L 282.1 156.6 L 281.9 158.6 L 281.6 160.6 L 281.1 162.5 L 280.3 164.4 L 279.4 166 L 278.2 167.5 L 276.8 168.8 L 275.3 169.7 L 273.6 170.5 L 271.8 171.1 L 269.8 171.4 L 267.7 171.5 L 266.2 171.4 L 264.7 171.2 L 263.4 170.9 L 262.1 170.5 L 260.9 169.9 L 259.9 169.3 L 259 168.6 L 258.2 167.7 L 257.5 166.7 L 256.9 165.6 L 256.4 164.4 L 256 163 L 259.4 162.1 L 259.7 163.1 L 260.1 164 L 260.6 164.8 L 261 165.5 L 261.6 166.1 L 262.2 166.6 L 262.9 167.1 L 263.8 167.5 L 264.7 167.9 L 265.6 168.1 L 266.6 168.2 L 267.7 168.2 L 269 168.2 L 270.1 168.1 L 271.2 167.8 L 272.2 167.5 L 273.1 167 L 273.9 166.6 L 274.6 166 L 275.3 165.4 L 275.8 164.7 L 276.3 164 L 276.7 163.3 L 277.1 162.5 L 277.5 161.2 L 277.9 159.8 L 278.1 158.3 L 278.1 156.8 L 278.1 154.9 L 277.8 153.3 L 277.4 151.8 L 276.8 150.4 L 276.1 149.2 L 275.2 148.1 L 274.2 147.3 L 273 146.6 L 271.7 146 L 270.4 145.6 L 269 145.4 L 267.6 145.3 L 266.4 145.4 L 265.2 145.5 L 264 145.8 L 262.8 146.2 L 261.7 146.8 L 260.8 147.2 L 259.9 147.7 L 259.3 148.3 L 259.3 153.6 L 267.7 153.6 L 267.7 153.6 Z"/><path d="M 236.9 144.9 L 237.9 144.2 L 238 144.1 L 239.4 146 L 238.7 146.6 L 238.2 147.3 L 237.7 148 L 237.5 148.6 L 237.3 149.5 L 237.2 150.4 L 237.2 151.5 L 237.2 152.8 L 237.2 152.8 L 238.2 152.4 L 239.6 152.1 L 241.1 151.8 L 242.9 151.5 L 243.9 151.3 L 244.8 151.1 L 245.5 151 L 246 150.8 L 246.4 150.5 L 246.8 150.3 L 247.1 150 L 247.4 149.6 L 247.6 149.2 L 247.7 148.8 L 247.9 148.4 L 247.9 147.9 L 247.8 147.3 L 247.6 146.7 L 247.3 146.1 L 246.8 145.6 L 246.2 145.2 L 245.5 144.9 L 244.7 144.7 L 243.7 144.7 L 242.7 144.7 L 241.8 144.9 L 240.9 145.2 L 240.1 145.6 L 239.4 146 L 238 144.1 L 238.8 143.5 L 239.7 143 L 240.6 142.6 L 241.6 142.3 L 242.5 142.1 L 243.5 141.9 L 244.5 141.9 L 246.1 142 L 247.5 142.3 L 248.8 142.9 L 249.8 143.6 L 250.6 144.5 L 251.2 145.5 L 251.5 146.6 L 251.6 147.9 L 251.6 148.6 L 251.4 149.3 L 251.2 150 L 250.9 150.6 L 250.6 151.2 L 250.1 151.8 L 249.7 152.2 L 249.1 152.7 L 248.5 153 L 247.9 153.3 L 247.3 153.6 L 246.6 153.8 L 246 154 L 245.3 154.1 L 244.4 154.2 L 243.4 154.4 L 241.5 154.6 L 239.7 154.9 L 238.3 155.2 L 237.2 155.5 L 237.2 155.9 L 237.2 156.1 L 237.2 156.3 L 237.2 156.5 L 237.2 157.5 L 237.4 158.3 L 237.7 159 L 238.2 159.5 L 238.9 160 L 239.8 160.4 L 240.9 160.6 L 242.2 160.7 L 243.3 160.6 L 244.3 160.5 L 245.2 160.2 L 245.8 159.8 L 246.4 159.3 L 246.9 158.6 L 247.3 157.8 L 247.6 156.8 L 251 157.2 L 250.7 158.2 L 250.4 159.2 L 250 160 L 249.5 160.8 L 248.9 161.4 L 248.2 162 L 247.3 162.5 L 246.4 162.9 L 245.3 163.2 L 244.2 163.4 L 243 163.6 L 241.7 163.6 L 240.4 163.6 L 239.3 163.4 L 238.2 163.2 L 237.3 163 L 236.6 162.6 L 235.9 162.3 L 235.3 161.8 L 234.9 161.4 L 234.5 160.9 L 234.2 160.3 L 234 159.7 L 233.8 159 L 233.7 158.4 L 233.7 157.7 L 233.6 156.8 L 233.6 155.8 L 233.6 151.1 L 233.6 148.8 L 233.6 147.1 L 233.5 145.7 L 233.4 144.9 L 233.3 144.2 L 233.1 143.6 L 232.8 143 L 232.5 142.4 L 236.2 142.4 L 236.4 142.9 L 236.6 143.6 L 236.8 144.2 L 236.9 144.9 L 236.9 144.9 Z"/><path d="M 220.5 145.5 L 220 142.4 L 220.7 142.3 L 221.4 142.2 L 222.1 142.1 L 222.7 142.1 L 223.6 142.1 L 224.4 142.3 L 225.1 142.5 L 225.6 142.7 L 226.1 143.1 L 226.5 143.4 L 226.9 143.8 L 227.1 144.3 L 227.3 144.9 L 227.4 145.8 L 227.5 147 L 227.5 148.4 L 227.5 160.4 L 230.1 160.4 L 230.1 163.1 L 227.5 163.1 L 227.5 168.2 L 224 170.4 L 224 163.1 L 220.5 163.1 L 220.5 160.4 L 224 160.4 L 224 148.2 L 224 147.6 L 224 147 L 224 146.6 L 223.8 146.3 L 223.8 146.1 L 223.6 145.9 L 223.4 145.8 L 223.2 145.6 L 223 145.5 L 222.7 145.5 L 222.4 145.4 L 222.1 145.4 L 221.8 145.4 L 221.4 145.4 L 221 145.5 L 220.5 145.5 L 220.5 145.5 Z"/><path d="M 202.9 149.1 L 199.2 148.6 L 199.7 147.1 L 200.5 145.8 L 201.4 144.6 L 202.4 143.7 L 203.7 142.9 L 205.1 142.3 L 206.6 142 L 208.4 141.9 L 210.5 142.1 L 212.4 142.6 L 214.1 143.5 L 215.6 144.7 L 216.8 146.2 L 217.6 148.1 L 218.1 150.2 L 218.2 152.6 L 218.1 155.1 L 217.6 157.2 L 216.7 159.1 L 215.5 160.7 L 214.1 161.9 L 212.5 162.9 L 210.6 163.4 L 208.6 163.6 L 208.2 163.6 L 208.5 160.7 L 209.7 160.6 L 210.7 160.3 L 211.7 159.8 L 212.6 159.1 L 213.3 158.2 L 213.9 157.2 L 214.2 156 L 214.4 154.7 L 214.4 154.7 L 202.8 154.7 L 203 156 L 203.3 157 L 203.7 157.9 L 204.2 158.7 L 205.1 159.5 L 206.1 160.2 L 207.2 160.6 L 208.5 160.7 L 208.2 163.6 L 206.6 163.4 L 204.8 162.9 L 203.2 162 L 201.8 160.8 L 200.6 159.2 L 199.8 157.3 L 199.3 155.2 L 199.1 152.8 L 199.1 152.6 L 199.1 152.4 L 199.1 152.1 L 199.2 151.9 L 214.6 151.9 L 214.4 150.3 L 214 148.8 L 213.4 147.6 L 212.7 146.6 L 211.8 145.8 L 210.7 145.3 L 209.6 144.9 L 208.3 144.8 L 207.4 144.9 L 206.6 145.1 L 205.8 145.4 L 205 145.8 L 204.4 146.4 L 203.8 147.1 L 203.3 148 L 202.9 149.1 L 202.9 149.1 Z"/><path d="M 229.5 252.4 L 225.7 251.5 L 226.4 249.3 L 227.4 247.3 L 228.6 245.7 L 230 244.4 L 231.6 243.3 L 233.4 242.5 L 235.4 242 L 237.6 241.9 L 239.8 242 L 241.8 242.4 L 243.6 243 L 245.1 243.8 L 246.5 244.8 L 247.7 246.1 L 248.7 247.5 L 249.5 249.2 L 250.2 251 L 250.6 252.9 L 250.9 254.9 L 251 256.9 L 250.9 259.1 L 250.6 261.1 L 250.1 263 L 249.3 264.7 L 248.4 266.3 L 247.3 267.7 L 246 268.8 L 244.5 269.8 L 242.9 270.5 L 241.2 271.1 L 239.4 271.4 L 237.5 271.5 L 235.5 271.4 L 233.6 271 L 231.8 270.3 L 230.3 269.3 L 229 268.1 L 227.8 266.7 L 226.9 265 L 226.2 263.2 L 229.9 262.3 L 230.5 263.8 L 231.2 265 L 231.9 266 L 232.8 266.8 L 233.8 267.5 L 235 267.9 L 236.2 268.2 L 237.6 268.2 L 239.2 268.2 L 240.6 267.9 L 241.9 267.4 L 243.1 266.7 L 244.2 265.8 L 245 264.8 L 245.7 263.7 L 246.2 262.4 L 246.6 261.1 L 246.9 259.7 L 247.1 258.3 L 247.1 256.9 L 247.1 255.2 L 246.9 253.5 L 246.5 252 L 246.1 250.6 L 245.5 249.3 L 244.7 248.2 L 243.8 247.2 L 242.7 246.5 L 241.6 245.9 L 240.4 245.5 L 239.2 245.2 L 237.9 245.1 L 236.4 245.3 L 234.9 245.6 L 233.7 246.2 L 232.5 247 L 231.5 248 L 230.6 249.3 L 230 250.7 L 229.5 252.4 L 229.5 252.4 Z"/><path d="M 212.9 242.4 L 224 271 L 219.9 271 L 212.4 250.2 L 212 249 L 211.6 247.8 L 211.2 246.6 L 210.9 245.5 L 210.6 246.7 L 210.2 247.9 L 209.8 249 L 209.4 250.2 L 201.6 271 L 197.8 271 L 209 242.4 L 212.9 242.4 L 212.9 242.4 Z"/><path d="M 269.9 753.6 L 269.9 757 L 257.7 757 L 257.7 746.4 L 259.2 745.3 L 260.6 744.4 L 262 743.6 L 263.5 743 L 265 742.5 L 266.5 742.2 L 268.1 741.9 L 269.6 741.9 L 271.6 742 L 273.6 742.3 L 275.5 742.9 L 277.3 743.7 L 278.9 744.7 L 280.3 745.9 L 281.5 747.3 L 282.5 748.9 L 283.2 750.7 L 283.8 752.5 L 284.1 754.5 L 284.2 756.6 L 284.1 758.6 L 283.8 760.6 L 283.2 762.5 L 282.5 764.4 L 281.5 766 L 280.3 767.5 L 279 768.8 L 277.5 769.7 L 275.7 770.5 L 273.9 771.1 L 271.9 771.4 L 269.9 771.5 L 268.4 771.4 L 266.9 771.2 L 265.6 770.9 L 264.3 770.5 L 263.1 769.9 L 262 769.3 L 261.1 768.6 L 260.3 767.7 L 259.7 766.7 L 259.1 765.6 L 258.6 764.4 L 258.2 763 L 261.6 762.1 L 261.9 763.1 L 262.3 764 L 262.7 764.8 L 263.2 765.5 L 263.7 766.1 L 264.4 766.6 L 265.1 767.1 L 265.9 767.5 L 266.8 767.9 L 267.8 768.1 L 268.8 768.2 L 269.9 768.2 L 271.1 768.2 L 272.3 768.1 L 273.4 767.8 L 274.4 767.5 L 275.3 767 L 276.1 766.6 L 276.8 766 L 277.4 765.4 L 278 764.7 L 278.4 764 L 278.9 763.3 L 279.2 762.5 L 279.7 761.2 L 280.1 759.8 L 280.3 758.3 L 280.3 756.8 L 280.2 754.9 L 280 753.3 L 279.6 751.8 L 279 750.4 L 278.2 749.2 L 277.4 748.1 L 276.4 747.3 L 275.1 746.6 L 273.9 746 L 272.6 745.6 L 271.2 745.4 L 269.8 745.3 L 268.6 745.4 L 267.4 745.5 L 266.2 745.8 L 265 746.2 L 263.9 746.8 L 262.9 747.2 L 262.1 747.7 L 261.4 748.3 L 261.4 753.6 L 269.9 753.6 L 269.9 753.6 Z"/><path d="M 252.2 742.4 L 252.2 771 L 248.3 771 L 233.2 748.5 L 233.2 771 L 229.6 771 L 229.6 742.4 L 233.5 742.4 L 248.6 764.9 L 248.6 742.4 L 252.2 742.4 L 252.2 742.4 Z"/><path d="M 223.2 742.4 L 223.2 771 L 213.4 771 L 213.4 767.6 L 219.5 767.6 L 219.5 745.8 L 219.5 745.8 L 213.4 745.8 L 212 745.8 L 210.8 745.9 L 209.8 746 L 208.9 746.3 L 208.2 746.6 L 207.5 746.9 L 206.9 747.3 L 206.4 747.8 L 205.7 748.5 L 205.1 749.4 L 204.7 750.3 L 204.2 751.4 L 203.9 752.6 L 203.7 753.9 L 203.5 755.3 L 203.5 756.9 L 203.6 759 L 203.9 760.9 L 204.3 762.5 L 205 763.8 L 205.7 764.9 L 206.6 765.8 L 207.5 766.6 L 208.6 767.1 L 209.4 767.3 L 210.5 767.5 L 211.9 767.6 L 213.4 767.6 L 213.4 771 L 213.4 771 L 211.8 771 L 210.5 770.9 L 209.3 770.8 L 208.3 770.6 L 207.1 770.3 L 206 769.8 L 205 769.2 L 204.1 768.6 L 203.1 767.5 L 202.1 766.4 L 201.4 765.1 L 200.7 763.6 L 200.2 762.1 L 199.9 760.5 L 199.7 758.7 L 199.6 756.9 L 199.6 755.3 L 199.8 753.8 L 200 752.4 L 200.3 751.1 L 200.8 749.9 L 201.2 748.8 L 201.8 747.8 L 202.3 746.9 L 202.9 746.1 L 203.6 745.4 L 204.2 744.8 L 204.9 744.3 L 205.6 743.9 L 206.5 743.5 L 207.4 743.1 L 208.3 742.9 L 209.4 742.7 L 210.5 742.5 L 211.7 742.4 L 212.9 742.4 L 223.2 742.4 L 223.2 742.4 Z"/><path d="M 269.9 653.6 L 269.9 657 L 257.7 657 L 257.7 646.4 L 259.2 645.3 L 260.6 644.4 L 262 643.6 L 263.5 643 L 265 642.5 L 266.5 642.2 L 268.1 641.9 L 269.6 641.9 L 271.6 642 L 273.6 642.3 L 275.5 642.9 L 277.3 643.7 L 278.9 644.7 L 280.3 645.9 L 281.5 647.3 L 282.5 648.9 L 283.2 650.7 L 283.8 652.5 L 284.1 654.5 L 284.2 656.6 L 284.1 658.6 L 283.8 660.6 L 283.2 662.5 L 282.5 664.4 L 281.5 666 L 280.3 667.5 L 279 668.8 L 277.5 669.7 L 275.7 670.5 L 273.9 671.1 L 271.9 671.4 L 269.9 671.5 L 268.4 671.4 L 266.9 671.2 L 265.6 670.9 L 264.3 670.5 L 263.1 669.9 L 262 669.3 L 261.1 668.6 L 260.3 667.7 L 259.7 666.7 L 259.1 665.6 L 258.6 664.4 L 258.2 663 L 261.6 662.1 L 261.9 663.1 L 262.3 664 L 262.7 664.8 L 263.2 665.5 L 263.7 666.1 L 264.4 666.6 L 265.1 667.1 L 265.9 667.5 L 266.8 667.9 L 267.8 668.1 L 268.8 668.2 L 269.9 668.2 L 271.1 668.2 L 272.3 668.1 L 273.4 667.8 L 274.4 667.5 L 275.3 667 L 276.1 666.6 L 276.8 666 L 277.4 665.4 L 278 664.7 L 278.4 664 L 278.9 663.3 L 279.2 662.5 L 279.7 661.2 L 280.1 659.8 L 280.3 658.3 L 280.3 656.8 L 280.2 654.9 L 280 653.3 L 279.6 651.8 L 279 650.4 L 278.2 649.2 L 277.4 648.1 L 276.4 647.3 L 275.1 646.6 L 273.9 646 L 272.6 645.6 L 271.2 645.4 L 269.8 645.3 L 268.6 645.4 L 267.4 645.5 L 266.2 645.8 L 265 646.2 L 263.9 646.8 L 262.9 647.2 L 262.1 647.7 L 261.4 648.3 L 261.4 653.6 L 269.9 653.6 L 269.9 653.6 Z"/><path d="M 252.2 642.4 L 252.2 671 L 248.3 671 L 233.2 648.5 L 233.2 671 L 229.6 671 L 229.6 642.4 L 233.5 642.4 L 248.6 664.9 L 248.6 642.4 L 252.2 642.4 L 252.2 642.4 Z"/><path d="M 223.2 642.4 L 223.2 671 L 213.4 671 L 213.4 667.6 L 219.5 667.6 L 219.5 645.8 L 219.5 645.8 L 213.4 645.8 L 212 645.8 L 210.8 645.9 L 209.8 646 L 208.9 646.3 L 208.2 646.6 L 207.5 646.9 L 206.9 647.3 L 206.4 647.8 L 205.7 648.5 L 205.1 649.4 L 204.7 650.3 L 204.2 651.4 L 203.9 652.6 L 203.7 653.9 L 203.5 655.3 L 203.5 656.9 L 203.6 659 L 203.9 660.9 L 204.3 662.5 L 205 663.8 L 205.7 664.9 L 206.6 665.8 L 207.5 666.6 L 208.6 667.1 L 209.4 667.3 L 210.5 667.5 L 211.9 667.6 L 213.4 667.6 L 213.4 671 L 213.4 671 L 211.8 671 L 210.5 670.9 L 209.3 670.8 L 208.3 670.6 L 207.1 670.3 L 206 669.8 L 205 669.2 L 204.1 668.6 L 203.1 667.5 L 202.1 666.4 L 201.4 665.1 L 200.7 663.6 L 200.2 662.1 L 199.9 660.5 L 199.7 658.7 L 199.6 656.9 L 199.6 655.3 L 199.8 653.8 L 200 652.4 L 200.3 651.1 L 200.8 649.9 L 201.2 648.8 L 201.8 647.8 L 202.3 646.9 L 202.9 646.1 L 203.6 645.4 L 204.2 644.8 L 204.9 644.3 L 205.6 643.9 L 206.5 643.5 L 207.4 643.1 L 208.3 642.9 L 209.4 642.7 L 210.5 642.5 L 211.7 642.4 L 212.9 642.4 L 223.2 642.4 L 223.2 642.4 Z"/><path d="M 269.9 553.6 L 269.9 557 L 257.7 557 L 257.7 546.4 L 259.2 545.3 L 260.6 544.4 L 262 543.6 L 263.5 543 L 265 542.5 L 266.5 542.2 L 268.1 541.9 L 269.6 541.9 L 271.6 542 L 273.6 542.3 L 275.5 542.9 L 277.3 543.7 L 278.9 544.7 L 280.3 545.9 L 281.5 547.3 L 282.5 548.9 L 283.2 550.7 L 283.8 552.5 L 284.1 554.5 L 284.2 556.6 L 284.1 558.6 L 283.8 560.6 L 283.2 562.5 L 282.5 564.4 L 281.5 566 L 280.3 567.5 L 279 568.8 L 277.5 569.7 L 275.7 570.5 L 273.9 571.1 L 271.9 571.4 L 269.9 571.5 L 268.4 571.4 L 266.9 571.2 L 265.6 570.9 L 264.3 570.5 L 263.1 569.9 L 262 569.3 L 261.1 568.6 L 260.3 567.7 L 259.7 566.7 L 259.1 565.6 L 258.6 564.4 L 258.2 563 L 261.6 562.1 L 261.9 563.1 L 262.3 564 L 262.7 564.8 L 263.2 565.5 L 263.7 566.1 L 264.4 566.6 L 265.1 567.1 L 265.9 567.5 L 266.8 567.9 L 267.8 568.1 L 268.8 568.2 L 269.9 568.2 L 271.1 568.2 L 272.3 568.1 L 273.4 567.8 L 274.4 567.5 L 275.3 567 L 276.1 566.6 L 276.8 566 L 277.4 565.4 L 278 564.7 L 278.4 564 L 278.9 563.3 L 279.2 562.5 L 279.7 561.2 L 280.1 559.8 L 280.3 558.3 L 280.3 556.8 L 280.2 554.9 L 280 553.3 L 279.6 551.8 L 279 550.4 L 278.2 549.2 L 277.4 548.1 L 276.4 547.3 L 275.1 546.6 L 273.9 546 L 272.6 545.6 L 271.2 545.4 L 269.8 545.3 L 268.6 545.4 L 267.4 545.5 L 266.2 545.8 L 265 546.2 L 263.9 546.8 L 262.9 547.2 L 262.1 547.7 L 261.4 548.3 L 261.4 553.6 L 269.9 553.6 L 269.9 553.6 Z"/><path d="M 252.2 542.4 L 252.2 571 L 248.3 571 L 233.2 548.5 L 233.2 571 L 229.6 571 L 229.6 542.4 L 233.5 542.4 L 248.6 564.9 L 248.6 542.4 L 252.2 542.4 L 252.2 542.4 Z"/><path d="M 223.2 542.4 L 223.2 571 L 213.4 571 L 213.4 567.6 L 219.5 567.6 L 219.5 545.8 L 219.5 545.8 L 213.4 545.8 L 212 545.8 L 210.8 545.9 L 209.8 546 L 208.9 546.3 L 208.2 546.6 L 207.5 546.9 L 206.9 547.3 L 206.4 547.8 L 205.7 548.5 L 205.1 549.4 L 204.7 550.3 L 204.2 551.4 L 203.9 552.6 L 203.7 553.9 L 203.5 555.3 L 203.5 556.9 L 203.6 559 L 203.9 560.9 L 204.3 562.5 L 205 563.8 L 205.7 564.9 L 206.6 565.8 L 207.5 566.6 L 208.6 567.1 L 209.4 567.3 L 210.5 567.5 L 211.9 567.6 L 213.4 567.6 L 213.4 571 L 213.4 571 L 211.8 571 L 210.5 570.9 L 209.3 570.8 L 208.3 570.6 L 207.1 570.3 L 206 569.8 L 205 569.2 L 204.1 568.6 L 203.1 567.5 L 202.1 566.4 L 201.4 565.1 L 200.7 563.6 L 200.2 562.1 L 199.9 560.5 L 199.7 558.7 L 199.6 556.9 L 199.6 555.3 L 199.8 553.8 L 200 552.4 L 200.3 551.1 L 200.8 549.9 L 201.2 548.8 L 201.8 547.8 L 202.3 546.9 L 202.9 546.1 L 203.6 545.4 L 204.2 544.8 L 204.9 544.3 L 205.6 543.9 L 206.5 543.5 L 207.4 543.1 L 208.3 542.9 L 209.4 542.7 L 210.5 542.5 L 211.7 542.4 L 212.9 542.4 L 223.2 542.4 L 223.2 542.4 Z"/><path d="M 282 444.9 L 282 452.7 L 289.8 452.7 L 289.8 456 L 282 456 L 282 463.8 L 278.6 463.8 L 278.6 456 L 270.8 456 L 270.8 452.7 L 278.6 452.7 L 278.6 444.9 L 282 444.9 L 282 444.9 Z"/><path d="M 253.7 440.3 L 257.3 440.3 L 257.3 462.7 L 257.9 462.1 L 258.7 461.4 L 259.6 460.8 L 260.6 460.3 L 261.6 459.7 L 262.5 459.2 L 263.4 458.8 L 264.3 458.4 L 264.3 461.8 L 262.9 462.5 L 261.5 463.4 L 260.3 464.2 L 259.1 465.2 L 258.1 466.2 L 257.2 467.1 L 256.6 468.1 L 256 469 L 253.7 469 L 253.7 440.3 L 253.7 440.3 Z"/><path d="M 226.2 443.6 L 226.2 440.3 L 245.2 440.3 L 245.2 440.9 L 245.1 441.5 L 244.9 442.1 L 244.8 442.7 L 244.4 443.6 L 243.8 444.6 L 243.2 445.6 L 242.5 446.5 L 241.6 447.5 L 240.5 448.5 L 239.3 449.7 L 237.9 450.8 L 235.7 452.7 L 234 454.3 L 232.5 455.7 L 231.6 456.9 L 230.8 458 L 230.3 459.1 L 230 460.1 L 229.9 461.1 L 230 462.1 L 230.3 463.1 L 230.7 463.9 L 231.4 464.7 L 232.2 465.3 L 233.1 465.7 L 234.2 466 L 235.3 466.1 L 236.5 466 L 237.6 465.7 L 238.5 465.3 L 239.4 464.6 L 240 463.7 L 240.5 462.7 L 240.8 461.6 L 240.9 460.3 L 244.5 460.7 L 244.2 462.6 L 243.6 464.3 L 242.8 465.7 L 241.7 466.9 L 240.4 467.8 L 238.9 468.5 L 237.1 468.9 L 235.2 469 L 233.2 468.9 L 231.5 468.4 L 230 467.7 L 228.7 466.7 L 227.7 465.5 L 226.9 464.2 L 226.4 462.7 L 226.3 461 L 226.3 460.2 L 226.5 459.4 L 226.7 458.5 L 227 457.7 L 227.4 456.8 L 227.9 456 L 228.6 455.1 L 229.3 454.2 L 230.3 453.2 L 231.5 452 L 233 450.6 L 234.7 449.2 L 236.2 447.9 L 237.3 446.9 L 238.2 446.1 L 238.8 445.5 L 239.2 445.1 L 239.6 444.6 L 240 444.1 L 240.3 443.6 L 226.2 443.6 L 226.2 443.6 Z"/><path d="M 212.9 440.3 L 224 468.9 L 219.9 468.9 L 212.4 448.1 L 212 446.9 L 211.6 445.6 L 211.2 444.5 L 210.9 443.4 L 210.6 444.6 L 210.2 445.7 L 209.8 446.9 L 209.4 448.1 L 201.6 468.9 L 197.8 468.9 L 209 440.3 L 212.9 440.3 L 212.9 440.3 Z"/><path d="M 259.7 347 L 259.7 354.9 L 267.5 354.9 L 267.5 358.1 L 259.7 358.1 L 259.7 365.9 L 256.4 365.9 L 256.4 358.1 L 248.6 358.1 L 248.6 354.9 L 256.4 354.9 L 256.4 347 L 259.7 347 L 259.7 347 Z"/><path d="M 244.7 349.9 L 241 350.2 L 240.8 348.9 L 240.4 347.8 L 239.8 346.9 L 239.1 346.1 L 238.3 345.5 L 237.5 345.1 L 236.6 344.9 L 235.5 344.8 L 234.3 344.9 L 233.2 345.3 L 232.1 345.8 L 231.2 346.7 L 230.5 347.7 L 229.9 348.9 L 229.6 350.3 L 229.5 351.8 L 229.6 353.2 L 229.9 354.5 L 230.4 355.6 L 231.2 356.5 L 232.1 357.3 L 233.1 357.8 L 234.3 358.2 L 235.6 358.2 L 236.4 358.2 L 237.2 358.1 L 237.9 357.8 L 238.6 357.5 L 239.3 357.1 L 239.9 356.6 L 240.4 356.1 L 240.8 355.5 L 244.1 355.9 L 241.3 370.6 L 227.1 370.6 L 227.1 367.3 L 238.5 367.3 L 240.1 359.6 L 238.8 360.4 L 237.4 360.9 L 236 361.2 L 234.7 361.4 L 232.9 361.2 L 231.2 360.7 L 229.7 359.9 L 228.3 358.8 L 227.2 357.4 L 226.4 355.8 L 225.9 354 L 225.7 352.1 L 225.9 350.2 L 226.3 348.5 L 227 346.9 L 228 345.4 L 229.5 343.8 L 231.3 342.8 L 233.3 342.1 L 235.5 341.9 L 237.4 342 L 239.1 342.4 L 240.6 343.1 L 241.9 344.1 L 243 345.3 L 243.8 346.6 L 244.4 348.2 L 244.7 349.9 L 244.7 349.9 Z"/><path d="M 212.9 342.4 L 224 371 L 219.9 371 L 212.4 350.2 L 212 349 L 211.6 347.8 L 211.2 346.6 L 210.9 345.5 L 210.6 346.7 L 210.2 347.9 L 209.8 349 L 209.4 350.2 L 201.6 371 L 197.8 371 L 209 342.4 L 212.9 342.4 L 212.9 342.4 Z"/><path d="M 738.6 108.5 L 772.4 108.5 L 772.4 132.9 L 768.4 132.9 L 768.4 113 L 758.1 113 L 758.1 131.7 L 754.1 131.7 L 754.1 113 L 742.6 113 L 742.6 133.7 L 738.6 133.7 L 738.6 108.5 L 738.6 108.5 Z"/><path d="M 738.6 155.4 L 742.2 155.4 L 740.4 153.9 L 739.1 152.1 L 738.3 150 L 738 147.7 L 738.1 146.6 L 738.2 145.6 L 738.5 144.6 L 738.8 143.6 L 739.3 142.7 L 739.8 142 L 740.3 141.3 L 741 140.8 L 741.6 140.4 L 742.3 140.1 L 743.1 139.7 L 744 139.5 L 744.7 139.4 L 745.6 139.4 L 746.7 139.3 L 747.9 139.3 L 763.1 139.3 L 763.1 143.4 L 749.5 143.4 L 748 143.4 L 746.8 143.5 L 745.8 143.6 L 745.1 143.7 L 744.4 144 L 743.6 144.3 L 743.1 144.8 L 742.5 145.3 L 742.1 146 L 741.8 146.8 L 741.7 147.6 L 741.6 148.5 L 741.7 149.4 L 741.8 150.3 L 742.1 151.2 L 742.6 152 L 743.1 152.7 L 743.7 153.4 L 744.4 153.9 L 745.2 154.3 L 746.1 154.6 L 747.2 154.8 L 748.5 154.9 L 749.9 155 L 763.1 155 L 763.1 159.2 L 738.6 159.2 L 738.6 155.4 L 738.6 155.4 Z"/><path d="M 738.6 165.6 L 763.1 165.6 L 763.1 169.4 L 759.4 169.4 L 760.6 170.1 L 761.5 170.7 L 762.3 171.4 L 762.8 172 L 763.2 172.6 L 763.4 173.2 L 763.6 173.9 L 763.6 174.7 L 763.6 175.7 L 763.3 176.8 L 762.9 177.9 L 762.3 178.9 L 758.4 177.5 L 758.8 176.7 L 759.1 176 L 759.3 175.2 L 759.4 174.4 L 759.3 173.8 L 759.2 173.1 L 758.9 172.5 L 758.5 172 L 758.1 171.5 L 757.5 171.1 L 756.9 170.7 L 756.2 170.5 L 755.1 170.1 L 753.9 169.9 L 752.7 169.8 L 751.4 169.7 L 738.6 169.7 L 738.6 165.6 L 738.6 165.6 Z"/><path d="M 750.8 179.8 L 754 180.1 L 756.8 180.8 L 759 181.9 L 760.9 183.6 L 762.1 185.3 L 763 187.1 L 763.4 189.2 L 763.6 191.3 L 763.4 193.7 L 762.8 195.9 L 761.8 197.9 L 760.3 199.6 L 758.5 201 L 756.4 202 L 753.9 202.6 L 751.2 202.8 L 749 202.7 L 746.9 202.4 L 745.2 202 L 743.7 201.4 L 742.5 200.6 L 741.3 199.6 L 740.3 198.5 L 739.5 197.2 L 738.9 195.8 L 738.4 194.4 L 738.1 192.9 L 738 191.3 L 738.1 191 L 741.4 191.3 L 741.6 192.8 L 742 194.2 L 742.8 195.4 L 743.8 196.5 L 745.1 197.4 L 746.8 198 L 748.7 198.4 L 751 198.5 L 753.1 198.4 L 755 198 L 756.6 197.3 L 757.9 196.5 L 758.9 195.4 L 759.6 194.2 L 760.1 192.8 L 760.2 191.3 L 760.1 189.8 L 759.6 188.5 L 758.9 187.3 L 757.9 186.2 L 756.6 185.3 L 754.9 184.6 L 753.1 184.2 L 750.8 184.1 L 750.8 184.1 L 748.6 184.2 L 746.7 184.6 L 745.1 185.3 L 743.8 186.2 L 742.8 187.3 L 742 188.5 L 741.6 189.8 L 741.4 191.3 L 738.1 191 L 738.2 188.9 L 738.8 186.7 L 739.9 184.7 L 741.3 183 L 743.2 181.6 L 745.3 180.6 L 747.9 180 L 750.8 179.8 L 750.8 179.8 Z"/><path d="M 738.6 207.6 L 763.1 207.6 L 763.1 211.4 L 759.4 211.4 L 760.6 212.1 L 761.5 212.7 L 762.3 213.4 L 762.8 214 L 763.2 214.6 L 763.4 215.3 L 763.6 215.9 L 763.6 216.7 L 763.6 217.7 L 763.3 218.8 L 762.9 219.9 L 762.3 220.9 L 758.4 219.5 L 758.8 218.7 L 759.1 218 L 759.3 217.2 L 759.4 216.4 L 759.3 215.8 L 759.2 215.1 L 758.9 214.5 L 758.5 214 L 758.1 213.5 L 757.5 213.1 L 756.9 212.7 L 756.2 212.5 L 755.1 212.1 L 753.9 211.9 L 752.7 211.8 L 751.4 211.8 L 738.6 211.8 L 738.6 207.6 L 738.6 207.6 Z"/><path d="M 741.6 239.4 L 740.7 238.2 L 740.6 238.1 L 742.9 236.5 L 743.6 237.2 L 744.4 237.9 L 745.2 238.4 L 746 238.6 L 746.9 238.9 L 748.1 239 L 749.4 239 L 750.9 239 L 750.9 239 L 750.4 237.8 L 750 236.2 L 749.7 234.4 L 749.3 232.3 L 749.1 231 L 748.9 230.1 L 748.7 229.2 L 748.5 228.6 L 748.2 228.1 L 747.9 227.7 L 747.5 227.3 L 747.1 227 L 746.7 226.8 L 746.2 226.6 L 745.7 226.4 L 745.1 226.4 L 744.4 226.5 L 743.6 226.7 L 743 227.1 L 742.4 227.7 L 741.9 228.4 L 741.6 229.2 L 741.4 230.2 L 741.3 231.4 L 741.4 232.5 L 741.6 233.6 L 741.9 234.7 L 742.3 235.6 L 742.9 236.5 L 740.6 238.1 L 739.9 237.1 L 739.3 236 L 738.8 234.9 L 738.5 233.8 L 738.2 232.7 L 738.1 231.6 L 738 230.4 L 738.2 228.4 L 738.5 226.8 L 739.2 225.3 L 740 224.2 L 741 223.2 L 742.3 222.5 L 743.6 222.1 L 745.1 222 L 745.9 222 L 746.8 222.2 L 747.6 222.5 L 748.3 222.8 L 749 223.2 L 749.7 223.8 L 750.2 224.3 L 750.7 224.9 L 751.1 225.6 L 751.5 226.4 L 751.8 227.1 L 752.1 227.9 L 752.2 228.6 L 752.4 229.5 L 752.5 230.5 L 752.7 231.6 L 753 234 L 753.4 236 L 753.7 237.7 L 754.1 239 L 754.5 239 L 754.8 239 L 755.1 239 L 755.2 239 L 756.4 239 L 757.4 238.8 L 758.2 238.4 L 758.8 237.9 L 759.4 237 L 759.9 235.9 L 760.1 234.6 L 760.2 233.1 L 760.1 231.8 L 759.9 230.6 L 759.6 229.6 L 759.2 228.8 L 758.6 228.2 L 757.7 227.6 L 756.8 227.1 L 755.5 226.8 L 756.1 222.7 L 757.3 223 L 758.4 223.4 L 759.4 223.9 L 760.3 224.5 L 761 225.2 L 761.7 226.1 L 762.3 227.1 L 762.8 228.2 L 763.1 229.4 L 763.4 230.8 L 763.6 232.2 L 763.6 233.8 L 763.6 235.3 L 763.4 236.6 L 763.2 237.8 L 762.9 238.8 L 762.5 239.7 L 762.1 240.5 L 761.6 241.2 L 761 241.7 L 760.5 242.1 L 759.8 242.5 L 759 242.8 L 758.2 243 L 757.6 243.1 L 756.7 243.2 L 755.6 243.2 L 754.4 243.2 L 748.8 243.2 L 746.2 243.2 L 744.1 243.3 L 742.5 243.4 L 741.5 243.5 L 740.8 243.6 L 740 243.9 L 739.3 244.2 L 738.6 244.5 L 738.6 240.2 L 739.3 239.9 L 740 239.7 L 740.8 239.5 L 741.6 239.4 L 741.6 239.4 Z"/><path d="M 747.5 265.6 L 747 269.7 L 745 269.3 L 743.2 268.6 L 741.7 267.5 L 740.4 266.3 L 739.4 264.9 L 738.6 263.2 L 738.2 261.5 L 738 259.5 L 738.2 257.1 L 738.8 255 L 739.9 253.1 L 741.3 251.4 L 743.1 250.1 L 745.3 249.2 L 747.9 248.6 L 750.7 248.4 L 752.7 248.5 L 754.5 248.7 L 756.1 249.2 L 757.7 249.7 L 759.1 250.5 L 760.3 251.4 L 761.3 252.5 L 762.1 253.7 L 762.8 255.1 L 763.2 256.5 L 763.5 258 L 763.6 259.5 L 763.5 261.5 L 763.1 263.2 L 762.5 264.7 L 761.6 266.1 L 760.5 267.3 L 759.2 268.2 L 757.6 268.9 L 755.9 269.4 L 755.3 265.3 L 756.4 265 L 757.4 264.5 L 758.3 264 L 759 263.2 L 759.5 262.5 L 759.9 261.6 L 760.1 260.7 L 760.2 259.7 L 760.1 258.2 L 759.7 256.9 L 759 255.7 L 758 254.6 L 756.7 253.8 L 755.1 253.2 L 753.1 252.8 L 750.8 252.7 L 748.6 252.8 L 746.6 253.1 L 745 253.7 L 743.7 254.5 L 742.7 255.6 L 742 256.8 L 741.6 258.1 L 741.4 259.5 L 741.5 260.6 L 741.8 261.8 L 742.3 262.7 L 742.9 263.6 L 743.8 264.3 L 744.9 264.9 L 746.1 265.4 L 747.5 265.6 L 747.5 265.6 Z"/><path d="M 738.6 273.3 L 772.4 273.3 L 772.4 277.5 L 753.1 277.5 L 763.1 287.3 L 763.1 292.7 L 754 283.3 L 738.6 293.6 L 738.6 288.5 L 751.1 280.4 L 748.3 277.5 L 738.6 277.5 L 738.6 273.3 L 738.6 273.3 Z"/><path d="M 729.2 310 L 763.1 310 L 763.1 313.8 L 759.9 313.8 L 757.9 315.8 L 757.9 315.8 L 756.5 314.9 L 754.9 314.3 L 752.9 313.9 L 750.7 313.8 L 750.7 313.8 L 748.5 313.9 L 746.6 314.3 L 745 314.9 L 743.7 315.7 L 742.7 316.7 L 742 317.8 L 741.6 319 L 741.4 320.3 L 741.6 321.7 L 742 322.9 L 742.8 324 L 743.8 325.1 L 745.1 326 L 746.8 326.6 L 748.8 326.9 L 751 327.1 L 753.2 326.9 L 755.1 326.6 L 756.8 326 L 758.1 325.1 L 759.1 324.1 L 759.8 323 L 760.2 321.8 L 760.4 320.5 L 760.2 319.2 L 759.7 318.1 L 759 316.9 L 757.9 315.8 L 759.9 313.8 L 760.8 314.5 L 761.5 315.3 L 762.2 316 L 762.7 316.8 L 763.1 317.7 L 763.4 318.7 L 763.6 319.8 L 763.6 320.9 L 763.5 322.5 L 763.2 323.9 L 762.7 325.2 L 762 326.5 L 761.1 327.6 L 760.1 328.6 L 758.8 329.4 L 757.5 330.1 L 756 330.6 L 754.4 331 L 752.7 331.2 L 751 331.3 L 749.2 331.2 L 747.5 331 L 745.8 330.5 L 744.2 329.9 L 742.8 329.2 L 741.6 328.3 L 740.5 327.3 L 739.6 326 L 738.9 324.7 L 738.4 323.4 L 738.1 322 L 738 320.6 L 738.1 319.6 L 738.2 318.6 L 738.5 317.7 L 738.9 316.9 L 739.4 316.1 L 739.9 315.4 L 740.5 314.7 L 741.1 314.2 L 729.2 314.2 L 729.2 310 L 729.2 310 Z"/><path d="M 750.8 334.8 L 754 335 L 756.8 335.7 L 759 336.9 L 760.9 338.6 L 762.1 340.2 L 763 342.1 L 763.4 344.1 L 763.6 346.2 L 763.4 348.7 L 762.8 350.8 L 761.8 352.8 L 760.3 354.5 L 758.5 355.9 L 756.4 356.9 L 753.9 357.5 L 751.2 357.7 L 749 357.6 L 746.9 357.4 L 745.2 356.9 L 743.7 356.3 L 742.5 355.5 L 741.3 354.5 L 740.3 353.4 L 739.5 352.2 L 738.9 350.8 L 738.4 349.4 L 738.1 347.8 L 738 346.2 L 738.1 346 L 741.4 346.2 L 741.6 347.7 L 742 349.1 L 742.8 350.3 L 743.8 351.4 L 745.1 352.3 L 746.8 352.9 L 748.7 353.3 L 751 353.4 L 753.1 353.3 L 755 352.9 L 756.6 352.3 L 757.9 351.4 L 758.9 350.3 L 759.6 349.1 L 760.1 347.7 L 760.2 346.2 L 760.1 344.8 L 759.6 343.4 L 758.9 342.2 L 757.9 341.1 L 756.6 340.2 L 754.9 339.5 L 753.1 339.2 L 750.8 339 L 750.8 339 L 748.6 339.2 L 746.7 339.5 L 745.1 340.2 L 743.8 341.1 L 742.8 342.2 L 742 343.4 L 741.6 344.8 L 741.4 346.2 L 738.1 346 L 738.2 343.8 L 738.8 341.6 L 739.9 339.7 L 741.3 337.9 L 743.2 336.6 L 745.3 335.6 L 747.9 335 L 750.8 334.8 L 750.8 334.8 Z"/><path d="M 738.6 367.1 L 763.1 359.6 L 763.1 363.9 L 749 367.8 L 743.7 369.3 L 744.2 369.4 L 745.1 369.6 L 746.7 370 L 748.7 370.5 L 763.1 374.4 L 763.1 378.7 L 748.9 382.3 L 744.2 383.6 L 748.9 385 L 763.1 389.2 L 763.1 393.2 L 738.6 385.6 L 738.6 381.2 L 753.2 377.3 L 757.4 376.4 L 738.6 371.4 L 738.6 367.1 L 738.6 367.1 Z"/><path d="M 746.5 413.5 L 745.9 417.8 L 744.2 417.1 L 742.6 416.3 L 741.2 415.3 L 740.1 414 L 739.2 412.5 L 738.6 410.9 L 738.2 409 L 738 407 L 738.2 404.4 L 738.8 402.2 L 739.9 400.2 L 741.3 398.5 L 743.2 397.1 L 745.3 396.1 L 747.8 395.5 L 750.6 395.3 L 753.5 395.5 L 756.1 396.1 L 758.3 397.1 L 760.2 398.5 L 761.7 400.2 L 762.8 402.1 L 763.4 404.4 L 763.6 406.8 L 763.6 407.1 L 760.2 406.8 L 760.1 405.5 L 759.7 404.2 L 759.2 403.1 L 758.3 402 L 757.3 401.1 L 756.1 400.5 L 754.7 400.1 L 753.2 399.9 L 753.2 399.9 L 753.2 413.5 L 754.6 413.3 L 755.9 413 L 756.9 412.5 L 757.8 411.9 L 758.9 410.9 L 759.6 409.7 L 760.1 408.3 L 760.2 406.8 L 763.6 407.1 L 763.4 409.1 L 762.8 411.2 L 761.8 413.1 L 760.3 414.8 L 758.4 416.2 L 756.3 417.1 L 753.7 417.7 L 750.9 417.9 L 750.6 417.9 L 750.4 417.9 L 750.1 417.9 L 749.8 417.9 L 749.8 399.6 L 747.9 399.9 L 746.2 400.3 L 744.8 401 L 743.6 401.9 L 742.7 403 L 742 404.2 L 741.6 405.5 L 741.4 407 L 741.5 408.1 L 741.8 409.2 L 742.1 410.1 L 742.7 410.9 L 743.3 411.7 L 744.2 412.4 L 745.3 413 L 746.5 413.5 L 746.5 413.5 Z"/><path d="M 738.6 422.9 L 763.1 422.9 L 763.1 426.7 L 759.4 426.7 L 760.6 427.4 L 761.5 428.1 L 762.3 428.7 L 762.8 429.3 L 763.2 429.9 L 763.4 430.6 L 763.6 431.3 L 763.6 432 L 763.6 433.1 L 763.3 434.1 L 762.9 435.2 L 762.3 436.2 L 758.4 434.8 L 758.8 434.1 L 759.1 433.3 L 759.3 432.5 L 759.4 431.8 L 759.3 431.1 L 759.2 430.5 L 758.9 429.9 L 758.5 429.3 L 758.1 428.8 L 757.5 428.4 L 756.9 428.1 L 756.2 427.8 L 755.1 427.5 L 753.9 427.3 L 752.7 427.1 L 751.4 427.1 L 738.6 427.1 L 738.6 422.9 L 738.6 422.9 Z"/><path d="M 745.9 450.2 L 746.6 454.3 L 745.4 454.5 L 744.4 454.9 L 743.5 455.5 L 742.8 456.2 L 742.2 457.1 L 741.8 458.1 L 741.5 459.3 L 741.4 460.6 L 741.5 461.9 L 741.8 463.1 L 742.1 464.1 L 742.6 464.9 L 743.2 465.5 L 743.9 465.9 L 744.6 466.2 L 745.3 466.2 L 746 466.2 L 746.6 466 L 747.1 465.6 L 747.5 465 L 747.9 464.5 L 748.2 463.6 L 748.6 462.3 L 749 460.8 L 749.5 458.7 L 750 456.9 L 750.5 455.5 L 751 454.5 L 751.4 453.6 L 751.9 452.9 L 752.6 452.3 L 753.3 451.8 L 754 451.4 L 754.9 451.1 L 755.7 450.9 L 756.6 450.9 L 757.4 450.9 L 758.2 451 L 758.9 451.3 L 759.6 451.6 L 760.3 452 L 760.9 452.5 L 761.4 453.1 L 761.9 453.7 L 762.3 454.2 L 762.6 454.8 L 762.9 455.5 L 763.1 456.3 L 763.4 457.1 L 763.5 458.1 L 763.6 459 L 763.6 459.9 L 763.6 461.3 L 763.4 462.6 L 763.2 463.8 L 762.8 464.9 L 762.3 466 L 761.8 466.8 L 761.2 467.6 L 760.6 468.2 L 759.8 468.6 L 758.9 469 L 757.9 469.4 L 756.8 469.6 L 756.2 465.5 L 757.1 465.3 L 757.9 465 L 758.6 464.5 L 759.2 464 L 759.6 463.2 L 759.9 462.3 L 760.1 461.3 L 760.2 460.2 L 760.2 458.9 L 760 457.7 L 759.7 456.8 L 759.3 456.1 L 758.8 455.6 L 758.2 455.2 L 757.7 455 L 757.1 454.9 L 756.7 454.9 L 756.3 455 L 755.9 455.2 L 755.6 455.4 L 755.3 455.7 L 755 456 L 754.7 456.5 L 754.5 457 L 754.4 457.5 L 754.1 458.2 L 753.8 459.3 L 753.4 460.6 L 752.9 462.7 L 752.4 464.4 L 751.9 465.8 L 751.5 466.8 L 751.1 467.6 L 750.6 468.4 L 750 469 L 749.4 469.5 L 748.6 470 L 747.7 470.3 L 746.8 470.5 L 745.8 470.5 L 744.7 470.5 L 743.8 470.2 L 742.8 469.9 L 741.9 469.3 L 741 468.6 L 740.3 467.9 L 739.6 466.9 L 739 465.8 L 738.6 464.6 L 738.3 463.4 L 738.1 462.1 L 738 460.6 L 738.2 458.4 L 738.5 456.4 L 739.2 454.8 L 740 453.4 L 741.1 452.2 L 742.5 451.3 L 744.1 450.6 L 745.9 450.2 L 745.9 450.2 Z"/><path d="M 738.6 491.5 L 742.2 491.5 L 740.4 490 L 739.1 488.1 L 738.3 486.1 L 738 483.8 L 738.1 482.7 L 738.2 481.6 L 738.5 480.6 L 738.8 479.7 L 739.3 478.8 L 739.8 478.1 L 740.3 477.4 L 741 476.9 L 741.6 476.5 L 742.3 476.1 L 743.1 475.8 L 744 475.6 L 744.7 475.5 L 745.6 475.5 L 746.7 475.4 L 747.9 475.4 L 763.1 475.4 L 763.1 479.5 L 749.5 479.5 L 748 479.5 L 746.8 479.6 L 745.8 479.7 L 745.1 479.8 L 744.4 480 L 743.6 480.4 L 743.1 480.8 L 742.5 481.4 L 742.1 482.1 L 741.8 482.9 L 741.7 483.7 L 741.6 484.6 L 741.7 485.5 L 741.8 486.4 L 742.1 487.3 L 742.6 488.1 L 743.1 488.8 L 743.7 489.5 L 744.4 490 L 745.2 490.4 L 746.1 490.7 L 747.2 490.9 L 748.5 491 L 749.9 491.1 L 763.1 491.1 L 763.1 495.2 L 738.6 495.2 L 738.6 491.5 L 738.6 491.5 Z"/><path d="M 729.2 501.8 L 763.1 501.8 L 763.1 505.5 L 759.9 505.5 L 757.9 507.5 L 757.9 507.5 L 756.5 506.6 L 754.9 506 L 752.9 505.6 L 750.7 505.5 L 750.7 505.5 L 748.5 505.6 L 746.6 506 L 745 506.6 L 743.7 507.4 L 742.7 508.4 L 742 509.5 L 741.6 510.7 L 741.4 512.1 L 741.6 513.4 L 742 514.6 L 742.8 515.8 L 743.8 516.8 L 745.1 517.7 L 746.8 518.3 L 748.8 518.6 L 751 518.8 L 753.2 518.6 L 755.1 518.3 L 756.8 517.7 L 758.1 516.8 L 759.1 515.8 L 759.8 514.7 L 760.2 513.5 L 760.4 512.2 L 760.2 511 L 759.7 509.7 L 759 508.6 L 757.9 507.5 L 759.9 505.5 L 760.8 506.2 L 761.5 506.9 L 762.2 507.7 L 762.7 508.6 L 763.1 509.4 L 763.4 510.4 L 763.6 511.5 L 763.6 512.6 L 763.5 514.2 L 763.2 515.6 L 762.7 516.9 L 762 518.2 L 761.1 519.3 L 760.1 520.3 L 758.8 521.1 L 757.5 521.8 L 756 522.3 L 754.4 522.7 L 752.7 522.9 L 751 523 L 749.2 522.9 L 747.5 522.7 L 745.8 522.3 L 744.2 521.7 L 742.8 520.9 L 741.6 520 L 740.5 519 L 739.6 517.7 L 738.9 516.4 L 738.4 515.1 L 738.1 513.7 L 738 512.3 L 738.1 511.3 L 738.2 510.4 L 738.5 509.5 L 738.9 508.6 L 739.4 507.8 L 739.9 507.1 L 740.5 506.5 L 741.1 505.9 L 729.2 505.9 L 729.2 501.8 L 729.2 501.8 Z"/><path d="M 729.2 528 L 763.1 528 L 763.1 531.8 L 759.9 531.8 L 757.9 533.8 L 757.9 533.8 L 756.5 532.9 L 754.9 532.3 L 752.9 531.9 L 750.7 531.8 L 750.7 531.8 L 748.5 531.9 L 746.6 532.3 L 745 532.9 L 743.7 533.7 L 742.7 534.7 L 742 535.8 L 741.6 537 L 741.4 538.3 L 741.6 539.7 L 742 540.9 L 742.8 542 L 743.8 543.1 L 745.1 543.9 L 746.8 544.5 L 748.8 544.9 L 751 545 L 753.2 544.9 L 755.1 544.5 L 756.8 544 L 758.1 543.1 L 759.1 542.1 L 759.8 541 L 760.2 539.8 L 760.4 538.5 L 760.2 537.2 L 759.7 536 L 759 534.9 L 757.9 533.8 L 759.9 531.8 L 760.8 532.5 L 761.5 533.2 L 762.2 534 L 762.7 534.8 L 763.1 535.7 L 763.4 536.7 L 763.6 537.7 L 763.6 538.9 L 763.5 540.4 L 763.2 541.9 L 762.7 543.2 L 762 544.4 L 761.1 545.6 L 760.1 546.6 L 758.8 547.4 L 757.5 548.1 L 756 548.6 L 754.4 549 L 752.7 549.2 L 751 549.3 L 749.2 549.2 L 747.5 549 L 745.8 548.5 L 744.2 547.9 L 742.8 547.2 L 741.6 546.3 L 740.5 545.2 L 739.6 544 L 738.9 542.7 L 738.4 541.4 L 738.1 540 L 738 538.6 L 738.1 537.6 L 738.2 536.6 L 738.5 535.7 L 738.9 534.9 L 739.4 534.1 L 739.9 533.4 L 740.5 532.7 L 741.1 532.2 L 729.2 532.2 L 729.2 528 L 729.2 528 Z"/><path d="M 738.6 554.2 L 772.4 554.2 L 772.4 558.4 L 738.6 558.4 L 738.6 554.2 L 738.6 554.2 Z"/><path d="M 729.2 564.6 L 733.1 564.2 L 732.9 564.8 L 732.8 565.4 L 732.7 566 L 732.7 566.5 L 732.7 567.2 L 732.8 567.8 L 732.9 568.3 L 733.1 568.7 L 733.4 569.1 L 733.7 569.5 L 734 569.8 L 734.4 570.1 L 734.9 570.3 L 735.5 570.6 L 736.4 571 L 737.5 571.4 L 737.7 571.4 L 737.9 571.5 L 738.2 571.6 L 738.5 571.7 L 763.1 562.4 L 763.1 566.9 L 748.9 572 L 747.5 572.5 L 746.1 572.9 L 744.7 573.4 L 743.2 573.8 L 744.6 574.2 L 746 574.5 L 747.4 575 L 748.8 575.5 L 763.1 580.7 L 763.1 584.9 L 738.2 575.6 L 736.3 574.9 L 734.7 574.2 L 733.5 573.7 L 732.6 573.2 L 731.6 572.7 L 730.8 572 L 730.1 571.4 L 729.6 570.7 L 729.2 569.9 L 728.9 569.1 L 728.7 568.2 L 728.6 567.3 L 728.7 566.7 L 728.8 566 L 728.9 565.3 L 729.2 564.6 L 729.2 564.6 Z"/><path d="M 738.6 601.5 L 763.1 601.5 L 763.1 605.3 L 759.6 605.3 L 761.4 606.8 L 762.6 608.6 L 763.4 610.6 L 763.6 613.1 L 763.6 614.2 L 763.4 615.2 L 763.2 616.2 L 762.9 617.1 L 762.4 618 L 761.9 618.8 L 761.4 619.4 L 760.8 619.9 L 760.1 620.3 L 759.4 620.7 L 758.5 621 L 757.7 621.2 L 757 621.3 L 756.1 621.4 L 755 621.4 L 753.6 621.4 L 738.6 621.4 L 738.6 617.3 L 753.5 617.3 L 754.7 617.3 L 755.7 617.2 L 756.6 617 L 757.3 616.8 L 757.9 616.5 L 758.4 616.1 L 758.9 615.6 L 759.3 615.1 L 759.6 614.4 L 759.9 613.8 L 760 613 L 760 612.2 L 759.9 610.9 L 759.6 609.7 L 759.1 608.6 L 758.4 607.6 L 757.3 606.8 L 755.9 606.2 L 754.1 605.8 L 751.9 605.7 L 738.6 605.7 L 738.6 601.5 L 738.6 601.5 Z"/><path d="M 750.8 626.3 L 754 626.5 L 756.8 627.2 L 759 628.4 L 760.9 630.1 L 762.1 631.7 L 763 633.6 L 763.4 635.6 L 763.6 637.7 L 763.4 640.2 L 762.8 642.3 L 761.8 644.3 L 760.3 646 L 758.5 647.4 L 756.4 648.4 L 753.9 649 L 751.2 649.2 L 749 649.1 L 746.9 648.9 L 745.2 648.4 L 743.7 647.8 L 742.5 647 L 741.3 646 L 740.3 644.9 L 739.5 643.7 L 738.9 642.3 L 738.4 640.8 L 738.1 639.3 L 738 637.7 L 738.1 637.5 L 741.4 637.7 L 741.6 639.2 L 742 640.6 L 742.8 641.8 L 743.8 642.9 L 745.1 643.8 L 746.8 644.4 L 748.7 644.8 L 751 644.9 L 753.1 644.8 L 755 644.4 L 756.6 643.8 L 757.9 642.9 L 758.9 641.8 L 759.6 640.6 L 760.1 639.2 L 760.2 637.7 L 760.1 636.3 L 759.6 634.9 L 758.9 633.7 L 757.9 632.6 L 756.6 631.7 L 754.9 631 L 753.1 630.6 L 750.8 630.5 L 750.8 630.5 L 748.6 630.6 L 746.7 631 L 745.1 631.7 L 743.8 632.6 L 742.8 633.7 L 742 634.9 L 741.6 636.3 L 741.4 637.7 L 738.1 637.5 L 738.2 635.3 L 738.8 633.1 L 739.9 631.2 L 741.3 629.4 L 743.2 628.1 L 745.3 627.1 L 747.9 626.5 L 750.8 626.3 L 750.8 626.3 Z"/><path d="M 738.6 654.1 L 763.1 654.1 L 763.1 658.2 L 738.6 658.2 L 738.6 654.1 L 738.6 654.1 Z"/><path d="M 767.6 654.1 L 772.4 654.1 L 772.4 658.2 L 767.6 658.2 L 767.6 654.1 L 767.6 654.1 Z"/><path d="M 745.9 662.9 L 746.6 667 L 745.4 667.3 L 744.4 667.7 L 743.5 668.2 L 742.8 669 L 742.2 669.8 L 741.8 670.8 L 741.5 672 L 741.4 673.4 L 741.5 674.7 L 741.8 675.8 L 742.1 676.8 L 742.6 677.6 L 743.2 678.2 L 743.9 678.6 L 744.6 678.9 L 745.3 679 L 746 678.9 L 746.6 678.7 L 747.1 678.3 L 747.5 677.8 L 747.9 677.2 L 748.2 676.3 L 748.6 675.1 L 749 673.5 L 749.5 671.4 L 750 669.7 L 750.5 668.2 L 751 667.2 L 751.4 666.4 L 751.9 665.6 L 752.6 665 L 753.3 664.5 L 754 664.1 L 754.9 663.8 L 755.7 663.7 L 756.6 663.6 L 757.4 663.6 L 758.2 663.8 L 758.9 664 L 759.6 664.4 L 760.3 664.8 L 760.9 665.3 L 761.4 665.8 L 761.9 666.4 L 762.3 666.9 L 762.6 667.5 L 762.9 668.2 L 763.1 669 L 763.4 669.9 L 763.5 670.8 L 763.6 671.7 L 763.6 672.6 L 763.6 674 L 763.4 675.3 L 763.2 676.6 L 762.8 677.7 L 762.3 678.7 L 761.8 679.6 L 761.2 680.3 L 760.6 680.9 L 759.8 681.4 L 758.9 681.8 L 757.9 682.1 L 756.8 682.3 L 756.2 678.3 L 757.1 678.1 L 757.9 677.7 L 758.6 677.3 L 759.2 676.7 L 759.6 676 L 759.9 675.1 L 760.1 674.1 L 760.2 672.9 L 760.2 671.6 L 760 670.5 L 759.7 669.5 L 759.3 668.8 L 758.8 668.3 L 758.2 667.9 L 757.7 667.7 L 757.1 667.6 L 756.7 667.7 L 756.3 667.7 L 755.9 667.9 L 755.6 668.1 L 755.3 668.4 L 755 668.8 L 754.7 669.2 L 754.5 669.7 L 754.4 670.2 L 754.1 671 L 753.8 672 L 753.4 673.4 L 752.9 675.4 L 752.4 677.1 L 751.9 678.5 L 751.5 679.5 L 751.1 680.4 L 750.6 681.1 L 750 681.7 L 749.4 682.3 L 748.6 682.7 L 747.7 683 L 746.8 683.2 L 745.8 683.2 L 744.7 683.2 L 743.8 683 L 742.8 682.6 L 741.9 682.1 L 741 681.4 L 740.3 680.6 L 739.6 679.6 L 739 678.6 L 738.6 677.4 L 738.3 676.1 L 738.1 674.8 L 738 673.4 L 738.2 671.2 L 738.5 669.2 L 739.2 667.5 L 740 666.1 L 741.1 665 L 742.5 664.1 L 744.1 663.4 L 745.9 662.9 L 745.9 662.9 Z"/><path d="M 746.5 705 L 745.9 709.3 L 744.2 708.6 L 742.6 707.8 L 741.2 706.8 L 740.1 705.5 L 739.2 704 L 738.6 702.4 L 738.2 700.5 L 738 698.5 L 738.2 695.9 L 738.8 693.7 L 739.9 691.7 L 741.3 690 L 743.2 688.6 L 745.3 687.6 L 747.8 687 L 750.6 686.8 L 753.5 687 L 756.1 687.6 L 758.3 688.6 L 760.2 690 L 761.7 691.7 L 762.8 693.6 L 763.4 695.8 L 763.6 698.2 L 763.6 698.6 L 760.2 698.3 L 760.1 696.9 L 759.7 695.7 L 759.2 694.5 L 758.3 693.5 L 757.3 692.6 L 756.1 692 L 754.7 691.6 L 753.2 691.4 L 753.2 691.4 L 753.2 705 L 754.6 704.8 L 755.9 704.5 L 756.9 704 L 757.8 703.4 L 758.9 702.4 L 759.6 701.2 L 760.1 699.8 L 760.2 698.3 L 763.6 698.6 L 763.4 700.6 L 762.8 702.7 L 761.8 704.6 L 760.3 706.3 L 758.4 707.7 L 756.3 708.6 L 753.7 709.2 L 750.9 709.4 L 750.6 709.4 L 750.4 709.4 L 750.1 709.4 L 749.8 709.4 L 749.8 691.1 L 747.9 691.4 L 746.2 691.8 L 744.8 692.5 L 743.6 693.4 L 742.7 694.5 L 742 695.7 L 741.6 697 L 741.4 698.5 L 741.5 699.6 L 741.8 700.6 L 742.1 701.6 L 742.7 702.4 L 743.3 703.2 L 744.2 703.9 L 745.3 704.5 L 746.5 705 L 746.5 705 Z"/><path d="M 738.6 728.6 L 759.9 728.6 L 759.9 724.9 L 763.1 724.9 L 763.1 728.6 L 765.7 728.6 L 766.8 728.6 L 767.9 728.7 L 768.7 728.8 L 769.4 729 L 770.1 729.4 L 770.8 729.9 L 771.4 730.5 L 772 731.2 L 772.4 732 L 772.7 733 L 772.9 734.1 L 773 735.4 L 772.9 736.3 L 772.9 737.2 L 772.7 738.2 L 772.6 739.3 L 769 738.6 L 769 738 L 769.1 737.4 L 769.2 736.8 L 769.2 736.2 L 769.1 735.3 L 769 734.6 L 768.7 734 L 768.4 733.5 L 767.9 733.2 L 767.2 732.9 L 766.4 732.8 L 765.3 732.7 L 763.1 732.7 L 763.1 737.5 L 759.9 737.5 L 759.9 732.7 L 738.6 732.7 L 738.6 728.6 L 738.6 728.6 Z"/><path d="M 738.6 740.8 L 763.1 740.8 L 763.1 744.9 L 738.6 744.9 L 738.6 740.8 L 738.6 740.8 Z"/><path d="M 767.6 740.8 L 772.4 740.8 L 772.4 744.9 L 767.6 744.9 L 767.6 740.8 L 767.6 740.8 Z"/><path d="M 738.6 751.1 L 772.4 751.1 L 772.4 755.3 L 738.6 755.3 L 738.6 751.1 L 738.6 751.1 Z"/><path d="M 742.3 770.8 L 738.6 771.4 L 738.5 770.5 L 738.4 769.7 L 738.3 769 L 738.2 768.2 L 738.3 767.2 L 738.4 766.2 L 738.6 765.4 L 739 764.7 L 739.4 764.2 L 739.8 763.7 L 740.3 763.3 L 740.8 763 L 741.6 762.8 L 742.7 762.6 L 744 762.5 L 745.8 762.5 L 759.9 762.5 L 759.9 759.4 L 763.1 759.4 L 763.1 762.5 L 769.2 762.5 L 771.6 766.6 L 763.1 766.6 L 763.1 770.8 L 759.9 770.8 L 759.9 766.6 L 745.5 766.6 L 744.7 766.6 L 744.1 766.7 L 743.6 766.8 L 743.2 766.8 L 743 766.9 L 742.8 767.1 L 742.6 767.3 L 742.4 767.5 L 742.3 767.8 L 742.2 768.1 L 742.1 768.5 L 742.1 769 L 742.1 769.4 L 742.2 769.8 L 742.2 770.3 L 742.3 770.8 L 742.3 770.8 Z"/><path d="M 746.5 791.6 L 745.9 795.9 L 744.2 795.3 L 742.6 794.5 L 741.2 793.4 L 740.1 792.1 L 739.2 790.7 L 738.6 789 L 738.2 787.2 L 738 785.1 L 738.2 782.6 L 738.8 780.3 L 739.9 778.3 L 741.3 776.6 L 743.2 775.2 L 745.3 774.2 L 747.8 773.6 L 750.6 773.4 L 753.5 773.6 L 756.1 774.3 L 758.3 775.3 L 760.2 776.6 L 761.7 778.4 L 762.8 780.3 L 763.4 782.5 L 763.6 784.9 L 763.6 785.3 L 760.2 784.9 L 760.1 783.6 L 759.7 782.3 L 759.2 781.2 L 758.3 780.1 L 757.3 779.3 L 756.1 778.6 L 754.7 778.2 L 753.2 778 L 753.2 778 L 753.2 791.7 L 754.6 791.5 L 755.9 791.1 L 756.9 790.7 L 757.8 790.1 L 758.9 789 L 759.6 787.8 L 760.1 786.4 L 760.2 784.9 L 763.6 785.3 L 763.4 787.3 L 762.8 789.4 L 761.8 791.3 L 760.3 792.9 L 758.4 794.3 L 756.3 795.3 L 753.7 795.8 L 750.9 796 L 750.6 796 L 750.4 796 L 750.1 796 L 749.8 796 L 749.8 777.7 L 747.9 778 L 746.2 778.4 L 744.8 779.1 L 743.6 780 L 742.7 781.1 L 742 782.3 L 741.6 783.7 L 741.4 785.1 L 741.5 786.2 L 741.8 787.3 L 742.1 788.2 L 742.7 789 L 743.3 789.8 L 744.2 790.5 L 745.3 791.1 L 746.5 791.6 L 746.5 791.6 Z"/><path d="M 738.6 801.1 L 763.1 801.1 L 763.1 804.8 L 759.4 804.8 L 760.6 805.5 L 761.5 806.2 L 762.3 806.8 L 762.8 807.5 L 763.2 808.1 L 763.4 808.7 L 763.6 809.4 L 763.6 810.1 L 763.6 811.2 L 763.3 812.2 L 762.9 813.3 L 762.3 814.4 L 758.4 813 L 758.8 812.2 L 759.1 811.4 L 759.3 810.7 L 759.4 809.9 L 759.3 809.2 L 759.2 808.6 L 758.9 808 L 758.5 807.5 L 758.1 806.9 L 757.5 806.5 L 756.9 806.2 L 756.2 805.9 L 755.1 805.6 L 753.9 805.4 L 752.7 805.3 L 751.4 805.2 L 738.6 805.2 L 738.6 801.1 L 738.6 801.1 Z"/><path d="M 729.2 830 L 763.1 830 L 763.1 833.8 L 759.9 833.8 L 757.9 835.8 L 757.9 835.8 L 756.5 834.9 L 754.9 834.2 L 752.9 833.9 L 750.7 833.7 L 750.7 833.7 L 748.5 833.8 L 746.6 834.2 L 745 834.8 L 743.7 835.6 L 742.7 836.7 L 742 837.8 L 741.6 839 L 741.4 840.3 L 741.6 841.6 L 742 842.9 L 742.8 844 L 743.8 845 L 745.1 845.9 L 746.8 846.5 L 748.8 846.9 L 751 847 L 753.2 846.9 L 755.1 846.5 L 756.8 845.9 L 758.1 845.1 L 759.1 844.1 L 759.8 843 L 760.2 841.8 L 760.4 840.5 L 760.2 839.2 L 759.7 838 L 759 836.8 L 757.9 835.8 L 759.9 833.8 L 760.8 834.5 L 761.5 835.2 L 762.2 836 L 762.7 836.8 L 763.1 837.7 L 763.4 838.6 L 763.6 839.7 L 763.6 840.8 L 763.5 842.4 L 763.2 843.8 L 762.7 845.1 L 762 846.4 L 761.1 847.5 L 760.1 848.5 L 758.8 849.4 L 757.5 850 L 756 850.6 L 754.4 850.9 L 752.7 851.2 L 751 851.2 L 749.2 851.2 L 747.5 850.9 L 745.8 850.5 L 744.2 849.9 L 742.8 849.2 L 741.6 848.2 L 740.5 847.2 L 739.6 846 L 738.9 844.7 L 738.4 843.3 L 738.1 841.9 L 738 840.6 L 738.1 839.5 L 738.2 838.6 L 738.5 837.7 L 738.9 836.8 L 739.4 836 L 739.9 835.3 L 740.5 834.7 L 741.1 834.1 L 729.2 834.1 L 729.2 830 L 729.2 830 Z"/><path d="M 738.6 856.2 L 772.4 856.2 L 772.4 860.3 L 738.6 860.3 L 738.6 856.2 L 738.6 856.2 Z"/><path d="M 738.6 882.8 L 742.2 882.8 L 740.4 881.2 L 739.1 879.4 L 738.3 877.3 L 738 875 L 738.1 874 L 738.2 872.9 L 738.5 871.9 L 738.8 871 L 739.3 870.1 L 739.8 869.4 L 740.3 868.7 L 741 868.2 L 741.6 867.8 L 742.3 867.4 L 743.1 867.1 L 744 866.9 L 744.7 866.8 L 745.6 866.7 L 746.7 866.7 L 747.9 866.7 L 763.1 866.7 L 763.1 870.8 L 749.5 870.8 L 748 870.8 L 746.8 870.9 L 745.8 871 L 745.1 871 L 744.4 871.3 L 743.6 871.7 L 743.1 872.1 L 742.5 872.7 L 742.1 873.4 L 741.8 874.2 L 741.7 875 L 741.6 875.8 L 741.7 876.8 L 741.8 877.7 L 742.1 878.5 L 742.6 879.4 L 743.1 880.1 L 743.7 880.8 L 744.4 881.3 L 745.2 881.7 L 746.1 882 L 747.2 882.2 L 748.5 882.3 L 749.9 882.4 L 763.1 882.4 L 763.1 886.5 L 738.6 886.5 L 738.6 882.8 L 738.6 882.8 Z"/><path d="M 736.6 892.3 L 736 896.3 L 735.1 896.5 L 734.4 896.8 L 733.7 897.2 L 733.2 897.7 L 732.7 898.6 L 732.4 899.5 L 732.1 900.6 L 732.1 901.9 L 732.1 903.3 L 732.4 904.5 L 732.7 905.5 L 733.2 906.4 L 733.9 907.1 L 734.6 907.7 L 735.5 908.2 L 736.5 908.5 L 737.3 908.6 L 738.4 908.7 L 739.9 908.8 L 741.8 908.8 L 743.9 906.8 L 744.2 907.2 L 745.5 908.1 L 747.1 908.7 L 748.9 909 L 751.1 909.2 L 753.2 909 L 755.1 908.6 L 756.6 908 L 757.9 907.1 L 758.9 906.1 L 759.6 904.9 L 760.1 903.7 L 760.2 902.3 L 760.1 901 L 759.6 899.8 L 758.9 898.6 L 757.9 897.6 L 756.7 896.8 L 755.1 896.2 L 753.4 895.8 L 751.3 895.7 L 751.3 895.7 L 749 895.8 L 747.1 896.2 L 745.5 896.8 L 744.2 897.6 L 743.2 898.6 L 742.6 899.8 L 742.1 901 L 742 902.4 L 742.1 903.8 L 742.6 905.1 L 743.2 906.2 L 743.9 906.8 L 741.8 908.8 L 740.4 907.3 L 739.4 905.7 L 738.8 904 L 738.6 902 L 738.8 899.6 L 739.5 897.5 L 740.6 895.7 L 742.2 894.2 L 744.2 893 L 746.2 892.1 L 748.5 891.6 L 751 891.4 L 752.7 891.5 L 754.4 891.8 L 755.9 892.1 L 757.4 892.7 L 758.8 893.4 L 760.1 894.3 L 761.1 895.3 L 762 896.4 L 762.7 897.6 L 763.2 899 L 763.5 900.5 L 763.6 902 L 763.4 904.1 L 762.8 906 L 761.7 907.7 L 760.1 909.2 L 763.1 909.2 L 763.1 913 L 741.9 913 L 739.2 912.9 L 737 912.7 L 735.2 912.4 L 733.8 911.9 L 732.7 911.2 L 731.7 910.3 L 730.8 909.4 L 730 908.2 L 729.4 906.8 L 729 905.3 L 728.7 903.7 L 728.6 901.9 L 728.8 899.9 L 729.1 898 L 729.7 896.3 L 730.6 894.9 L 731.7 893.7 L 733.1 892.9 L 734.7 892.4 L 736.6 892.3 L 736.6 892.3 Z"/><path d="M 657.1 375.1 L 690.9 362 L 690.9 366.9 L 666.4 375.7 L 664.9 376.2 L 663.5 376.6 L 662.1 377.1 L 660.8 377.5 L 662.2 377.9 L 663.6 378.3 L 665 378.8 L 666.4 379.3 L 690.9 388.4 L 690.9 393 L 657.1 379.7 L 657.1 375.1 L 657.1 375.1 Z"/><path d="M 665 410.6 L 664.5 414.9 L 662.7 414.3 L 661.1 413.5 L 659.8 412.4 L 658.6 411.2 L 657.7 409.7 L 657.1 408 L 656.7 406.2 L 656.6 404.2 L 656.8 401.6 L 657.4 399.3 L 658.4 397.3 L 659.9 395.6 L 661.7 394.2 L 663.8 393.2 L 666.3 392.7 L 669.2 392.5 L 672.1 392.7 L 674.6 393.2 L 676.9 394.3 L 678.8 395.6 L 680.3 397.3 L 681.3 399.3 L 681.9 401.5 L 682.1 403.9 L 682.1 404.3 L 678.8 404 L 678.6 402.6 L 678.2 401.3 L 677.7 400.2 L 676.8 399.2 L 675.8 398.3 L 674.6 397.6 L 673.2 397.2 L 671.7 397 L 671.7 397 L 671.7 410.6 L 673.2 410.5 L 674.4 410.1 L 675.5 409.7 L 676.4 409.1 L 677.4 408.1 L 678.1 406.8 L 678.6 405.5 L 678.8 404 L 682.1 404.3 L 681.9 406.2 L 681.3 408.4 L 680.3 410.3 L 678.8 411.9 L 677 413.3 L 674.8 414.3 L 672.3 414.9 L 669.4 415.1 L 669.2 415.1 L 669 415.1 L 668.6 415 L 668.3 415 L 668.3 396.8 L 666.4 397 L 664.7 397.5 L 663.3 398.1 L 662.1 399 L 661.2 400.1 L 660.5 401.4 L 660.1 402.7 L 660 404.2 L 660.1 405.3 L 660.3 406.3 L 660.6 407.2 L 661.2 408.1 L 661.9 408.8 L 662.7 409.5 L 663.8 410.1 L 665 410.6 L 665 410.6 Z"/><path d="M 657.1 420.1 L 681.6 420.1 L 681.6 423.8 L 677.9 423.8 L 679.1 424.5 L 680.1 425.2 L 680.8 425.8 L 681.3 426.5 L 681.7 427.1 L 681.9 427.7 L 682.1 428.4 L 682.1 429.1 L 682.1 430.2 L 681.8 431.2 L 681.4 432.3 L 680.8 433.4 L 676.9 431.9 L 677.3 431.2 L 677.7 430.5 L 677.8 429.7 L 677.9 428.9 L 677.8 428.2 L 677.7 427.6 L 677.4 427 L 677.1 426.5 L 676.6 426 L 676.1 425.5 L 675.5 425.2 L 674.8 424.9 L 673.6 424.6 L 672.5 424.4 L 671.2 424.3 L 669.9 424.2 L 657.1 424.2 L 657.1 420.1 L 657.1 420.1 Z"/><path d="M 664.4 434.2 L 665.1 438.3 L 663.9 438.6 L 662.9 439 L 662 439.5 L 661.3 440.2 L 660.7 441.1 L 660.3 442.1 L 660.1 443.3 L 660 444.7 L 660.1 446 L 660.3 447.1 L 660.6 448.1 L 661.1 448.9 L 661.8 449.5 L 662.4 449.9 L 663.1 450.2 L 663.9 450.3 L 664.5 450.2 L 665.1 450 L 665.6 449.6 L 666.1 449 L 666.4 448.5 L 666.7 447.6 L 667.1 446.4 L 667.5 444.8 L 668.1 442.7 L 668.6 440.9 L 669 439.5 L 669.5 438.5 L 669.9 437.7 L 670.5 436.9 L 671.1 436.3 L 671.8 435.8 L 672.6 435.4 L 673.4 435.1 L 674.2 434.9 L 675.1 434.9 L 675.9 434.9 L 676.7 435.1 L 677.4 435.3 L 678.1 435.6 L 678.8 436 L 679.4 436.5 L 679.9 437.1 L 680.5 437.7 L 680.8 438.2 L 681.1 438.8 L 681.4 439.5 L 681.7 440.3 L 681.9 441.2 L 682 442.1 L 682.1 443 L 682.1 443.9 L 682.1 445.3 L 681.9 446.6 L 681.7 447.9 L 681.3 449 L 680.9 450 L 680.3 450.9 L 679.7 451.6 L 679.1 452.2 L 678.3 452.7 L 677.4 453.1 L 676.4 453.4 L 675.3 453.6 L 674.7 449.5 L 675.6 449.4 L 676.4 449 L 677.1 448.6 L 677.7 448 L 678.1 447.2 L 678.5 446.4 L 678.7 445.3 L 678.8 444.2 L 678.7 442.9 L 678.5 441.8 L 678.2 440.8 L 677.8 440.1 L 677.3 439.6 L 676.8 439.2 L 676.2 439 L 675.6 438.9 L 675.2 438.9 L 674.8 439 L 674.5 439.2 L 674.1 439.4 L 673.8 439.7 L 673.5 440.1 L 673.2 440.5 L 673 441 L 672.9 441.5 L 672.7 442.2 L 672.3 443.3 L 671.9 444.7 L 671.4 446.7 L 670.9 448.4 L 670.5 449.8 L 670 450.8 L 669.6 451.6 L 669.1 452.4 L 668.5 453 L 667.9 453.6 L 667.1 454 L 666.2 454.3 L 665.3 454.5 L 664.3 454.5 L 663.3 454.5 L 662.3 454.2 L 661.3 453.9 L 660.4 453.3 L 659.5 452.7 L 658.8 451.9 L 658.1 450.9 L 657.5 449.8 L 657.1 448.6 L 656.8 447.4 L 656.6 446.1 L 656.6 444.7 L 656.7 442.4 L 657.1 440.5 L 657.7 438.8 L 658.5 437.4 L 659.7 436.2 L 661 435.3 L 662.6 434.7 L 664.4 434.2 L 664.4 434.2 Z"/><path d="M 657.1 459.5 L 681.6 459.5 L 681.6 463.6 L 657.1 463.6 L 657.1 459.5 L 657.1 459.5 Z"/><path d="M 686.2 459.5 L 690.9 459.5 L 690.9 463.6 L 686.2 463.6 L 686.2 459.5 L 686.2 459.5 Z"/><path d="M 669.4 468.4 L 672.5 468.7 L 675.3 469.4 L 677.6 470.6 L 679.4 472.2 L 680.6 473.9 L 681.5 475.7 L 682 477.7 L 682.1 479.9 L 681.9 482.3 L 681.3 484.5 L 680.3 486.5 L 678.8 488.2 L 677 489.6 L 674.9 490.6 L 672.5 491.2 L 669.7 491.4 L 667.5 491.3 L 665.5 491 L 663.8 490.6 L 662.3 490 L 661 489.2 L 659.9 488.2 L 658.9 487.1 L 658.1 485.8 L 657.4 484.5 L 656.9 483 L 656.6 481.5 L 656.6 479.9 L 656.6 479.6 L 660 479.9 L 660.1 481.4 L 660.6 482.7 L 661.3 484 L 662.3 485.1 L 663.6 486 L 665.3 486.6 L 667.2 487 L 669.5 487.1 L 671.6 487 L 673.5 486.6 L 675.1 486 L 676.4 485.1 L 677.4 484 L 678.1 482.7 L 678.6 481.4 L 678.7 479.9 L 678.6 478.4 L 678.1 477.1 L 677.4 475.8 L 676.4 474.7 L 675.1 473.8 L 673.5 473.2 L 671.6 472.8 L 669.4 472.7 L 669.4 472.7 L 667.1 472.8 L 665.3 473.2 L 663.6 473.8 L 662.3 474.7 L 661.3 475.8 L 660.6 477.1 L 660.1 478.4 L 660 479.9 L 656.6 479.6 L 656.8 477.5 L 657.4 475.3 L 658.4 473.3 L 659.9 471.6 L 661.7 470.2 L 663.9 469.2 L 666.4 468.6 L 669.4 468.4 L 669.4 468.4 Z"/><path d="M 657.1 496.2 L 681.6 496.2 L 681.6 500 L 678.1 500 L 679.9 501.5 L 681.2 503.3 L 681.9 505.4 L 682.1 507.8 L 682.1 508.9 L 681.9 509.9 L 681.7 510.9 L 681.4 511.9 L 680.9 512.7 L 680.5 513.5 L 679.9 514.1 L 679.3 514.6 L 678.6 515.1 L 677.9 515.4 L 677.1 515.7 L 676.2 515.9 L 675.5 516 L 674.6 516.1 L 673.5 516.2 L 672.2 516.2 L 657.1 516.2 L 657.1 512 L 672 512 L 673.2 512 L 674.2 511.9 L 675.1 511.8 L 675.8 511.5 L 676.4 511.2 L 676.9 510.8 L 677.4 510.4 L 677.8 509.8 L 678.1 509.2 L 678.4 508.4 L 678.5 507.7 L 678.6 506.9 L 678.4 505.6 L 678.1 504.4 L 677.6 503.3 L 676.9 502.3 L 675.8 501.5 L 674.4 500.9 L 672.7 500.5 L 670.5 500.4 L 657.1 500.4 L 657.1 496.2 L 657.1 496.2 Z"/><path d="M 657.1 550.1 L 657.1 546 L 683.6 546 L 682.9 545.2 L 682.1 544.3 L 681.4 543.2 L 680.7 542.1 L 680 540.9 L 679.5 539.7 L 679 538.7 L 678.6 537.7 L 682.6 537.7 L 683.4 539.4 L 684.4 541 L 685.4 542.4 L 686.6 543.8 L 687.7 545 L 688.8 546 L 689.9 546.8 L 691.1 547.5 L 691.1 550.1 L 657.1 550.1 L 657.1 550.1 Z"/><path d="M 657.1 563.1 L 661.8 563.1 L 661.8 567.8 L 657.1 567.8 L 657.1 563.1 L 657.1 563.1 Z"/><path d="M 673.8 573.9 L 676.6 574 L 679.2 574.2 L 681.5 574.6 L 683.4 575.1 L 685.2 575.8 L 686.7 576.7 L 688 577.7 L 689.1 578.8 L 689.9 580.1 L 690.6 581.6 L 690.9 583.2 L 691.1 584.9 L 691 586.2 L 690.8 587.5 L 690.5 588.6 L 690 589.7 L 689.4 590.7 L 688.6 591.6 L 687.8 592.4 L 686.8 593.1 L 685.7 593.7 L 684.5 594.3 L 683.2 594.8 L 681.8 595.2 L 680.2 595.5 L 678.3 595.8 L 676.2 595.9 L 673.8 596 L 671 595.9 L 668.4 595.6 L 666.2 595.3 L 664.2 594.7 L 662.5 594 L 660.9 593.2 L 659.6 592.2 L 658.5 591.1 L 657.7 589.8 L 657 588.3 L 656.7 586.7 L 656.5 584.9 L 656.6 584.6 L 659.9 584.9 L 660.1 586.3 L 660.6 587.6 L 661.5 588.7 L 662.7 589.7 L 664.4 590.6 L 666.9 591.2 L 670 591.6 L 673.8 591.7 L 677.6 591.6 L 680.7 591.2 L 683.2 590.6 L 684.9 589.7 L 686.1 588.7 L 686.9 587.5 L 687.5 586.3 L 687.6 584.9 L 687.5 583.5 L 687 582.3 L 686.3 581.2 L 685.2 580.3 L 683.3 579.4 L 680.8 578.7 L 677.6 578.3 L 673.8 578.2 L 673.8 578.2 L 670 578.3 L 666.8 578.6 L 664.4 579.3 L 662.7 580.1 L 661.5 581.2 L 660.6 582.3 L 660.1 583.6 L 659.9 584.9 L 656.6 584.6 L 656.8 582.6 L 657.4 580.6 L 658.5 578.8 L 660 577.3 L 662.5 575.8 L 665.6 574.7 L 669.4 574.1 L 673.8 573.9 L 673.8 573.9 Z"/><path d="M 657.1 602.5 L 661.8 602.5 L 661.8 607.2 L 657.1 607.2 L 657.1 602.5 L 657.1 602.5 Z"/><path d="M 673.8 613.3 L 676.6 613.4 L 679.2 613.6 L 681.5 614 L 683.4 614.5 L 685.2 615.2 L 686.7 616.1 L 688 617.1 L 689.1 618.2 L 689.9 619.5 L 690.6 621 L 690.9 622.6 L 691.1 624.3 L 691 625.6 L 690.8 626.9 L 690.5 628.1 L 690 629.1 L 689.4 630.1 L 688.6 631 L 687.8 631.8 L 686.8 632.5 L 685.7 633.1 L 684.5 633.7 L 683.2 634.2 L 681.8 634.6 L 680.2 634.9 L 678.3 635.2 L 676.2 635.3 L 673.8 635.3 L 671 635.3 L 668.4 635.1 L 666.2 634.7 L 664.2 634.1 L 662.5 633.4 L 660.9 632.6 L 659.6 631.6 L 658.5 630.5 L 657.7 629.2 L 657 627.7 L 656.7 626.1 L 656.5 624.3 L 656.6 624 L 659.9 624.3 L 660.1 625.7 L 660.6 626.9 L 661.5 628.1 L 662.7 629.2 L 664.4 630 L 666.9 630.6 L 670 631 L 673.8 631.1 L 677.6 631 L 680.7 630.6 L 683.2 630 L 684.9 629.2 L 686.1 628.1 L 686.9 626.9 L 687.5 625.7 L 687.6 624.3 L 687.5 622.9 L 687 621.7 L 686.3 620.6 L 685.2 619.7 L 683.3 618.8 L 680.8 618.1 L 677.6 617.7 L 673.8 617.6 L 673.8 617.6 L 670 617.7 L 666.8 618.1 L 664.4 618.7 L 662.7 619.5 L 661.5 620.5 L 660.6 621.7 L 660.1 623 L 659.9 624.3 L 656.6 624 L 656.8 622 L 657.4 620 L 658.5 618.2 L 660 616.6 L 662.5 615.2 L 665.6 614.2 L 669.4 613.5 L 673.8 613.3 L 673.8 613.3 Z"/></g></g><use class="pcb_board-cf" mask="url(#pcb_bottom-cu_finish-mask)" xlink:href="#pcb_bottom-sm"/></g></g></svg>