<?xml-stylesheet href="https://s3.amazonaws.com/maker.works.boards/css/blackpcb.css" type="text/css"?><svg xmlns="http://www.w3.org/2000/svg" version="1.1" xmlns:xlink="http://www.w3.org/1999/xlink" stroke-width="0" stroke-linecap="round" stroke-linejoin="round" width="0.9in" height="1in" id="pcb_top" viewBox="7.5 7.5 900 1000"><defs><circle cx="0" cy="0" r="12.5" id="tool-T10-pad-1000"/><circle cx="0" cy="0" r="21" id="tool-D12-pad-1009"/><rect x="-16.1555" y="-32.888" width="32.311" height="65.776" transform="rotate(270)" id="tool-D13-pad-1010"/><rect x="-78.75" y="-17.5" width="157.5" height="35" id="tool-D14-pad-1011"/><rect x="-16.1555" y="-32.888" width="32.311" height="65.776" transform="rotate(90)" id="tool-D15-pad-1012"/><circle cx="0" cy="0" r="9.85" id="tool-D12-pad-1015"/><rect x="-19.7" y="-29.55" width="39.4" height="59.1" id="tool-D13-pad-1016"/><circle cx="0" cy="0" r="9.85" id="tool-D14-pad-1017"/><circle cx="0" cy="0" r="21" id="tool-D10-pad-1018"/><rect x="-16.1555" y="-32.888" width="32.311" height="65.776" transform="rotate(270)" id="tool-D11-pad-1019"/><rect x="-78.75" y="-17.5" width="157.5" height="35" id="tool-D12-pad-1020"/><rect x="-16.1555" y="-32.888" width="32.311" height="65.776" transform="rotate(90)" id="tool-D13-pad-1021"/><g id="pcb_top-cu" fill="currentColor" stroke="currentColor"><path stroke-width="2" fill="none" d="M 890.8 990.8 L 890.8 990.8 M 890.8 990.8 L 24.2 990.8 M 24.2 990.8 L 24.2 883 M 24.2 883 L 93.3 883 M 93.3 883 L 99.9 885.7 M 99.9 885.7 L 100 885.8 M 100 885.8 L 107.4 886.8 M 107.4 886.8 L 107.6 886.8 M 107.6 886.8 L 115 885.8 M 115 885.8 L 115.1 885.7 M 115.1 885.7 L 121.7 883 M 121.7 883 L 192.1 883 M 192.1 883 L 192.7 882.4 M 192.7 882.4 L 192.7 880.7 M 192.7 880.7 L 351.6 880.7 M 351.6 880.7 L 351.6 883.1 M 351.6 883.1 L 352.2 883.7 M 352.2 883.7 L 432.8 883.7 M 432.8 883.7 L 433.4 883.1 M 433.4 883.1 L 433.4 880.7 M 433.4 880.7 L 501.6 880.7 M 501.6 880.7 L 501.6 883.1 M 501.6 883.1 L 502.2 883.7 M 502.2 883.7 L 582.8 883.7 M 582.8 883.7 L 583.4 883.1 M 583.4 883.1 L 583.4 880.7 M 583.4 880.7 L 651.6 880.7 M 651.6 880.7 L 651.6 883.1 M 651.6 883.1 L 652.2 883.7 M 652.2 883.7 L 732.8 883.7 M 732.8 883.7 L 733.4 883.1 M 733.4 883.1 L 733.4 835.9 M 733.4 835.9 L 732.8 835.3 M 732.8 835.3 L 699.1 835.3 M 699.1 835.3 L 698.6 835.1 M 698.6 835.1 L 698.4 835.1 M 698.4 835.1 L 692.6 834.3 M 692.6 834.3 L 692.5 834.3 M 692.5 834.3 L 192.7 834.3 M 192.7 834.3 L 192.7 832.6 M 192.7 832.6 L 192.1 832 M 192.1 832 L 121.7 832 M 121.7 832 L 115.1 829.3 M 115.1 829.3 L 115 829.2 M 115 829.2 L 107.6 828.2 M 107.6 828.2 L 107.4 828.2 M 107.4 828.2 L 100 829.2 M 100 829.2 L 99.9 829.3 M 99.9 829.3 L 93.3 832 M 93.3 832 L 24.2 832 M 24.2 832 L 24.2 783 M 24.2 783 L 102.9 783 M 102.9 783 L 103.4 782.4 M 103.4 782.4 L 103.4 732.6 M 103.4 732.6 L 102.9 732 M 102.9 732 L 24.2 732 M 24.2 732 L 24.2 683 M 24.2 683 L 102.9 683 M 102.9 683 L 103.4 682.4 M 103.4 682.4 L 103.4 632.6 M 103.4 632.6 L 102.9 632 M 102.9 632 L 24.2 632 M 24.2 632 L 24.2 583 M 24.2 583 L 102.9 583 M 102.9 583 L 103.4 582.4 M 103.4 582.4 L 103.4 532.6 M 103.4 532.6 L 102.9 532 M 102.9 532 L 24.2 532 M 24.2 532 L 24.2 483 M 24.2 483 L 91.8 483 M 91.8 483 L 92.8 483.8 M 92.8 483.8 L 92.9 483.8 M 92.9 483.8 L 99.9 486.7 M 99.9 486.7 L 100 486.8 M 100 486.8 L 107.4 487.7 M 107.4 487.7 L 107.6 487.7 M 107.6 487.7 L 115 486.8 M 115 486.8 L 115.1 486.7 M 115.1 486.7 L 122.1 483.8 M 122.1 483.8 L 122.2 483.8 M 122.2 483.8 L 123.2 483 M 123.2 483 L 192.1 483 M 192.1 483 L 192.7 482.4 M 192.7 482.4 L 192.7 481.7 M 192.7 481.7 L 351.6 481.7 M 351.6 481.7 L 351.6 484.1 M 351.6 484.1 L 352.2 484.7 M 352.2 484.7 L 432.8 484.7 M 432.8 484.7 L 433.4 484.1 M 433.4 484.1 L 433.4 481.7 M 433.4 481.7 L 501.6 481.7 M 501.6 481.7 L 501.6 484.1 M 501.6 484.1 L 502.2 484.7 M 502.2 484.7 L 582.8 484.7 M 582.8 484.7 L 583.4 484.1 M 583.4 484.1 L 583.4 481.7 M 583.4 481.7 L 651.6 481.7 M 651.6 481.7 L 651.6 484.1 M 651.6 484.1 L 652.2 484.7 M 652.2 484.7 L 732.8 484.7 M 732.8 484.7 L 733.4 484.1 M 733.4 484.1 L 733.4 436.9 M 733.4 436.9 L 732.8 436.3 M 732.8 436.3 L 694.1 436.3 M 694.1 436.3 L 693.6 436.1 M 693.6 436.1 L 693.4 436.1 M 693.4 436.1 L 687.6 435.3 M 687.6 435.3 L 687.5 435.3 M 687.5 435.3 L 192.7 435.3 M 192.7 435.3 L 192.7 432.6 M 192.7 432.6 L 192.1 432 M 192.1 432 L 119.3 432 M 119.3 432 L 115.1 430.3 M 115.1 430.3 L 115 430.3 M 115 430.3 L 107.6 429.3 M 107.6 429.3 L 107.4 429.3 M 107.4 429.3 L 100 430.3 M 100 430.3 L 99.9 430.3 M 99.9 430.3 L 95.7 432 M 95.7 432 L 24.2 432 M 24.2 432 L 24.2 383 M 24.2 383 L 93.3 383 M 93.3 383 L 99.9 385.7 M 99.9 385.7 L 100 385.8 M 100 385.8 L 107.4 386.8 M 107.4 386.8 L 107.6 386.8 M 107.6 386.8 L 115 385.8 M 115 385.8 L 115.1 385.7 M 115.1 385.7 L 121.7 383 M 121.7 383 L 192.1 383 M 192.1 383 L 192.7 382.4 M 192.7 382.4 L 192.7 380.7 M 192.7 380.7 L 351.6 380.7 M 351.6 380.7 L 351.6 383.1 M 351.6 383.1 L 352.2 383.7 M 352.2 383.7 L 432.8 383.7 M 432.8 383.7 L 433.4 383.1 M 433.4 383.1 L 433.4 380.7 M 433.4 380.7 L 501.6 380.7 M 501.6 380.7 L 501.6 383.1 M 501.6 383.1 L 502.2 383.7 M 502.2 383.7 L 582.8 383.7 M 582.8 383.7 L 583.4 383.1 M 583.4 383.1 L 583.4 380.7 M 583.4 380.7 L 651.6 380.7 M 651.6 380.7 L 651.6 383.1 M 651.6 383.1 L 652.2 383.7 M 652.2 383.7 L 732.8 383.7 M 732.8 383.7 L 733.4 383.1 M 733.4 383.1 L 733.4 335.9 M 733.4 335.9 L 732.8 335.3 M 732.8 335.3 L 699.1 335.3 M 699.1 335.3 L 698.6 335.1 M 698.6 335.1 L 698.4 335.1 M 698.4 335.1 L 692.6 334.3 M 692.6 334.3 L 692.5 334.3 M 692.5 334.3 L 192.7 334.3 M 192.7 334.3 L 192.7 332.6 M 192.7 332.6 L 192.1 332 M 192.1 332 L 121.7 332 M 121.7 332 L 115.1 329.3 M 115.1 329.3 L 115 329.2 M 115 329.2 L 107.6 328.2 M 107.6 328.2 L 107.4 328.2 M 107.4 328.2 L 100 329.2 M 100 329.2 L 99.9 329.3 M 99.9 329.3 L 93.3 332 M 93.3 332 L 24.2 332 M 24.2 332 L 24.2 283 M 24.2 283 L 192.1 283 M 192.1 283 L 192.7 282.4 M 192.7 282.4 L 192.7 232.6 M 192.7 232.6 L 192.1 232 M 192.1 232 L 24.2 232 M 24.2 232 L 24.2 183 M 24.2 183 L 192.1 183 M 192.1 183 L 192.7 182.4 M 192.7 182.4 L 192.7 132.6 M 192.7 132.6 L 192.1 132 M 192.1 132 L 24.2 132 M 24.2 132 L 24.2 24.2 M 24.2 24.2 L 890.8 24.2 M 890.8 24.2 L 890.8 990.8 M 192.7 760.6 L 192.7 760.6 M 192.7 760.6 L 192.7 782.4 M 192.7 782.4 L 192.1 783 M 192.1 783 L 109 783 M 109 783 L 108.4 782.4 M 108.4 782.4 L 108.4 760.6 M 108.4 760.6 L 109 760 M 109 760 L 192.1 760 M 192.1 760 L 192.7 760.6 M 733.4 738.6 L 733.4 738.6 M 733.4 738.6 L 733.4 759.1 M 733.4 759.1 L 732.8 759.7 M 732.8 759.7 L 695.6 759.7 M 695.6 759.7 L 695 759.1 M 695 759.1 L 695 738.6 M 695 738.6 L 695.6 738 M 695.6 738 L 732.8 738 M 732.8 738 L 733.4 738.6 M 583.4 738.6 L 583.4 738.6 M 583.4 738.6 L 583.4 759.1 M 583.4 759.1 L 582.8 759.7 M 582.8 759.7 L 545.6 759.7 M 545.6 759.7 L 545 759.1 M 545 759.1 L 545 738.6 M 545 738.6 L 545.6 738 M 545.6 738 L 582.8 738 M 582.8 738 L 583.4 738.6 M 433.4 738.6 L 433.4 738.6 M 433.4 738.6 L 433.4 759.1 M 433.4 759.1 L 432.8 759.7 M 432.8 759.7 L 395.6 759.7 M 395.6 759.7 L 395 759.1 M 395 759.1 L 395 738.6 M 395 738.6 L 395.6 738 M 395.6 738 L 432.8 738 M 432.8 738 L 433.4 738.6 M 690 738.6 L 690 738.6 M 690 738.6 L 690 759.1 M 690 759.1 L 689.4 759.7 M 689.4 759.7 L 652.2 759.7 M 652.2 759.7 L 651.6 759.1 M 651.6 759.1 L 651.6 738.6 M 651.6 738.6 L 652.2 738 M 652.2 738 L 689.4 738 M 689.4 738 L 690 738.6 M 540 738.6 L 540 738.6 M 540 738.6 L 540 759.1 M 540 759.1 L 539.4 759.7 M 539.4 759.7 L 502.2 759.7 M 502.2 759.7 L 501.6 759.1 M 501.6 759.1 L 501.6 738.6 M 501.6 738.6 L 502.2 738 M 502.2 738 L 539.4 738 M 539.4 738 L 540 738.6 M 390 738.6 L 390 738.6 M 390 738.6 L 390 759.1 M 390 759.1 L 389.4 759.7 M 389.4 759.7 L 352.2 759.7 M 352.2 759.7 L 351.6 759.1 M 351.6 759.1 L 351.6 738.6 M 351.6 738.6 L 352.2 738 M 352.2 738 L 389.4 738 M 389.4 738 L 390 738.6 M 192.7 732.6 L 192.7 732.6 M 192.7 732.6 L 192.7 754.4 M 192.7 754.4 L 192.1 755 M 192.1 755 L 109 755 M 109 755 L 108.4 754.4 M 108.4 754.4 L 108.4 732.6 M 108.4 732.6 L 109 732 M 109 732 L 192.1 732 M 192.1 732 L 192.7 732.6 M 733.4 711.9 L 733.4 711.9 M 733.4 711.9 L 733.4 732.4 M 733.4 732.4 L 732.8 733 M 732.8 733 L 695.6 733 M 695.6 733 L 695 732.4 M 695 732.4 L 695 711.9 M 695 711.9 L 695.6 711.3 M 695.6 711.3 L 732.8 711.3 M 732.8 711.3 L 733.4 711.9 M 690 711.9 L 690 711.9 M 690 711.9 L 690 732.4 M 690 732.4 L 689.4 733 M 689.4 733 L 652.2 733 M 652.2 733 L 651.6 732.4 M 651.6 732.4 L 651.6 711.9 M 651.6 711.9 L 652.2 711.3 M 652.2 711.3 L 689.4 711.3 M 689.4 711.3 L 690 711.9 M 583.4 711.9 L 583.4 711.9 M 583.4 711.9 L 583.4 732.4 M 583.4 732.4 L 582.8 733 M 582.8 733 L 545.6 733 M 545.6 733 L 545 732.4 M 545 732.4 L 545 711.9 M 545 711.9 L 545.6 711.3 M 545.6 711.3 L 582.8 711.3 M 582.8 711.3 L 583.4 711.9 M 540 711.9 L 540 711.9 M 540 711.9 L 540 732.4 M 540 732.4 L 539.4 733 M 539.4 733 L 502.2 733 M 502.2 733 L 501.6 732.4 M 501.6 732.4 L 501.6 711.9 M 501.6 711.9 L 502.2 711.3 M 502.2 711.3 L 539.4 711.3 M 539.4 711.3 L 540 711.9 M 433.4 711.9 L 433.4 711.9 M 433.4 711.9 L 433.4 732.4 M 433.4 732.4 L 432.8 733 M 432.8 733 L 395.6 733 M 395.6 733 L 395 732.4 M 395 732.4 L 395 711.9 M 395 711.9 L 395.6 711.3 M 395.6 711.3 L 432.8 711.3 M 432.8 711.3 L 433.4 711.9 M 390 711.9 L 390 711.9 M 390 711.9 L 390 732.4 M 390 732.4 L 389.4 733 M 389.4 733 L 352.2 733 M 352.2 733 L 351.6 732.4 M 351.6 732.4 L 351.6 711.9 M 351.6 711.9 L 352.2 711.3 M 352.2 711.3 L 389.4 711.3 M 389.4 711.3 L 390 711.9 M 192.7 660.6 L 192.7 660.6 M 192.7 660.6 L 192.7 682.4 M 192.7 682.4 L 192.1 683 M 192.1 683 L 109 683 M 109 683 L 108.4 682.4 M 108.4 682.4 L 108.4 660.6 M 108.4 660.6 L 109 660 M 109 660 L 192.1 660 M 192.1 660 L 192.7 660.6 M 192.7 632.6 L 192.7 632.6 M 192.7 632.6 L 192.7 654.4 M 192.7 654.4 L 192.1 655 M 192.1 655 L 109 655 M 109 655 L 108.4 654.4 M 108.4 654.4 L 108.4 632.6 M 108.4 632.6 L 109 632 M 109 632 L 192.1 632 M 192.1 632 L 192.7 632.6 M 733.4 587.6 L 733.4 587.6 M 733.4 587.6 L 733.4 608.1 M 733.4 608.1 L 732.8 608.7 M 732.8 608.7 L 695.6 608.7 M 695.6 608.7 L 695 608.1 M 695 608.1 L 695 587.6 M 695 587.6 L 695.6 587 M 695.6 587 L 732.8 587 M 732.8 587 L 733.4 587.6 M 583.4 587.6 L 583.4 587.6 M 583.4 587.6 L 583.4 608.1 M 583.4 608.1 L 582.8 608.7 M 582.8 608.7 L 545.6 608.7 M 545.6 608.7 L 545 608.1 M 545 608.1 L 545 587.6 M 545 587.6 L 545.6 587 M 545.6 587 L 582.8 587 M 582.8 587 L 583.4 587.6 M 433.4 587.6 L 433.4 587.6 M 433.4 587.6 L 433.4 608.1 M 433.4 608.1 L 432.8 608.7 M 432.8 608.7 L 395.6 608.7 M 395.6 608.7 L 395 608.1 M 395 608.1 L 395 587.6 M 395 587.6 L 395.6 587 M 395.6 587 L 432.8 587 M 432.8 587 L 433.4 587.6 M 690 587.6 L 690 587.6 M 690 587.6 L 690 608.1 M 690 608.1 L 689.4 608.7 M 689.4 608.7 L 652.2 608.7 M 652.2 608.7 L 651.6 608.1 M 651.6 608.1 L 651.6 587.6 M 651.6 587.6 L 652.2 587 M 652.2 587 L 689.4 587 M 689.4 587 L 690 587.6 M 540 587.6 L 540 587.6 M 540 587.6 L 540 608.1 M 540 608.1 L 539.4 608.7 M 539.4 608.7 L 502.2 608.7 M 502.2 608.7 L 501.6 608.1 M 501.6 608.1 L 501.6 587.6 M 501.6 587.6 L 502.2 587 M 502.2 587 L 539.4 587 M 539.4 587 L 540 587.6 M 390 587.6 L 390 587.6 M 390 587.6 L 390 608.1 M 390 608.1 L 389.4 608.7 M 389.4 608.7 L 352.2 608.7 M 352.2 608.7 L 351.6 608.1 M 351.6 608.1 L 351.6 587.6 M 351.6 587.6 L 352.2 587 M 352.2 587 L 389.4 587 M 389.4 587 L 390 587.6 M 733.4 560.9 L 733.4 560.9 M 733.4 560.9 L 733.4 581.4 M 733.4 581.4 L 732.8 582 M 732.8 582 L 695.6 582 M 695.6 582 L 695 581.4 M 695 581.4 L 695 560.9 M 695 560.9 L 695.6 560.3 M 695.6 560.3 L 732.8 560.3 M 732.8 560.3 L 733.4 560.9 M 690 560.9 L 690 560.9 M 690 560.9 L 690 581.4 M 690 581.4 L 689.4 582 M 689.4 582 L 652.2 582 M 652.2 582 L 651.6 581.4 M 651.6 581.4 L 651.6 560.9 M 651.6 560.9 L 652.2 560.3 M 652.2 560.3 L 689.4 560.3 M 689.4 560.3 L 690 560.9 M 583.4 560.9 L 583.4 560.9 M 583.4 560.9 L 583.4 581.4 M 583.4 581.4 L 582.8 582 M 582.8 582 L 545.6 582 M 545.6 582 L 545 581.4 M 545 581.4 L 545 560.9 M 545 560.9 L 545.6 560.3 M 545.6 560.3 L 582.8 560.3 M 582.8 560.3 L 583.4 560.9 M 540 560.9 L 540 560.9 M 540 560.9 L 540 581.4 M 540 581.4 L 539.4 582 M 539.4 582 L 502.2 582 M 502.2 582 L 501.6 581.4 M 501.6 581.4 L 501.6 560.9 M 501.6 560.9 L 502.2 560.3 M 502.2 560.3 L 539.4 560.3 M 539.4 560.3 L 540 560.9 M 433.4 560.9 L 433.4 560.9 M 433.4 560.9 L 433.4 581.4 M 433.4 581.4 L 432.8 582 M 432.8 582 L 395.6 582 M 395.6 582 L 395 581.4 M 395 581.4 L 395 560.9 M 395 560.9 L 395.6 560.3 M 395.6 560.3 L 432.8 560.3 M 432.8 560.3 L 433.4 560.9 M 390 560.9 L 390 560.9 M 390 560.9 L 390 581.4 M 390 581.4 L 389.4 582 M 389.4 582 L 352.2 582 M 352.2 582 L 351.6 581.4 M 351.6 581.4 L 351.6 560.9 M 351.6 560.9 L 352.2 560.3 M 352.2 560.3 L 389.4 560.3 M 389.4 560.3 L 390 560.9 M 192.7 560.6 L 192.7 560.6 M 192.7 560.6 L 192.7 582.4 M 192.7 582.4 L 192.1 583 M 192.1 583 L 109 583 M 109 583 L 108.4 582.4 M 108.4 582.4 L 108.4 560.6 M 108.4 560.6 L 109 560 M 109 560 L 192.1 560 M 192.1 560 L 192.7 560.6 M 192.7 532.6 L 192.7 532.6 M 192.7 532.6 L 192.7 554.4 M 192.7 554.4 L 192.1 555 M 192.1 555 L 109 555 M 109 555 L 108.4 554.4 M 108.4 554.4 L 108.4 532.6 M 108.4 532.6 L 109 532 M 109 532 L 192.1 532 M 192.1 532 L 192.7 532.6 M 733.4 238.6 L 733.4 238.6 M 733.4 238.6 L 733.4 259.1 M 733.4 259.1 L 732.8 259.7 M 732.8 259.7 L 695.6 259.7 M 695.6 259.7 L 695 259.1 M 695 259.1 L 695 238.6 M 695 238.6 L 695.6 238 M 695.6 238 L 732.8 238 M 732.8 238 L 733.4 238.6 M 583.4 238.6 L 583.4 238.6 M 583.4 238.6 L 583.4 259.1 M 583.4 259.1 L 582.8 259.7 M 582.8 259.7 L 545.6 259.7 M 545.6 259.7 L 545 259.1 M 545 259.1 L 545 238.6 M 545 238.6 L 545.6 238 M 545.6 238 L 582.8 238 M 582.8 238 L 583.4 238.6 M 433.4 238.6 L 433.4 238.6 M 433.4 238.6 L 433.4 259.1 M 433.4 259.1 L 432.8 259.7 M 432.8 259.7 L 395.6 259.7 M 395.6 259.7 L 395 259.1 M 395 259.1 L 395 238.6 M 395 238.6 L 395.6 238 M 395.6 238 L 432.8 238 M 432.8 238 L 433.4 238.6 M 690 238.6 L 690 238.6 M 690 238.6 L 690 259.1 M 690 259.1 L 689.4 259.7 M 689.4 259.7 L 652.2 259.7 M 652.2 259.7 L 651.6 259.1 M 651.6 259.1 L 651.6 238.6 M 651.6 238.6 L 652.2 238 M 652.2 238 L 689.4 238 M 689.4 238 L 690 238.6 M 390 238.6 L 390 238.6 M 390 238.6 L 390 259.1 M 390 259.1 L 389.4 259.7 M 389.4 259.7 L 352.2 259.7 M 352.2 259.7 L 351.6 259.1 M 351.6 259.1 L 351.6 238.6 M 351.6 238.6 L 352.2 238 M 352.2 238 L 389.4 238 M 389.4 238 L 390 238.6 M 540 238.6 L 540 238.6 M 540 238.6 L 540 259.1 M 540 259.1 L 539.4 259.7 M 539.4 259.7 L 502.2 259.7 M 502.2 259.7 L 501.6 259.1 M 501.6 259.1 L 501.6 238.6 M 501.6 238.6 L 502.2 238 M 502.2 238 L 539.4 238 M 539.4 238 L 540 238.6 M 733.4 211.9 L 733.4 211.9 M 733.4 211.9 L 733.4 232.4 M 733.4 232.4 L 732.8 233 M 732.8 233 L 695.6 233 M 695.6 233 L 695 232.4 M 695 232.4 L 695 211.9 M 695 211.9 L 695.6 211.3 M 695.6 211.3 L 732.8 211.3 M 732.8 211.3 L 733.4 211.9 M 690 211.9 L 690 211.9 M 690 211.9 L 690 232.4 M 690 232.4 L 689.4 233 M 689.4 233 L 652.2 233 M 652.2 233 L 651.6 232.4 M 651.6 232.4 L 651.6 211.9 M 651.6 211.9 L 652.2 211.3 M 652.2 211.3 L 689.4 211.3 M 689.4 211.3 L 690 211.9 M 583.4 211.9 L 583.4 211.9 M 583.4 211.9 L 583.4 232.4 M 583.4 232.4 L 582.8 233 M 582.8 233 L 545.6 233 M 545.6 233 L 545 232.4 M 545 232.4 L 545 211.9 M 545 211.9 L 545.6 211.3 M 545.6 211.3 L 582.8 211.3 M 582.8 211.3 L 583.4 211.9 M 540 211.9 L 540 211.9 M 540 211.9 L 540 232.4 M 540 232.4 L 539.4 233 M 539.4 233 L 502.2 233 M 502.2 233 L 501.6 232.4 M 501.6 232.4 L 501.6 211.9 M 501.6 211.9 L 502.2 211.3 M 502.2 211.3 L 539.4 211.3 M 539.4 211.3 L 540 211.9 M 433.4 211.9 L 433.4 211.9 M 433.4 211.9 L 433.4 232.4 M 433.4 232.4 L 432.8 233 M 432.8 233 L 395.6 233 M 395.6 233 L 395 232.4 M 395 232.4 L 395 211.9 M 395 211.9 L 395.6 211.3 M 395.6 211.3 L 432.8 211.3 M 432.8 211.3 L 433.4 211.9 M 390 211.9 L 390 211.9 M 390 211.9 L 390 232.4 M 390 232.4 L 389.4 233 M 389.4 233 L 352.2 233 M 352.2 233 L 351.6 232.4 M 351.6 232.4 L 351.6 211.9 M 351.6 211.9 L 352.2 211.3 M 352.2 211.3 L 389.4 211.3 M 389.4 211.3 L 390 211.9 M 24.2 25.2 L 890.8 25.2 M 24.2 27.1 L 890.8 27.1 M 24.2 29.1 L 890.8 29.1 M 24.2 31 L 890.8 31 M 24.2 33 L 890.8 33 M 24.2 34.9 L 890.8 34.9 M 24.2 36.9 L 890.8 36.9 M 24.2 38.8 L 890.8 38.8 M 24.2 40.8 L 890.8 40.8 M 24.2 42.7 L 890.8 42.7 M 24.2 44.7 L 890.8 44.7 M 24.2 46.6 L 890.8 46.6 M 24.2 48.6 L 890.8 48.6 M 24.2 50.5 L 890.8 50.5 M 24.2 52.5 L 890.8 52.5 M 24.2 54.4 L 890.8 54.4 M 24.2 56.4 L 890.8 56.4 M 24.2 58.4 L 890.8 58.4 M 24.2 60.3 L 890.8 60.3 M 24.2 62.3 L 890.8 62.3 M 24.2 64.2 L 890.8 64.2 M 24.2 66.2 L 890.8 66.2 M 24.2 68.1 L 890.8 68.1 M 24.2 70.1 L 890.8 70.1 M 24.2 72 L 890.8 72 M 24.2 74 L 890.8 74 M 24.2 75.9 L 890.8 75.9 M 24.2 77.9 L 890.8 77.9 M 24.2 79.8 L 890.8 79.8 M 24.2 81.8 L 890.8 81.8 M 24.2 83.7 L 890.8 83.7 M 24.2 85.6 L 890.8 85.6 M 24.2 87.6 L 890.8 87.6 M 24.2 89.5 L 890.8 89.5 M 24.2 91.5 L 890.8 91.5 M 24.2 93.4 L 890.8 93.4 M 24.2 95.4 L 890.8 95.4 M 24.2 97.3 L 890.8 97.3 M 24.2 99.3 L 890.8 99.3 M 24.2 101.2 L 890.8 101.2 M 24.2 103.2 L 890.8 103.2 M 24.2 105.1 L 890.8 105.1 M 24.2 107.1 L 890.8 107.1 M 24.2 109 L 890.8 109 M 24.2 111 L 890.8 111 M 24.2 112.9 L 890.8 112.9 M 24.2 114.9 L 890.8 114.9 M 24.2 116.8 L 890.8 116.8 M 24.2 118.8 L 890.8 118.8 M 24.2 120.7 L 890.8 120.7 M 24.2 122.7 L 890.8 122.7 M 24.2 124.7 L 890.8 124.7 M 24.2 126.6 L 890.8 126.6 M 24.2 128.6 L 890.8 128.6 M 24.2 130.5 L 890.8 130.5 M 192.5 132.5 L 890.8 132.5 M 192.7 134.4 L 890.8 134.4 M 192.7 136.4 L 890.8 136.4 M 192.7 138.3 L 890.8 138.3 M 192.7 140.3 L 890.8 140.3 M 192.7 142.2 L 890.8 142.2 M 192.7 144.2 L 890.8 144.2 M 192.7 146.1 L 890.8 146.1 M 192.7 148.1 L 890.8 148.1 M 192.7 150 L 890.8 150 M 192.7 151.9 L 890.8 151.9 M 192.7 153.9 L 890.8 153.9 M 192.7 155.8 L 890.8 155.8 M 192.7 157.8 L 890.8 157.8 M 192.7 159.7 L 890.8 159.7 M 192.7 161.7 L 890.8 161.7 M 192.7 163.6 L 890.8 163.6 M 192.7 165.6 L 890.8 165.6 M 192.7 167.5 L 890.8 167.5 M 192.7 169.5 L 890.8 169.5 M 192.7 171.4 L 890.8 171.4 M 192.7 173.4 L 890.8 173.4 M 192.7 175.3 L 890.8 175.3 M 192.7 177.3 L 890.8 177.3 M 192.7 179.2 L 890.8 179.2 M 192.7 181.2 L 890.8 181.2 M 24.2 183.1 L 890.8 183.1 M 24.2 185.1 L 890.8 185.1 M 24.2 187.1 L 890.8 187.1 M 24.2 189 L 890.8 189 M 24.2 191 L 890.8 191 M 24.2 192.9 L 890.8 192.9 M 24.2 194.9 L 890.8 194.9 M 24.2 196.8 L 890.8 196.8 M 24.2 198.8 L 890.8 198.8 M 24.2 200.7 L 890.8 200.7 M 24.2 202.7 L 890.8 202.7 M 24.2 204.6 L 890.8 204.6 M 24.2 206.6 L 890.8 206.6 M 24.2 208.5 L 890.8 208.5 M 24.2 210.5 L 890.8 210.5 M 24.2 212.4 L 351.6 212.4 M 390 212.4 L 395 212.4 M 433.4 212.4 L 501.6 212.4 M 540 212.4 L 545 212.4 M 583.4 212.4 L 651.6 212.4 M 690 212.4 L 695 212.4 M 733.4 212.4 L 890.8 212.4 M 24.2 214.4 L 351.6 214.4 M 390 214.4 L 395 214.4 M 433.4 214.4 L 501.6 214.4 M 540 214.4 L 545 214.4 M 583.4 214.4 L 651.6 214.4 M 690 214.4 L 695 214.4 M 733.4 214.4 L 890.8 214.4 M 24.2 216.3 L 351.6 216.3 M 390 216.3 L 395 216.3 M 433.4 216.3 L 501.6 216.3 M 540 216.3 L 545 216.3 M 583.4 216.3 L 651.6 216.3 M 690 216.3 L 695 216.3 M 733.4 216.3 L 890.8 216.3 M 24.2 218.2 L 351.6 218.2 M 390 218.2 L 395 218.2 M 433.4 218.2 L 501.6 218.2 M 540 218.2 L 545 218.2 M 583.4 218.2 L 651.6 218.2 M 690 218.2 L 695 218.2 M 733.4 218.2 L 890.8 218.2 M 24.2 220.2 L 351.6 220.2 M 390 220.2 L 395 220.2 M 433.4 220.2 L 501.6 220.2 M 540 220.2 L 545 220.2 M 583.4 220.2 L 651.6 220.2 M 690 220.2 L 695 220.2 M 733.4 220.2 L 890.8 220.2 M 24.2 222.1 L 351.6 222.1 M 390 222.1 L 395 222.1 M 433.4 222.1 L 501.6 222.1 M 540 222.1 L 545 222.1 M 583.4 222.1 L 651.6 222.1 M 690 222.1 L 695 222.1 M 733.4 222.1 L 890.8 222.1 M 24.2 224.1 L 351.6 224.1 M 390 224.1 L 395 224.1 M 433.4 224.1 L 501.6 224.1 M 540 224.1 L 545 224.1 M 583.4 224.1 L 651.6 224.1 M 690 224.1 L 695 224.1 M 733.4 224.1 L 890.8 224.1 M 24.2 226 L 351.6 226 M 390 226 L 395 226 M 433.4 226 L 501.6 226 M 540 226 L 545 226 M 583.4 226 L 651.6 226 M 690 226 L 695 226 M 733.4 226 L 890.8 226 M 24.2 228 L 351.6 228 M 390 228 L 395 228 M 433.4 228 L 501.6 228 M 540 228 L 545 228 M 583.4 228 L 651.6 228 M 690 228 L 695 228 M 733.4 228 L 890.8 228 M 24.2 229.9 L 351.6 229.9 M 390 229.9 L 395 229.9 M 433.4 229.9 L 501.6 229.9 M 540 229.9 L 545 229.9 M 583.4 229.9 L 651.6 229.9 M 690 229.9 L 695 229.9 M 733.4 229.9 L 890.8 229.9 M 24.2 231.9 L 351.6 231.9 M 390 231.9 L 395 231.9 M 433.4 231.9 L 501.6 231.9 M 540 231.9 L 545 231.9 M 583.4 231.9 L 651.6 231.9 M 690 231.9 L 695 231.9 M 733.4 231.9 L 890.8 231.9 M 192.7 233.8 L 890.8 233.8 M 192.7 235.8 L 890.8 235.8 M 192.7 237.7 L 890.8 237.7 M 192.7 239.7 L 351.6 239.7 M 390 239.7 L 395 239.7 M 433.4 239.7 L 501.6 239.7 M 540 239.7 L 545 239.7 M 583.4 239.7 L 651.6 239.7 M 690 239.7 L 695 239.7 M 733.4 239.7 L 890.8 239.7 M 192.7 241.6 L 351.6 241.6 M 390 241.6 L 395 241.6 M 433.4 241.6 L 501.6 241.6 M 540 241.6 L 545 241.6 M 583.4 241.6 L 651.6 241.6 M 690 241.6 L 695 241.6 M 733.4 241.6 L 890.8 241.6 M 192.7 243.6 L 351.6 243.6 M 390 243.6 L 395 243.6 M 433.4 243.6 L 501.6 243.6 M 540 243.6 L 545 243.6 M 583.4 243.6 L 651.6 243.6 M 690 243.6 L 695 243.6 M 733.4 243.6 L 890.8 243.6 M 192.7 245.5 L 351.6 245.5 M 390 245.5 L 395 245.5 M 433.4 245.5 L 501.6 245.5 M 540 245.5 L 545 245.5 M 583.4 245.5 L 651.6 245.5 M 690 245.5 L 695 245.5 M 733.4 245.5 L 890.8 245.5 M 192.7 247.5 L 351.6 247.5 M 390 247.5 L 395 247.5 M 433.4 247.5 L 501.6 247.5 M 540 247.5 L 545 247.5 M 583.4 247.5 L 651.6 247.5 M 690 247.5 L 695 247.5 M 733.4 247.5 L 890.8 247.5 M 192.7 249.4 L 351.6 249.4 M 390 249.4 L 395 249.4 M 433.4 249.4 L 501.6 249.4 M 540 249.4 L 545 249.4 M 583.4 249.4 L 651.6 249.4 M 690 249.4 L 695 249.4 M 733.4 249.4 L 890.8 249.4 M 192.7 251.4 L 351.6 251.4 M 390 251.4 L 395 251.4 M 433.4 251.4 L 501.6 251.4 M 540 251.4 L 545 251.4 M 583.4 251.4 L 651.6 251.4 M 690 251.4 L 695 251.4 M 733.4 251.4 L 890.8 251.4 M 192.7 253.4 L 351.6 253.4 M 390 253.4 L 395 253.4 M 433.4 253.4 L 501.6 253.4 M 540 253.4 L 545 253.4 M 583.4 253.4 L 651.6 253.4 M 690 253.4 L 695 253.4 M 733.4 253.4 L 890.8 253.4 M 192.7 255.3 L 351.6 255.3 M 390 255.3 L 395 255.3 M 433.4 255.3 L 501.6 255.3 M 540 255.3 L 545 255.3 M 583.4 255.3 L 651.6 255.3 M 690 255.3 L 695 255.3 M 733.4 255.3 L 890.8 255.3 M 192.7 257.3 L 351.6 257.3 M 390 257.3 L 395 257.3 M 433.4 257.3 L 501.6 257.3 M 540 257.3 L 545 257.3 M 583.4 257.3 L 651.6 257.3 M 690 257.3 L 695 257.3 M 733.4 257.3 L 890.8 257.3 M 192.7 259.2 L 351.8 259.2 M 389.9 259.2 L 395.1 259.2 M 433.2 259.2 L 501.8 259.2 M 539.9 259.2 L 545.1 259.2 M 583.2 259.2 L 651.8 259.2 M 689.9 259.2 L 695.1 259.2 M 733.2 259.2 L 890.8 259.2 M 192.7 261.2 L 890.8 261.2 M 192.7 263.1 L 890.8 263.1 M 192.7 265.1 L 890.8 265.1 M 192.7 267 L 890.8 267 M 192.7 269 L 890.8 269 M 192.7 270.9 L 890.8 270.9 M 192.7 272.9 L 890.8 272.9 M 192.7 274.8 L 890.8 274.8 M 192.7 276.8 L 890.8 276.8 M 192.7 278.7 L 890.8 278.7 M 192.7 280.6 L 890.8 280.6 M 192.5 282.6 L 890.8 282.6 M 24.2 284.5 L 890.8 284.5 M 24.2 286.5 L 890.8 286.5 M 24.2 288.4 L 890.8 288.4 M 24.2 290.4 L 890.8 290.4 M 24.2 292.3 L 890.8 292.3 M 24.2 294.3 L 890.8 294.3 M 24.2 296.2 L 890.8 296.2 M 24.2 298.2 L 890.8 298.2 M 24.2 300.1 L 890.8 300.1 M 24.2 302.1 L 890.8 302.1 M 24.2 304 L 890.8 304 M 24.2 306 L 890.8 306 M 24.2 307.9 L 890.8 307.9 M 24.2 309.9 L 890.8 309.9 M 24.2 311.8 L 890.8 311.8 M 24.2 313.8 L 890.8 313.8 M 24.2 315.7 L 890.8 315.7 M 24.2 317.7 L 890.8 317.7 M 24.2 319.7 L 890.8 319.7 M 24.2 321.6 L 890.8 321.6 M 24.2 323.6 L 890.8 323.6 M 24.2 325.5 L 890.8 325.5 M 24.2 327.5 L 890.8 327.5 M 24.2 329.4 L 99.5 329.4 M 115.5 329.4 L 890.8 329.4 M 24.2 331.4 L 94.9 331.4 M 120.1 331.4 L 890.8 331.4 M 192.7 333.3 L 890.8 333.3 M 698.9 335.3 L 890.8 335.3 M 733.4 337.2 L 890.8 337.2 M 733.4 339.2 L 890.8 339.2 M 733.4 341.1 L 890.8 341.1 M 733.4 343.1 L 890.8 343.1 M 733.4 345 L 890.8 345 M 733.4 346.9 L 890.8 346.9 M 733.4 348.9 L 890.8 348.9 M 733.4 350.8 L 890.8 350.8 M 733.4 352.8 L 890.8 352.8 M 733.4 354.7 L 890.8 354.7 M 733.4 356.7 L 890.8 356.7 M 733.4 358.6 L 890.8 358.6 M 733.4 360.6 L 890.8 360.6 M 733.4 362.5 L 890.8 362.5 M 733.4 364.5 L 890.8 364.5 M 733.4 366.4 L 890.8 366.4 M 733.4 368.4 L 890.8 368.4 M 733.4 370.3 L 890.8 370.3 M 733.4 372.3 L 890.8 372.3 M 733.4 374.2 L 890.8 374.2 M 733.4 376.2 L 890.8 376.2 M 733.4 378.1 L 890.8 378.1 M 733.4 380.1 L 890.8 380.1 M 192.7 382.1 L 351.6 382.1 M 433.4 382.1 L 501.6 382.1 M 583.4 382.1 L 651.6 382.1 M 733.4 382.1 L 890.8 382.1 M 24.2 384 L 95.7 384 M 119.3 384 L 890.8 384 M 24.2 386 L 101.4 386 M 113.6 386 L 890.8 386 M 24.2 387.9 L 890.8 387.9 M 24.2 389.9 L 890.8 389.9 M 24.2 391.8 L 890.8 391.8 M 24.2 393.8 L 890.8 393.8 M 24.2 395.7 L 890.8 395.7 M 24.2 397.7 L 890.8 397.7 M 24.2 399.6 L 890.8 399.6 M 24.2 401.6 L 890.8 401.6 M 24.2 403.5 L 890.8 403.5 M 24.2 405.5 L 890.8 405.5 M 24.2 407.4 L 890.8 407.4 M 24.2 409.4 L 890.8 409.4 M 24.2 411.3 L 890.8 411.3 M 24.2 413.2 L 890.8 413.2 M 24.2 415.2 L 890.8 415.2 M 24.2 417.1 L 890.8 417.1 M 24.2 419.1 L 890.8 419.1 M 24.2 421 L 890.8 421 M 24.2 423 L 890.8 423 M 24.2 424.9 L 890.8 424.9 M 24.2 426.9 L 890.8 426.9 M 24.2 428.8 L 890.8 428.8 M 24.2 430.8 L 98.6 430.8 M 116.4 430.8 L 890.8 430.8 M 192.7 432.7 L 890.8 432.7 M 192.7 434.7 L 890.8 434.7 M 733.1 436.6 L 890.8 436.6 M 733.4 438.6 L 890.8 438.6 M 733.4 440.5 L 890.8 440.5 M 733.4 442.5 L 890.8 442.5 M 733.4 444.4 L 890.8 444.4 M 733.4 446.4 L 890.8 446.4 M 733.4 448.4 L 890.8 448.4 M 733.4 450.3 L 890.8 450.3 M 733.4 452.3 L 890.8 452.3 M 733.4 454.2 L 890.8 454.2 M 733.4 456.2 L 890.8 456.2 M 733.4 458.1 L 890.8 458.1 M 733.4 460.1 L 890.8 460.1 M 733.4 462 L 890.8 462 M 733.4 464 L 890.8 464 M 733.4 465.9 L 890.8 465.9 M 733.4 467.9 L 890.8 467.9 M 733.4 469.8 L 890.8 469.8 M 733.4 471.8 L 890.8 471.8 M 733.4 473.7 L 890.8 473.7 M 733.4 475.6 L 890.8 475.6 M 733.4 477.6 L 890.8 477.6 M 733.4 479.5 L 890.8 479.5 M 733.4 481.5 L 890.8 481.5 M 24.2 483.4 L 92.4 483.4 M 122.6 483.4 L 351.6 483.4 M 433.4 483.4 L 501.6 483.4 M 583.4 483.4 L 651.6 483.4 M 733.4 483.4 L 890.8 483.4 M 24.2 485.4 L 96.7 485.4 M 118.3 485.4 L 890.8 485.4 M 24.2 487.3 L 104.4 487.3 M 110.6 487.3 L 890.8 487.3 M 24.2 489.3 L 890.8 489.3 M 24.2 491.2 L 890.8 491.2 M 24.2 493.2 L 890.8 493.2 M 24.2 495.1 L 890.8 495.1 M 24.2 497.1 L 890.8 497.1 M 24.2 499 L 890.8 499 M 24.2 501 L 890.8 501 M 24.2 502.9 L 890.8 502.9 M 24.2 504.9 L 890.8 504.9 M 24.2 506.8 L 890.8 506.8 M 24.2 508.8 L 890.8 508.8 M 24.2 510.7 L 890.8 510.7 M 24.2 512.7 L 890.8 512.7 M 24.2 514.7 L 890.8 514.7 M 24.2 516.6 L 890.8 516.6 M 24.2 518.6 L 890.8 518.6 M 24.2 520.5 L 890.8 520.5 M 24.2 522.5 L 890.8 522.5 M 24.2 524.4 L 890.8 524.4 M 24.2 526.4 L 890.8 526.4 M 24.2 528.3 L 890.8 528.3 M 24.2 530.3 L 890.8 530.3 M 103.1 532.2 L 108.8 532.2 M 192.3 532.2 L 890.8 532.2 M 103.4 534.2 L 108.4 534.2 M 192.7 534.2 L 890.8 534.2 M 103.4 536.1 L 108.4 536.1 M 192.7 536.1 L 890.8 536.1 M 103.4 538.1 L 108.4 538.1 M 192.7 538.1 L 890.8 538.1 M 103.4 540 L 108.4 540 M 192.7 540 L 890.8 540 M 103.4 541.9 L 108.4 541.9 M 192.7 541.9 L 890.8 541.9 M 103.4 543.9 L 108.4 543.9 M 192.7 543.9 L 890.8 543.9 M 103.4 545.8 L 108.4 545.8 M 192.7 545.8 L 890.8 545.8 M 103.4 547.8 L 108.4 547.8 M 192.7 547.8 L 890.8 547.8 M 103.4 549.7 L 108.4 549.7 M 192.7 549.7 L 890.8 549.7 M 103.4 551.7 L 108.4 551.7 M 192.7 551.7 L 890.8 551.7 M 103.4 553.6 L 108.4 553.6 M 192.7 553.6 L 890.8 553.6 M 103.4 555.6 L 890.8 555.6 M 103.4 557.5 L 890.8 557.5 M 103.4 559.5 L 890.8 559.5 M 103.4 561.4 L 108.4 561.4 M 192.7 561.4 L 351.6 561.4 M 390 561.4 L 395 561.4 M 433.4 561.4 L 501.6 561.4 M 540 561.4 L 545 561.4 M 583.4 561.4 L 651.6 561.4 M 690 561.4 L 695 561.4 M 733.4 561.4 L 890.8 561.4 M 103.4 563.4 L 108.4 563.4 M 192.7 563.4 L 351.6 563.4 M 390 563.4 L 395 563.4 M 433.4 563.4 L 501.6 563.4 M 540 563.4 L 545 563.4 M 583.4 563.4 L 651.6 563.4 M 690 563.4 L 695 563.4 M 733.4 563.4 L 890.8 563.4 M 103.4 565.3 L 108.4 565.3 M 192.7 565.3 L 351.6 565.3 M 390 565.3 L 395 565.3 M 433.4 565.3 L 501.6 565.3 M 540 565.3 L 545 565.3 M 583.4 565.3 L 651.6 565.3 M 690 565.3 L 695 565.3 M 733.4 565.3 L 890.8 565.3 M 103.4 567.3 L 108.4 567.3 M 192.7 567.3 L 351.6 567.3 M 390 567.3 L 395 567.3 M 433.4 567.3 L 501.6 567.3 M 540 567.3 L 545 567.3 M 583.4 567.3 L 651.6 567.3 M 690 567.3 L 695 567.3 M 733.4 567.3 L 890.8 567.3 M 103.4 569.2 L 108.4 569.2 M 192.7 569.2 L 351.6 569.2 M 390 569.2 L 395 569.2 M 433.4 569.2 L 501.6 569.2 M 540 569.2 L 545 569.2 M 583.4 569.2 L 651.6 569.2 M 690 569.2 L 695 569.2 M 733.4 569.2 L 890.8 569.2 M 103.4 571.2 L 108.4 571.2 M 192.7 571.2 L 351.6 571.2 M 390 571.2 L 395 571.2 M 433.4 571.2 L 501.6 571.2 M 540 571.2 L 545 571.2 M 583.4 571.2 L 651.6 571.2 M 690 571.2 L 695 571.2 M 733.4 571.2 L 890.8 571.2 M 103.4 573.1 L 108.4 573.1 M 192.7 573.1 L 351.6 573.1 M 390 573.1 L 395 573.1 M 433.4 573.1 L 501.6 573.1 M 540 573.1 L 545 573.1 M 583.4 573.1 L 651.6 573.1 M 690 573.1 L 695 573.1 M 733.4 573.1 L 890.8 573.1 M 103.4 575.1 L 108.4 575.1 M 192.7 575.1 L 351.6 575.1 M 390 575.1 L 395 575.1 M 433.4 575.1 L 501.6 575.1 M 540 575.1 L 545 575.1 M 583.4 575.1 L 651.6 575.1 M 690 575.1 L 695 575.1 M 733.4 575.1 L 890.8 575.1 M 103.4 577.1 L 108.4 577.1 M 192.7 577.1 L 351.6 577.1 M 390 577.1 L 395 577.1 M 433.4 577.1 L 501.6 577.1 M 540 577.1 L 545 577.1 M 583.4 577.1 L 651.6 577.1 M 690 577.1 L 695 577.1 M 733.4 577.1 L 890.8 577.1 M 103.4 579 L 108.4 579 M 192.7 579 L 351.6 579 M 390 579 L 395 579 M 433.4 579 L 501.6 579 M 540 579 L 545 579 M 583.4 579 L 651.6 579 M 690 579 L 695 579 M 733.4 579 L 890.8 579 M 103.4 581 L 108.4 581 M 192.7 581 L 351.6 581 M 390 581 L 395 581 M 433.4 581 L 501.6 581 M 540 581 L 545 581 M 583.4 581 L 651.6 581 M 690 581 L 695 581 M 733.4 581 L 890.8 581 M 103 582.9 L 108.9 582.9 M 192.2 582.9 L 890.8 582.9 M 24.2 584.9 L 890.8 584.9 M 24.2 586.8 L 890.8 586.8 M 24.2 588.8 L 351.6 588.8 M 390 588.8 L 395 588.8 M 433.4 588.8 L 501.6 588.8 M 540 588.8 L 545 588.8 M 583.4 588.8 L 651.6 588.8 M 690 588.8 L 695 588.8 M 733.4 588.8 L 890.8 588.8 M 24.2 590.7 L 351.6 590.7 M 390 590.7 L 395 590.7 M 433.4 590.7 L 501.6 590.7 M 540 590.7 L 545 590.7 M 583.4 590.7 L 651.6 590.7 M 690 590.7 L 695 590.7 M 733.4 590.7 L 890.8 590.7 M 24.2 592.7 L 351.6 592.7 M 390 592.7 L 395 592.7 M 433.4 592.7 L 501.6 592.7 M 540 592.7 L 545 592.7 M 583.4 592.7 L 651.6 592.7 M 690 592.7 L 695 592.7 M 733.4 592.7 L 890.8 592.7 M 24.2 594.6 L 351.6 594.6 M 390 594.6 L 395 594.6 M 433.4 594.6 L 501.6 594.6 M 540 594.6 L 545 594.6 M 583.4 594.6 L 651.6 594.6 M 690 594.6 L 695 594.6 M 733.4 594.6 L 890.8 594.6 M 24.2 596.6 L 351.6 596.6 M 390 596.6 L 395 596.6 M 433.4 596.6 L 501.6 596.6 M 540 596.6 L 545 596.6 M 583.4 596.6 L 651.6 596.6 M 690 596.6 L 695 596.6 M 733.4 596.6 L 890.8 596.6 M 24.2 598.5 L 351.6 598.5 M 390 598.5 L 395 598.5 M 433.4 598.5 L 501.6 598.5 M 540 598.5 L 545 598.5 M 583.4 598.5 L 651.6 598.5 M 690 598.5 L 695 598.5 M 733.4 598.5 L 890.8 598.5 M 24.2 600.5 L 351.6 600.5 M 390 600.5 L 395 600.5 M 433.4 600.5 L 501.6 600.5 M 540 600.5 L 545 600.5 M 583.4 600.5 L 651.6 600.5 M 690 600.5 L 695 600.5 M 733.4 600.5 L 890.8 600.5 M 24.2 602.4 L 351.6 602.4 M 390 602.4 L 395 602.4 M 433.4 602.4 L 501.6 602.4 M 540 602.4 L 545 602.4 M 583.4 602.4 L 651.6 602.4 M 690 602.4 L 695 602.4 M 733.4 602.4 L 890.8 602.4 M 24.2 604.4 L 351.6 604.4 M 390 604.4 L 395 604.4 M 433.4 604.4 L 501.6 604.4 M 540 604.4 L 545 604.4 M 583.4 604.4 L 651.6 604.4 M 690 604.4 L 695 604.4 M 733.4 604.4 L 890.8 604.4 M 24.2 606.3 L 351.6 606.3 M 390 606.3 L 395 606.3 M 433.4 606.3 L 501.6 606.3 M 540 606.3 L 545 606.3 M 583.4 606.3 L 651.6 606.3 M 690 606.3 L 695 606.3 M 733.4 606.3 L 890.8 606.3 M 24.2 608.2 L 351.8 608.2 M 389.8 608.2 L 395.2 608.2 M 433.2 608.2 L 501.8 608.2 M 539.8 608.2 L 545.2 608.2 M 583.2 608.2 L 651.8 608.2 M 689.8 608.2 L 695.2 608.2 M 733.2 608.2 L 890.8 608.2 M 24.2 610.2 L 890.8 610.2 M 24.2 612.1 L 890.8 612.1 M 24.2 614.1 L 890.8 614.1 M 24.2 616 L 890.8 616 M 24.2 618 L 890.8 618 M 24.2 619.9 L 890.8 619.9 M 24.2 621.9 L 890.8 621.9 M 24.2 623.8 L 890.8 623.8 M 24.2 625.8 L 890.8 625.8 M 24.2 627.7 L 890.8 627.7 M 24.2 629.7 L 890.8 629.7 M 24.2 631.6 L 890.8 631.6 M 103.4 633.6 L 108.4 633.6 M 192.7 633.6 L 890.8 633.6 M 103.4 635.5 L 108.4 635.5 M 192.7 635.5 L 890.8 635.5 M 103.4 637.5 L 108.4 637.5 M 192.7 637.5 L 890.8 637.5 M 103.4 639.4 L 108.4 639.4 M 192.7 639.4 L 890.8 639.4 M 103.4 641.4 L 108.4 641.4 M 192.7 641.4 L 890.8 641.4 M 103.4 643.4 L 108.4 643.4 M 192.7 643.4 L 890.8 643.4 M 103.4 645.3 L 108.4 645.3 M 192.7 645.3 L 890.8 645.3 M 103.4 647.3 L 108.4 647.3 M 192.7 647.3 L 890.8 647.3 M 103.4 649.2 L 108.4 649.2 M 192.7 649.2 L 890.8 649.2 M 103.4 651.2 L 108.4 651.2 M 192.7 651.2 L 890.8 651.2 M 103.4 653.1 L 108.4 653.1 M 192.7 653.1 L 890.8 653.1 M 103.4 655.1 L 890.8 655.1 M 103.4 657 L 890.8 657 M 103.4 659 L 890.8 659 M 103.4 660.9 L 108.4 660.9 M 192.7 660.9 L 890.8 660.9 M 103.4 662.9 L 108.4 662.9 M 192.7 662.9 L 890.8 662.9 M 103.4 664.8 L 108.4 664.8 M 192.7 664.8 L 890.8 664.8 M 103.4 666.8 L 108.4 666.8 M 192.7 666.8 L 890.8 666.8 M 103.4 668.7 L 108.4 668.7 M 192.7 668.7 L 890.8 668.7 M 103.4 670.6 L 108.4 670.6 M 192.7 670.6 L 890.8 670.6 M 103.4 672.6 L 108.4 672.6 M 192.7 672.6 L 890.8 672.6 M 103.4 674.5 L 108.4 674.5 M 192.7 674.5 L 890.8 674.5 M 103.4 676.5 L 108.4 676.5 M 192.7 676.5 L 890.8 676.5 M 103.4 678.4 L 108.4 678.4 M 192.7 678.4 L 890.8 678.4 M 103.4 680.4 L 108.4 680.4 M 192.7 680.4 L 890.8 680.4 M 103.4 682.3 L 108.4 682.3 M 192.7 682.3 L 890.8 682.3 M 24.2 684.3 L 890.8 684.3 M 24.2 686.2 L 890.8 686.2 M 24.2 688.2 L 890.8 688.2 M 24.2 690.1 L 890.8 690.1 M 24.2 692.1 L 890.8 692.1 M 24.2 694 L 890.8 694 M 24.2 696 L 890.8 696 M 24.2 697.9 L 890.8 697.9 M 24.2 699.9 L 890.8 699.9 M 24.2 701.8 L 890.8 701.8 M 24.2 703.8 L 890.8 703.8 M 24.2 705.7 L 890.8 705.7 M 24.2 707.7 L 890.8 707.7 M 24.2 709.7 L 890.8 709.7 M 24.2 711.6 L 351.9 711.6 M 389.7 711.6 L 395.3 711.6 M 433.1 711.6 L 501.9 711.6 M 539.7 711.6 L 545.3 711.6 M 583.1 711.6 L 651.9 711.6 M 689.7 711.6 L 695.3 711.6 M 733.1 711.6 L 890.8 711.6 M 24.2 713.6 L 351.6 713.6 M 390 713.6 L 395 713.6 M 433.4 713.6 L 501.6 713.6 M 540 713.6 L 545 713.6 M 583.4 713.6 L 651.6 713.6 M 690 713.6 L 695 713.6 M 733.4 713.6 L 890.8 713.6 M 24.2 715.5 L 351.6 715.5 M 390 715.5 L 395 715.5 M 433.4 715.5 L 501.6 715.5 M 540 715.5 L 545 715.5 M 583.4 715.5 L 651.6 715.5 M 690 715.5 L 695 715.5 M 733.4 715.5 L 890.8 715.5 M 24.2 717.5 L 351.6 717.5 M 390 717.5 L 395 717.5 M 433.4 717.5 L 501.6 717.5 M 540 717.5 L 545 717.5 M 583.4 717.5 L 651.6 717.5 M 690 717.5 L 695 717.5 M 733.4 717.5 L 890.8 717.5 M 24.2 719.4 L 351.6 719.4 M 390 719.4 L 395 719.4 M 433.4 719.4 L 501.6 719.4 M 540 719.4 L 545 719.4 M 583.4 719.4 L 651.6 719.4 M 690 719.4 L 695 719.4 M 733.4 719.4 L 890.8 719.4 M 24.2 721.4 L 351.6 721.4 M 390 721.4 L 395 721.4 M 433.4 721.4 L 501.6 721.4 M 540 721.4 L 545 721.4 M 583.4 721.4 L 651.6 721.4 M 690 721.4 L 695 721.4 M 733.4 721.4 L 890.8 721.4 M 24.2 723.3 L 351.6 723.3 M 390 723.3 L 395 723.3 M 433.4 723.3 L 501.6 723.3 M 540 723.3 L 545 723.3 M 583.4 723.3 L 651.6 723.3 M 690 723.3 L 695 723.3 M 733.4 723.3 L 890.8 723.3 M 24.2 725.3 L 351.6 725.3 M 390 725.3 L 395 725.3 M 433.4 725.3 L 501.6 725.3 M 540 725.3 L 545 725.3 M 583.4 725.3 L 651.6 725.3 M 690 725.3 L 695 725.3 M 733.4 725.3 L 890.8 725.3 M 24.2 727.2 L 351.6 727.2 M 390 727.2 L 395 727.2 M 433.4 727.2 L 501.6 727.2 M 540 727.2 L 545 727.2 M 583.4 727.2 L 651.6 727.2 M 690 727.2 L 695 727.2 M 733.4 727.2 L 890.8 727.2 M 24.2 729.2 L 351.6 729.2 M 390 729.2 L 395 729.2 M 433.4 729.2 L 501.6 729.2 M 540 729.2 L 545 729.2 M 583.4 729.2 L 651.6 729.2 M 690 729.2 L 695 729.2 M 733.4 729.2 L 890.8 729.2 M 24.2 731.1 L 351.6 731.1 M 390 731.1 L 395 731.1 M 433.4 731.1 L 501.6 731.1 M 540 731.1 L 545 731.1 M 583.4 731.1 L 651.6 731.1 M 690 731.1 L 695 731.1 M 733.4 731.1 L 890.8 731.1 M 103.4 733.1 L 108.4 733.1 M 192.7 733.1 L 890.8 733.1 M 103.4 735 L 108.4 735 M 192.7 735 L 890.8 735 M 103.4 736.9 L 108.4 736.9 M 192.7 736.9 L 890.8 736.9 M 103.4 738.9 L 108.4 738.9 M 192.7 738.9 L 351.6 738.9 M 390 738.9 L 395 738.9 M 433.4 738.9 L 501.6 738.9 M 540 738.9 L 545 738.9 M 583.4 738.9 L 651.6 738.9 M 690 738.9 L 695 738.9 M 733.4 738.9 L 890.8 738.9 M 103.4 740.8 L 108.4 740.8 M 192.7 740.8 L 351.6 740.8 M 390 740.8 L 395 740.8 M 433.4 740.8 L 501.6 740.8 M 540 740.8 L 545 740.8 M 583.4 740.8 L 651.6 740.8 M 690 740.8 L 695 740.8 M 733.4 740.8 L 890.8 740.8 M 103.4 742.8 L 108.4 742.8 M 192.7 742.8 L 351.6 742.8 M 390 742.8 L 395 742.8 M 433.4 742.8 L 501.6 742.8 M 540 742.8 L 545 742.8 M 583.4 742.8 L 651.6 742.8 M 690 742.8 L 695 742.8 M 733.4 742.8 L 890.8 742.8 M 103.4 744.7 L 108.4 744.7 M 192.7 744.7 L 351.6 744.7 M 390 744.7 L 395 744.7 M 433.4 744.7 L 501.6 744.7 M 540 744.7 L 545 744.7 M 583.4 744.7 L 651.6 744.7 M 690 744.7 L 695 744.7 M 733.4 744.7 L 890.8 744.7 M 103.4 746.7 L 108.4 746.7 M 192.7 746.7 L 351.6 746.7 M 390 746.7 L 395 746.7 M 433.4 746.7 L 501.6 746.7 M 540 746.7 L 545 746.7 M 583.4 746.7 L 651.6 746.7 M 690 746.7 L 695 746.7 M 733.4 746.7 L 890.8 746.7 M 103.4 748.6 L 108.4 748.6 M 192.7 748.6 L 351.6 748.6 M 390 748.6 L 395 748.6 M 433.4 748.6 L 501.6 748.6 M 540 748.6 L 545 748.6 M 583.4 748.6 L 651.6 748.6 M 690 748.6 L 695 748.6 M 733.4 748.6 L 890.8 748.6 M 103.4 750.6 L 108.4 750.6 M 192.7 750.6 L 351.6 750.6 M 390 750.6 L 395 750.6 M 433.4 750.6 L 501.6 750.6 M 540 750.6 L 545 750.6 M 583.4 750.6 L 651.6 750.6 M 690 750.6 L 695 750.6 M 733.4 750.6 L 890.8 750.6 M 103.4 752.5 L 108.4 752.5 M 192.7 752.5 L 351.6 752.5 M 390 752.5 L 395 752.5 M 433.4 752.5 L 501.6 752.5 M 540 752.5 L 545 752.5 M 583.4 752.5 L 651.6 752.5 M 690 752.5 L 695 752.5 M 733.4 752.5 L 890.8 752.5 M 103.4 754.5 L 108.5 754.5 M 192.6 754.5 L 351.6 754.5 M 390 754.5 L 395 754.5 M 433.4 754.5 L 501.6 754.5 M 540 754.5 L 545 754.5 M 583.4 754.5 L 651.6 754.5 M 690 754.5 L 695 754.5 M 733.4 754.5 L 890.8 754.5 M 103.4 756.4 L 351.6 756.4 M 390 756.4 L 395 756.4 M 433.4 756.4 L 501.6 756.4 M 540 756.4 L 545 756.4 M 583.4 756.4 L 651.6 756.4 M 690 756.4 L 695 756.4 M 733.4 756.4 L 890.8 756.4 M 103.4 758.4 L 351.6 758.4 M 390 758.4 L 395 758.4 M 433.4 758.4 L 501.6 758.4 M 540 758.4 L 545 758.4 M 583.4 758.4 L 651.6 758.4 M 690 758.4 L 695 758.4 M 733.4 758.4 L 890.8 758.4 M 103.4 760.3 L 108.7 760.3 M 192.4 760.3 L 890.8 760.3 M 103.4 762.3 L 108.4 762.3 M 192.7 762.3 L 890.8 762.3 M 103.4 764.2 L 108.4 764.2 M 192.7 764.2 L 890.8 764.2 M 103.4 766.2 L 108.4 766.2 M 192.7 766.2 L 890.8 766.2 M 103.4 768.1 L 108.4 768.1 M 192.7 768.1 L 890.8 768.1 M 103.4 770.1 L 108.4 770.1 M 192.7 770.1 L 890.8 770.1 M 103.4 772.1 L 108.4 772.1 M 192.7 772.1 L 890.8 772.1 M 103.4 774 L 108.4 774 M 192.7 774 L 890.8 774 M 103.4 776 L 108.4 776 M 192.7 776 L 890.8 776 M 103.4 777.9 L 108.4 777.9 M 192.7 777.9 L 890.8 777.9 M 103.4 779.9 L 108.4 779.9 M 192.7 779.9 L 890.8 779.9 M 103.4 781.8 L 108.4 781.8 M 192.7 781.8 L 890.8 781.8 M 24.2 783.8 L 890.8 783.8 M 24.2 785.7 L 890.8 785.7 M 24.2 787.7 L 890.8 787.7 M 24.2 789.6 L 890.8 789.6 M 24.2 791.6 L 890.8 791.6 M 24.2 793.5 L 890.8 793.5 M 24.2 795.5 L 890.8 795.5 M 24.2 797.4 L 890.8 797.4 M 24.2 799.4 L 890.8 799.4 M 24.2 801.3 L 890.8 801.3 M 24.2 803.2 L 890.8 803.2 M 24.2 805.2 L 890.8 805.2 M 24.2 807.1 L 890.8 807.1 M 24.2 809.1 L 890.8 809.1 M 24.2 811 L 890.8 811 M 24.2 813 L 890.8 813 M 24.2 814.9 L 890.8 814.9 M 24.2 816.9 L 890.8 816.9 M 24.2 818.8 L 890.8 818.8 M 24.2 820.8 L 890.8 820.8 M 24.2 822.7 L 890.8 822.7 M 24.2 824.7 L 890.8 824.7 M 24.2 826.6 L 890.8 826.6 M 24.2 828.6 L 104.9 828.6 M 110.1 828.6 L 890.8 828.6 M 24.2 830.5 L 96.8 830.5 M 118.2 830.5 L 890.8 830.5 M 192.6 832.5 L 890.8 832.5 M 693.6 834.4 L 890.8 834.4 M 733.4 836.4 L 890.8 836.4 M 733.4 838.4 L 890.8 838.4 M 733.4 840.3 L 890.8 840.3 M 733.4 842.3 L 890.8 842.3 M 733.4 844.2 L 890.8 844.2 M 733.4 846.2 L 890.8 846.2 M 733.4 848.1 L 890.8 848.1 M 733.4 850.1 L 890.8 850.1 M 733.4 852 L 890.8 852 M 733.4 854 L 890.8 854 M 733.4 855.9 L 890.8 855.9 M 733.4 857.9 L 890.8 857.9 M 733.4 859.8 L 890.8 859.8 M 733.4 861.8 L 890.8 861.8 M 733.4 863.7 L 890.8 863.7 M 733.4 865.6 L 890.8 865.6 M 733.4 867.6 L 890.8 867.6 M 733.4 869.5 L 890.8 869.5 M 733.4 871.5 L 890.8 871.5 M 733.4 873.4 L 890.8 873.4 M 733.4 875.4 L 890.8 875.4 M 733.4 877.3 L 890.8 877.3 M 733.4 879.3 L 890.8 879.3 M 192.7 881.2 L 351.6 881.2 M 433.4 881.2 L 501.6 881.2 M 583.4 881.2 L 651.6 881.2 M 733.4 881.2 L 890.8 881.2 M 24.2 883.2 L 93.8 883.2 M 121.2 883.2 L 351.7 883.2 M 433.3 883.2 L 501.7 883.2 M 583.3 883.2 L 651.7 883.2 M 733.3 883.2 L 890.8 883.2 M 24.2 885.1 L 98.5 885.1 M 116.5 885.1 L 890.8 885.1 M 24.2 887.1 L 890.8 887.1 M 24.2 889 L 890.8 889 M 24.2 891 L 890.8 891 M 24.2 892.9 L 890.8 892.9 M 24.2 894.9 L 890.8 894.9 M 24.2 896.8 L 890.8 896.8 M 24.2 898.8 L 890.8 898.8 M 24.2 900.7 L 890.8 900.7 M 24.2 902.7 L 890.8 902.7 M 24.2 904.7 L 890.8 904.7 M 24.2 906.6 L 890.8 906.6 M 24.2 908.6 L 890.8 908.6 M 24.2 910.5 L 890.8 910.5 M 24.2 912.5 L 890.8 912.5 M 24.2 914.4 L 890.8 914.4 M 24.2 916.4 L 890.8 916.4 M 24.2 918.3 L 890.8 918.3 M 24.2 920.3 L 890.8 920.3 M 24.2 922.2 L 890.8 922.2 M 24.2 924.2 L 890.8 924.2 M 24.2 926.1 L 890.8 926.1 M 24.2 928.1 L 890.8 928.1 M 24.2 930 L 890.8 930 M 24.2 931.9 L 890.8 931.9 M 24.2 933.9 L 890.8 933.9 M 24.2 935.8 L 890.8 935.8 M 24.2 937.8 L 890.8 937.8 M 24.2 939.7 L 890.8 939.7 M 24.2 941.7 L 890.8 941.7 M 24.2 943.6 L 890.8 943.6 M 24.2 945.6 L 890.8 945.6 M 24.2 947.5 L 890.8 947.5 M 24.2 949.5 L 890.8 949.5 M 24.2 951.4 L 890.8 951.4 M 24.2 953.4 L 890.8 953.4 M 24.2 955.3 L 890.8 955.3 M 24.2 957.3 L 890.8 957.3 M 24.2 959.2 L 890.8 959.2 M 24.2 961.2 L 890.8 961.2 M 24.2 963.1 L 890.8 963.1 M 24.2 965.1 L 890.8 965.1 M 24.2 967.1 L 890.8 967.1 M 24.2 969 L 890.8 969 M 24.2 971 L 890.8 971 M 24.2 972.9 L 890.8 972.9 M 24.2 974.9 L 890.8 974.9 M 24.2 976.8 L 890.8 976.8 M 24.2 978.8 L 890.8 978.8 M 24.2 980.7 L 890.8 980.7 M 24.2 982.7 L 890.8 982.7 M 24.2 984.6 L 890.8 984.6 M 24.2 986.6 L 890.8 986.6 M 24.2 988.5 L 890.8 988.5 M 24.2 990.5 L 890.8 990.5"/><path stroke-width="30" fill="none" d="M 105.9 857.5 L 692.5 857.5 M 105.9 357.5 L 692.5 357.5 M 105.9 458.5 L 687.5 458.5"/><use x="857.5" y="257.5" xlink:href="#tool-D12-pad-1009"/><use x="357.5" y="57.5" xlink:href="#tool-D12-pad-1009"/><use x="107.5" y="458.5" xlink:href="#tool-D12-pad-1009"/><use x="857.5" y="357.5" xlink:href="#tool-D12-pad-1009"/><use x="657.5" y="57.5" xlink:href="#tool-D12-pad-1009"/><use x="657.5" y="957.5" xlink:href="#tool-D12-pad-1009"/><use x="557.5" y="57.5" xlink:href="#tool-D12-pad-1009"/><use x="857.5" y="857.5" xlink:href="#tool-D12-pad-1009"/><use x="457.5" y="57.5" xlink:href="#tool-D12-pad-1009"/><use x="57.5" y="57.5" xlink:href="#tool-D12-pad-1009"/><use x="557.5" y="957.5" xlink:href="#tool-D12-pad-1009"/><use x="857.5" y="957.5" xlink:href="#tool-D12-pad-1009"/><use x="757.5" y="57.5" xlink:href="#tool-D12-pad-1009"/><use x="857.5" y="57.5" xlink:href="#tool-D12-pad-1009"/><use x="857.5" y="657.5" xlink:href="#tool-D12-pad-1009"/><use x="257.5" y="957.5" xlink:href="#tool-D12-pad-1009"/><use x="857.5" y="557.5" xlink:href="#tool-D12-pad-1009"/><use x="757.5" y="957.5" xlink:href="#tool-D12-pad-1009"/><use x="157.5" y="57.5" xlink:href="#tool-D12-pad-1009"/><use x="257.5" y="57.5" xlink:href="#tool-D12-pad-1009"/><use x="857.5" y="757.5" xlink:href="#tool-D12-pad-1009"/><use x="107.5" y="857.5" xlink:href="#tool-D12-pad-1009"/><use x="57.5" y="957.5" xlink:href="#tool-D12-pad-1009"/><use x="157.5" y="957.5" xlink:href="#tool-D12-pad-1009"/><use x="357.5" y="957.5" xlink:href="#tool-D12-pad-1009"/><use x="107.5" y="357.5" xlink:href="#tool-D12-pad-1009"/><use x="857.5" y="457.5" xlink:href="#tool-D12-pad-1009"/><use x="457.5" y="957.5" xlink:href="#tool-D12-pad-1009"/><use x="857.5" y="157.5" xlink:href="#tool-D12-pad-1009"/><use x="542.5" y="859.5" xlink:href="#tool-D13-pad-1010"/><use x="542.5" y="735.5" xlink:href="#tool-D13-pad-1010"/><use x="392.5" y="859.5" xlink:href="#tool-D13-pad-1010"/><use x="392.5" y="735.5" xlink:href="#tool-D13-pad-1010"/><use x="105.9" y="157.5" xlink:href="#tool-D14-pad-1011"/><use x="105.9" y="257.5" xlink:href="#tool-D14-pad-1011"/><use x="105.9" y="357.5" xlink:href="#tool-D14-pad-1011"/><use x="105.9" y="457.5" xlink:href="#tool-D14-pad-1011"/><use x="105.9" y="557.5" xlink:href="#tool-D14-pad-1011"/><use x="105.9" y="657.5" xlink:href="#tool-D14-pad-1011"/><use x="105.9" y="757.5" xlink:href="#tool-D14-pad-1011"/><use x="105.9" y="857.5" xlink:href="#tool-D14-pad-1011"/><use x="692.5" y="584.5" xlink:href="#tool-D13-pad-1010"/><use x="692.5" y="460.5" xlink:href="#tool-D13-pad-1010"/><use x="542.5" y="584.5" xlink:href="#tool-D13-pad-1010"/><use x="542.5" y="460.5" xlink:href="#tool-D13-pad-1010"/><use x="392.5" y="235.5" xlink:href="#tool-D15-pad-1012"/><use x="392.5" y="359.5" xlink:href="#tool-D15-pad-1012"/><use x="392.5" y="584.5" xlink:href="#tool-D13-pad-1010"/><use x="392.5" y="460.5" xlink:href="#tool-D13-pad-1010"/><use x="692.5" y="235.5" xlink:href="#tool-D15-pad-1012"/><use x="692.5" y="359.5" xlink:href="#tool-D15-pad-1012"/><use x="542.5" y="235.5" xlink:href="#tool-D15-pad-1012"/><use x="542.5" y="359.5" xlink:href="#tool-D15-pad-1012"/><use x="692.5" y="859.5" xlink:href="#tool-D13-pad-1010"/><use x="692.5" y="735.5" xlink:href="#tool-D13-pad-1010"/></g><mask id="pcb_top_mech-mask" fill="#fff" stroke="#fff" fill-rule="evenodd"><path stroke-width="0" d="M 7.5 7.5 L 7.5 1007.5 L 907.5 1007.5 L 907.5 7.5 Z"/><g id="pcb_top-drl" fill="#000" stroke="#000"><use x="857.5" y="257.5" xlink:href="#tool-T10-pad-1000"/><use x="357.5" y="57.5" xlink:href="#tool-T10-pad-1000"/><use x="107.5" y="458.5" xlink:href="#tool-T10-pad-1000"/><use x="857.5" y="357.5" xlink:href="#tool-T10-pad-1000"/><use x="657.5" y="57.5" xlink:href="#tool-T10-pad-1000"/><use x="657.5" y="957.5" xlink:href="#tool-T10-pad-1000"/><use x="557.5" y="57.5" xlink:href="#tool-T10-pad-1000"/><use x="857.5" y="857.5" xlink:href="#tool-T10-pad-1000"/><use x="457.5" y="57.5" xlink:href="#tool-T10-pad-1000"/><use x="57.5" y="57.5" xlink:href="#tool-T10-pad-1000"/><use x="557.5" y="957.5" xlink:href="#tool-T10-pad-1000"/><use x="857.5" y="957.5" xlink:href="#tool-T10-pad-1000"/><use x="757.5" y="57.5" xlink:href="#tool-T10-pad-1000"/><use x="857.5" y="57.5" xlink:href="#tool-T10-pad-1000"/><use x="857.5" y="657.5" xlink:href="#tool-T10-pad-1000"/><use x="257.5" y="957.5" xlink:href="#tool-T10-pad-1000"/><use x="857.5" y="557.5" xlink:href="#tool-T10-pad-1000"/><use x="757.5" y="957.5" xlink:href="#tool-T10-pad-1000"/><use x="157.5" y="57.5" xlink:href="#tool-T10-pad-1000"/><use x="257.5" y="57.5" xlink:href="#tool-T10-pad-1000"/><use x="857.5" y="757.5" xlink:href="#tool-T10-pad-1000"/><use x="107.5" y="857.5" xlink:href="#tool-T10-pad-1000"/><use x="57.5" y="957.5" xlink:href="#tool-T10-pad-1000"/><use x="157.5" y="957.5" xlink:href="#tool-T10-pad-1000"/><use x="357.5" y="957.5" xlink:href="#tool-T10-pad-1000"/><use x="107.5" y="357.5" xlink:href="#tool-T10-pad-1000"/><use x="857.5" y="457.5" xlink:href="#tool-T10-pad-1000"/><use x="457.5" y="957.5" xlink:href="#tool-T10-pad-1000"/><use x="857.5" y="157.5" xlink:href="#tool-T10-pad-1000"/></g></mask></defs><g mask="url(#pcb_top_mech-mask)" transform="translate(0,1015) scale(1,-1)"><rect x="7.5" y="7.5" width="900" height="1000" fill="currentColor" class="pcb_board-fr4"/><use class="pcb_board-cu" xlink:href="#pcb_top-cu"/><g><defs><g id="pcb_top-sm" fill="currentColor" stroke="currentColor"><use x="107.5" y="458.5" xlink:href="#tool-D10-pad-1018"/><use x="107.5" y="857.5" xlink:href="#tool-D10-pad-1018"/><use x="107.5" y="357.5" xlink:href="#tool-D10-pad-1018"/><use x="542.5" y="859.5" xlink:href="#tool-D11-pad-1019"/><use x="542.5" y="735.5" xlink:href="#tool-D11-pad-1019"/><use x="392.5" y="859.5" xlink:href="#tool-D11-pad-1019"/><use x="392.5" y="735.5" xlink:href="#tool-D11-pad-1019"/><use x="105.9" y="157.5" xlink:href="#tool-D12-pad-1020"/><use x="105.9" y="257.5" xlink:href="#tool-D12-pad-1020"/><use x="105.9" y="357.5" xlink:href="#tool-D12-pad-1020"/><use x="105.9" y="457.5" xlink:href="#tool-D12-pad-1020"/><use x="105.9" y="557.5" xlink:href="#tool-D12-pad-1020"/><use x="105.9" y="657.5" xlink:href="#tool-D12-pad-1020"/><use x="105.9" y="757.5" xlink:href="#tool-D12-pad-1020"/><use x="105.9" y="857.5" xlink:href="#tool-D12-pad-1020"/><use x="692.5" y="584.5" xlink:href="#tool-D11-pad-1019"/><use x="692.5" y="460.5" xlink:href="#tool-D11-pad-1019"/><use x="542.5" y="584.5" xlink:href="#tool-D11-pad-1019"/><use x="542.5" y="460.5" xlink:href="#tool-D11-pad-1019"/><use x="392.5" y="235.5" xlink:href="#tool-D13-pad-1021"/><use x="392.5" y="359.5" xlink:href="#tool-D13-pad-1021"/><use x="392.5" y="584.5" xlink:href="#tool-D11-pad-1019"/><use x="392.5" y="460.5" xlink:href="#tool-D11-pad-1019"/><use x="692.5" y="235.5" xlink:href="#tool-D13-pad-1021"/><use x="692.5" y="359.5" xlink:href="#tool-D13-pad-1021"/><use x="542.5" y="235.5" xlink:href="#tool-D13-pad-1021"/><use x="542.5" y="359.5" xlink:href="#tool-D13-pad-1021"/><use x="692.5" y="859.5" xlink:href="#tool-D11-pad-1019"/><use x="692.5" y="735.5" xlink:href="#tool-D11-pad-1019"/></g><mask id="pcb_top-sm_mask" color="#000"><rect x="7.5" y="7.5" width="900" height="1000" fill="#fff"/><use xlink:href="#pcb_top-sm"/></mask><mask id="pcb_top-cu_finish-mask" color="#fff"><use xlink:href="#pcb_top-cu"/></mask></defs><g mask="url(#pcb_top-sm_mask)"><rect x="7.5" y="7.5" width="900" height="1000" fill="currentColor" class="pcb_board-sm"/><g id="pcb_top-ss" class="pcb_board-ss" fill="currentColor" stroke="currentColor"><path stroke-width="5.9" fill="none" d="M 511 831.6 L 511 763.4 M 574 831.6 L 574 763.4"/><path stroke-width="11.8" fill="none" d="M 513.8 820.2 L 571.2 820.2"/><use x="542.5" y="900.3" xlink:href="#tool-D12-pad-1015"/><path d="M 612.5 793.6 L 616.3 792.6 L 615.6 790.5 L 614.6 788.6 L 613.5 786.9 L 612.1 785.6 L 610.5 784.5 L 608.7 783.8 L 606.7 783.4 L 604.6 783.2 L 602.4 783.3 L 600.5 783.7 L 598.7 784.2 L 597.2 785.1 L 595.8 786.1 L 594.7 787.3 L 593.7 788.8 L 592.9 790.4 L 592.2 792.2 L 591.8 794.1 L 591.5 796 L 591.4 798 L 591.5 800.1 L 591.8 802.1 L 592.3 804 L 593.1 805.6 L 594 807.2 L 595.1 808.6 L 596.4 809.7 L 597.8 810.6 L 599.4 811.4 L 601.1 811.9 L 602.9 812.2 L 604.7 812.3 L 606.7 812.2 L 608.6 811.8 L 610.3 811.1 L 611.8 810.2 L 613.1 809 L 614.2 807.6 L 615.1 806 L 615.8 804.2 L 612.1 803.3 L 611.6 804.7 L 610.9 805.9 L 610.2 806.9 L 609.3 807.7 L 608.3 808.4 L 607.2 808.8 L 605.9 809.1 L 604.6 809.2 L 603.1 809.1 L 601.6 808.8 L 600.3 808.3 L 599.2 807.6 L 598.2 806.8 L 597.3 805.8 L 596.6 804.7 L 596.1 803.4 L 595.7 802.1 L 595.4 800.8 L 595.3 799.4 L 595.2 798 L 595.3 796.3 L 595.5 794.6 L 595.8 793.1 L 596.2 791.7 L 596.9 790.5 L 597.6 789.4 L 598.5 788.5 L 599.5 787.7 L 600.6 787.1 L 601.8 786.7 L 603.1 786.5 L 604.3 786.4 L 605.8 786.5 L 607.2 786.8 L 608.4 787.4 L 609.6 788.2 L 610.6 789.2 L 611.4 790.5 L 612.1 791.9 L 612.5 793.6 L 612.5 793.6 Z"/><path d="M 637.4 805 L 634 804.7 L 633.7 805.6 L 633.4 806.4 L 633.1 807.1 L 632.7 807.7 L 631.9 808.3 L 631.1 808.8 L 630.2 809 L 629.2 809.1 L 628.4 809.1 L 627.7 808.9 L 626.9 808.6 L 626.3 808.2 L 625.5 807.5 L 624.9 806.8 L 624.2 805.8 L 623.7 804.7 L 623.3 803.5 L 623 801.9 L 622.8 800.2 L 622.8 798.2 L 624.6 796.8 L 624.2 796.3 L 623.7 795.3 L 623.4 794.1 L 623.3 792.8 L 623.3 792.8 L 623.3 791.9 L 623.5 791 L 623.7 790.2 L 624 789.4 L 624.5 788.6 L 625 787.9 L 625.5 787.4 L 626.2 786.9 L 626.9 786.5 L 627.6 786.2 L 628.3 786.1 L 629 786 L 630.1 786.2 L 631.1 786.5 L 632 787 L 632.8 787.8 L 633.5 788.8 L 634 789.9 L 634.3 791.2 L 634.4 792.6 L 634.3 794 L 634 795.2 L 633.5 796.3 L 632.8 797.2 L 632 798 L 631.1 798.5 L 630.1 798.8 L 628.9 798.9 L 627.8 798.8 L 626.8 798.5 L 625.8 798 L 624.9 797.2 L 624.6 796.8 L 622.8 798.2 L 623.4 799.1 L 624.2 799.9 L 624.9 800.5 L 625.8 801 L 626.7 801.4 L 627.7 801.7 L 628.6 801.9 L 629.6 801.9 L 631.3 801.8 L 632.8 801.3 L 634.2 800.5 L 635.5 799.4 L 636.6 798.1 L 637.3 796.5 L 637.8 794.7 L 637.9 792.8 L 637.9 791.5 L 637.7 790.3 L 637.3 789.1 L 636.8 787.9 L 636.2 786.8 L 635.4 785.9 L 634.6 785.1 L 633.6 784.4 L 632.6 783.9 L 631.5 783.5 L 630.3 783.3 L 629.1 783.2 L 627 783.4 L 625.2 784 L 623.5 785 L 622 786.4 L 620.8 788.2 L 620 790.6 L 619.5 793.5 L 619.3 796.9 L 619.5 800.7 L 620.1 803.9 L 621 806.6 L 622.3 808.8 L 623.8 810.2 L 625.4 811.2 L 627.3 811.8 L 629.4 812 L 631 811.9 L 632.5 811.5 L 633.8 810.9 L 634.9 810.1 L 635.8 809.1 L 636.6 807.9 L 637.1 806.5 L 637.4 805 L 637.4 805 Z"/><path stroke-width="5.9" fill="none" d="M 361 831.6 L 361 763.4 M 424 831.6 L 424 763.4"/><path stroke-width="11.8" fill="none" d="M 363.8 820.2 L 421.2 820.2"/><use x="392.5" y="900.3" xlink:href="#tool-D12-pad-1015"/><path d="M 462.5 793.6 L 466.3 792.6 L 465.6 790.5 L 464.6 788.6 L 463.5 786.9 L 462.1 785.6 L 460.5 784.5 L 458.7 783.8 L 456.7 783.4 L 454.6 783.2 L 452.4 783.3 L 450.5 783.7 L 448.7 784.2 L 447.2 785.1 L 445.8 786.1 L 444.7 787.3 L 443.7 788.8 L 442.9 790.4 L 442.2 792.2 L 441.8 794.1 L 441.5 796 L 441.4 798 L 441.5 800.1 L 441.8 802.1 L 442.3 804 L 443.1 805.6 L 444 807.2 L 445.1 808.6 L 446.4 809.7 L 447.8 810.6 L 449.4 811.4 L 451.1 811.9 L 452.9 812.2 L 454.7 812.3 L 456.7 812.2 L 458.6 811.8 L 460.3 811.1 L 461.8 810.2 L 463.1 809 L 464.2 807.6 L 465.1 806 L 465.8 804.2 L 462.1 803.3 L 461.6 804.7 L 460.9 805.9 L 460.2 806.9 L 459.3 807.7 L 458.3 808.4 L 457.2 808.8 L 455.9 809.1 L 454.6 809.2 L 453.1 809.1 L 451.6 808.8 L 450.3 808.3 L 449.2 807.6 L 448.2 806.8 L 447.3 805.8 L 446.6 804.7 L 446.1 803.4 L 445.7 802.1 L 445.4 800.8 L 445.3 799.4 L 445.2 798 L 445.3 796.3 L 445.5 794.6 L 445.8 793.1 L 446.2 791.7 L 446.9 790.5 L 447.6 789.4 L 448.5 788.5 L 449.5 787.7 L 450.6 787.1 L 451.8 786.7 L 453.1 786.5 L 454.3 786.4 L 455.8 786.5 L 457.2 786.8 L 458.4 787.4 L 459.6 788.2 L 460.6 789.2 L 461.4 790.5 L 462.1 791.9 L 462.5 793.6 L 462.5 793.6 Z"/><path d="M 469.5 791.1 L 472.9 791.6 L 473.3 790.2 L 473.8 789 L 474.3 788.1 L 475 787.3 L 475.7 786.8 L 476.6 786.4 L 477.5 786.1 L 478.5 786 L 479.6 786.2 L 480.7 786.5 L 481.7 787 L 482.6 787.7 L 483.3 788.6 L 483.8 789.6 L 484.2 790.7 L 484.3 791.9 L 484.2 793.1 L 483.9 794.1 L 483.4 795 L 482.7 795.8 L 481.9 796.6 L 481 797 L 479.9 797.3 L 478.8 797.4 L 478.2 797.4 L 477.7 797.3 L 477 797.2 L 476.3 797 L 476.7 800.1 L 476.9 800.1 L 477 800 L 477.1 800 L 477.3 800 L 478.3 800.1 L 479.4 800.3 L 480.3 800.7 L 481.2 801.2 L 482 801.8 L 482.6 802.7 L 482.9 803.6 L 483 804.7 L 482.9 805.6 L 482.7 806.5 L 482.3 807.2 L 481.7 807.9 L 481 808.4 L 480.3 808.8 L 479.4 809.1 L 478.4 809.1 L 477.4 809 L 476.6 808.8 L 475.7 808.4 L 475 807.9 L 474.4 807.1 L 473.9 806.3 L 473.6 805.3 L 473.3 804.1 L 469.8 804.7 L 470.3 806.3 L 470.9 807.8 L 471.7 809 L 472.7 810.1 L 473.9 810.9 L 475.3 811.5 L 476.7 811.9 L 478.3 812 L 479.4 811.9 L 480.5 811.7 L 481.6 811.4 L 482.6 811 L 483.5 810.5 L 484.3 809.8 L 484.9 809.1 L 485.5 808.3 L 486 807.4 L 486.3 806.5 L 486.5 805.6 L 486.6 804.7 L 486.5 803.8 L 486.3 802.9 L 486 802.1 L 485.6 801.3 L 485 800.6 L 484.4 800 L 483.6 799.4 L 482.7 799 L 483.8 798.6 L 484.9 798.1 L 485.8 797.4 L 486.6 796.6 L 487.1 795.6 L 487.6 794.5 L 487.9 793.3 L 487.9 792 L 487.8 790.2 L 487.3 788.6 L 486.4 787.1 L 485.3 785.7 L 483.8 784.6 L 482.2 783.8 L 480.4 783.3 L 478.4 783.2 L 476.7 783.3 L 475.1 783.7 L 473.6 784.4 L 472.3 785.4 L 471.2 786.6 L 470.4 787.9 L 469.8 789.4 L 469.5 791.1 L 469.5 791.1 Z"/><use x="184.7" y="507.5" xlink:href="#tool-D13-pad-1016"/><path d="M 216.7 153.6 L 216.7 157 L 228.8 157 L 228.8 146.4 L 227.4 145.3 L 226 144.4 L 224.5 143.6 L 223.1 143 L 221.6 142.5 L 220.1 142.2 L 218.5 141.9 L 217 141.9 L 214.9 142 L 212.9 142.3 L 211.1 142.9 L 209.3 143.7 L 207.7 144.7 L 206.3 145.9 L 205.1 147.3 L 204.1 148.9 L 203.3 150.7 L 202.8 152.5 L 202.5 154.5 L 202.3 156.6 L 202.5 158.6 L 202.8 160.6 L 203.3 162.5 L 204.1 164.4 L 205.1 166 L 206.2 167.5 L 207.6 168.8 L 209.1 169.7 L 210.8 170.5 L 212.7 171.1 L 214.6 171.4 L 216.7 171.5 L 218.2 171.4 L 219.6 171.2 L 221 170.9 L 222.3 170.5 L 223.5 169.9 L 224.5 169.3 L 225.5 168.6 L 226.2 167.7 L 226.9 166.7 L 227.5 165.6 L 228 164.4 L 228.4 163 L 225 162.1 L 224.6 163.1 L 224.3 164 L 223.8 164.8 L 223.4 165.5 L 222.9 166.1 L 222.2 166.6 L 221.5 167.1 L 220.6 167.5 L 219.7 167.9 L 218.8 168.1 L 217.8 168.2 L 216.7 168.2 L 215.5 168.2 L 214.3 168.1 L 213.2 167.8 L 212.2 167.5 L 211.3 167 L 210.5 166.6 L 209.8 166 L 209.2 165.4 L 208.6 164.7 L 208.1 164 L 207.7 163.3 L 207.3 162.5 L 206.9 161.2 L 206.5 159.8 L 206.3 158.3 L 206.2 156.8 L 206.3 154.9 L 206.6 153.3 L 207 151.8 L 207.6 150.4 L 208.3 149.2 L 209.2 148.1 L 210.2 147.3 L 211.4 146.6 L 212.7 146 L 214 145.6 L 215.4 145.4 L 216.8 145.3 L 218 145.4 L 219.2 145.5 L 220.4 145.8 L 221.6 146.2 L 222.7 146.8 L 223.6 147.2 L 224.4 147.7 L 225.1 148.3 L 225.1 153.6 L 216.7 153.6 L 216.7 153.6 Z"/><path d="M 247.5 144.9 L 246.5 144.2 L 246.4 144.1 L 245.1 146 L 245.7 146.6 L 246.2 147.3 L 246.6 148 L 246.9 148.6 L 247.1 149.5 L 247.2 150.4 L 247.2 151.5 L 247.2 152.8 L 247.2 152.8 L 246.1 152.4 L 244.8 152.1 L 243.2 151.8 L 241.5 151.5 L 240.5 151.3 L 239.6 151.1 L 238.9 151 L 238.4 150.8 L 238 150.5 L 237.6 150.3 L 237.3 150 L 237 149.6 L 236.8 149.2 L 236.6 148.8 L 236.6 148.4 L 236.5 147.9 L 236.6 147.3 L 236.8 146.7 L 237.1 146.1 L 237.6 145.6 L 238.2 145.2 L 238.9 144.9 L 239.7 144.7 L 240.7 144.7 L 241.7 144.7 L 242.6 144.9 L 243.5 145.2 L 244.3 145.6 L 245.1 146 L 246.4 144.1 L 245.6 143.5 L 244.7 143 L 243.8 142.6 L 242.8 142.3 L 241.9 142.1 L 240.9 141.9 L 239.9 141.9 L 238.2 142 L 236.8 142.3 L 235.6 142.9 L 234.6 143.6 L 233.8 144.5 L 233.2 145.5 L 232.9 146.6 L 232.8 147.9 L 232.8 148.6 L 232.9 149.3 L 233.2 150 L 233.5 150.6 L 233.8 151.2 L 234.3 151.8 L 234.7 152.2 L 235.3 152.7 L 235.8 153 L 236.5 153.3 L 237.1 153.6 L 237.8 153.8 L 238.4 154 L 239.1 154.1 L 240 154.2 L 240.9 154.4 L 242.9 154.6 L 244.6 154.9 L 246.1 155.2 L 247.2 155.5 L 247.2 155.9 L 247.2 156.1 L 247.2 156.3 L 247.2 156.5 L 247.2 157.5 L 247 158.3 L 246.7 159 L 246.2 159.5 L 245.5 160 L 244.5 160.4 L 243.5 160.6 L 242.2 160.7 L 241.1 160.6 L 240.1 160.5 L 239.2 160.2 L 238.6 159.8 L 238 159.3 L 237.5 158.6 L 237.1 157.8 L 236.8 156.8 L 233.4 157.2 L 233.6 158.2 L 234 159.2 L 234.4 160 L 234.9 160.8 L 235.5 161.4 L 236.2 162 L 237.1 162.5 L 238 162.9 L 239.1 163.2 L 240.2 163.4 L 241.4 163.6 L 242.7 163.6 L 244 163.6 L 245.1 163.4 L 246.2 163.2 L 247.1 163 L 247.8 162.6 L 248.5 162.3 L 249 161.8 L 249.5 161.4 L 249.9 160.9 L 250.2 160.3 L 250.4 159.7 L 250.6 159 L 250.6 158.4 L 250.7 157.7 L 250.8 156.8 L 250.8 155.8 L 250.8 151.1 L 250.8 148.8 L 250.8 147.1 L 250.9 145.7 L 251 144.9 L 251.1 144.2 L 251.3 143.6 L 251.6 143 L 251.9 142.4 L 248.2 142.4 L 248 142.9 L 247.8 143.6 L 247.6 144.2 L 247.5 144.9 L 247.5 144.9 Z"/><path d="M 263.9 145.5 L 264.4 142.4 L 263.7 142.3 L 263 142.2 L 262.3 142.1 L 261.8 142.1 L 260.8 142.1 L 260.1 142.3 L 259.4 142.5 L 258.8 142.7 L 258.3 143.1 L 257.9 143.4 L 257.5 143.8 L 257.3 144.3 L 257.1 144.9 L 256.9 145.8 L 256.9 147 L 256.9 148.4 L 256.9 160.4 L 254.3 160.4 L 254.3 163.1 L 256.9 163.1 L 256.9 168.2 L 260.4 170.4 L 260.4 163.1 L 263.9 163.1 L 263.9 160.4 L 260.4 160.4 L 260.4 148.2 L 260.4 147.6 L 260.4 147 L 260.5 146.6 L 260.5 146.3 L 260.6 146.1 L 260.8 145.9 L 261 145.8 L 261.2 145.6 L 261.4 145.5 L 261.7 145.5 L 262 145.4 L 262.3 145.4 L 262.7 145.4 L 263 145.4 L 263.4 145.5 L 263.9 145.5 L 263.9 145.5 Z"/><path d="M 281.5 149.1 L 285.2 148.6 L 284.6 147.1 L 283.9 145.8 L 283.1 144.6 L 282 143.7 L 280.7 142.9 L 279.3 142.3 L 277.8 142 L 276 141.9 L 273.9 142.1 L 271.9 142.6 L 270.3 143.5 L 268.8 144.7 L 267.7 146.2 L 266.8 148.1 L 266.3 150.2 L 266.2 152.6 L 266.3 155.1 L 266.8 157.2 L 267.7 159.1 L 268.8 160.7 L 270.3 161.9 L 271.9 162.9 L 273.8 163.4 L 275.8 163.6 L 276.1 163.6 L 275.9 160.7 L 274.7 160.6 L 273.6 160.3 L 272.7 159.8 L 271.8 159.1 L 271.1 158.2 L 270.5 157.2 L 270.2 156 L 270 154.7 L 270 154.7 L 281.6 154.7 L 281.4 156 L 281.1 157 L 280.7 157.9 L 280.3 158.7 L 279.4 159.5 L 278.3 160.2 L 277.1 160.6 L 275.9 160.7 L 276.1 163.6 L 277.8 163.4 L 279.6 162.9 L 281.2 162 L 282.7 160.8 L 283.8 159.2 L 284.6 157.3 L 285.1 155.2 L 285.3 152.8 L 285.3 152.6 L 285.3 152.4 L 285.3 152.1 L 285.3 151.9 L 269.8 151.9 L 270 150.3 L 270.4 148.8 L 271 147.6 L 271.7 146.6 L 272.7 145.8 L 273.7 145.3 L 274.8 144.9 L 276 144.8 L 277 144.9 L 277.9 145.1 L 278.6 145.4 L 279.4 145.8 L 280 146.4 L 280.6 147.1 L 281.1 148 L 281.5 149.1 L 281.5 149.1 Z"/><path d="M 223.7 252.4 L 227.5 251.5 L 226.8 249.3 L 225.8 247.3 L 224.7 245.7 L 223.2 244.4 L 221.6 243.3 L 219.8 242.5 L 217.8 242 L 215.6 241.9 L 213.4 242 L 211.5 242.4 L 209.7 243 L 208.1 243.8 L 206.8 244.8 L 205.6 246.1 L 204.5 247.5 L 203.7 249.2 L 203.1 251 L 202.6 252.9 L 202.3 254.9 L 202.2 256.9 L 202.3 259.1 L 202.6 261.1 L 203.2 263 L 203.9 264.7 L 204.9 266.3 L 206 267.7 L 207.3 268.8 L 208.8 269.8 L 210.4 270.5 L 212.1 271.1 L 213.9 271.4 L 215.7 271.5 L 217.8 271.4 L 219.7 271 L 221.4 270.3 L 222.9 269.3 L 224.3 268.1 L 225.5 266.7 L 226.4 265 L 227 263.2 L 223.3 262.3 L 222.7 263.8 L 222.1 265 L 221.3 266 L 220.4 266.8 L 219.4 267.5 L 218.3 267.9 L 217 268.2 L 215.6 268.2 L 214.1 268.2 L 212.6 267.9 L 211.3 267.4 L 210.1 266.7 L 209.1 265.8 L 208.2 264.8 L 207.5 263.7 L 207 262.4 L 206.6 261.1 L 206.4 259.7 L 206.2 258.3 L 206.1 256.9 L 206.2 255.2 L 206.4 253.5 L 206.7 252 L 207.2 250.6 L 207.8 249.3 L 208.5 248.2 L 209.4 247.2 L 210.5 246.5 L 211.6 245.9 L 212.8 245.5 L 214.1 245.2 L 215.3 245.1 L 216.9 245.3 L 218.3 245.6 L 219.6 246.2 L 220.7 247 L 221.8 248 L 222.6 249.3 L 223.2 250.7 L 223.7 252.4 L 223.7 252.4 Z"/><path d="M 240.4 242.4 L 229.3 271 L 233.4 271 L 240.8 250.2 L 241.2 249 L 241.6 247.8 L 242 246.6 L 242.3 245.5 L 242.7 246.7 L 243.1 247.9 L 243.4 249 L 243.9 250.2 L 251.6 271 L 255.5 271 L 244.3 242.4 L 240.4 242.4 L 240.4 242.4 Z"/><path d="M 210.2 347 L 210.2 354.9 L 202.5 354.9 L 202.5 358.1 L 210.2 358.1 L 210.2 365.9 L 213.6 365.9 L 213.6 358.1 L 221.4 358.1 L 221.4 354.9 L 213.6 354.9 L 213.6 347 L 210.2 347 L 210.2 347 Z"/><path d="M 225.3 349.9 L 228.9 350.2 L 229.2 348.9 L 229.6 347.8 L 230.1 346.9 L 230.8 346.1 L 231.6 345.5 L 232.5 345.1 L 233.4 344.9 L 234.4 344.8 L 235.6 344.9 L 236.8 345.3 L 237.8 345.8 L 238.7 346.7 L 239.5 347.7 L 240.1 348.9 L 240.4 350.3 L 240.5 351.8 L 240.4 353.2 L 240.1 354.5 L 239.5 355.6 L 238.8 356.5 L 237.9 357.3 L 236.9 357.8 L 235.7 358.2 L 234.4 358.2 L 233.6 358.2 L 232.8 358.1 L 232 357.8 L 231.3 357.5 L 230.6 357.1 L 230.1 356.6 L 229.6 356.1 L 229.2 355.5 L 225.8 355.9 L 228.6 370.6 L 242.9 370.6 L 242.9 367.3 L 231.4 367.3 L 229.9 359.6 L 231.2 360.4 L 232.5 360.9 L 233.9 361.2 L 235.3 361.4 L 237.1 361.2 L 238.8 360.7 L 240.3 359.9 L 241.6 358.8 L 242.8 357.4 L 243.6 355.8 L 244.1 354 L 244.2 352.1 L 244.1 350.2 L 243.6 348.5 L 242.9 346.9 L 241.9 345.4 L 240.5 343.8 L 238.7 342.8 L 236.7 342.1 L 234.4 341.9 L 232.6 342 L 230.9 342.4 L 229.4 343.1 L 228.1 344.1 L 226.9 345.3 L 226.1 346.6 L 225.5 348.2 L 225.3 349.9 L 225.3 349.9 Z"/><path d="M 257.1 342.4 L 246 371 L 250.1 371 L 257.5 350.2 L 258 349 L 258.4 347.8 L 258.7 346.6 L 259 345.5 L 259.4 346.7 L 259.7 347.9 L 260.2 349 L 260.6 350.2 L 268.3 371 L 272.2 371 L 261 342.4 L 257.1 342.4 L 257.1 342.4 Z"/><path d="M 210.2 447 L 210.2 454.9 L 202.5 454.9 L 202.5 458.1 L 210.2 458.1 L 210.2 465.9 L 213.6 465.9 L 213.6 458.1 L 221.4 458.1 L 221.4 454.9 L 213.6 454.9 L 213.6 447 L 210.2 447 L 210.2 447 Z"/><path d="M 238.5 442.4 L 235 442.4 L 235 464.8 L 234.3 464.2 L 233.5 463.6 L 232.6 463 L 231.6 462.4 L 230.6 461.8 L 229.7 461.3 L 228.8 460.9 L 227.9 460.5 L 227.9 464 L 229.4 464.7 L 230.7 465.5 L 231.9 466.4 L 233.1 467.3 L 234.1 468.3 L 235 469.2 L 235.7 470.2 L 236.2 471.1 L 238.5 471.1 L 238.5 442.4 L 238.5 442.4 Z"/><path d="M 266 445.8 L 266 442.4 L 247 442.4 L 247 443 L 247.1 443.6 L 247.3 444.2 L 247.5 444.8 L 247.9 445.8 L 248.4 446.8 L 249 447.7 L 249.7 448.6 L 250.6 449.6 L 251.7 450.6 L 252.9 451.8 L 254.4 453 L 256.5 454.8 L 258.3 456.4 L 259.7 457.8 L 260.6 459 L 261.4 460.1 L 261.9 461.2 L 262.2 462.3 L 262.3 463.2 L 262.2 464.3 L 261.9 465.2 L 261.5 466 L 260.8 466.8 L 260 467.4 L 259.1 467.9 L 258.1 468.1 L 256.9 468.2 L 255.7 468.1 L 254.6 467.9 L 253.7 467.4 L 252.9 466.7 L 252.2 465.8 L 251.7 464.9 L 251.4 463.8 L 251.3 462.5 L 247.7 462.9 L 248 464.7 L 248.6 466.4 L 249.4 467.8 L 250.5 469 L 251.8 469.9 L 253.3 470.6 L 255.1 471 L 257 471.1 L 259 471 L 260.7 470.6 L 262.2 469.9 L 263.5 468.8 L 264.6 467.6 L 265.3 466.3 L 265.8 464.8 L 265.9 463.2 L 265.9 462.3 L 265.7 461.5 L 265.5 460.6 L 265.2 459.8 L 264.8 459 L 264.3 458.1 L 263.6 457.2 L 262.9 456.3 L 261.9 455.3 L 260.7 454.1 L 259.2 452.8 L 257.5 451.3 L 256 450.1 L 254.9 449 L 254 448.2 L 253.4 447.7 L 253 447.2 L 252.6 446.7 L 252.2 446.2 L 251.9 445.8 L 266 445.8 L 266 445.8 Z"/><path d="M 279.4 442.4 L 268.2 471 L 272.3 471 L 279.8 450.2 L 280.2 449 L 280.6 447.8 L 281 446.6 L 281.3 445.5 L 281.6 446.7 L 282 447.9 L 282.4 449 L 282.9 450.2 L 290.6 471 L 294.4 471 L 283.2 442.4 L 279.4 442.4 L 279.4 442.4 Z"/><path d="M 201.5 851 L 201.5 854.5 L 212.3 854.5 L 212.3 851 L 201.5 851 L 201.5 851 Z"/><path d="M 228.4 842.4 L 224.9 842.4 L 224.9 864.8 L 224.2 864.2 L 223.4 863.6 L 222.6 863 L 221.6 862.4 L 220.6 861.8 L 219.6 861.3 L 218.7 860.9 L 217.9 860.5 L 217.9 864 L 219.3 864.7 L 220.6 865.5 L 221.9 866.4 L 223.1 867.3 L 224.1 868.3 L 224.9 869.2 L 225.6 870.2 L 226.2 871.1 L 228.4 871.1 L 228.4 842.4 L 228.4 842.4 Z"/><path d="M 255.9 845.8 L 255.9 842.4 L 237 842.4 L 237 843 L 237.1 843.6 L 237.2 844.2 L 237.4 844.8 L 237.8 845.8 L 238.3 846.8 L 239 847.7 L 239.7 848.6 L 240.6 849.6 L 241.7 850.6 L 242.9 851.8 L 244.3 853 L 246.5 854.8 L 248.2 856.4 L 249.6 857.8 L 250.6 859 L 251.4 860.1 L 251.9 861.2 L 252.1 862.3 L 252.3 863.2 L 252.2 864.3 L 251.9 865.2 L 251.4 866 L 250.8 866.8 L 250 867.4 L 249 867.9 L 248 868.1 L 246.9 868.2 L 245.7 868.1 L 244.6 867.9 L 243.6 867.4 L 242.8 866.7 L 242.1 865.8 L 241.7 864.9 L 241.4 863.8 L 241.3 862.5 L 237.7 862.9 L 238 864.7 L 238.5 866.4 L 239.4 867.8 L 240.5 869 L 241.8 869.9 L 243.3 870.6 L 245 871 L 246.9 871.1 L 248.9 871 L 250.6 870.6 L 252.2 869.9 L 253.5 868.8 L 254.5 867.6 L 255.3 866.3 L 255.7 864.8 L 255.9 863.2 L 255.8 862.3 L 255.7 861.5 L 255.5 860.6 L 255.2 859.8 L 254.8 859 L 254.2 858.1 L 253.6 857.2 L 252.9 856.3 L 251.9 855.3 L 250.7 854.1 L 249.2 852.8 L 247.4 851.3 L 246 850.1 L 244.8 849 L 244 848.2 L 243.4 847.7 L 242.9 847.2 L 242.5 846.7 L 242.2 846.2 L 241.9 845.8 L 255.9 845.8 L 255.9 845.8 Z"/><path d="M 269.3 842.4 L 258.2 871 L 262.3 871 L 269.7 850.2 L 270.2 849 L 270.6 847.8 L 270.9 846.6 L 271.2 845.5 L 271.6 846.7 L 272 847.9 L 272.4 849 L 272.8 850.2 L 280.5 871 L 284.4 871 L 273.2 842.4 L 269.3 842.4 L 269.3 842.4 Z"/><path d="M 216.7 753.6 L 216.7 757 L 228.8 757 L 228.8 746.4 L 227.4 745.3 L 226 744.4 L 224.5 743.6 L 223.1 743 L 221.6 742.5 L 220.1 742.2 L 218.5 741.9 L 217 741.9 L 214.9 742 L 212.9 742.3 L 211.1 742.9 L 209.3 743.7 L 207.7 744.7 L 206.3 745.9 L 205.1 747.3 L 204.1 748.9 L 203.3 750.7 L 202.8 752.5 L 202.5 754.5 L 202.3 756.6 L 202.5 758.6 L 202.8 760.6 L 203.3 762.5 L 204.1 764.4 L 205.1 766 L 206.2 767.5 L 207.6 768.8 L 209.1 769.7 L 210.8 770.5 L 212.7 771.1 L 214.6 771.4 L 216.7 771.5 L 218.2 771.4 L 219.6 771.2 L 221 770.9 L 222.3 770.5 L 223.5 769.9 L 224.5 769.3 L 225.5 768.6 L 226.2 767.7 L 226.9 766.7 L 227.5 765.6 L 228 764.4 L 228.4 763 L 225 762.1 L 224.6 763.1 L 224.3 764 L 223.8 764.8 L 223.4 765.5 L 222.9 766.1 L 222.2 766.6 L 221.5 767.1 L 220.6 767.5 L 219.7 767.9 L 218.8 768.1 L 217.8 768.2 L 216.7 768.2 L 215.5 768.2 L 214.3 768.1 L 213.2 767.8 L 212.2 767.5 L 211.3 767 L 210.5 766.6 L 209.8 766 L 209.2 765.4 L 208.6 764.7 L 208.1 764 L 207.7 763.3 L 207.3 762.5 L 206.9 761.2 L 206.5 759.8 L 206.3 758.3 L 206.2 756.8 L 206.3 754.9 L 206.6 753.3 L 207 751.8 L 207.6 750.4 L 208.3 749.2 L 209.2 748.1 L 210.2 747.3 L 211.4 746.6 L 212.7 746 L 214 745.6 L 215.4 745.4 L 216.8 745.3 L 218 745.4 L 219.2 745.5 L 220.4 745.8 L 221.6 746.2 L 222.7 746.8 L 223.6 747.2 L 224.4 747.7 L 225.1 748.3 L 225.1 753.6 L 216.7 753.6 L 216.7 753.6 Z"/><path d="M 234.4 742.4 L 234.4 771 L 238.2 771 L 253.3 748.5 L 253.3 771 L 256.9 771 L 256.9 742.4 L 253.1 742.4 L 238 764.9 L 238 742.4 L 234.4 742.4 L 234.4 742.4 Z"/><path d="M 263.3 742.4 L 263.3 771 L 273.1 771 L 273.1 767.6 L 267.1 767.6 L 267.1 745.8 L 267.1 745.8 L 273.2 745.8 L 274.5 745.8 L 275.7 745.9 L 276.8 746 L 277.7 746.3 L 278.4 746.6 L 279.1 746.9 L 279.7 747.3 L 280.2 747.8 L 280.8 748.5 L 281.4 749.4 L 281.9 750.3 L 282.3 751.4 L 282.7 752.6 L 282.9 753.9 L 283 755.3 L 283.1 756.9 L 283 759 L 282.7 760.9 L 282.2 762.5 L 281.6 763.8 L 280.8 764.9 L 280 765.8 L 279 766.6 L 278 767.1 L 277.1 767.3 L 276 767.5 L 274.7 767.6 L 273.1 767.6 L 273.1 771 L 273.2 771 L 274.7 771 L 276.1 770.9 L 277.3 770.8 L 278.2 770.6 L 279.5 770.3 L 280.5 769.8 L 281.6 769.2 L 282.5 768.6 L 283.5 767.5 L 284.4 766.4 L 285.2 765.1 L 285.8 763.6 L 286.4 762.1 L 286.7 760.5 L 286.9 758.7 L 287 756.9 L 286.9 755.3 L 286.8 753.8 L 286.6 752.4 L 286.2 751.1 L 285.8 749.9 L 285.3 748.8 L 284.8 747.8 L 284.3 746.9 L 283.6 746.1 L 283 745.4 L 282.3 744.8 L 281.6 744.3 L 280.9 743.9 L 280.1 743.5 L 279.2 743.1 L 278.2 742.9 L 277.2 742.7 L 276.1 742.5 L 274.9 742.4 L 273.6 742.4 L 263.3 742.4 L 263.3 742.4 Z"/><path d="M 216.7 653.6 L 216.7 657 L 228.8 657 L 228.8 646.4 L 227.4 645.3 L 226 644.4 L 224.5 643.6 L 223.1 643 L 221.6 642.5 L 220.1 642.2 L 218.5 641.9 L 217 641.9 L 214.9 642 L 212.9 642.3 L 211.1 642.9 L 209.3 643.7 L 207.7 644.7 L 206.3 645.9 L 205.1 647.3 L 204.1 648.9 L 203.3 650.7 L 202.8 652.5 L 202.5 654.5 L 202.3 656.6 L 202.5 658.6 L 202.8 660.6 L 203.3 662.5 L 204.1 664.4 L 205.1 666 L 206.2 667.5 L 207.6 668.8 L 209.1 669.7 L 210.8 670.5 L 212.7 671.1 L 214.6 671.4 L 216.7 671.5 L 218.2 671.4 L 219.6 671.2 L 221 670.9 L 222.3 670.5 L 223.5 669.9 L 224.5 669.3 L 225.5 668.6 L 226.2 667.7 L 226.9 666.7 L 227.5 665.6 L 228 664.4 L 228.4 663 L 225 662.1 L 224.6 663.1 L 224.3 664 L 223.8 664.8 L 223.4 665.5 L 222.9 666.1 L 222.2 666.6 L 221.5 667.1 L 220.6 667.5 L 219.7 667.9 L 218.8 668.1 L 217.8 668.2 L 216.7 668.2 L 215.5 668.2 L 214.3 668.1 L 213.2 667.8 L 212.2 667.5 L 211.3 667 L 210.5 666.6 L 209.8 666 L 209.2 665.4 L 208.6 664.7 L 208.1 664 L 207.7 663.3 L 207.3 662.5 L 206.9 661.2 L 206.5 659.8 L 206.3 658.3 L 206.2 656.8 L 206.3 654.9 L 206.6 653.3 L 207 651.8 L 207.6 650.4 L 208.3 649.2 L 209.2 648.1 L 210.2 647.3 L 211.4 646.6 L 212.7 646 L 214 645.6 L 215.4 645.4 L 216.8 645.3 L 218 645.4 L 219.2 645.5 L 220.4 645.8 L 221.6 646.2 L 222.7 646.8 L 223.6 647.2 L 224.4 647.7 L 225.1 648.3 L 225.1 653.6 L 216.7 653.6 L 216.7 653.6 Z"/><path d="M 234.4 642.4 L 234.4 671 L 238.2 671 L 253.3 648.5 L 253.3 671 L 256.9 671 L 256.9 642.4 L 253.1 642.4 L 238 664.9 L 238 642.4 L 234.4 642.4 L 234.4 642.4 Z"/><path d="M 263.3 642.4 L 263.3 671 L 273.1 671 L 273.1 667.6 L 267.1 667.6 L 267.1 645.8 L 267.1 645.8 L 273.2 645.8 L 274.5 645.8 L 275.7 645.9 L 276.8 646 L 277.7 646.3 L 278.4 646.6 L 279.1 646.9 L 279.7 647.3 L 280.2 647.8 L 280.8 648.5 L 281.4 649.4 L 281.9 650.3 L 282.3 651.4 L 282.7 652.6 L 282.9 653.9 L 283 655.3 L 283.1 656.9 L 283 659 L 282.7 660.9 L 282.2 662.5 L 281.6 663.8 L 280.8 664.9 L 280 665.8 L 279 666.6 L 278 667.1 L 277.1 667.3 L 276 667.5 L 274.7 667.6 L 273.1 667.6 L 273.1 671 L 273.2 671 L 274.7 671 L 276.1 670.9 L 277.3 670.8 L 278.2 670.6 L 279.5 670.3 L 280.5 669.8 L 281.6 669.2 L 282.5 668.6 L 283.5 667.5 L 284.4 666.4 L 285.2 665.1 L 285.8 663.6 L 286.4 662.1 L 286.7 660.5 L 286.9 658.7 L 287 656.9 L 286.9 655.3 L 286.8 653.8 L 286.6 652.4 L 286.2 651.1 L 285.8 649.9 L 285.3 648.8 L 284.8 647.8 L 284.3 646.9 L 283.6 646.1 L 283 645.4 L 282.3 644.8 L 281.6 644.3 L 280.9 643.9 L 280.1 643.5 L 279.2 643.1 L 278.2 642.9 L 277.2 642.7 L 276.1 642.5 L 274.9 642.4 L 273.6 642.4 L 263.3 642.4 L 263.3 642.4 Z"/><path d="M 216.7 553.6 L 216.7 557 L 228.8 557 L 228.8 546.4 L 227.4 545.3 L 226 544.4 L 224.5 543.6 L 223.1 543 L 221.6 542.5 L 220.1 542.2 L 218.5 541.9 L 217 541.9 L 214.9 542 L 212.9 542.3 L 211.1 542.9 L 209.3 543.7 L 207.7 544.7 L 206.3 545.9 L 205.1 547.3 L 204.1 548.9 L 203.3 550.7 L 202.8 552.5 L 202.5 554.5 L 202.3 556.6 L 202.5 558.6 L 202.8 560.6 L 203.3 562.5 L 204.1 564.4 L 205.1 566 L 206.2 567.5 L 207.6 568.8 L 209.1 569.7 L 210.8 570.5 L 212.7 571.1 L 214.6 571.4 L 216.7 571.5 L 218.2 571.4 L 219.6 571.2 L 221 570.9 L 222.3 570.5 L 223.5 569.9 L 224.5 569.3 L 225.5 568.6 L 226.2 567.7 L 226.9 566.7 L 227.5 565.6 L 228 564.4 L 228.4 563 L 225 562.1 L 224.6 563.1 L 224.3 564 L 223.8 564.8 L 223.4 565.5 L 222.9 566.1 L 222.2 566.6 L 221.5 567.1 L 220.6 567.5 L 219.7 567.9 L 218.8 568.1 L 217.8 568.2 L 216.7 568.2 L 215.5 568.2 L 214.3 568.1 L 213.2 567.8 L 212.2 567.5 L 211.3 567 L 210.5 566.6 L 209.8 566 L 209.2 565.4 L 208.6 564.7 L 208.1 564 L 207.7 563.3 L 207.3 562.5 L 206.9 561.2 L 206.5 559.8 L 206.3 558.3 L 206.2 556.8 L 206.3 554.9 L 206.6 553.3 L 207 551.8 L 207.6 550.4 L 208.3 549.2 L 209.2 548.1 L 210.2 547.3 L 211.4 546.6 L 212.7 546 L 214 545.6 L 215.4 545.4 L 216.8 545.3 L 218 545.4 L 219.2 545.5 L 220.4 545.8 L 221.6 546.2 L 222.7 546.8 L 223.6 547.2 L 224.4 547.7 L 225.1 548.3 L 225.1 553.6 L 216.7 553.6 L 216.7 553.6 Z"/><path d="M 234.4 542.4 L 234.4 571 L 238.2 571 L 253.3 548.5 L 253.3 571 L 256.9 571 L 256.9 542.4 L 253.1 542.4 L 238 564.9 L 238 542.4 L 234.4 542.4 L 234.4 542.4 Z"/><path d="M 263.3 542.4 L 263.3 571 L 273.1 571 L 273.1 567.6 L 267.1 567.6 L 267.1 545.8 L 267.1 545.8 L 273.2 545.8 L 274.5 545.8 L 275.7 545.9 L 276.8 546 L 277.7 546.3 L 278.4 546.6 L 279.1 546.9 L 279.7 547.3 L 280.2 547.8 L 280.8 548.5 L 281.4 549.4 L 281.9 550.3 L 282.3 551.4 L 282.7 552.6 L 282.9 553.9 L 283 555.3 L 283.1 556.9 L 283 559 L 282.7 560.9 L 282.2 562.5 L 281.6 563.8 L 280.8 564.9 L 280 565.8 L 279 566.6 L 278 567.1 L 277.1 567.3 L 276 567.5 L 274.7 567.6 L 273.1 567.6 L 273.1 571 L 273.2 571 L 274.7 571 L 276.1 570.9 L 277.3 570.8 L 278.2 570.6 L 279.5 570.3 L 280.5 569.8 L 281.6 569.2 L 282.5 568.6 L 283.5 567.5 L 284.4 566.4 L 285.2 565.1 L 285.8 563.6 L 286.4 562.1 L 286.7 560.5 L 286.9 558.7 L 287 556.9 L 286.9 555.3 L 286.8 553.8 L 286.6 552.4 L 286.2 551.1 L 285.8 549.9 L 285.3 548.8 L 284.8 547.8 L 284.3 546.9 L 283.6 546.1 L 283 545.4 L 282.3 544.8 L 281.6 544.3 L 280.9 543.9 L 280.1 543.5 L 279.2 543.1 L 278.2 542.9 L 277.2 542.7 L 276.1 542.5 L 274.9 542.4 L 273.6 542.4 L 263.3 542.4 L 263.3 542.4 Z"/><path stroke-width="5.9" fill="none" d="M 661 556.6 L 661 488.4 M 724 556.6 L 724 488.4"/><path stroke-width="11.8" fill="none" d="M 663.8 545.2 L 721.2 545.2"/><use x="692.5" y="625.3" xlink:href="#tool-D12-pad-1015"/><path d="M 758.8 514.8 L 762.5 513.9 L 761.8 511.7 L 760.9 509.8 L 759.7 508.2 L 758.3 506.9 L 756.7 505.8 L 754.9 505.1 L 753 504.6 L 750.9 504.5 L 748.7 504.6 L 746.8 504.9 L 745 505.5 L 743.4 506.3 L 742.1 507.3 L 741 508.6 L 739.9 510 L 739.1 511.7 L 738.4 513.5 L 738 515.3 L 737.7 517.3 L 737.6 519.2 L 737.7 521.4 L 738.1 523.4 L 738.6 525.2 L 739.3 526.9 L 740.3 528.4 L 741.4 529.8 L 742.6 531 L 744.1 531.9 L 745.7 532.7 L 747.3 533.2 L 749.1 533.5 L 750.9 533.6 L 753 533.5 L 754.8 533.1 L 756.5 532.4 L 758.1 531.4 L 759.4 530.3 L 760.5 528.9 L 761.4 527.2 L 762.1 525.4 L 758.4 524.5 L 757.9 526 L 757.2 527.2 L 756.4 528.2 L 755.5 529 L 754.5 529.6 L 753.4 530.1 L 752.2 530.3 L 750.8 530.4 L 749.3 530.3 L 747.9 530 L 746.6 529.5 L 745.4 528.8 L 744.4 528 L 743.6 527 L 742.9 525.9 L 742.3 524.7 L 741.9 523.4 L 741.7 522 L 741.5 520.6 L 741.5 519.3 L 741.5 517.5 L 741.7 515.9 L 742.1 514.4 L 742.5 513 L 743.1 511.7 L 743.8 510.6 L 744.7 509.7 L 745.8 509 L 746.9 508.4 L 748.1 508 L 749.3 507.7 L 750.6 507.7 L 752.1 507.8 L 753.4 508.1 L 754.7 508.7 L 755.9 509.5 L 756.9 510.5 L 757.7 511.7 L 758.3 513.2 L 758.8 514.8 L 758.8 514.8 Z"/><path d="M 771 520.2 L 772.2 518.1 L 771.7 517.8 L 770.8 517.1 L 770.1 516.2 L 769.7 515.3 L 769.4 514.2 L 769.2 513.1 L 769.2 513.1 L 769.3 512.3 L 769.4 511.6 L 769.6 510.9 L 769.9 510.2 L 770.3 509.5 L 770.8 509 L 771.4 508.5 L 772 508.1 L 772.7 507.7 L 773.5 507.5 L 774.2 507.3 L 775 507.3 L 776.2 507.4 L 777.3 507.7 L 778.2 508.2 L 779.1 508.9 L 779.8 509.7 L 780.3 510.7 L 780.6 511.8 L 780.7 513 L 780.6 514.2 L 780.3 515.3 L 779.8 516.2 L 779.1 517.1 L 778.2 517.8 L 777.2 518.3 L 776.1 518.6 L 774.9 518.7 L 773.7 518.6 L 772.7 518.3 L 772.2 518.1 L 771 520.2 L 772.3 522.3 L 773.1 521.9 L 774 521.6 L 775 521.6 L 776 521.6 L 776.8 521.9 L 777.6 522.3 L 778.3 522.8 L 778.8 523.5 L 779.2 524.2 L 779.5 525 L 779.5 525.9 L 779.5 526.8 L 779.2 527.7 L 778.8 528.4 L 778.2 529.1 L 777.5 529.7 L 776.8 530.1 L 775.9 530.3 L 774.9 530.4 L 774 530.3 L 773.1 530.1 L 772.4 529.7 L 771.7 529.1 L 771.1 528.4 L 770.7 527.7 L 770.5 526.9 L 770.4 526.1 L 770.4 526.1 L 770.5 525.1 L 770.7 524.3 L 771.1 523.5 L 771.6 522.8 L 772.3 522.3 L 771 520.2 L 770.1 520.6 L 769.2 521.2 L 768.4 521.8 L 767.9 522.5 L 767.4 523.2 L 767.1 524.1 L 766.9 525 L 766.8 526 L 766.9 527.5 L 767.4 528.8 L 768.1 530 L 769 531.2 L 770.2 532.1 L 771.6 532.7 L 773.2 533.1 L 774.9 533.2 L 776.7 533.1 L 778.2 532.7 L 779.6 532 L 780.8 531.1 L 781.8 530 L 782.5 528.7 L 783 527.3 L 783.1 525.9 L 783.1 524.9 L 782.9 524 L 782.5 523.2 L 782.1 522.5 L 781.5 521.8 L 780.8 521.2 L 779.9 520.6 L 779 520.2 L 780.2 519.7 L 781.2 519.1 L 782.1 518.4 L 782.9 517.5 L 783.5 516.5 L 783.9 515.4 L 784.2 514.3 L 784.3 513 L 784.1 511.3 L 783.6 509.7 L 782.8 508.2 L 781.7 506.9 L 780.3 505.8 L 778.8 505.1 L 776.9 504.6 L 775 504.5 L 773 504.6 L 771.2 505.1 L 769.6 505.8 L 768.2 506.9 L 767.1 508.2 L 766.3 509.7 L 765.8 511.3 L 765.7 513.1 L 765.8 514.4 L 766 515.6 L 766.5 516.7 L 767.1 517.7 L 767.9 518.6 L 768.8 519.3 L 769.8 519.8 L 771 520.2 L 771 520.2 Z"/><path stroke-width="5.9" fill="none" d="M 511 556.6 L 511 488.4 M 574 556.6 L 574 488.4"/><path stroke-width="11.8" fill="none" d="M 513.8 545.2 L 571.2 545.2"/><use x="542.5" y="625.3" xlink:href="#tool-D12-pad-1015"/><path d="M 608.8 514.8 L 612.5 513.9 L 611.8 511.7 L 610.9 509.8 L 609.7 508.2 L 608.3 506.9 L 606.7 505.8 L 604.9 505.1 L 603 504.6 L 600.9 504.5 L 598.7 504.6 L 596.8 504.9 L 595 505.5 L 593.4 506.3 L 592.1 507.3 L 591 508.6 L 589.9 510 L 589.1 511.7 L 588.4 513.5 L 588 515.3 L 587.7 517.3 L 587.6 519.2 L 587.7 521.4 L 588.1 523.4 L 588.6 525.2 L 589.3 526.9 L 590.3 528.4 L 591.4 529.8 L 592.6 531 L 594.1 531.9 L 595.7 532.7 L 597.3 533.2 L 599.1 533.5 L 600.9 533.6 L 603 533.5 L 604.8 533.1 L 606.5 532.4 L 608.1 531.4 L 609.4 530.3 L 610.5 528.9 L 611.4 527.2 L 612.1 525.4 L 608.4 524.5 L 607.9 526 L 607.2 527.2 L 606.4 528.2 L 605.5 529 L 604.5 529.6 L 603.4 530.1 L 602.2 530.3 L 600.8 530.4 L 599.3 530.3 L 597.9 530 L 596.6 529.5 L 595.4 528.8 L 594.4 528 L 593.6 527 L 592.9 525.9 L 592.3 524.7 L 591.9 523.4 L 591.7 522 L 591.5 520.6 L 591.5 519.3 L 591.5 517.5 L 591.7 515.9 L 592.1 514.4 L 592.5 513 L 593.1 511.7 L 593.8 510.6 L 594.7 509.7 L 595.8 509 L 596.9 508.4 L 598.1 508 L 599.3 507.7 L 600.6 507.7 L 602.1 507.8 L 603.4 508.1 L 604.7 508.7 L 605.9 509.5 L 606.9 510.5 L 607.7 511.7 L 608.3 513.2 L 608.8 514.8 L 608.8 514.8 Z"/><path d="M 615.7 512.3 L 619.4 512.6 L 619.6 511.4 L 620 510.3 L 620.6 509.4 L 621.2 508.6 L 622 508.1 L 622.9 507.7 L 623.8 507.4 L 624.8 507.3 L 626 507.4 L 627.1 507.8 L 628.1 508.4 L 629 509.2 L 629.8 510.2 L 630.3 511.4 L 630.6 512.7 L 630.7 514.2 L 630.6 515.6 L 630.3 516.8 L 629.8 517.9 L 629.1 518.9 L 628.2 519.6 L 627.1 520.1 L 626 520.5 L 624.7 520.6 L 623.9 520.5 L 623.1 520.4 L 622.4 520.1 L 621.7 519.8 L 621.1 519.4 L 620.5 519 L 620 518.4 L 619.6 517.9 L 616.4 518.2 L 619.1 532.7 L 633.1 532.7 L 633.1 529.4 L 621.8 529.4 L 620.3 521.9 L 621.6 522.6 L 622.9 523.2 L 624.3 523.5 L 625.6 523.6 L 627.4 523.5 L 629 523 L 630.5 522.2 L 631.9 521.1 L 633 519.7 L 633.8 518.1 L 634.3 516.4 L 634.4 514.5 L 634.3 512.7 L 633.8 510.9 L 633.2 509.4 L 632.2 507.9 L 630.7 506.4 L 629 505.3 L 627 504.7 L 624.8 504.5 L 622.9 504.6 L 621.3 505 L 619.8 505.7 L 618.5 506.6 L 617.4 507.8 L 616.6 509.1 L 616 510.6 L 615.7 512.3 L 615.7 512.3 Z"/><path stroke-width="5.9" fill="none" d="M 424 263.4 L 424 331.6 M 361 263.4 L 361 331.6"/><path stroke-width="11.8" fill="none" d="M 421.2 274.8 L 363.8 274.8"/><use x="392.5" y="194.7" xlink:href="#tool-D14-pad-1017"/><path d="M 462.5 292.6 L 466.3 291.6 L 465.6 289.5 L 464.6 287.6 L 463.5 286 L 462.1 284.6 L 460.5 283.6 L 458.7 282.8 L 456.7 282.4 L 454.6 282.2 L 452.4 282.3 L 450.5 282.7 L 448.7 283.2 L 447.2 284.1 L 445.8 285.1 L 444.7 286.4 L 443.7 287.8 L 442.9 289.4 L 442.2 291.2 L 441.8 293.1 L 441.5 295 L 441.4 297 L 441.5 299.1 L 441.8 301.1 L 442.3 303 L 443.1 304.7 L 444 306.2 L 445.1 307.6 L 446.4 308.7 L 447.8 309.7 L 449.4 310.4 L 451.1 310.9 L 452.9 311.2 L 454.7 311.4 L 456.7 311.2 L 458.6 310.8 L 460.3 310.1 L 461.8 309.2 L 463.1 308 L 464.2 306.6 L 465.1 305 L 465.8 303.2 L 462.1 302.3 L 461.6 303.7 L 460.9 304.9 L 460.2 306 L 459.3 306.8 L 458.3 307.4 L 457.2 307.8 L 455.9 308.1 L 454.6 308.2 L 453.1 308.1 L 451.6 307.8 L 450.3 307.3 L 449.2 306.6 L 448.2 305.8 L 447.3 304.8 L 446.6 303.7 L 446.1 302.4 L 445.7 301.1 L 445.4 299.8 L 445.3 298.4 L 445.2 297 L 445.3 295.3 L 445.5 293.6 L 445.8 292.1 L 446.2 290.7 L 446.9 289.5 L 447.6 288.4 L 448.5 287.5 L 449.5 286.8 L 450.6 286.2 L 451.8 285.7 L 453.1 285.5 L 454.3 285.4 L 455.8 285.5 L 457.2 285.8 L 458.4 286.4 L 459.6 287.2 L 460.6 288.2 L 461.4 289.5 L 462.1 290.9 L 462.5 292.6 L 462.5 292.6 Z"/><path d="M 482.5 282.7 L 479 282.7 L 479 304.7 L 478.4 304.2 L 477.6 303.6 L 476.7 303 L 475.8 302.4 L 474.8 301.8 L 473.8 301.3 L 473 300.9 L 472.1 300.6 L 472.1 303.9 L 473.5 304.6 L 474.9 305.4 L 476.1 306.3 L 477.2 307.2 L 478.2 308.2 L 479 309.2 L 479.7 310.1 L 480.3 311 L 482.5 311 L 482.5 282.7 L 482.5 282.7 Z"/><path stroke-width="5.9" fill="none" d="M 361 556.6 L 361 488.4 M 424 556.6 L 424 488.4"/><path stroke-width="11.8" fill="none" d="M 363.8 545.2 L 421.2 545.2"/><use x="392.5" y="625.3" xlink:href="#tool-D12-pad-1015"/><path d="M 458.8 514.8 L 462.5 513.9 L 461.8 511.7 L 460.9 509.8 L 459.7 508.2 L 458.3 506.9 L 456.7 505.8 L 454.9 505.1 L 453 504.6 L 450.9 504.5 L 448.7 504.6 L 446.8 504.9 L 445 505.5 L 443.4 506.3 L 442.1 507.3 L 441 508.6 L 439.9 510 L 439.1 511.7 L 438.4 513.5 L 438 515.3 L 437.7 517.3 L 437.6 519.2 L 437.7 521.4 L 438.1 523.4 L 438.6 525.2 L 439.3 526.9 L 440.3 528.4 L 441.4 529.8 L 442.6 531 L 444.1 531.9 L 445.7 532.7 L 447.3 533.2 L 449.1 533.5 L 450.9 533.6 L 453 533.5 L 454.8 533.1 L 456.5 532.4 L 458.1 531.4 L 459.4 530.3 L 460.5 528.9 L 461.4 527.2 L 462.1 525.4 L 458.4 524.5 L 457.9 526 L 457.2 527.2 L 456.4 528.2 L 455.5 529 L 454.5 529.6 L 453.4 530.1 L 452.2 530.3 L 450.8 530.4 L 449.3 530.3 L 447.9 530 L 446.6 529.5 L 445.4 528.8 L 444.4 528 L 443.6 527 L 442.9 525.9 L 442.3 524.7 L 441.9 523.4 L 441.7 522 L 441.5 520.6 L 441.5 519.3 L 441.5 517.5 L 441.7 515.9 L 442.1 514.4 L 442.5 513 L 443.1 511.7 L 443.8 510.6 L 444.7 509.7 L 445.8 509 L 446.9 508.4 L 448.1 508 L 449.3 507.7 L 450.6 507.7 L 452.1 507.8 L 453.4 508.1 L 454.7 508.7 L 455.9 509.5 L 456.9 510.5 L 457.7 511.7 L 458.3 513.2 L 458.8 514.8 L 458.8 514.8 Z"/><path d="M 483.9 508.2 L 483.9 504.9 L 465.3 504.9 L 465.3 505.6 L 465.4 506.2 L 465.5 506.8 L 465.7 507.3 L 466.1 508.3 L 466.6 509.2 L 467.2 510.2 L 468 511.1 L 468.8 512.1 L 469.9 513.1 L 471.1 514.2 L 472.5 515.4 L 474.6 517.1 L 476.4 518.7 L 477.7 520.1 L 478.7 521.3 L 479.4 522.4 L 479.9 523.5 L 480.2 524.5 L 480.3 525.5 L 480.2 526.5 L 479.9 527.4 L 479.5 528.2 L 478.8 529 L 478.1 529.6 L 477.1 530 L 476.1 530.3 L 475 530.4 L 473.8 530.3 L 472.8 530 L 471.8 529.5 L 471 528.9 L 470.4 528.1 L 469.9 527.1 L 469.6 526 L 469.5 524.7 L 465.9 525.1 L 466.2 526.9 L 466.8 528.6 L 467.6 530 L 468.7 531.2 L 470 532.1 L 471.5 532.7 L 473.2 533.1 L 475.1 533.2 L 477 533.1 L 478.7 532.7 L 480.2 532 L 481.5 531 L 482.5 529.8 L 483.3 528.5 L 483.7 527 L 483.9 525.4 L 483.8 524.6 L 483.7 523.7 L 483.5 522.9 L 483.2 522.1 L 482.8 521.3 L 482.3 520.4 L 481.6 519.5 L 480.9 518.6 L 479.9 517.7 L 478.8 516.5 L 477.3 515.2 L 475.6 513.7 L 474.2 512.5 L 473 511.5 L 472.1 510.7 L 471.6 510.1 L 471.1 509.7 L 470.7 509.2 L 470.4 508.7 L 470.1 508.2 L 483.9 508.2 L 483.9 508.2 Z"/><path stroke-width="5.9" fill="none" d="M 724 263.4 L 724 331.6 M 661 263.4 L 661 331.6"/><path stroke-width="11.8" fill="none" d="M 721.2 274.8 L 663.8 274.8"/><use x="692.5" y="194.7" xlink:href="#tool-D14-pad-1017"/><path d="M 762.5 292.6 L 766.3 291.6 L 765.6 289.5 L 764.6 287.6 L 763.5 286 L 762.1 284.6 L 760.5 283.6 L 758.7 282.8 L 756.7 282.4 L 754.6 282.2 L 752.4 282.3 L 750.5 282.7 L 748.7 283.2 L 747.2 284.1 L 745.8 285.1 L 744.7 286.4 L 743.7 287.8 L 742.9 289.4 L 742.2 291.2 L 741.8 293.1 L 741.5 295 L 741.4 297 L 741.5 299.1 L 741.8 301.1 L 742.3 303 L 743.1 304.7 L 744 306.2 L 745.1 307.6 L 746.4 308.7 L 747.8 309.7 L 749.4 310.4 L 751.1 310.9 L 752.9 311.2 L 754.7 311.4 L 756.7 311.2 L 758.6 310.8 L 760.3 310.1 L 761.8 309.2 L 763.1 308 L 764.2 306.6 L 765.1 305 L 765.8 303.2 L 762.1 302.3 L 761.6 303.7 L 760.9 304.9 L 760.2 306 L 759.3 306.8 L 758.3 307.4 L 757.2 307.8 L 755.9 308.1 L 754.6 308.2 L 753.1 308.1 L 751.6 307.8 L 750.3 307.3 L 749.2 306.6 L 748.2 305.8 L 747.3 304.8 L 746.6 303.7 L 746.1 302.4 L 745.7 301.1 L 745.4 299.8 L 745.3 298.4 L 745.2 297 L 745.3 295.3 L 745.5 293.6 L 745.8 292.1 L 746.2 290.7 L 746.9 289.5 L 747.6 288.4 L 748.5 287.5 L 749.5 286.8 L 750.6 286.2 L 751.8 285.7 L 753.1 285.5 L 754.3 285.4 L 755.8 285.5 L 757.2 285.8 L 758.4 286.4 L 759.6 287.2 L 760.6 288.2 L 761.4 289.5 L 762.1 290.9 L 762.5 292.6 L 762.5 292.6 Z"/><path d="M 769.7 307.2 L 769.7 310.5 L 787.9 310.5 L 787.9 307.8 L 786.6 306.3 L 785.3 304.5 L 783.9 302.5 L 782.6 300.2 L 781.4 297.8 L 780.3 295.4 L 779.3 292.9 L 778.5 290.5 L 778.1 288.6 L 777.7 286.8 L 777.4 284.7 L 777.2 282.7 L 773.6 282.7 L 773.8 284.4 L 774 286.4 L 774.4 288.4 L 774.9 290.7 L 775.6 293.1 L 776.5 295.4 L 777.4 297.6 L 778.5 299.8 L 779.7 301.9 L 780.9 303.8 L 782.2 305.6 L 783.5 307.2 L 769.7 307.2 L 769.7 307.2 Z"/><path stroke-width="5.9" fill="none" d="M 574 263.4 L 574 331.6 M 511 263.4 L 511 331.6"/><path stroke-width="11.8" fill="none" d="M 571.2 274.8 L 513.8 274.8"/><use x="542.5" y="194.7" xlink:href="#tool-D14-pad-1017"/><path d="M 612.5 292.6 L 616.3 291.6 L 615.6 289.5 L 614.6 287.6 L 613.5 286 L 612.1 284.6 L 610.5 283.6 L 608.7 282.8 L 606.7 282.4 L 604.6 282.2 L 602.4 282.3 L 600.5 282.7 L 598.7 283.2 L 597.2 284.1 L 595.8 285.1 L 594.7 286.4 L 593.7 287.8 L 592.9 289.4 L 592.2 291.2 L 591.8 293.1 L 591.5 295 L 591.4 297 L 591.5 299.1 L 591.8 301.1 L 592.3 303 L 593.1 304.7 L 594 306.2 L 595.1 307.6 L 596.4 308.7 L 597.8 309.7 L 599.4 310.4 L 601.1 310.9 L 602.9 311.2 L 604.7 311.4 L 606.7 311.2 L 608.6 310.8 L 610.3 310.1 L 611.8 309.2 L 613.1 308 L 614.2 306.6 L 615.1 305 L 615.8 303.2 L 612.1 302.3 L 611.6 303.7 L 610.9 304.9 L 610.2 306 L 609.3 306.8 L 608.3 307.4 L 607.2 307.8 L 605.9 308.1 L 604.6 308.2 L 603.1 308.1 L 601.6 307.8 L 600.3 307.3 L 599.2 306.6 L 598.2 305.8 L 597.3 304.8 L 596.6 303.7 L 596.1 302.4 L 595.7 301.1 L 595.4 299.8 L 595.3 298.4 L 595.2 297 L 595.3 295.3 L 595.5 293.6 L 595.8 292.1 L 596.2 290.7 L 596.9 289.5 L 597.6 288.4 L 598.5 287.5 L 599.5 286.8 L 600.6 286.2 L 601.8 285.7 L 603.1 285.5 L 604.3 285.4 L 605.8 285.5 L 607.2 285.8 L 608.4 286.4 L 609.6 287.2 L 610.6 288.2 L 611.4 289.5 L 612.1 290.9 L 612.5 292.6 L 612.5 292.6 Z"/><path d="M 630.6 282.7 L 630.6 289.4 L 618.3 289.4 L 618.3 292.6 L 628.4 306.9 L 630.6 305.3 L 621.8 292.6 L 630.6 292.6 L 630.6 292.6 L 630.6 305.3 L 628.4 306.9 L 631.2 310.9 L 634 310.9 L 634 292.6 L 637.8 292.6 L 637.8 289.4 L 634 289.4 L 634 282.7 L 630.6 282.7 L 630.6 282.7 Z"/><path stroke-width="5.9" fill="none" d="M 661 831.6 L 661 763.4 M 724 831.6 L 724 763.4"/><path stroke-width="11.8" fill="none" d="M 663.8 820.2 L 721.2 820.2"/><use x="692.5" y="900.3" xlink:href="#tool-D12-pad-1015"/><path d="M 762.5 793.6 L 766.3 792.6 L 765.6 790.5 L 764.6 788.6 L 763.5 786.9 L 762.1 785.6 L 760.5 784.5 L 758.7 783.8 L 756.7 783.4 L 754.6 783.2 L 752.4 783.3 L 750.5 783.7 L 748.7 784.2 L 747.2 785.1 L 745.8 786.1 L 744.7 787.3 L 743.7 788.8 L 742.9 790.4 L 742.2 792.2 L 741.8 794.1 L 741.5 796 L 741.4 798 L 741.5 800.1 L 741.8 802.1 L 742.3 804 L 743.1 805.6 L 744 807.2 L 745.1 808.6 L 746.4 809.7 L 747.8 810.6 L 749.4 811.4 L 751.1 811.9 L 752.9 812.2 L 754.7 812.3 L 756.7 812.2 L 758.6 811.8 L 760.3 811.1 L 761.8 810.2 L 763.1 809 L 764.2 807.6 L 765.1 806 L 765.8 804.2 L 762.1 803.3 L 761.6 804.7 L 760.9 805.9 L 760.2 806.9 L 759.3 807.7 L 758.3 808.4 L 757.2 808.8 L 755.9 809.1 L 754.6 809.2 L 753.1 809.1 L 751.6 808.8 L 750.3 808.3 L 749.2 807.6 L 748.2 806.8 L 747.3 805.8 L 746.6 804.7 L 746.1 803.4 L 745.7 802.1 L 745.4 800.8 L 745.3 799.4 L 745.2 798 L 745.3 796.3 L 745.5 794.6 L 745.8 793.1 L 746.2 791.7 L 746.9 790.5 L 747.6 789.4 L 748.5 788.5 L 749.5 787.7 L 750.6 787.1 L 751.8 786.7 L 753.1 786.5 L 754.3 786.4 L 755.8 786.5 L 757.2 786.8 L 758.4 787.4 L 759.6 788.2 L 760.6 789.2 L 761.4 790.5 L 762.1 791.9 L 762.5 793.6 L 762.5 793.6 Z"/><path d="M 770 790.2 L 773.3 790.5 L 773.6 789.4 L 773.9 788.5 L 774.4 787.7 L 774.9 787.1 L 775.6 786.6 L 776.3 786.3 L 777.1 786.1 L 778 786 L 778.8 786.1 L 779.5 786.2 L 780.2 786.4 L 780.8 786.8 L 781.4 787.2 L 781.9 787.6 L 782.3 788.1 L 782.7 788.7 L 783.1 789.4 L 783.4 790.2 L 783.8 791 L 784 792 L 784.3 793.1 L 784.4 794.1 L 784.5 795.2 L 784.5 796.2 L 784.5 796.4 L 784.5 796.6 L 784.5 796.7 L 784.5 796.9 L 782.8 798.2 L 783.3 798.9 L 783.8 800 L 784.1 801.2 L 784.2 802.6 L 784.2 802.6 L 784.1 804 L 783.8 805.3 L 783.2 806.4 L 782.6 807.4 L 781.8 808.1 L 780.8 808.7 L 779.8 809 L 778.8 809.1 L 777.7 809 L 776.6 808.6 L 775.6 808.1 L 774.7 807.2 L 774 806.2 L 773.4 805.1 L 773.1 803.8 L 773 802.3 L 773.1 801.1 L 773.4 799.9 L 774 798.9 L 774.7 798 L 775.5 797.2 L 776.5 796.7 L 777.5 796.4 L 778.6 796.3 L 779.8 796.4 L 780.8 796.7 L 781.8 797.2 L 782.6 798 L 782.8 798.2 L 784.5 796.9 L 784 796.2 L 783.3 795.5 L 782.5 794.8 L 781.7 794.3 L 780.8 793.8 L 779.8 793.5 L 778.8 793.3 L 777.8 793.2 L 776.1 793.4 L 774.6 793.9 L 773.2 794.7 L 771.9 795.8 L 770.8 797.1 L 770.1 798.7 L 769.6 800.5 L 769.5 802.5 L 769.6 804.5 L 770.1 806.3 L 770.9 807.9 L 772 809.4 L 773.3 810.5 L 774.9 811.3 L 776.5 811.8 L 778.3 812 L 779.7 811.9 L 781 811.6 L 782.2 811.2 L 783.4 810.5 L 784.4 809.7 L 785.4 808.7 L 786.2 807.6 L 786.8 806.3 L 787.3 804.7 L 787.7 802.9 L 787.9 800.8 L 788 798.4 L 787.9 795.8 L 787.7 793.5 L 787.3 791.5 L 786.8 789.7 L 786.2 788.2 L 785.4 786.9 L 784.4 785.8 L 783.3 784.9 L 782.1 784.2 L 780.8 783.6 L 779.4 783.3 L 777.9 783.2 L 776.3 783.3 L 774.9 783.6 L 773.6 784.2 L 772.5 785 L 771.6 786 L 770.8 787.3 L 770.3 788.6 L 770 790.2 L 770 790.2 Z"/></g></g><use class="pcb_board-cf" mask="url(#pcb_top-cu_finish-mask)" xlink:href="#pcb_top-sm"/></g></g></svg>