<?xml version="1.0" encoding="utf-8" ?>
<svg baseProfile="tiny" height="99.786611734" version="1.2" width="90.786611954" xmlns="http://www.w3.org/2000/svg" xmlns:ev="http://www.w3.org/2001/xml-events" xmlns:xlink="http://www.w3.org/1999/xlink"><defs /><g id="paths" stroke="green"><path d="M 4.893306967,94.893304767 L 85.893304987,94.893304767 L 85.893304987,4.893306967 L 4.893306967,4.893306967 L 4.893306967,94.893304767 Z" fill-opacity="0" stroke-linejoin="round" stroke-width="1.0" /></g><g fill="red" id="top_parts" stroke="red"><line stroke-linecap="round" stroke-width="0.5" x1="56.3209" x2="56.3209" y1="16.3157" y2="31.2709" /><line stroke-linecap="round" stroke-width="0.5" x1="56.3209" x2="49.7657" y1="31.2709" y2="31.2709" /><line stroke-linecap="round" stroke-width="0.5" x1="49.7657" x2="49.7657" y1="31.2709" y2="16.3157" /><line stroke-linecap="round" stroke-width="0.5" x1="49.7657" x2="56.3209" y1="16.3157" y2="16.3157" /><text font-family="monospace" font-size="2" stroke-width="0.1" text-anchor="middle" x="53.04330579" y="23.793306505">C6</text><line stroke-linecap="round" stroke-width="0.5" x1="42.8209" x2="42.8209" y1="16.3157" y2="31.2709" /><line stroke-linecap="round" stroke-width="0.5" x1="42.8209" x2="36.2657" y1="31.2709" y2="31.2709" /><line stroke-linecap="round" stroke-width="0.5" x1="36.2657" x2="36.2657" y1="31.2709" y2="16.3157" /><line stroke-linecap="round" stroke-width="0.5" x1="36.2657" x2="42.8209" y1="16.3157" y2="16.3157" /><text font-family="monospace" font-size="2" stroke-width="0.1" text-anchor="middle" x="39.54330612" y="23.793306505">C3</text><line stroke-linecap="round" stroke-width="0.5" x1="4.8933" x2="22.6098" y1="-0.1382" y2="-0.1382" /><line stroke-linecap="round" stroke-width="0.5" x1="22.6098" x2="22.6098" y1="-0.1382" y2="99.9248" /><line stroke-linecap="round" stroke-width="0.5" x1="22.6098" x2="4.8933" y1="99.9248" y2="99.9248" /><line stroke-linecap="round" stroke-width="0.5" x1="4.8933" x2="4.8933" y1="99.9248" y2="-0.1382" /><text font-family="monospace" font-size="2" stroke-width="0.1" text-anchor="middle" x="13.751574467" y="49.893305867">J1</text><line stroke-linecap="round" stroke-width="0.5" x1="69.8209" x2="69.8209" y1="41.0657" y2="56.0209" /><line stroke-linecap="round" stroke-width="0.5" x1="69.8209" x2="63.2657" y1="56.0209" y2="56.0209" /><line stroke-linecap="round" stroke-width="0.5" x1="63.2657" x2="63.2657" y1="56.0209" y2="41.0657" /><line stroke-linecap="round" stroke-width="0.5" x1="63.2657" x2="69.8209" y1="41.0657" y2="41.0657" /><text font-family="monospace" font-size="2" stroke-width="0.1" text-anchor="middle" x="66.54330546" y="48.5433059">C8</text><line stroke-linecap="round" stroke-width="0.5" x1="56.3209" x2="56.3209" y1="41.0657" y2="56.0209" /><line stroke-linecap="round" stroke-width="0.5" x1="56.3209" x2="49.7657" y1="56.0209" y2="56.0209" /><line stroke-linecap="round" stroke-width="0.5" x1="49.7657" x2="49.7657" y1="56.0209" y2="41.0657" /><line stroke-linecap="round" stroke-width="0.5" x1="49.7657" x2="56.3209" y1="41.0657" y2="41.0657" /><text font-family="monospace" font-size="2" stroke-width="0.1" text-anchor="middle" x="53.04330579" y="48.5433059">C5</text><line stroke-linecap="round" stroke-width="0.5" x1="36.2657" x2="36.2657" y1="76.2709" y2="61.3157" /><line stroke-linecap="round" stroke-width="0.5" x1="36.2657" x2="42.8209" y1="61.3157" y2="61.3157" /><line stroke-linecap="round" stroke-width="0.5" x1="42.8209" x2="42.8209" y1="61.3157" y2="76.2709" /><line stroke-linecap="round" stroke-width="0.5" x1="42.8209" x2="36.2657" y1="76.2709" y2="76.2709" /><text font-family="monospace" font-size="2" stroke-width="0.1" text-anchor="middle" x="39.54330612" y="68.793305405">C1</text><line stroke-linecap="round" stroke-width="0.5" x1="42.8209" x2="42.8209" y1="41.0657" y2="56.0209" /><line stroke-linecap="round" stroke-width="0.5" x1="42.8209" x2="36.2657" y1="56.0209" y2="56.0209" /><line stroke-linecap="round" stroke-width="0.5" x1="36.2657" x2="36.2657" y1="56.0209" y2="41.0657" /><line stroke-linecap="round" stroke-width="0.5" x1="36.2657" x2="42.8209" y1="41.0657" y2="41.0657" /><text font-family="monospace" font-size="2" stroke-width="0.1" text-anchor="middle" x="39.54330612" y="48.5433059">C2</text><line stroke-linecap="round" stroke-width="0.5" x1="63.2657" x2="63.2657" y1="76.2709" y2="61.3157" /><line stroke-linecap="round" stroke-width="0.5" x1="63.2657" x2="69.8209" y1="61.3157" y2="61.3157" /><line stroke-linecap="round" stroke-width="0.5" x1="69.8209" x2="69.8209" y1="61.3157" y2="76.2709" /><line stroke-linecap="round" stroke-width="0.5" x1="69.8209" x2="63.2657" y1="76.2709" y2="76.2709" /><text font-family="monospace" font-size="2" stroke-width="0.1" text-anchor="middle" x="66.54330546" y="68.793305405">C7</text><line stroke-linecap="round" stroke-width="0.5" x1="49.7657" x2="49.7657" y1="76.2709" y2="61.3157" /><line stroke-linecap="round" stroke-width="0.5" x1="49.7657" x2="56.3209" y1="61.3157" y2="61.3157" /><line stroke-linecap="round" stroke-width="0.5" x1="56.3209" x2="56.3209" y1="61.3157" y2="76.2709" /><line stroke-linecap="round" stroke-width="0.5" x1="56.3209" x2="49.7657" y1="76.2709" y2="76.2709" /><text font-family="monospace" font-size="2" stroke-width="0.1" text-anchor="middle" x="53.04330579" y="68.793305405">C4</text><line stroke-linecap="round" stroke-width="0.5" x1="69.8209" x2="69.8209" y1="16.3157" y2="31.2709" /><line stroke-linecap="round" stroke-width="0.5" x1="69.8209" x2="63.2657" y1="31.2709" y2="31.2709" /><line stroke-linecap="round" stroke-width="0.5" x1="63.2657" x2="63.2657" y1="31.2709" y2="16.3157" /><line stroke-linecap="round" stroke-width="0.5" x1="63.2657" x2="69.8209" y1="16.3157" y2="16.3157" /><text font-family="monospace" font-size="2" stroke-width="0.1" text-anchor="middle" x="66.54330546" y="23.793306505">C9</text></g><g fill="blue" id="bottom_parts" stroke="blue" /></svg>