<?xml version="1.0" encoding="utf-8" ?>
<svg baseProfile="tiny" height="99.786611734" version="1.2" width="90.786611954" xmlns="http://www.w3.org/2000/svg" xmlns:ev="http://www.w3.org/2001/xml-events" xmlns:xlink="http://www.w3.org/1999/xlink"><defs /><g id="paths" stroke="blue"><path d="M 4.893306967,94.893304767 L 85.893304987,94.893304767 L 85.893304987,4.893306967 L 4.893306967,4.893306967 L 4.893306967,94.893304767 Z" fill-opacity="0" stroke-linejoin="round" stroke-width="1.0" /></g><g fill="red" id="holes"><circle cx="81.3933" cy="72.3933" r="1.125" stroke-width="0.0" /><circle cx="36.3933" cy="90.3933" r="1.125" stroke-width="0.0" /><circle cx="13.8933" cy="54.3033" r="1.125" stroke-width="0.0" /><circle cx="81.3933" cy="63.3933" r="1.125" stroke-width="0.0" /><circle cx="63.3933" cy="90.3933" r="1.125" stroke-width="0.0" /><circle cx="63.3933" cy="9.3933" r="1.125" stroke-width="0.0" /><circle cx="54.3933" cy="90.3933" r="1.125" stroke-width="0.0" /><circle cx="81.3933" cy="18.3933" r="1.125" stroke-width="0.0" /><circle cx="45.3933" cy="90.3933" r="1.125" stroke-width="0.0" /><circle cx="9.3933" cy="90.3933" r="1.125" stroke-width="0.0" /><circle cx="54.3933" cy="9.3933" r="1.125" stroke-width="0.0" /><circle cx="81.3933" cy="9.3933" r="1.125" stroke-width="0.0" /><circle cx="72.3933" cy="90.3933" r="1.125" stroke-width="0.0" /><circle cx="81.3933" cy="90.3933" r="1.125" stroke-width="0.0" /><circle cx="81.3933" cy="36.3933" r="1.125" stroke-width="0.0" /><circle cx="27.3933" cy="9.3933" r="1.125" stroke-width="0.0" /><circle cx="81.3933" cy="45.3933" r="1.125" stroke-width="0.0" /><circle cx="72.3933" cy="9.3933" r="1.125" stroke-width="0.0" /><circle cx="18.3933" cy="90.3933" r="1.125" stroke-width="0.0" /><circle cx="27.3933" cy="90.3933" r="1.125" stroke-width="0.0" /><circle cx="81.3933" cy="27.3933" r="1.125" stroke-width="0.0" /><circle cx="13.8933" cy="18.3933" r="1.125" stroke-width="0.0" /><circle cx="9.3933" cy="9.3933" r="1.125" stroke-width="0.0" /><circle cx="18.3933" cy="9.3933" r="1.125" stroke-width="0.0" /><circle cx="36.3933" cy="9.3933" r="1.125" stroke-width="0.0" /><circle cx="13.8933" cy="63.3933" r="1.125" stroke-width="0.0" /><circle cx="81.3933" cy="54.3933" r="1.125" stroke-width="0.0" /><circle cx="45.3933" cy="9.3933" r="1.125" stroke-width="0.0" /><circle cx="81.3933" cy="81.3933" r="1.125" stroke-width="0.0" /></g><g id="rulers" stroke="black" /></svg>