<?xml version='1.0' encoding='UTF-8' standalone='no'?>
<svg xmlns="http://www.w3.org/2000/svg" width="652" height="570" x="0" y="0"><text x="490" y="20" font-size="10" font-family="sans-serif" text-anchor="start" alignment-baseline="hanging">+12V</text><text x="230" y="240" font-size="10" font-family="sans-serif" text-anchor="start" alignment-baseline="hanging">+12V</text><text x="390" y="478" font-size="10" font-family="sans-serif" text-anchor="start" alignment-baseline="hanging">+</text><text x="611" y="150" font-size="10" font-family="sans-serif" text-anchor="end" alignment-baseline="hanging">-12V</text><text x="21" y="220" font-size="10" font-family="sans-serif" text-anchor="start" alignment-baseline="alphabetic" transform="rotate(270 21 220)">-12V</text><text x="415" y="290" font-size="10" font-family="sans-serif" text-anchor="start" alignment-baseline="hanging">10nF</text><text x="491" y="550" font-size="10" font-family="sans-serif" text-anchor="start" alignment-baseline="hanging">GND</text><text x="415" y="500" font-size="10" font-family="sans-serif" text-anchor="start" alignment-baseline="hanging">1uF</text><text x="390" y="268" font-size="10" font-family="sans-serif" text-anchor="start" alignment-baseline="hanging">+</text><text x="615" y="290" font-size="10" font-family="sans-serif" text-anchor="start" alignment-baseline="hanging">10nF</text><text x="201" y="240" font-size="10" font-family="sans-serif" text-anchor="start" alignment-baseline="hanging">+5V</text><text x="515" y="90" font-size="10" font-family="sans-serif" text-anchor="start" alignment-baseline="hanging">100pf</text><text x="391" y="550" font-size="10" font-family="sans-serif" text-anchor="start" alignment-baseline="hanging">GND</text><text x="515" y="70" font-size="10" font-family="sans-serif" text-anchor="start" alignment-baseline="hanging">C2</text><text x="611" y="430" font-size="10" font-family="sans-serif" text-anchor="end" alignment-baseline="hanging">GND</text><text x="611" y="560" font-size="10" font-family="sans-serif" text-anchor="end" alignment-baseline="hanging">-12V</text><text x="491" y="340" font-size="10" font-family="sans-serif" text-anchor="start" alignment-baseline="hanging">GND</text><text x="615" y="90" font-size="10" font-family="sans-serif" text-anchor="start" alignment-baseline="hanging">100pf</text><text x="615" y="480" font-size="10" font-family="sans-serif" text-anchor="start" alignment-baseline="hanging">C9</text><text x="515" y="80" font-size="10" font-family="sans-serif" text-anchor="start" alignment-baseline="hanging">25v</text><text x="615" y="280" font-size="10" font-family="sans-serif" text-anchor="start" alignment-baseline="hanging">25v</text><text x="515" y="290" font-size="10" font-family="sans-serif" text-anchor="start" alignment-baseline="hanging">10nF</text><text x="590" y="268" font-size="10" font-family="sans-serif" text-anchor="start" alignment-baseline="hanging">+</text><text x="611" y="220" font-size="10" font-family="sans-serif" text-anchor="end" alignment-baseline="hanging">GND</text><text x="415" y="70" font-size="10" font-family="sans-serif" text-anchor="start" alignment-baseline="hanging">C1</text><text x="490" y="220" font-size="10" font-family="sans-serif" text-anchor="start" alignment-baseline="hanging">+12V</text><text x="391" y="340" font-size="10" font-family="sans-serif" text-anchor="start" alignment-baseline="hanging">GND</text><text x="515" y="280" font-size="10" font-family="sans-serif" text-anchor="start" alignment-baseline="hanging">25v</text><text x="611" y="20" font-size="10" font-family="sans-serif" text-anchor="end" alignment-baseline="hanging">GND</text><text x="615" y="501" font-size="10" font-family="sans-serif" text-anchor="start" alignment-baseline="hanging">1uF</text><text x="515" y="500" font-size="10" font-family="sans-serif" text-anchor="start" alignment-baseline="hanging">1uF</text><text x="615" y="80" font-size="10" font-family="sans-serif" text-anchor="start" alignment-baseline="hanging">25v</text><text x="46" y="370" font-size="10" font-family="sans serif" text-anchor="start" alignment-baseline="hanging">Eurorack power connector - 16 pin</text><text x="415" y="90" font-size="10" font-family="sans-serif" text-anchor="start" alignment-baseline="hanging">100pf</text><text x="391" y="20" font-size="10" font-family="sans-serif" text-anchor="start" alignment-baseline="hanging">+5V</text><text x="615" y="270" font-size="10" font-family="sans-serif" text-anchor="start" alignment-baseline="hanging">C6</text><text x="490" y="430" font-size="10" font-family="sans-serif" text-anchor="start" alignment-baseline="hanging">+12V</text><text x="391" y="140" font-size="10" font-family="sans-serif" text-anchor="start" alignment-baseline="hanging">GND</text><text x="590" y="478" font-size="10" font-family="sans-serif" text-anchor="start" alignment-baseline="hanging">+</text><text x="615" y="70" font-size="10" font-family="sans-serif" text-anchor="start" alignment-baseline="hanging">C3</text><text x="415" y="270" font-size="10" font-family="sans-serif" text-anchor="start" alignment-baseline="hanging">C4</text><text x="415" y="80" font-size="10" font-family="sans-serif" text-anchor="start" alignment-baseline="hanging">5v</text><text x="490" y="68" font-size="10" font-family="sans-serif" text-anchor="start" alignment-baseline="hanging">+</text><text x="11" y="410" font-size="10" font-family="sans-serif" text-anchor="start" alignment-baseline="hanging">GND</text><text x="391" y="430" font-size="10" font-family="sans-serif" text-anchor="start" alignment-baseline="hanging">+5V</text><text x="515" y="490" font-size="10" font-family="sans-serif" text-anchor="start" alignment-baseline="hanging">25v</text><text x="415" y="490" font-size="10" font-family="sans-serif" text-anchor="start" alignment-baseline="hanging">5v</text><text x="615" y="490" font-size="10" font-family="sans-serif" text-anchor="start" alignment-baseline="hanging">25v</text><text x="490" y="478" font-size="10" font-family="sans-serif" text-anchor="start" alignment-baseline="hanging">+</text><text x="491" y="140" font-size="10" font-family="sans-serif" text-anchor="start" alignment-baseline="hanging">GND</text><text x="490" y="268" font-size="10" font-family="sans-serif" text-anchor="start" alignment-baseline="hanging">+</text><text x="415" y="480" font-size="10" font-family="sans-serif" text-anchor="start" alignment-baseline="hanging">C7</text><text x="611" y="350" font-size="10" font-family="sans-serif" text-anchor="end" alignment-baseline="hanging">-12V</text><text x="391" y="220" font-size="10" font-family="sans-serif" text-anchor="start" alignment-baseline="hanging">+5V</text><text x="590" y="68" font-size="10" font-family="sans-serif" text-anchor="start" alignment-baseline="hanging">+</text><text x="390" y="68" font-size="10" font-family="sans-serif" text-anchor="start" alignment-baseline="hanging">+</text><text x="415" y="280" font-size="10" font-family="sans-serif" text-anchor="start" alignment-baseline="hanging">5v</text><text x="515" y="271" font-size="10" font-family="sans-serif" text-anchor="start" alignment-baseline="hanging">C5</text><text x="515" y="480" font-size="10" font-family="sans-serif" text-anchor="start" alignment-baseline="hanging">C8</text><text x="111" y="160" font-size="10" font-family="sans serif" text-anchor="start" alignment-baseline="hanging">J1</text><line x1="401" y1="50" x2="401" y2="30" stroke-width="2" stroke="black"></line><line x1="401" y1="30" x2="394" y2="37" stroke-width="2" stroke="black"></line><line x1="401" y1="30" x2="408" y2="37" stroke-width="2" stroke="black"></line><line x1="501" y1="110" x2="501" y2="120" stroke-width="2" stroke="black"></line><line x1="491" y1="120" x2="511" y2="120" stroke-width="2" stroke="black"></line><line x1="494" y1="125" x2="508" y2="125" stroke-width="2" stroke="black"></line><line x1="497" y1="130" x2="505" y2="130" stroke-width="2" stroke="black"></line><line x1="401" y1="250" x2="401" y2="230" stroke-width="2" stroke="black"></line><line x1="401" y1="230" x2="394" y2="237" stroke-width="2" stroke="black"></line><line x1="401" y1="230" x2="408" y2="237" stroke-width="2" stroke="black"></line><line x1="501" y1="310" x2="501" y2="320" stroke-width="2" stroke="black"></line><line x1="491" y1="320" x2="511" y2="320" stroke-width="2" stroke="black"></line><line x1="494" y1="325" x2="508" y2="325" stroke-width="2" stroke="black"></line><line x1="497" y1="330" x2="505" y2="330" stroke-width="2" stroke="black"></line><line x1="601" y1="320" x2="601" y2="340" stroke-width="2" stroke="black"></line><line x1="601" y1="340" x2="608" y2="333" stroke-width="2" stroke="black"></line><line x1="601" y1="340" x2="594" y2="333" stroke-width="2" stroke="black"></line><path d="M591,286 C 596,280 606,280 611,286" style="stroke: #000; stroke-width: 1; fill: none;"></path><line x1="591" y1="278" x2="611" y2="278" stroke-width="2" stroke="black"></line><line x1="601" y1="290" x2="601" y2="282" stroke-width="2" stroke="black"></line><line x1="601" y1="278" x2="601" y2="270" stroke-width="2" stroke="black"></line><line x1="401" y1="460" x2="401" y2="440" stroke-width="2" stroke="black"></line><line x1="401" y1="440" x2="394" y2="447" stroke-width="2" stroke="black"></line><line x1="401" y1="440" x2="408" y2="447" stroke-width="2" stroke="black"></line><line x1="21" y1="380" x2="21" y2="390" stroke-width="2" stroke="black"></line><line x1="11" y1="390" x2="31" y2="390" stroke-width="2" stroke="black"></line><line x1="14" y1="395" x2="28" y2="395" stroke-width="2" stroke="black"></line><line x1="17" y1="400" x2="25" y2="400" stroke-width="2" stroke="black"></line><line x1="601" y1="530" x2="601" y2="550" stroke-width="2" stroke="black"></line><line x1="601" y1="550" x2="608" y2="543" stroke-width="2" stroke="black"></line><line x1="601" y1="550" x2="594" y2="543" stroke-width="2" stroke="black"></line><path d="M491,286 C 496,280 506,280 511,286" style="stroke: #000; stroke-width: 1; fill: none;"></path><line x1="491" y1="278" x2="511" y2="278" stroke-width="2" stroke="black"></line><line x1="501" y1="290" x2="501" y2="282" stroke-width="2" stroke="black"></line><line x1="501" y1="278" x2="501" y2="270" stroke-width="2" stroke="black"></line><path d="M591,86 C 596,80 606,80 611,86" style="stroke: #000; stroke-width: 1; fill: none;"></path><line x1="591" y1="78" x2="611" y2="78" stroke-width="2" stroke="black"></line><line x1="601" y1="90" x2="601" y2="82" stroke-width="2" stroke="black"></line><line x1="601" y1="78" x2="601" y2="70" stroke-width="2" stroke="black"></line><line x1="501" y1="460" x2="501" y2="440" stroke-width="2" stroke="black"></line><line x1="501" y1="440" x2="494" y2="447" stroke-width="2" stroke="black"></line><line x1="501" y1="440" x2="508" y2="447" stroke-width="2" stroke="black"></line><line x1="601" y1="250" x2="601" y2="240" stroke-width="2" stroke="black"></line><line x1="611" y1="240" x2="591" y2="240" stroke-width="2" stroke="black"></line><line x1="608" y1="235" x2="594" y2="235" stroke-width="2" stroke="black"></line><line x1="605" y1="230" x2="597" y2="230" stroke-width="2" stroke="black"></line><line x1="601" y1="460" x2="601" y2="450" stroke-width="2" stroke="black"></line><line x1="611" y1="450" x2="591" y2="450" stroke-width="2" stroke="black"></line><line x1="608" y1="445" x2="594" y2="445" stroke-width="2" stroke="black"></line><line x1="605" y1="440" x2="597" y2="440" stroke-width="2" stroke="black"></line><line x1="601" y1="120" x2="601" y2="140" stroke-width="2" stroke="black"></line><line x1="601" y1="140" x2="608" y2="133" stroke-width="2" stroke="black"></line><line x1="601" y1="140" x2="594" y2="133" stroke-width="2" stroke="black"></line><line x1="501" y1="520" x2="501" y2="530" stroke-width="2" stroke="black"></line><line x1="491" y1="530" x2="511" y2="530" stroke-width="2" stroke="black"></line><line x1="494" y1="535" x2="508" y2="535" stroke-width="2" stroke="black"></line><line x1="497" y1="540" x2="505" y2="540" stroke-width="2" stroke="black"></line><line x1="601" y1="50" x2="601" y2="40" stroke-width="2" stroke="black"></line><line x1="611" y1="40" x2="591" y2="40" stroke-width="2" stroke="black"></line><line x1="608" y1="35" x2="594" y2="35" stroke-width="2" stroke="black"></line><line x1="605" y1="30" x2="597" y2="30" stroke-width="2" stroke="black"></line><line x1="178" y1="197" x2="184" y2="203" stroke-width="2" stroke="black"></line><line x1="178" y1="203" x2="184" y2="197" stroke-width="2" stroke="black"></line><line x1="51" y1="210" x2="31" y2="210" stroke-width="2" stroke="black"></line><line x1="31" y1="210" x2="38" y2="217" stroke-width="2" stroke="black"></line><line x1="31" y1="210" x2="38" y2="203" stroke-width="2" stroke="black"></line><line x1="401" y1="520" x2="401" y2="530" stroke-width="2" stroke="black"></line><line x1="391" y1="530" x2="411" y2="530" stroke-width="2" stroke="black"></line><line x1="394" y1="535" x2="408" y2="535" stroke-width="2" stroke="black"></line><line x1="397" y1="540" x2="405" y2="540" stroke-width="2" stroke="black"></line><path d="M391,496 C 396,490 406,490 411,496" style="stroke: #000; stroke-width: 1; fill: none;"></path><line x1="391" y1="488" x2="411" y2="488" stroke-width="2" stroke="black"></line><line x1="401" y1="500" x2="401" y2="492" stroke-width="2" stroke="black"></line><line x1="401" y1="488" x2="401" y2="480" stroke-width="2" stroke="black"></line><line x1="501" y1="50" x2="501" y2="30" stroke-width="2" stroke="black"></line><line x1="501" y1="30" x2="494" y2="37" stroke-width="2" stroke="black"></line><line x1="501" y1="30" x2="508" y2="37" stroke-width="2" stroke="black"></line><path d="M591,496 C 596,490 606,490 611,496" style="stroke: #000; stroke-width: 1; fill: none;"></path><line x1="591" y1="488" x2="611" y2="488" stroke-width="2" stroke="black"></line><line x1="601" y1="500" x2="601" y2="492" stroke-width="2" stroke="black"></line><line x1="601" y1="488" x2="601" y2="480" stroke-width="2" stroke="black"></line><line x1="178" y1="237" x2="184" y2="243" stroke-width="2" stroke="black"></line><line x1="178" y1="243" x2="184" y2="237" stroke-width="2" stroke="black"></line><line x1="178" y1="217" x2="184" y2="223" stroke-width="2" stroke="black"></line><line x1="178" y1="223" x2="184" y2="217" stroke-width="2" stroke="black"></line><path d="M491,86 C 496,80 506,80 511,86" style="stroke: #000; stroke-width: 1; fill: none;"></path><line x1="491" y1="78" x2="511" y2="78" stroke-width="2" stroke="black"></line><line x1="501" y1="90" x2="501" y2="82" stroke-width="2" stroke="black"></line><line x1="501" y1="78" x2="501" y2="70" stroke-width="2" stroke="black"></line><line x1="501" y1="250" x2="501" y2="230" stroke-width="2" stroke="black"></line><line x1="501" y1="230" x2="494" y2="237" stroke-width="2" stroke="black"></line><line x1="501" y1="230" x2="508" y2="237" stroke-width="2" stroke="black"></line><rect width="70" height="170" x="86" y="185" style="stroke: #000; stroke-width: 1; fill: none;"></rect><line x1="156" y1="200" x2="161" y2="200" stroke-width="2" stroke="black"></line><line x1="156" y1="220" x2="161" y2="220" stroke-width="2" stroke="black"></line><line x1="156" y1="240" x2="161" y2="240" stroke-width="2" stroke="black"></line><line x1="156" y1="260" x2="161" y2="260" stroke-width="2" stroke="black"></line><line x1="156" y1="280" x2="161" y2="280" stroke-width="2" stroke="black"></line><line x1="156" y1="300" x2="161" y2="300" stroke-width="2" stroke="black"></line><line x1="156" y1="320" x2="161" y2="320" stroke-width="2" stroke="black"></line><line x1="156" y1="340" x2="161" y2="340" stroke-width="2" stroke="black"></line><line x1="81" y1="200" x2="86" y2="200" stroke-width="2" stroke="black"></line><line x1="81" y1="220" x2="86" y2="220" stroke-width="2" stroke="black"></line><line x1="81" y1="240" x2="86" y2="240" stroke-width="2" stroke="black"></line><line x1="81" y1="260" x2="86" y2="260" stroke-width="2" stroke="black"></line><line x1="81" y1="280" x2="86" y2="280" stroke-width="2" stroke="black"></line><line x1="81" y1="300" x2="86" y2="300" stroke-width="2" stroke="black"></line><line x1="81" y1="320" x2="86" y2="320" stroke-width="2" stroke="black"></line><line x1="81" y1="340" x2="86" y2="340" stroke-width="2" stroke="black"></line><text x="93" y="200" font-size="10" font-family="sans-serif" text-anchor="start" alignment-baseline="middle">-12v</text><text x="93" y="220" font-size="10" font-family="sans-serif" text-anchor="start" alignment-baseline="middle">-12v</text><text x="93" y="240" font-size="10" font-family="sans-serif" text-anchor="start" alignment-baseline="middle">GND</text><text x="93" y="260" font-size="10" font-family="sans-serif" text-anchor="start" alignment-baseline="middle">GND</text><text x="93" y="280" font-size="10" font-family="sans-serif" text-anchor="start" alignment-baseline="middle">GND</text><text x="93" y="300" font-size="10" font-family="sans-serif" text-anchor="start" alignment-baseline="middle">GND</text><text x="93" y="320" font-size="10" font-family="sans-serif" text-anchor="start" alignment-baseline="middle">GND</text><text x="93" y="340" font-size="10" font-family="sans-serif" text-anchor="start" alignment-baseline="middle">GND</text><text x="149" y="340" font-size="10" font-family="sans-serif" text-anchor="end" alignment-baseline="middle">+12v</text><text x="149" y="320" font-size="10" font-family="sans-serif" text-anchor="end" alignment-baseline="middle">+12v</text><text x="149" y="300" font-size="10" font-family="sans-serif" text-anchor="end" alignment-baseline="middle">+5v</text><text x="149" y="280" font-size="10" font-family="sans-serif" text-anchor="end" alignment-baseline="middle">+5v</text><text x="149" y="260" font-size="10" font-family="sans-serif" text-anchor="end" alignment-baseline="middle">CV</text><text x="149" y="240" font-size="10" font-family="sans-serif" text-anchor="end" alignment-baseline="middle">CV</text><text x="149" y="220" font-size="10" font-family="sans-serif" text-anchor="end" alignment-baseline="middle">Gate</text><text x="149" y="200" font-size="10" font-family="sans-serif" text-anchor="end" alignment-baseline="middle">Gate</text><line x1="178" y1="257" x2="184" y2="263" stroke-width="2" stroke="black"></line><line x1="178" y1="263" x2="184" y2="257" stroke-width="2" stroke="black"></line><path d="M391,86 C 396,80 406,80 411,86" style="stroke: #000; stroke-width: 1; fill: none;"></path><line x1="391" y1="78" x2="411" y2="78" stroke-width="2" stroke="black"></line><line x1="401" y1="90" x2="401" y2="82" stroke-width="2" stroke="black"></line><line x1="401" y1="78" x2="401" y2="70" stroke-width="2" stroke="black"></line><path d="M391,286 C 396,280 406,280 411,286" style="stroke: #000; stroke-width: 1; fill: none;"></path><line x1="391" y1="278" x2="411" y2="278" stroke-width="2" stroke="black"></line><line x1="401" y1="290" x2="401" y2="282" stroke-width="2" stroke="black"></line><line x1="401" y1="278" x2="401" y2="270" stroke-width="2" stroke="black"></line><line x1="401" y1="310" x2="401" y2="320" stroke-width="2" stroke="black"></line><line x1="391" y1="320" x2="411" y2="320" stroke-width="2" stroke="black"></line><line x1="394" y1="325" x2="408" y2="325" stroke-width="2" stroke="black"></line><line x1="397" y1="330" x2="405" y2="330" stroke-width="2" stroke="black"></line><line x1="241" y1="270" x2="241" y2="250" stroke-width="2" stroke="black"></line><line x1="241" y1="250" x2="234" y2="257" stroke-width="2" stroke="black"></line><line x1="241" y1="250" x2="248" y2="257" stroke-width="2" stroke="black"></line><path d="M491,496 C 496,490 506,490 511,496" style="stroke: #000; stroke-width: 1; fill: none;"></path><line x1="491" y1="488" x2="511" y2="488" stroke-width="2" stroke="black"></line><line x1="501" y1="500" x2="501" y2="492" stroke-width="2" stroke="black"></line><line x1="501" y1="488" x2="501" y2="480" stroke-width="2" stroke="black"></line><line x1="211" y1="270" x2="211" y2="250" stroke-width="2" stroke="black"></line><line x1="211" y1="250" x2="204" y2="257" stroke-width="2" stroke="black"></line><line x1="211" y1="250" x2="218" y2="257" stroke-width="2" stroke="black"></line><line x1="401" y1="110" x2="401" y2="120" stroke-width="2" stroke="black"></line><line x1="391" y1="120" x2="411" y2="120" stroke-width="2" stroke="black"></line><line x1="394" y1="125" x2="408" y2="125" stroke-width="2" stroke="black"></line><line x1="397" y1="130" x2="405" y2="130" stroke-width="2" stroke="black"></line><circle cx="211" cy="280" r="2" style="stroke: #000; stroke-width: 1; fill: none;"></circle><circle cx="21" cy="320" r="2" style="stroke: #000; stroke-width: 1; fill: none;"></circle><circle cx="241" cy="320" r="2" style="stroke: #000; stroke-width: 1; fill: none;"></circle><circle cx="21" cy="260" r="2" style="stroke: #000; stroke-width: 1; fill: none;"></circle><circle cx="61" cy="210" r="2" style="stroke: #000; stroke-width: 1; fill: none;"></circle><circle cx="21" cy="280" r="2" style="stroke: #000; stroke-width: 1; fill: none;"></circle><circle cx="21" cy="300" r="2" style="stroke: #000; stroke-width: 1; fill: none;"></circle><circle cx="21" cy="340" r="2" style="stroke: #000; stroke-width: 1; fill: none;"></circle><line x1="211" y1="300" x2="211" y2="280" stroke-width="2" stroke="black"></line><line x1="161" y1="280" x2="211" y2="280" stroke-width="2" stroke="black"></line><line x1="601" y1="290" x2="601" y2="320" stroke-width="2" stroke="black"></line><line x1="501" y1="70" x2="501" y2="50" stroke-width="2" stroke="black"></line><line x1="241" y1="320" x2="161" y2="320" stroke-width="2" stroke="black"></line><line x1="241" y1="340" x2="241" y2="320" stroke-width="2" stroke="black"></line><line x1="601" y1="90" x2="601" y2="120" stroke-width="2" stroke="black"></line><line x1="241" y1="270" x2="241" y2="320" stroke-width="2" stroke="black"></line><line x1="401" y1="290" x2="401" y2="310" stroke-width="2" stroke="black"></line><line x1="161" y1="300" x2="211" y2="300" stroke-width="2" stroke="black"></line><line x1="601" y1="60" x2="601" y2="50" stroke-width="2" stroke="black"></line><line x1="601" y1="60" x2="601" y2="70" stroke-width="2" stroke="black"></line><line x1="601" y1="260" x2="601" y2="250" stroke-width="2" stroke="black"></line><line x1="401" y1="520" x2="401" y2="500" stroke-width="2" stroke="black"></line><line x1="161" y1="340" x2="241" y2="340" stroke-width="2" stroke="black"></line><line x1="61" y1="210" x2="51" y2="210" stroke-width="2" stroke="black"></line><line x1="601" y1="470" x2="601" y2="460" stroke-width="2" stroke="black"></line><line x1="601" y1="480" x2="601" y2="470" stroke-width="2" stroke="black"></line><line x1="171" y1="260" x2="161" y2="260" stroke-width="2" stroke="black"></line><line x1="401" y1="270" x2="401" y2="250" stroke-width="2" stroke="black"></line><line x1="211" y1="270" x2="211" y2="280" stroke-width="2" stroke="black"></line><line x1="21" y1="240" x2="21" y2="260" stroke-width="2" stroke="black"></line><line x1="501" y1="290" x2="501" y2="310" stroke-width="2" stroke="black"></line><line x1="601" y1="530" x2="601" y2="500" stroke-width="2" stroke="black"></line><line x1="21" y1="280" x2="81" y2="280" stroke-width="2" stroke="black"></line><line x1="21" y1="280" x2="21" y2="290" stroke-width="2" stroke="black"></line><line x1="21" y1="280" x2="21" y2="260" stroke-width="2" stroke="black"></line><line x1="501" y1="510" x2="501" y2="500" stroke-width="2" stroke="black"></line><line x1="21" y1="300" x2="81" y2="300" stroke-width="2" stroke="black"></line><line x1="21" y1="300" x2="21" y2="320" stroke-width="2" stroke="black"></line><line x1="21" y1="300" x2="21" y2="290" stroke-width="2" stroke="black"></line><line x1="81" y1="320" x2="21" y2="320" stroke-width="2" stroke="black"></line><line x1="81" y1="240" x2="21" y2="240" stroke-width="2" stroke="black"></line><line x1="501" y1="520" x2="501" y2="510" stroke-width="2" stroke="black"></line><line x1="161" y1="220" x2="171" y2="220" stroke-width="2" stroke="black"></line><line x1="61" y1="200" x2="61" y2="210" stroke-width="2" stroke="black"></line><line x1="61" y1="200" x2="81" y2="200" stroke-width="2" stroke="black"></line><line x1="171" y1="200" x2="181" y2="200" stroke-width="2" stroke="black"></line><line x1="171" y1="200" x2="161" y2="200" stroke-width="2" stroke="black"></line><line x1="501" y1="250" x2="501" y2="270" stroke-width="2" stroke="black"></line><line x1="601" y1="270" x2="601" y2="260" stroke-width="2" stroke="black"></line><line x1="81" y1="260" x2="21" y2="260" stroke-width="2" stroke="black"></line><line x1="181" y1="260" x2="171" y2="260" stroke-width="2" stroke="black"></line><line x1="401" y1="480" x2="401" y2="460" stroke-width="2" stroke="black"></line><line x1="61" y1="220" x2="61" y2="210" stroke-width="2" stroke="black"></line><line x1="61" y1="220" x2="81" y2="220" stroke-width="2" stroke="black"></line><line x1="501" y1="460" x2="501" y2="480" stroke-width="2" stroke="black"></line><line x1="501" y1="110" x2="501" y2="90" stroke-width="2" stroke="black"></line><line x1="181" y1="220" x2="171" y2="220" stroke-width="2" stroke="black"></line><line x1="401" y1="90" x2="401" y2="110" stroke-width="2" stroke="black"></line><line x1="21" y1="340" x2="21" y2="380" stroke-width="2" stroke="black"></line><line x1="21" y1="340" x2="81" y2="340" stroke-width="2" stroke="black"></line><line x1="21" y1="340" x2="21" y2="320" stroke-width="2" stroke="black"></line><line x1="401" y1="70" x2="401" y2="50" stroke-width="2" stroke="black"></line><line x1="171" y1="240" x2="181" y2="240" stroke-width="2" stroke="black"></line><line x1="171" y1="240" x2="161" y2="240" stroke-width="2" stroke="black"></line></svg>